<?xml version="1.0" encoding="UTF-8"?> <svg xmlns="http://www.w3.org/2000/svg" xmlns:xlink="http://www.w3.org/1999/xlink" version="1.1" id="Layer_1" x="0px" y="0px" viewBox="0 0 100 100" style="enable-background:new 0 0 100 100;" xml:space="preserve"> <g> <g> <g> <path style="fill:#FFFFFF;" d="M40.6,42.5c0,0.1-0.3,0.1-0.4,0C40.4,42.5,40.5,42.5,40.6,42.5z"></path> <path style="fill:#FFFFFF;" d="M58.6,42.5C58.6,42.5,58.6,42.5,58.6,42.5c-0.1,0-0.2,0-0.3,0c0,0,0,0,0,0 C58.3,42.5,58.4,42.5,58.6,42.5z"></path> <path style="fill:#FFFFFF;" d="M58.2,42.5C58.2,42.5,58.2,42.5,58.2,42.5C58.2,42.5,58.2,42.5,58.2,42.5 C58.2,42.5,58.2,42.5,58.2,42.5z"></path> <path style="fill:#FFFFFF;" d="M79.4,47.9c-0.1,0.2-0.1,0.5-0.1,0.8c-0.1,0.2,0,0.5-0.1,0.7c-0.1,0.3-0.1,0.6-0.1,0.9 c0,0.3-0.1,0.6-0.1,0.8c0,0.1-0.1,0.3-0.1,0.4c0,0.1,0,0.3,0,0.4c0,0.3-0.1,0.7-0.1,1c-0.1,0.3-0.1,0.7-0.1,1 c0,0.1,0,0.2-0.1,0.4c0,0.1-0.1,0.1-0.1,0.1c-0.2,0-0.5,0-0.7,0c-0.5,0-1-0.1-1.4-0.1c-0.4,0-0.8,0-1.3,0c-0.1,0-0.2,0-0.2,0 c-0.1,0-0.1,0-0.1-0.1c-0.1-0.3-0.1-0.6-0.2-0.9c0-0.2-0.1-0.4-0.1-0.6c-0.1-0.2-0.1-0.5-0.2-0.7c0-0.2-0.1-0.4-0.1-0.6 c-0.1-0.3-0.1-0.5-0.2-0.8c-0.1-0.3-0.2-0.6-0.2-0.9c0-0.1-0.1-0.2-0.1-0.3c0-0.2-0.1-0.3-0.1-0.5c0-0.2-0.1-0.4-0.1-0.6 c0-0.2-0.1-0.4-0.1-0.6c0-0.2-0.1-0.4-0.1-0.6c0-0.1-0.1-0.3-0.1-0.4c0-0.2-0.1-0.4-0.1-0.5c0,0,0,0,0-0.1c0-0.1,0-0.3-0.1-0.4 c0-0.1,0-0.2-0.1-0.3c0,0,0,0,0-0.1c0-0.1-0.1-0.3-0.1-0.4c0-0.1,0-0.2-0.1-0.3c-0.1-0.3-0.1-0.6-0.2-0.9 c-0.1-0.3-0.1-0.6-0.2-0.9c0-0.1,0-0.1,0.1-0.1c1.1,0,2.2,0,3.3,0c0.1,0,0.1,0.1,0.1,0.1c0.1,0.4,0.1,0.8,0.2,1.1 c0,0.3,0.1,0.5,0.1,0.8c0,0.2,0.1,0.5,0.1,0.7c0,0.2,0.1,0.3,0.1,0.5c0,0.2,0.1,0.5,0.1,0.7c0,0.2,0.1,0.5,0.1,0.7 c0,0.2,0,0.3,0.1,0.5c0,0,0,0,0,0c0,0.2,0.1,0.4,0.1,0.6c0,0.2,0.1,0.3,0.1,0.5c0,0.1,0,0.3,0.1,0.4c0,0.2,0,0.5,0.1,0.7 c0,0,0,0.1,0,0.1c0,0,0,0.1,0,0.1c0,0,0,0.1,0.1,0.1c0,0,0,0.1,0,0.1c0,0,0,0,0,0.1c0,0,0.1,0.1,0.1,0.1c0,0,0,0,0.1,0 c0-0.1,0-0.1,0-0.2c0,0,0-0.1,0-0.1c0-0.2,0-0.4,0.1-0.7c0-0.2,0-0.5,0.1-0.7c0-0.2,0-0.4,0.1-0.6c0-0.2,0.1-0.5,0.1-0.7 c0-0.1,0-0.3,0.1-0.4c0-0.2,0-0.3,0.1-0.5c0-0.1,0-0.2,0.1-0.3c0,0,0-0.1,0-0.1c0,0,0.1,0,0,0c0-0.1,0-0.2,0-0.3 c0-0.2,0.1-0.5,0.1-0.7c0-0.2,0-0.3,0.1-0.5c0-0.1,0.1-0.3,0.1-0.4c0-0.1,0-0.3,0.1-0.4c0-0.1,0-0.2,0.1-0.3c0-0.1,0-0.2,0.1-0.4 c0-0.1,0-0.1,0-0.2c0,0,0-0.1,0-0.1c0-0.2,0.1-0.3,0.1-0.5c0-0.1,0-0.1,0.1-0.1c1,0,1.9,0,2.9,0c0.1,0,0.1,0,0.1,0.1 c0,0.3,0.1,0.5,0.1,0.8c0.1,0.4,0.1,0.8,0.2,1.1c0.1,0.3,0.1,0.7,0.2,1c0.1,0.4,0.1,0.7,0.2,1.1c0.1,0.3,0.1,0.6,0.2,0.9 c0,0.2,0.1,0.4,0.1,0.7c0,0.2,0.1,0.4,0.1,0.7c0,0.2,0,0.4,0.1,0.6c0,0.2,0,0.4,0.1,0.6c0,0.1,0,0.2,0,0.2c0,0.1,0,0.2,0,0.3 c0,0,0,0,0,0c0,0,0,0.1,0,0.1c0,0,0,0,0,0c0,0,0,0,0,0c0,0,0,0,0,0c0,0,0,0,0,0c0,0,0,0,0,0c0-0.1,0-0.1,0-0.2c0,0,0.1-0.1,0-0.1 c0-0.3,0-0.5,0-0.8c0-0.3,0.1-0.6,0.1-0.9c0-0.2,0-0.5,0.1-0.7c0-0.2,0.1-0.5,0.1-0.7c0,0,0,0,0,0c0-0.2,0-0.3,0.1-0.5 c0,0,0,0,0,0c0-0.1,0-0.2,0-0.4c0,0,0-0.1,0-0.1c0,0,0,0,0,0c0-0.1,0-0.2,0-0.3c0-0.1,0-0.1,0-0.1c0,0,0.1,0,0,0 c0-0.1,0-0.2,0-0.3c0-0.2,0.1-0.4,0.1-0.6c0,0,0.1,0,0,0c0-0.1,0-0.2,0-0.4c0,0,0-0.1,0-0.1c0,0,0,0,0,0c0.1-0.1,0.1-0.3,0.1-0.4 c0-0.2,0.1-0.4,0.1-0.5c0-0.1,0-0.2,0-0.3c0,0,0,0,0,0c0-0.1,0-0.2,0-0.3c0,0,0,0,0,0c0,0,0,0,0.1,0c1.1,0,2.1,0,3.2,0 c0,0,0,0,0,0c0,0,0,0.1,0,0.1c-0.1,0.5-0.2,0.9-0.3,1.4c-0.1,0.4-0.1,0.7-0.2,1.1c-0.1,0.4-0.2,0.8-0.3,1.2 c-0.1,0.6-0.2,1.2-0.4,1.8c-0.1,0.4-0.2,0.8-0.2,1.2c-0.1,0.5-0.2,1-0.3,1.5c-0.1,0.4-0.2,0.9-0.3,1.3c-0.1,0.5-0.2,1.1-0.3,1.6 c0,0.2-0.1,0.4-0.1,0.6c0,0.1,0,0.1-0.1,0.1c-0.2,0-0.4,0-0.7,0c-0.4,0-0.8,0-1.2-0.1c-0.3,0-0.6,0-0.9,0c-0.3,0-0.6,0-0.9-0.1 c0,0,0,0,0,0c0-0.2-0.1-0.4-0.1-0.6c0,0,0,0,0,0c0-0.2-0.1-0.5-0.1-0.7c0-0.2-0.1-0.4-0.1-0.6c-0.1-0.4-0.1-0.7-0.2-1.1 c-0.1-0.3-0.1-0.7-0.2-1c0-0.3-0.1-0.6-0.1-0.8c0-0.3-0.1-0.6-0.1-0.9c0-0.3,0-0.5-0.1-0.8c0-0.1-0.1-0.2-0.1-0.3c0,0,0,0,0-0.1 c0,0,0,0,0,0c0,0,0,0-0.1,0.1c0,0,0,0,0,0C79.4,47.8,79.4,47.8,79.4,47.9C79.4,47.8,79.4,47.8,79.4,47.9L79.4,47.9 C79.4,47.9,79.4,47.9,79.4,47.9C79.4,47.9,79.4,47.9,79.4,47.9z"></path> <path style="fill:#FFFFFF;" d="M64.1,46.1C64.1,46,64.1,46,64.1,46.1C64.2,46,64.2,46,64.1,46.1c0.1-0.2,0.1-0.3,0.1-0.4 c0-0.1,0.1-0.3,0.1-0.4c0,0,0,0,0,0c0-0.2,0.1-0.3,0.1-0.5c0,0,0-0.1,0-0.1c0,0,0,0,0,0c0-0.1,0-0.1,0-0.2c0.1-0.3,0.2-0.7,0.2-1 c0-0.1,0.1-0.1,0-0.2c0,0,0,0,0,0c0-0.1,0-0.1,0-0.2c0-0.1,0.1-0.2,0.1-0.4c0,0,0,0,0,0c0,0,0.1,0,0.1,0c1.3,0,2.7,0,4,0 c0.1,0,0.2,0,0.2,0.1c0,0.2,0.1,0.4,0.1,0.6c0,0,0,0,0,0c0.1,0.4,0.2,0.7,0.2,1.1c0,0.2,0.1,0.4,0.1,0.6c0.1,0.3,0.1,0.7,0.2,1 c0.1,0.2,0.1,0.5,0.2,0.7c0,0,0,0,0,0c0,0,0,0,0,0c0.1,0.3,0.1,0.5,0.2,0.8c0,0.2,0.1,0.4,0.1,0.6c0,0.1,0,0.1,0,0.2c0,0,0,0,0,0 c0,0,0,0,0,0c0.1,0.3,0.1,0.7,0.2,1c0.1,0.3,0.1,0.6,0.2,0.9c0.1,0.5,0.2,1.1,0.3,1.6c0,0.3,0.1,0.6,0.2,0.8 c0,0.2,0.1,0.5,0.1,0.7c0,0.2,0.1,0.5,0.2,0.7c0,0.1,0,0.1-0.1,0.1c-0.3,0-0.5,0-0.8,0c-0.7-0.1-1.4-0.1-2.2-0.1 c-0.4,0-0.8,0-1.2-0.1c-0.3,0-0.6,0-0.8,0c-0.2,0-0.4,0-0.6,0c-0.1,0-0.2,0-0.3,0c-0.4,0-0.9,0-1.3,0c-0.4,0-0.8,0-1.2-0.1 c-0.3,0-0.5,0-0.8,0c0,0,0,0,0,0c0,0,0,0,0,0c0,0,0,0,0,0c0,0,0,0,0,0c0,0,0,0,0,0c0-0.2,0.1-0.4,0.1-0.5c0,0,0-0.1,0-0.1 c0,0,0,0,0,0c0-0.1,0-0.2,0.1-0.2c0,0,0-0.1,0-0.1c0,0,0,0,0,0c0.1-0.3,0.1-0.6,0.2-0.8c0.1-0.3,0.1-0.6,0.2-0.9 c0.1-0.6,0.3-1.1,0.4-1.7c0.1-0.4,0.2-0.9,0.3-1.3c0,0,0,0,0,0c0,0,0,0,0,0c0-0.1,0.1-0.2,0.1-0.4c0,0,0,0,0,0 c0.1-0.2,0.1-0.5,0.2-0.7C64,46.7,64.1,46.4,64.1,46.1C64.2,46.1,64.2,46.1,64.1,46.1z M67,46C67,46,67,46,67,46 C67,46,67,46,67,46C67,45.9,67,45.9,67,46C67,45.9,66.9,46,67,46C67,46,67,46,67,46c0,0.1,0,0.1,0,0.1c0,0,0,0,0,0 c0,0.1,0,0.1,0,0.2c0,0,0,0,0,0c0,0,0,0,0,0c-0.1,0.4-0.1,0.8-0.2,1.3c0,0,0,0,0,0c0,0,0,0,0,0c0,0.2-0.1,0.4-0.1,0.6 c0,0.2-0.1,0.3-0.1,0.5c0,0.2-0.1,0.4-0.1,0.6c0,0.3-0.1,0.6-0.2,0.9c-0.1,0.4-0.1,0.7-0.2,1.1c0,0.1,0,0.1,0.1,0.1 c0.1,0,0.1,0,0.2,0c0.4,0,0.8,0,1.1,0c0,0,0.1,0,0.1-0.1c0-0.1-0.1-0.3-0.1-0.4c0-0.1-0.1-0.2-0.1-0.3c0-0.1,0-0.2,0-0.2 c0-0.2-0.1-0.3-0.1-0.5c0-0.3-0.1-0.5-0.1-0.8c0-0.2-0.1-0.5-0.1-0.7c0-0.2,0-0.4-0.1-0.6c0-0.2-0.1-0.4-0.1-0.7 C67.1,46.6,67,46.3,67,46C67.1,46,67,46,67,46z"></path> <path style="fill:#FFFFFF;" d="M47.5,48.3c0,0,0-0.1,0-0.1c0,0,0,0,0,0c0,0,0,0,0,0c0,0,0,0,0,0c0,0,0,0,0,0 c0-0.1,0.1-0.2,0.1-0.3c0,0,0,0,0,0c0.1-0.3,0.3-0.7,0.4-1c0.3-0.8,0.6-1.5,0.8-2.3c0.2-0.4,0.3-0.9,0.5-1.3 c0-0.1,0.1-0.2,0.1-0.3c0,0,0,0,0,0c0.2,0,0.3,0,0.5,0c1,0,2,0,3,0c0,0,0.1,0,0.1,0c0,0,0,0,0,0c0,0.1-0.1,0.3-0.2,0.4 c-0.3,0.6-0.6,1.3-0.8,1.9c-0.2,0.4-0.4,0.8-0.5,1.2c-0.2,0.5-0.5,1.1-0.7,1.6c-0.2,0.4-0.3,0.7-0.5,1.1c0,0,0,0.1,0,0.1 c0,0,0,0,0,0l0,0c0,0,0,0,0,0c0,0,0,0,0,0c0,0,0,0,0,0c0.3,0.6,0.5,1.2,0.8,1.7c0.3,0.7,0.7,1.4,1,2.1c0.1,0.2,0.2,0.4,0.3,0.6 c0,0,0,0.1,0,0.1c-0.1,0-0.2,0-0.3,0c-0.3,0-0.5,0-0.8,0c-0.4,0-0.8,0-1.3-0.1c-0.3,0-0.5,0-0.8,0c-0.1,0-0.2,0-0.3,0 c0,0-0.1,0-0.1-0.1c0,0,0,0,0,0c0,0,0,0,0,0c-0.1-0.2-0.1-0.3-0.2-0.5c0,0,0,0,0,0c0,0,0,0,0,0c0,0,0-0.1,0-0.1 c0-0.1-0.1-0.3-0.1-0.4c-0.2-0.5-0.4-0.9-0.5-1.4c-0.1-0.3-0.2-0.6-0.3-0.9c0-0.1-0.1-0.2-0.1-0.3c0,0,0-0.1,0,0c0,0,0,0,0,0.1 c0,0.3,0,0.6,0,0.9c0,0.4,0,0.7,0,1.1c0,0.1,0,0.1,0,0.2c0,0-0.1,0-0.1,0.1c0,0.2,0,0.3,0,0.5c0,0,0,0.1,0.1,0.1 c0,0.2,0,0.4,0,0.6c0,0.1,0,0.1-0.1,0.1c-0.3,0-0.6,0-0.9-0.1c-0.3,0-0.6,0-1,0c-0.2,0-0.4,0-0.6,0c-0.3,0-0.6-0.1-0.9,0 c0,0-0.1,0-0.1-0.1c0,0,0,0,0-0.1c0-3.4,0-6.8,0-10.3c0-0.1,0-0.1,0.1-0.1c1.1,0,2.2,0,3.3,0c0.1,0,0.1,0,0.1,0.1 c0,0.7,0,1.4,0,2.1c0,0.4,0,0.8,0,1.2c0,0.4,0,0.8,0,1.2c0,0.3,0,0.6,0,0.8c0,0,0,0,0,0C47.5,48.2,47.5,48.2,47.5,48.3 C47.5,48.3,47.4,48.3,47.5,48.3C47.5,48.3,47.5,48.3,47.5,48.3C47.5,48.3,47.5,48.3,47.5,48.3z"></path> <path style="fill:#FFFFFF;" d="M17.7,47.4c0.5,0,1,0,1.6,0c0.1,0,0.1,0,0.1-0.1c0-1.5,0-2.9,0-4.4c0-0.1,0-0.1,0.1-0.1 c1.1,0,2.2,0,3.2,0c0.1,0,0.1,0,0.1,0.1c0,3.2,0,6.3,0,9.5c0,0.1,0,0.1-0.1,0.1c-0.5,0-0.9,0-1.4,0c-0.2,0-0.5,0-0.7,0 c-0.1,0-0.2,0-0.2,0c-0.3,0-0.6,0-0.9,0c-0.1,0-0.1,0-0.1-0.1c0-0.5,0-1,0-1.4c0-0.4,0-0.3-0.3-0.3c-0.4,0-0.9,0-1.3,0 c-0.1,0-0.1,0-0.1,0.1c0,0.5,0,1,0,1.5c0,0.1,0,0.1-0.1,0.1c-0.4,0-0.8,0-1.2-0.1c-0.5,0-0.9,0-1.4,0c-0.2,0-0.5,0-0.7,0 c-0.1,0-0.1,0-0.1-0.1c0-0.2,0-0.4,0-0.6c0-2.8,0-5.7,0-8.5c0-0.1,0-0.1,0.1-0.1c1.1,0,2.2,0,3.3,0c0.1,0,0.1,0,0.1,0.1 c0,1.4,0,2.9,0,4.3C17.7,47.2,17.7,47.3,17.7,47.4C17.7,47.4,17.7,47.4,17.7,47.4z"></path> <path style="fill:#FFFFFF;" d="M26.6,44.6c0-0.1,0.1-0.2,0.1-0.4c0.1-0.4,0.2-0.8,0.3-1.3c0,0,0,0,0,0c0-0.1,0-0.1,0.2-0.1 c1.3,0,2.7,0,4,0c0.1,0,0.1,0,0.1,0.1c0,0.1,0,0.2,0,0.3c0,0,0,0,0,0c0,0.3,0.1,0.5,0.2,0.8c0.1,0.4,0.2,0.8,0.3,1.2 c0.1,0.4,0.1,0.7,0.2,1.1c0,0.3,0.1,0.5,0.2,0.8c0.1,0.3,0.1,0.6,0.2,0.9c0.1,0.3,0.1,0.6,0.2,0.8c0.1,0.5,0.2,0.9,0.3,1.4 c0,0.1,0.1,0.3,0.1,0.4c0.1,0.6,0.3,1.2,0.4,1.8c0,0.1,0,0.2,0,0.2c0,0.1,0,0.1-0.1,0.1c-0.1,0-0.2,0-0.3,0c-0.3,0-0.6,0-1,0 c-0.4,0-0.8,0-1.2-0.1c-0.3,0-0.6,0-0.8,0c-0.3,0-0.7-0.1-1-0.1c-0.4,0-0.8,0-1.3,0c-0.3,0-0.6,0-0.9-0.1c-0.4,0-0.8,0-1.2,0 c-0.3,0-0.6,0-0.9-0.1c-0.1,0-0.1,0-0.1-0.1c0.1-0.2,0.1-0.4,0.2-0.7c0.1-0.4,0.2-0.7,0.3-1.1c0.1-0.5,0.2-0.9,0.3-1.4 c0.1-0.4,0.2-0.8,0.3-1.2c0-0.1,0.1-0.3,0.1-0.4c0,0,0,0,0,0c0.1-0.3,0.1-0.6,0.2-0.9c0.1-0.4,0.2-0.7,0.3-1.1 c0-0.2,0.1-0.3,0.1-0.4C26.5,45,26.6,44.8,26.6,44.6C26.6,44.6,26.6,44.6,26.6,44.6z M29.2,46.2C29.2,46.2,29.2,46.2,29.2,46.2 C29.2,46.2,29.2,46.2,29.2,46.2c-0.1-0.1,0-0.2,0-0.2c0,0,0-0.1,0-0.1c-0.1,0,0,0.1,0,0.1c0,0.1,0,0.2,0,0.4c0,0,0,0,0,0 c0,0,0,0,0,0c0,0,0,0,0,0c0,0,0,0,0,0c0,0.1,0,0.2,0,0.3c0,0.2,0,0.4-0.1,0.6c0,0.2-0.1,0.5-0.1,0.7c0,0.2-0.1,0.5-0.1,0.7 c0,0.3-0.1,0.6-0.1,0.9c0,0.3-0.1,0.5-0.1,0.8c0,0.3-0.1,0.6-0.2,0.8c0,0,0,0.1,0.1,0.1c0.5,0,0.9,0,1.4,0c0.1,0,0.1,0,0.1-0.1 c0-0.1,0-0.1,0-0.2c-0.1-0.2,0-0.4-0.1-0.6c0-0.2-0.1-0.3-0.1-0.5c0-0.1-0.1-0.3-0.1-0.4c0-0.1,0-0.3,0-0.4c0-0.2,0-0.4-0.1-0.6 c0-0.1,0-0.3,0-0.4c-0.1-0.3-0.1-0.5-0.1-0.8c0-0.2,0-0.3,0-0.5C29.2,46.7,29.2,46.5,29.2,46.2z"></path> <path style="fill:#FFFFFF;" d="M58.3,42.6c0.1,0,0.2,0,0.3,0c0,0,0,0,0.1,0c0,0,0.1,0,0.1,0c0.1,0,0.1,0,0.2,0 c0.2,0,0.3,0,0.5,0.1c0.4,0.1,0.8,0.3,1.2,0.4c0.1,0,0.2,0.1,0.2,0.1c0,0,0,0.1,0,0.1c0,0.3,0,0.6,0,1c0,0.9,0,1.8,0,2.7 c0,0,0,0,0,0c0,0,0,0,0,0.1c-0.1-0.1-0.2-0.3-0.4-0.4c-0.3-0.3-0.6-0.5-1-0.7c-0.4-0.1-0.7-0.2-1.1,0c-0.5,0.2-0.7,0.6-0.5,1.1 c0.1,0.3,0.4,0.5,0.6,0.7c0.5,0.4,1.1,0.7,1.5,1.2c0.4,0.4,0.7,0.9,0.9,1.5c0.1,0.2,0.1,0.5,0.2,0.7c0,0.2,0.1,0.5,0.1,0.7 c0,0.3-0.1,0.5-0.1,0.8c-0.1,0.4-0.2,0.8-0.4,1.2c-0.1,0.2-0.1,0.2-0.2,0.2c-0.2,0-0.4,0-0.7,0c-0.2,0-0.5,0-0.7,0 c-0.2,0-0.4,0-0.6,0c-0.3,0-0.6,0-0.9,0c-0.4,0-0.8,0-1.2-0.1c-0.3,0-0.6,0-0.9,0c-0.2,0-0.5-0.1-0.7,0c-0.1,0-0.3,0-0.4,0 c0,0-0.1,0-0.1-0.1c0-0.7,0-1.3,0-2c0,0,0,0,0,0c0.2,0.3,0.4,0.5,0.6,0.7c0.3,0.3,0.7,0.5,1.2,0.6c0.4,0.1,0.7,0.1,1.1-0.1 c0.1-0.1,0.2-0.2,0.3-0.3c0,0,0,0,0,0c0,0,0,0,0,0c0,0,0,0,0,0c0-0.1,0.1-0.2,0.1-0.3c0-0.3-0.1-0.5-0.3-0.7 c-0.2-0.2-0.3-0.3-0.5-0.4c0,0,0,0,0,0c0,0,0,0,0,0c0,0,0,0,0,0c-0.1-0.1-0.1-0.1-0.2-0.2c0,0,0,0,0,0c0,0,0,0,0,0c0,0,0,0,0,0 c-0.2-0.2-0.4-0.3-0.6-0.5c-0.2-0.2-0.5-0.4-0.7-0.7c-0.3-0.4-0.5-0.8-0.7-1.3c0,0,0,0,0,0c0-0.1-0.1-0.3-0.1-0.4 c0-0.1,0-0.3,0-0.4c0-0.1,0-0.2,0-0.4c0-0.2,0-0.4,0.1-0.6c0.1-0.7,0.3-1.4,0.7-2c0.3-0.5,0.7-0.9,1.2-1.2 c0.3-0.2,0.7-0.4,1.1-0.5c0.1,0,0.3,0,0.4-0.1C58,42.7,58.2,42.7,58.3,42.6z"></path> <path style="fill:#FFFFFF;" d="M42,52.2C42,52.2,42,52.1,42,52.2C42,52.1,42,52.1,42,52.2c0.1-0.1,0.2-0.1,0.2-0.2c0,0,0,0,0,0 c0,0,0,0,0,0c0,0,0,0,0.1,0c0,0.4,0,0.8,0,1.2c0,0.1,0,0.1-0.1,0.1c-0.5,0-1.1,0-1.6,0c-0.1,0-0.2,0-0.3,0c0-0.1,0,0-0.1,0 c-0.3,0-0.6,0-0.8,0c-0.3,0-0.6,0-1,0c-0.3,0-0.6-0.1-0.9-0.1c-0.4,0-0.8,0-1.2,0c-0.1,0-0.2,0-0.4,0c0,0,0,0,0,0c0,0,0,0,0,0 c0,0-0.1,0-0.1,0c-0.1,0-0.2,0-0.4,0c-0.1,0-0.1-0.1-0.1-0.1c0,0,0,0,0,0c0-0.1-0.1-0.2-0.1-0.3c-0.2-0.4-0.3-0.9-0.4-1.3 c-0.1-0.3-0.1-0.5-0.1-0.8c-0.1-0.6,0-1.2-0.1-1.8c0-0.1,0-0.1,0-0.2c0-0.1,0-0.3,0-0.4c0-0.2,0.1-0.4,0.1-0.5 c0-0.3,0.1-0.6,0.2-0.9c0.2-0.6,0.4-1.1,0.7-1.6c0.3-0.5,0.7-0.9,1.1-1.2c0.4-0.4,0.9-0.6,1.4-0.8c0.3-0.1,0.6-0.2,1-0.3 c0.2,0,0.4-0.1,0.6-0.1c0.4,0,0.8,0,1.2,0c0.4,0,0.7,0.1,1.1,0.2c0,0,0.1,0,0.1,0.1c0,1.2,0,2.4,0,3.6c0,0,0,0,0,0 c-0.1-0.1-0.3-0.3-0.4-0.4c-0.2-0.2-0.5-0.3-0.8-0.3c-0.8-0.2-1.5,0.1-2,0.7c-0.3,0.4-0.4,0.8-0.5,1.2c-0.1,0.2-0.1,0.5-0.1,0.7 c-0.1,0.5,0,1,0,1.4c0,0.3,0.1,0.6,0.1,0.9c0.1,0.3,0.2,0.7,0.4,1c0,0,0,0,0,0.1c0,0,0,0,0,0c0.1,0.2,0.3,0.4,0.5,0.5 c0.5,0.4,1.1,0.4,1.8,0.2C41.4,52.5,41.7,52.4,42,52.2C41.9,52.2,41.9,52.2,42,52.2C41.9,52.2,41.9,52.2,42,52.2 C42,52.2,42,52.2,42,52.2z"></path> <path style="fill:#FFFFFF;" d="M32.8,56.1c0,0-0.1,0-0.1,0c-1.1,0-2.2,0-3.3,0c-0.2,0-0.2,0-0.2-0.2c-0.1-0.3-0.1-0.6-0.2-0.9 c0-0.1,0-0.3,0-0.4c0,0,0,0,0-0.1c0-0.1,0-0.1-0.2-0.1c-0.7,0-1.4,0-2.2,0c-0.1,0-0.1,0-0.1,0.1c0,0.2-0.1,0.4-0.1,0.7 c0,0.3-0.1,0.5-0.1,0.8c0,0.1,0,0.1-0.1,0.1c-1.1,0-2.2,0-3.3,0c-0.1,0-0.1,0-0.1-0.1c0.1-0.5,0.3-1.1,0.4-1.6 c0.1-0.3,0.1-0.6,0.2-0.9c0-0.2,0.1-0.3,0.1-0.5c0,0,0,0,0.1,0c0.3,0,0.5,0,0.8,0c0,0,0.1,0,0.1,0c0.6,0,1.3,0,1.9,0.1 c0.5,0,1,0,1.5,0.1c0.2,0,0.4,0,0.6,0c0.4,0,0.8,0,1.2,0.1c0.3,0,0.6,0,0.9,0c0.2,0,0.4,0,0.5,0.1c0,0,0,0,0.1,0 c0.4,0,0.7,0,1.1,0c0.1,0,0.1,0,0.1,0.1c0,0.1,0.1,0.3,0.1,0.4c0.1,0.2,0.1,0.5,0.2,0.7c0,0.1,0,0.2,0,0.3c0,0.2,0.1,0.4,0.1,0.6 c0,0.2,0.1,0.4,0.1,0.5C32.7,55.9,32.8,56,32.8,56.1z"></path> <path style="fill:#FFFFFF;" d="M34.6,53.3c0.3,0,0.6,0,1,0.1c0.5,0,0.9,0,1.4,0c0.2,0,0.3,0,0.5,0c0.5,0,1.1,0,1.6,0 c0.5,0,1.1,0,1.6,0.1c0.1,0,0.2,0,0.4,0c0,0,0.1,0,0.1,0.1c0,0.2,0,0.4-0.1,0.6c0,0,0,0,0,0c0,0.3,0,0.5,0,0.8c0,0.2,0,0.5,0,0.7 c0,0.1,0,0.1-0.1,0.1c-0.4,0.1-0.7,0.2-1.1,0.3c-0.2,0.1-0.4,0.1-0.7,0.1c-0.1,0-0.3,0-0.4,0c-0.5,0-1-0.1-1.5-0.3 c-0.2-0.1-0.3-0.1-0.5-0.2c-0.3-0.2-0.7-0.4-1-0.6c-0.4-0.3-0.7-0.7-1-1.1c-0.2-0.2-0.3-0.5-0.4-0.7c0,0,0-0.1,0-0.1 C34.4,53.3,34.5,53.3,34.6,53.3z"></path> <path style="fill:#FFFFFF;" d="M42.2,60.4c-0.1,0.4-0.2,0.7-0.2,1.1c-0.1,0.4-0.1,0.8-0.2,1.2c0,0.1,0,0.1,0,0.2 c0,0.1,0,0.1-0.1,0.1c-0.3,0-0.6,0-1,0c-0.1,0-0.1,0,0-0.1c0.1-0.1,0-0.2,0.1-0.3c0-0.2,0.1-0.4,0.1-0.6c0-0.2,0.1-0.4,0.1-0.6 c0-0.1,0-0.2,0.1-0.4c0-0.1,0.1-0.3,0.1-0.4c0-0.1,0-0.2,0-0.2c0-0.2,0.1-0.4,0.1-0.7c0-0.2,0.1-0.4,0.1-0.6 c0-0.2,0.1-0.3,0.1-0.5c0-0.1,0-0.1,0.1-0.1c0.3,0,0.6,0,1,0c0.1,0,0.1,0,0.1,0.1c0.1,0.3,0.2,0.5,0.3,0.8 c0.1,0.4,0.3,0.8,0.4,1.2c0,0.1,0.1,0.1,0.1,0.2c0,0,0.1,0,0.1,0c0.1-0.3,0.2-0.6,0.3-0.9c0.1-0.1,0.1-0.3,0.2-0.4 c0.1-0.3,0.2-0.6,0.3-0.8c0-0.1,0-0.1,0.1-0.1c0.3,0,0.6,0,0.9,0c0.1,0,0.1,0,0.1,0.1c0.1,0.2,0.1,0.5,0.1,0.7 c0,0.2,0.1,0.4,0.1,0.5c0.1,0.3,0.1,0.7,0.2,1c0,0.3,0.1,0.6,0.2,0.9c0,0.2,0.1,0.4,0.1,0.7c0,0.2,0.1,0.3,0.1,0.5 c0,0.1,0,0.1-0.1,0.1c-0.3,0-0.6,0-0.9,0c-0.1,0-0.1,0-0.1-0.1c0-0.3-0.1-0.6-0.1-0.9c0-0.2-0.1-0.5-0.1-0.7 c0-0.2-0.1-0.4-0.1-0.6c0,0,0-0.1-0.1-0.1c-0.1,0-0.1,0-0.1,0.1c-0.1,0.2-0.2,0.4-0.3,0.6c-0.2,0.5-0.4,1.1-0.7,1.6 c0,0.1-0.1,0.1-0.2,0.1c-0.1,0-0.2,0-0.3,0c-0.1,0-0.1-0.1-0.1-0.2c-0.1-0.3-0.3-0.7-0.4-1c-0.1-0.3-0.3-0.6-0.4-1 C42.4,60.6,42.3,60.5,42.2,60.4z"></path> <path style="fill:#FFFFFF;" d="M66,60.6c0-0.4,0-0.8,0-1.1c0-0.3,0-0.6,0-0.9c0-0.1,0-0.1,0.1-0.1c0.3,0,0.6,0,0.9,0 c0.1,0,0.1,0,0.1,0.1c0.2,0.2,0.4,0.5,0.6,0.7c0.3,0.4,0.7,0.8,1,1.3c0.1,0.2,0.3,0.3,0.4,0.5c0,0,0,0,0.1,0.1c0,0,0.1,0,0.1,0 c0,0,0-0.1,0-0.1c0,0,0-0.1,0-0.1c0,0,0,0,0,0c0,0,0,0,0-0.1c0,0,0-0.1,0-0.1c0-0.3,0-0.6,0-0.8c0-0.3,0-0.7,0-1 c0-0.1,0-0.2,0-0.3c0,0,0,0,0.1,0c0.3,0,0.6,0,1,0c0.1,0,0.1,0,0.1,0.1c0,0.5,0,1.1,0,1.6c0,0.9,0,1.7,0,2.6c0,0.1,0,0.1-0.1,0.1 c-0.3,0-0.6,0-0.9,0c-0.1,0-0.2,0-0.2-0.1c-0.2-0.3-0.5-0.6-0.7-0.9c-0.2-0.3-0.5-0.6-0.7-0.9c-0.2-0.2-0.3-0.4-0.5-0.6 c0-0.1-0.1-0.1-0.1-0.1c-0.1,0,0,0.1,0,0.1c0,0.8,0,1.6,0,2.5c0,0.1,0,0.1-0.1,0.1c-0.3,0-0.7,0-1,0c-0.1,0,0,0,0-0.1 c0-0.1,0-0.2,0-0.3c0-0.6,0-1.2,0-1.8C66,60.7,66,60.7,66,60.6C66,60.7,66,60.7,66,60.6z"></path> <path style="fill:#FFFFFF;" d="M13.8,52.5c0.4,0,0.7,0,1.1,0c0.1,0,0.2,0,0.3,0c0.3,0,0.5,0,0.8,0.1c0.1,0,0.2,0,0.4,0 c0.1,0,0.1,0,0.1,0.1c0,1.1,0,2.2,0,3.3c0,0.1,0,0.1-0.1,0.1c0,0-0.1,0-0.1,0c-1,0-2.1,0-3.1,0c-0.1,0-0.1,0-0.1-0.1 c0-1.1,0-2.2,0-3.4c0,0,0,0,0,0c0-0.1,0-0.1,0.1-0.1C13.3,52.5,13.5,52.5,13.8,52.5C13.7,52.5,13.7,52.6,13.8,52.5 C13.8,52.6,13.8,52.5,13.8,52.5z"></path> <path style="fill:#FFFFFF;" d="M17.5,60.5c0.3,0,0.7,0,1,0c0,0,0.1,0,0.1,0.1c0,0.5,0,1-0.3,1.4c-0.3,0.5-0.7,0.9-1.3,1 C16.7,63,16.4,63,16,63c-0.9-0.1-1.5-0.6-1.8-1.5c-0.1-0.3-0.2-0.6-0.1-0.9c0-0.2,0-0.4,0.1-0.6c0.1-0.3,0.2-0.5,0.4-0.7 c0-0.1,0.1-0.1,0.1-0.1c0.3-0.4,0.7-0.6,1.2-0.6c0.3-0.1,0.6-0.1,1,0c0.2,0,0.4,0.1,0.5,0.2c0.3,0.1,0.6,0.3,0.8,0.6 c0.1,0.1,0.1,0.2,0.2,0.3c0,0,0,0.1,0,0.1c-0.3,0.1-0.6,0.2-0.9,0.4c-0.1,0-0.1,0-0.1-0.1c-0.1-0.2-0.2-0.3-0.4-0.4 c-0.4-0.2-0.8-0.2-1.2,0.1c-0.3,0.2-0.4,0.5-0.5,0.8c0,0.1,0,0.2-0.1,0.4c0,0.1,0,0.1,0,0.2c0,0.3,0.1,0.5,0.2,0.7 c0.1,0.1,0.2,0.2,0.3,0.3c0.4,0.2,0.8,0.2,1.2,0.1c0.1,0,0.2-0.1,0.3-0.2c0.1-0.1,0.2-0.2,0.2-0.4c0-0.1,0-0.1-0.1-0.1 c0,0-0.1,0-0.1,0c-0.2,0-0.4,0-0.6,0c-0.1,0-0.1,0-0.1-0.1c0-0.2,0-0.4,0-0.7c0-0.1,0-0.1,0.1-0.1C16.9,60.5,17.2,60.5,17.5,60.5 C17.5,60.5,17.5,60.5,17.5,60.5z"></path> <path style="fill:#FFFFFF;" d="M83,60c-0.1-0.2-0.2-0.4-0.5-0.6c-0.2-0.1-0.5-0.1-0.8-0.1c-0.4,0.1-0.7,0.4-0.8,0.8 c-0.1,0.3-0.1,0.6-0.1,0.8c0,0.3,0.1,0.5,0.3,0.7c0.1,0.1,0.2,0.2,0.4,0.3c0.3,0.1,0.6,0.1,1,0c0.3-0.1,0.4-0.3,0.5-0.6 c0-0.1,0-0.2-0.1-0.2c-0.2,0-0.5,0-0.7,0c-0.1,0-0.1,0-0.1-0.1c0-0.1,0-0.2,0-0.3c0-0.1,0-0.2,0-0.2c0-0.1,0-0.1,0-0.2 c0,0,0-0.1,0.1-0.1c0.6,0,1.1,0,1.7,0c0.1,0,0.3,0,0.4,0c0,0,0.1,0,0.1,0.1c0,0.6-0.1,1.1-0.4,1.6c-0.2,0.3-0.6,0.6-1,0.7 c-0.1,0-0.2,0.1-0.3,0.1C82.3,63,82.1,63,81.8,63c-0.5,0-0.9-0.2-1.3-0.5c-0.2-0.2-0.4-0.5-0.5-0.7c-0.1-0.2-0.2-0.4-0.2-0.6 c0-0.2,0-0.4,0-0.6c0-0.4,0.1-0.8,0.3-1.1c0.1-0.2,0.2-0.3,0.3-0.4c0.2-0.2,0.5-0.4,0.8-0.5c0.4-0.1,0.8-0.1,1.1-0.1 c0.1,0,0.3,0,0.4,0.1c0.2,0.1,0.4,0.2,0.6,0.3c0.1,0.1,0.2,0.2,0.3,0.3c0.1,0.1,0.2,0.2,0.2,0.3c0,0,0,0.1,0.1,0.1 c0.1,0.1,0,0.1,0,0.1C83.6,59.7,83.3,59.9,83,60z"></path> <path style="fill:#FFFFFF;" d="M19.9,56.1c-0.5,0-1.1,0-1.6,0c-0.1,0-0.1,0-0.1-0.1c0-1.1,0-2.1,0-3.2c0-0.1,0-0.1,0.1-0.1 c0.4,0,0.9,0,1.3,0c0.3,0,0.5,0,0.8,0.1c0.4,0,0.8,0,1.2,0c0.1,0,0.1,0,0.1,0.1c0,1,0,2.1,0,3.1c0,0.1,0,0.1-0.1,0.1 C21,56.1,20.4,56.1,19.9,56.1z"></path> <path style="fill:#FFFFFF;" d="M53.3,55c0-0.2,0-0.5,0-0.7c0-0.1,0-0.1,0-0.2c0,0,0-0.1,0.1-0.1c0.3,0,0.6,0,0.9,0 c0.6,0,1.2,0,1.8,0.1c0.6,0,1.2,0.1,1.8,0.1c0.1,0,0.1,0,0.2,0c0.5,0,1,0.1,1.5,0.1c0.1,0,0,0,0,0.1c-0.1,0.1-0.2,0.3-0.3,0.4 c-0.1,0.2-0.3,0.4-0.4,0.5c-0.5,0.5-1.1,0.8-1.8,1c-0.3,0.1-0.5,0.1-0.8,0.1c-0.2,0-0.3,0-0.5,0c-0.3,0-0.5,0-0.8-0.1 c-0.2-0.1-0.5-0.1-0.7-0.1c-0.3-0.1-0.5-0.2-0.8-0.3c-0.2-0.1-0.2-0.1-0.2-0.3C53.3,55.3,53.3,55.1,53.3,55z"></path> <path style="fill:#FFFFFF;" d="M27.3,62.9c0.1-0.3,0.3-0.6,0.4-1c0.1-0.3,0.2-0.5,0.3-0.8c0.1-0.3,0.2-0.6,0.3-0.9 c0.1-0.2,0.2-0.4,0.2-0.6c0.1-0.3,0.2-0.5,0.3-0.8c0,0,0,0,0-0.1c0-0.2,0.1-0.2,0.3-0.2c0.3,0,0.6,0,0.9,0c0.1,0,0.1,0,0.1,0.1 c0.2,0.7,0.5,1.4,0.8,2.1c0.2,0.7,0.5,1.3,0.7,2c0,0.1,0.1,0.2,0.1,0.2c0,0,0,0.1,0,0.1c-0.3,0-0.7,0-1,0c-0.1,0-0.1,0-0.2-0.1 c-0.1-0.2-0.1-0.4-0.2-0.6c0-0.1-0.1-0.1-0.1-0.1c-0.5,0-1,0-1.5,0c-0.1,0-0.1,0-0.1,0.1c0,0.2-0.1,0.4-0.2,0.6 c0,0.1-0.1,0.1-0.2,0.1C28,62.9,27.7,62.9,27.3,62.9C27.4,62.9,27.3,62.9,27.3,62.9z M29.6,59.8c-0.1,0.2-0.1,0.3-0.2,0.4 c-0.1,0.3-0.2,0.6-0.3,0.9c0,0.1,0,0.1,0.1,0.1c0.3,0,0.6,0,0.9,0c0.1,0,0.1,0,0.1-0.1c-0.1-0.3-0.2-0.6-0.3-1 C29.7,60.1,29.7,59.9,29.6,59.8z"></path> <path style="fill:#FFFFFF;" d="M42.8,54.6c0-0.3,0-0.6,0-0.9c0-0.1,0-0.1,0.1-0.1c0.4,0,0.8,0,1.2,0.1c0.4,0,0.8,0,1.1,0 c0.3,0,0.6,0,0.9,0.1c0.1,0,0,0,0,0.1c0,0.2,0,0.4,0,0.6c0,0.3,0,0.7,0,1c0,0.2,0,0.4,0,0.5c0,0.1,0,0.1-0.1,0.1 c-1,0-2.1,0-3.1,0c0,0-0.1,0-0.1,0c-0.1,0-0.1,0-0.1-0.1c0-0.3,0-0.7,0-1C42.8,54.8,42.8,54.7,42.8,54.6L42.8,54.6z"></path> <path style="fill:#FFFFFF;" d="M52.3,56.1c0,0-0.1,0-0.1,0c-1.1,0-2.3,0-3.4,0c-0.1,0-0.2,0-0.2-0.1c-0.1-0.3-0.3-0.7-0.4-1 c-0.1-0.2-0.2-0.4-0.2-0.6c-0.1-0.2-0.1-0.4-0.2-0.6c0,0,0,0,0.1,0c0.3,0.1,0.5,0.1,0.8,0.1c0.4,0,0.8,0,1.2,0 c0.3,0,0.7,0.1,1,0.1c0,0,0,0,0.1,0c0.1,0,0.3,0,0.4,0c0.1,0,0.1,0,0.1,0.1c0.1,0.2,0.1,0.3,0.2,0.5c0,0,0,0,0,0 c0.1,0.2,0.1,0.3,0.2,0.5C52,55.4,52.1,55.7,52.3,56.1C52.3,56.1,52.3,56.1,52.3,56.1z"></path> <path style="fill:#FFFFFF;" d="M60.6,56.1c0-0.3,0.2-0.7,0.2-1c0-0.2,0.1-0.5,0.2-0.7c0-0.1,0-0.1,0.2-0.1c0.3,0,0.6,0,0.9,0 c0.3,0,0.6,0,0.9,0.1c0.1,0,0.3,0,0.5,0c0.3,0,0.6,0.1,0.9,0.1c0,0,0.1,0,0.1,0c-0.1,0.5-0.2,0.9-0.2,1.4c0,0.2,0,0.2-0.3,0.2 c-1.1,0-2.1,0-3.2,0C60.7,56.1,60.6,56.1,60.6,56.1z"></path> <path style="fill:#FFFFFF;" d="M68.9,56.1c-0.6,0-1.1,0-1.7,0c-0.1,0-0.1,0-0.1-0.1c-0.1-0.3-0.1-0.7-0.2-1c0-0.1,0-0.3-0.1-0.4 c0-0.1,0-0.1,0.1-0.1c0.7,0.1,1.4,0.1,2.1,0.1c0.3,0,0.7,0,1,0.1c0,0,0.1,0,0.1,0c0.1,0,0.2,0,0.2,0.2c0,0.3,0.1,0.6,0.2,1 c0,0.1,0,0.2,0.1,0.2c0,0.1,0,0.1-0.1,0.1C70,56.1,69.5,56.1,68.9,56.1z"></path> <path style="fill:#FFFFFF;" d="M55.5,60.7c0-0.7,0-1.4,0-2.1c0-0.1,0-0.1,0.1-0.1c0.3,0,0.6,0,0.9,0c0.1,0,0.1,0,0.1,0.1 c0,1.4,0,2.8,0,4.2c0,0.1,0,0.1-0.1,0.1c-0.3,0-0.7,0-1,0c-0.1,0-0.1,0-0.1-0.1C55.5,62.1,55.5,61.4,55.5,60.7 C55.5,60.7,55.5,60.7,55.5,60.7z"></path> <path style="fill:#FFFFFF;" d="M75.4,56.1c-0.5,0-1,0-1.5,0c-0.1,0-0.1,0-0.2-0.1c-0.1-0.4-0.2-0.7-0.2-1.1c0,0,0,0,0-0.1 c0-0.1,0-0.1,0.1-0.1c0,0,0,0,0.1,0c0.2,0,0.5,0,0.7,0c0.4,0,0.8,0,1.2,0c0.5,0,1,0,1.6,0.1c0.1,0,0.1,0,0.2,0c0.1,0,0,0.1,0,0.2 c0,0.2-0.1,0.3-0.1,0.5c0,0.1,0,0.3,0,0.4c0,0.1-0.1,0.1-0.1,0.1C76.5,56.1,75.9,56.1,75.4,56.1z"></path> <path style="fill:#FFFFFF;" d="M81.2,56.1c-0.5,0-1,0-1.5,0c-0.1,0-0.1,0-0.2-0.1c0-0.1-0.1-0.2-0.1-0.3c0-0.1,0-0.2,0-0.2 c0-0.1,0-0.3-0.1-0.4c0,0,0-0.1,0-0.1c0.2,0,0.5,0,0.7,0c0.3,0,0.5,0,0.8,0c0.3,0,0.7,0,1,0c0.3,0,0.7,0.1,1,0.1c0,0,0.1,0,0.1,0 c0.1,0,0,0.1,0,0.1c0,0.2-0.1,0.4-0.1,0.5c0,0.1,0,0.2-0.1,0.2c0,0.1,0,0.1-0.1,0.1C82.2,56.1,81.7,56.1,81.2,56.1z"></path> <path style="fill:#FFFFFF;" d="M47.5,52.7C47.4,52.7,47.4,52.7,47.5,52.7c-0.1-0.2-0.1-0.4-0.1-0.5c0,0,0-0.1,0.1-0.1 C47.5,52.3,47.5,52.5,47.5,52.7z"></path> <path style="fill:#FFFFFF;" d="M76.7,50.6C76.8,50.6,76.7,50.7,76.7,50.6c0,0.1,0,0.2,0,0.2c0,0-0.1,0-0.1,0 C76.7,50.8,76.7,50.7,76.7,50.6C76.6,50.7,76.6,50.6,76.7,50.6C76.7,50.7,76.7,50.7,76.7,50.6z"></path> <path style="fill:#FFFFFF;" d="M58.3,42.6c-0.1,0.1-0.3,0.1-0.3,0C58,42.6,58.1,42.6,58.3,42.6z"></path> <path style="fill:#FFFFFF;" d="M76.6,50.5c-0.1,0-0.1-0.1-0.1-0.1c0,0,0-0.1,0-0.1C76.7,50.4,76.6,50.5,76.6,50.5z"></path> <path style="fill:#FFFFFF;" d="M82.3,50.6c0.1,0.1,0,0.1,0,0.1C82.3,50.7,82.3,50.6,82.3,50.6z"></path> <path style="fill:#FFFFFF;" d="M79.4,47.8C79.4,47.8,79.4,47.7,79.4,47.8c0-0.1,0-0.1,0-0.1C79.5,47.6,79.5,47.7,79.4,47.8 C79.5,47.7,79.5,47.7,79.4,47.8C79.4,47.7,79.4,47.8,79.4,47.8z"></path> <path style="fill:#FFFFFF;" d="M58.9,42.6c-0.1,0-0.1,0-0.2,0C58.8,42.6,58.9,42.6,58.9,42.6z"></path> <path style="fill:#FFFFFF;" d="M69.3,60.7c0,0,0,0.1,0,0.1C69.3,60.8,69.3,60.7,69.3,60.7z"></path> <path style="fill:#FFFFFF;" d="M47.5,48.3C47.5,48.3,47.5,48.3,47.5,48.3C47.5,48.3,47.5,48.3,47.5,48.3 C47.4,48.3,47.5,48.3,47.5,48.3C47.5,48.3,47.5,48.3,47.5,48.3z"></path> <path style="fill:#FFFFFF;" d="M60.9,43.2C60.9,43.2,60.9,43.2,60.9,43.2C60.9,43.2,60.9,43.2,60.9,43.2z"></path> <path style="fill:#FFFFFF;" d="M42.3,51.9C42.3,51.9,42.3,51.9,42.3,51.9C42.3,51.9,42.3,51.9,42.3,51.9 C42.4,51.9,42.4,51.9,42.3,51.9z"></path> <path style="fill:#FFFFFF;" d="M47.6,48.1C47.6,48.1,47.6,48.1,47.6,48.1C47.6,48.2,47.6,48.2,47.6,48.1 C47.5,48.2,47.6,48.1,47.6,48.1z"></path> <path style="fill:#FFFFFF;" d="M40.3,53.1C40.3,53.1,40.3,53.1,40.3,53.1C40.3,53.1,40.3,53.1,40.3,53.1z"></path> <path style="fill:#FFFFFF;" d="M47.5,49.9C47.4,49.8,47.4,49.8,47.5,49.9C47.5,49.8,47.5,49.8,47.5,49.9 C47.5,49.8,47.5,49.8,47.5,49.9z"></path> <path style="fill:#FFFFFF;" d="M86.7,42.8C86.7,42.8,86.7,42.8,86.7,42.8C86.8,42.8,86.7,42.8,86.7,42.8z"></path> <path style="fill:#FFFFFF;" d="M66,60.6C66,60.7,66,60.7,66,60.6C66,60.7,66,60.7,66,60.6z"></path> <path style="fill:#FFFFFF;" d="M48.7,52.8C48.7,52.8,48.7,52.8,48.7,52.8C48.7,52.8,48.7,52.8,48.7,52.8z"></path> <path style="fill:#FFFFFF;" d="M77.2,46.5C77.3,46.6,77.2,46.6,77.2,46.5C77.2,46.5,77.2,46.5,77.2,46.5z"></path> <path style="fill:#FFFFFF;" d="M50.8,53.9C50.8,53.9,50.8,53.9,50.8,53.9C50.8,53.9,50.8,53.9,50.8,53.9z"></path> <path style="fill:#FFFFFF;" d="M58.7,42.6C58.6,42.6,58.6,42.6,58.7,42.6C58.6,42.6,58.6,42.6,58.7,42.6z"></path> <path style="fill:#FFFFFF;" d="M79.4,47.9C79.4,47.9,79.4,47.9,79.4,47.9C79.4,47.9,79.4,47.9,79.4,47.9 C79.4,47.9,79.4,47.9,79.4,47.9z"></path> <path style="fill:#FFFFFF;" d="M60.9,47C60.9,46.9,60.9,46.9,60.9,47C60.9,46.9,60.9,47,60.9,47C60.9,47,60.9,47,60.9,47z"></path> <path style="fill:#FFFFFF;" d="M42.3,51.9C42.3,52,42.3,52,42.3,51.9C42.2,52,42.2,51.9,42.3,51.9z"></path> <path style="fill:#FFFFFF;" d="M82.8,45.9C82.9,45.9,82.8,45.9,82.8,45.9C82.8,45.9,82.8,45.9,82.8,45.9z"></path> <path style="fill:#FFFFFF;" d="M83,44.8C83,44.9,83,44.9,83,44.8C82.9,44.9,83,44.9,83,44.8z"></path> <path style="fill:#FFFFFF;" d="M69.3,60.9C69.3,60.9,69.3,60.9,69.3,60.9C69.3,60.9,69.3,60.9,69.3,60.9z"></path> <path style="fill:#FFFFFF;" d="M82.7,46.9C82.7,46.9,82.7,46.9,82.7,46.9C82.7,46.9,82.7,46.9,82.7,46.9z"></path> <path style="fill:#FFFFFF;" d="M83.4,42.8C83.4,42.8,83.3,42.8,83.4,42.8C83.3,42.8,83.3,42.8,83.4,42.8z"></path> <path style="fill:#FFFFFF;" d="M64.8,43.3C64.8,43.3,64.8,43.3,64.8,43.3C64.8,43.3,64.8,43.3,64.8,43.3z"></path> <path style="fill:#FFFFFF;" d="M51.6,54.5C51.6,54.5,51.6,54.5,51.6,54.5C51.6,54.5,51.6,54.5,51.6,54.5z"></path> <path style="fill:#FFFFFF;" d="M72.7,45.5C72.7,45.5,72.7,45.5,72.7,45.5C72.7,45.5,72.7,45.5,72.7,45.5z"></path> <path style="fill:#FFFFFF;" d="M64.2,46C64.2,46,64.2,46,64.2,46C64.1,46,64.2,46,64.2,46z"></path> <path style="fill:#FFFFFF;" d="M62.3,53.8C62.3,53.8,62.3,53.8,62.3,53.8C62.3,53.8,62.3,53.8,62.3,53.8z"></path> <path style="fill:#FFFFFF;" d="M64.1,46.1C64.2,46.1,64.2,46.1,64.1,46.1C64.1,46.1,64.1,46.1,64.1,46.1z"></path> <path style="fill:#FFFFFF;" d="M82.6,47.4C82.6,47.5,82.6,47.5,82.6,47.4C82.6,47.5,82.6,47.4,82.6,47.4z"></path> <path style="fill:#FFFFFF;" d="M36,52.9C36,52.9,36,52.9,36,52.9C36,52.9,36,52.9,36,52.9C36,52.9,36,52.9,36,52.9z"></path> <path style="fill:#FFFFFF;" d="M72.9,46.2C72.9,46.2,72.9,46.2,72.9,46.2C72.9,46.2,72.8,46.2,72.9,46.2z"></path> <path style="fill:#FFFFFF;" d="M62.5,52.8C62.6,52.8,62.6,52.8,62.5,52.8C62.5,52.8,62.5,52.8,62.5,52.8z"></path> <path style="fill:#FFFFFF;" d="M82.8,46.4C82.8,46.4,82.8,46.4,82.8,46.4C82.7,46.4,82.7,46.4,82.8,46.4z"></path> <path style="fill:#FFFFFF;" d="M13.8,52.5C13.8,52.5,13.8,52.6,13.8,52.5C13.7,52.6,13.7,52.5,13.8,52.5 C13.8,52.5,13.8,52.5,13.8,52.5z"></path> <path style="fill:#FFFFFF;" d="M54.6,51.5C54.6,51.5,54.6,51.5,54.6,51.5C54.6,51.5,54.6,51.5,54.6,51.5 C54.6,51.5,54.6,51.5,54.6,51.5z"></path> <path style="fill:#FFFFFF;" d="M47.6,48.1C47.6,48.1,47.6,48.1,47.6,48.1C47.6,48.1,47.6,48.1,47.6,48.1z"></path> <path style="fill:#FFFFFF;" d="M52.3,56.1C52.3,56.1,52.3,56.1,52.3,56.1C52.3,56.1,52.3,56.1,52.3,56.1 C52.3,56.1,52.3,56.1,52.3,56.1z"></path> <path style="fill:#FFFFFF;" d="M79.4,47.9C79.4,47.8,79.4,47.8,79.4,47.9C79.4,47.8,79.4,47.9,79.4,47.9z"></path> <path style="fill:#FFFFFF;" d="M69.3,43.5C69.3,43.5,69.3,43.5,69.3,43.5C69.3,43.5,69.3,43.5,69.3,43.5z"></path> <path style="fill:#FFFFFF;" d="M82.2,50.9C82.2,50.9,82.2,50.9,82.2,50.9C82.2,50.9,82.2,50.9,82.2,50.9z"></path> <path style="fill:#FFFFFF;" d="M63.7,48C63.7,48,63.7,48,63.7,48C63.7,48,63.7,48,63.7,48z"></path> <path style="fill:#FFFFFF;" d="M70.4,48.4C70.4,48.4,70.4,48.4,70.4,48.4C70.4,48.4,70.4,48.4,70.4,48.4 C70.4,48.4,70.4,48.4,70.4,48.4z"></path> <path style="fill:#FFFFFF;" d="M17.7,47.4C17.7,47.4,17.7,47.4,17.7,47.4C17.7,47.4,17.7,47.4,17.7,47.4z"></path> <path style="fill:#FFFFFF;" d="M42,52.1C42,52.1,42,52.1,42,52.1C42,52.1,42,52.1,42,52.1z"></path> <path style="fill:#FFFFFF;" d="M42,52.2C42,52.2,42,52.2,42,52.2C42,52.2,42,52.2,42,52.2z"></path> <path style="fill:#FFFFFF;" d="M41.9,52.2C41.9,52.2,41.9,52.2,41.9,52.2C41.9,52.2,41.9,52.2,41.9,52.2z"></path> <path style="fill:#FFFFFF;" d="M57.8,52.3C57.8,52.3,57.8,52.3,57.8,52.3C57.8,52.3,57.8,52.3,57.8,52.3z"></path> <path style="fill:#FFFFFF;" d="M57.8,52.3C57.8,52.3,57.7,52.3,57.8,52.3C57.7,52.3,57.7,52.3,57.8,52.3z"></path> <path style="fill:#FFFFFF;" d="M38.9,51.8C38.9,51.8,38.9,51.8,38.9,51.8C38.9,51.8,38.9,51.8,38.9,51.8z"></path> <path style="fill:#FFFFFF;" d="M82.3,50.9C82.3,50.9,82.3,50.9,82.3,50.9C82.2,50.9,82.3,50.9,82.3,50.9z"></path> <path style="fill:#FFFFFF;" d="M57,50.8C57,50.8,57,50.8,57,50.8C57,50.8,57,50.8,57,50.8z"></path> <path style="fill:#FFFFFF;" d="M35.4,52.8C35.4,52.8,35.5,52.8,35.4,52.8C35.4,52.8,35.4,52.8,35.4,52.8z"></path> <path style="fill:#FFFFFF;" d="M48.7,52.9C48.7,52.9,48.7,52.9,48.7,52.9C48.7,52.9,48.7,52.9,48.7,52.9z"></path> <path style="fill:#FFFFFF;" d="M57,50.7C57,50.7,57,50.7,57,50.7C57,50.7,57,50.7,57,50.7z"></path> <path style="fill:#FFFFFF;" d="M82.2,50.7C82.2,50.7,82.2,50.7,82.2,50.7C82.2,50.7,82.2,50.7,82.2,50.7z"></path> <path style="fill:#FFFFFF;" d="M62.5,53.1C62.5,53.1,62.4,53.1,62.5,53.1C62.4,53.1,62.4,53.1,62.5,53.1z"></path> <path style="fill:#FFFFFF;" d="M48.9,53.4C48.9,53.4,48.9,53.4,48.9,53.4C48.9,53.4,48.9,53.4,48.9,53.4 C48.9,53.4,48.9,53.4,48.9,53.4z"></path> <path style="fill:#FFFFFF;" d="M56.8,50.5C56.8,50.5,56.8,50.5,56.8,50.5C56.8,50.6,56.8,50.5,56.8,50.5z"></path> <path style="fill:#FFFFFF;" d="M56.7,50.5C56.7,50.5,56.7,50.5,56.7,50.5C56.7,50.5,56.7,50.5,56.7,50.5z"></path> <path style="fill:#FFFFFF;" d="M62.3,53.9C62.3,53.9,62.3,53.9,62.3,53.9C62.3,53.9,62.3,53.9,62.3,53.9z"></path> <path style="fill:#FFFFFF;" d="M25.9,47.6C25.9,47.6,25.9,47.6,25.9,47.6C25.9,47.6,25.9,47.6,25.9,47.6z"></path> <path style="fill:#FFFFFF;" d="M63.8,47.6C63.8,47.6,63.8,47.6,63.8,47.6C63.8,47.6,63.8,47.6,63.8,47.6z"></path> <path style="fill:#FFFFFF;" d="M62.3,53.9C62.3,53.9,62.3,53.9,62.3,53.9C62.3,53.9,62.3,53.9,62.3,53.9z"></path> <path style="fill:#FFFFFF;" d="M80.4,54C80.4,54,80.4,54,80.4,54C80.4,54,80.4,54,80.4,54z"></path> <path style="fill:#FFFFFF;" d="M50.4,49.1C50.4,49.1,50.4,49.1,50.4,49.1C50.4,49,50.4,49,50.4,49.1C50.4,49,50.4,49.1,50.4,49.1 z"></path> <path style="fill:#FFFFFF;" d="M64.3,45.3C64.3,45.3,64.3,45.3,64.3,45.3C64.3,45.3,64.3,45.3,64.3,45.3z"></path> <path style="fill:#FFFFFF;" d="M64.5,44.7C64.5,44.8,64.4,44.8,64.5,44.7C64.4,44.8,64.4,44.8,64.5,44.7z"></path> <path style="fill:#FFFFFF;" d="M26.6,44.6C26.6,44.6,26.6,44.6,26.6,44.6C26.6,44.6,26.6,44.6,26.6,44.6z"></path> <path style="fill:#FFFFFF;" d="M80.6,54.6C80.6,54.6,80.6,54.6,80.6,54.6C80.6,54.6,80.6,54.6,80.6,54.6z"></path> <path style="fill:#FFFFFF;" d="M42.8,54.6L42.8,54.6C42.8,54.6,42.8,54.6,42.8,54.6C42.8,54.6,42.8,54.6,42.8,54.6z"></path> <path style="fill:#FFFFFF;" d="M83.1,44.4C83,44.4,83,44.4,83.1,44.4C83,44.4,83,44.4,83.1,44.4z"></path> <path style="fill:#FFFFFF;" d="M47.7,47.7C47.7,47.7,47.7,47.7,47.7,47.7C47.7,47.7,47.7,47.7,47.7,47.7z"></path> <path style="fill:#FFFFFF;" d="M47.5,48.2C47.5,48.2,47.5,48.2,47.5,48.2C47.5,48.2,47.5,48.2,47.5,48.2z"></path> <path style="fill:#FFFFFF;" d="M76.3,48C76.3,48,76.3,47.9,76.3,48C76.3,47.9,76.3,48,76.3,48z"></path> <path style="fill:#FFFFFF;" d="M31.4,43.2C31.4,43.2,31.4,43.1,31.4,43.2C31.4,43.1,31.4,43.2,31.4,43.2z"></path> <path style="fill:#FFFFFF;" d="M83.3,43.1C83.3,43.1,83.3,43.1,83.3,43.1C83.3,43.1,83.3,43.1,83.3,43.1z"></path> <path style="fill:#FFFFFF;" d="M27,42.9C27,42.9,27,42.9,27,42.9C27,42.9,27,42.9,27,42.9z"></path> <path style="fill:#FFFFFF;" d="M54.7,48C54.7,48,54.7,48.1,54.7,48C54.7,48.1,54.7,48.1,54.7,48z"></path> <path style="fill:#FFFFFF;" d="M65,42.8C65,42.8,64.9,42.8,65,42.8C64.9,42.8,64.9,42.8,65,42.8z"></path> <path style="fill:#FFFFFF;" d="M53.2,42.8C53.2,42.8,53.2,42.8,53.2,42.8C53.2,42.8,53.2,42.8,53.2,42.8z"></path> <polygon style="fill:#FFFFFF;" points="50.4,49 50.4,49 50.4,49 "></polygon> <path style="fill:#FFFFFF;" d="M49.6,42.8C49.6,42.8,49.6,42.8,49.6,42.8C49.6,42.8,49.6,42.8,49.6,42.8z"></path> <path style="fill:#FFFFFF;" d="M70,46.9C70,46.9,70,46.9,70,46.9C70,46.9,70,46.9,70,46.9C70,46.9,70,46.9,70,46.9z"></path> <path style="fill:#FFFFFF;" d="M67,46C67,46,67,46,67,46C67,46,67,46,67,46C66.9,46,67,45.9,67,46C67,45.9,67,45.9,67,46 C67,46,67,46,67,46z"></path> <path style="fill:#FFFFFF;" d="M67,46C67,46,67,46,67,46C67,46,67.1,46,67,46z"></path> <path style="fill:#FFFFFF;" d="M66.9,46.3C66.9,46.3,66.9,46.3,66.9,46.3C66.9,46.3,66.9,46.3,66.9,46.3 C66.9,46.3,66.9,46.3,66.9,46.3z"></path> <path style="fill:#FFFFFF;" d="M66.8,47.6C66.8,47.6,66.8,47.6,66.8,47.6C66.8,47.6,66.8,47.6,66.8,47.6 C66.8,47.6,66.8,47.6,66.8,47.6z"></path> <path style="fill:#FFFFFF;" d="M67,46.1C67,46.2,67,46.2,67,46.1C66.9,46.2,67,46.2,67,46.1z"></path> <path style="fill:#FFFFFF;" d="M29.1,46C29.1,46,29.1,46,29.1,46C29.1,46,29.1,45.9,29.1,46C29.1,45.9,29.1,46,29.1,46z"></path> <path style="fill:#FFFFFF;" d="M29.2,46.2C29.2,46.2,29.2,46.2,29.2,46.2C29.2,46.2,29.2,46.2,29.2,46.2 C29.2,46.2,29.2,46.2,29.2,46.2z"></path> <path style="fill:#FFFFFF;" d="M29,46.4C29,46.4,29,46.4,29,46.4C29,46.4,29,46.4,29,46.4z"></path> <path style="fill:#FFFFFF;" d="M29.1,46.3C29.1,46.4,29.1,46.4,29.1,46.3C29,46.4,29,46.4,29.1,46.3C29,46.3,29,46.3,29.1,46.3z"></path> </g> <g> <path style="fill:#FFFFFF;" d="M18.9,80.5c0-0.1-0.1-0.2-0.2-0.3c0,0-0.1-0.1-0.1-0.1c0,0-0.1,0-0.1,0c-1,0-1.9,0-2.9,0 c-0.2,0-0.2,0-0.2,0.2c0,1.5,0,3,0,4.5c0,0.1,0,0.2,0,0.3c0,0.1-0.1,0.2-0.2,0.2c-0.1,0-0.1,0-0.2,0c-0.6,0-1.2,0-1.7,0 c-0.4,0-0.3,0-0.7-0.1c0-1.7,0-3.5,0-5.2c0,0,0,0,0.1,0c0,0,0,0,0,0c0,0,0,0,0,0c0,0,0,0-0.1,0c0,0,0,0,0-0.1 c0.1,0,0.1,0,0.1-0.1c0,0,0-0.1,0-0.1c0-2.4,0-4.9,0-7.3c0,0,0-0.1,0.1-0.1c0.1,0,0.2,0,0.2,0c2.3,0,4.5,0,6.8,0 c0.1,0,0.1,0,0.2,0c0.4,0,0.8,0,1.2,0.1c0.3,0.1,0.5,0.2,0.8,0.2c0.2,0.1,0.4,0.2,0.6,0.3c0.2,0.1,0.4,0.3,0.6,0.5 c0.1,0.1,0.2,0.2,0.2,0.3c0.1,0.2,0.3,0.5,0.3,0.7c0.3,0.7,0.3,1.5,0.3,2.2c0,0.5-0.1,0.9-0.3,1.4c-0.2,0.4-0.5,0.8-0.8,1.2 c-0.3,0.3-0.6,0.4-1,0.6c-0.1,0.1-0.3,0.1-0.4,0.1c-0.1,0-0.1,0-0.1,0.1c0.4,0.7,0.8,1.3,1.2,2c0.2,0.4,0.5,0.8,0.7,1.2 c0.1,0.2,0.3,0.5,0.4,0.7c0.2,0.3,0.4,0.7,0.6,1c0,0.1,0.1,0.1,0.1,0.2c0.1,0.2,0,0.3-0.2,0.3c-0.8,0-1.6,0-2.4,0 c-0.1,0-0.2,0-0.3-0.1c0,0,0,0,0,0c0,0-0.1-0.1-0.1-0.1c0,0,0,0,0,0c0-0.1,0-0.1-0.1-0.2c0,0,0,0,0-0.1c0-0.1,0-0.1-0.1-0.1 c-0.1-0.2-0.2-0.4-0.3-0.6c-0.1-0.2-0.2-0.4-0.3-0.6c0,0,0-0.1-0.1-0.1c-0.1-0.1-0.1-0.2-0.1-0.2c0-0.1,0-0.2-0.1-0.2 c-0.1-0.2-0.2-0.3-0.3-0.5c0-0.1,0-0.2-0.1-0.2c-0.1-0.2-0.2-0.3-0.3-0.5c0-0.1,0-0.2-0.1-0.2c-0.1-0.1-0.2-0.3-0.3-0.5 c0-0.1,0-0.1-0.1-0.2c0,0,0,0,0,0C19.2,81,19.1,80.8,18.9,80.5C19,80.6,19,80.6,18.9,80.5z M21.3,75.6c0-0.1-0.1-0.1-0.1-0.2 c-0.1-0.2-0.2-0.3-0.4-0.5c-0.2-0.1-0.4-0.2-0.6-0.2c-0.3-0.1-0.6-0.1-0.9-0.1c-1.2,0-2.5,0-3.7,0c-0.1,0-0.1,0-0.1,0.1 c0,0,0,0.1,0,0.1c0,0.9,0,1.8,0,2.7c0,0.3,0,0.3,0.3,0.3c1,0,1.9,0,2.9,0c0.5,0,1.1,0,1.6-0.2c0.5-0.1,0.8-0.4,0.9-0.8 c0,0,0,0,0,0c0,0,0-0.1,0-0.1c0,0,0,0,0,0c0-0.1,0-0.2,0-0.3C21.4,76.1,21.4,75.9,21.3,75.6C21.3,75.6,21.3,75.6,21.3,75.6z"></path> <path style="fill:#FFFFFF;" d="M85.4,72.2c0.5,0.1,0.8,0.3,1.1,0.7c0.2,0.3,0.4,0.6,0.4,1c0.1,0.5-0.1,0.9-0.4,1.4 c-0.2,0.3-0.4,0.4-0.7,0.6c-0.3,0.2-0.7,0.2-1,0.2c-0.3,0-0.6-0.1-0.9-0.3c-0.4-0.3-0.7-0.6-0.8-1.1c-0.1-0.2-0.1-0.5,0-0.7 c0,0,0,0,0-0.1c0-0.2,0-0.4,0.1-0.5c0.1-0.2,0.2-0.4,0.4-0.6c0.2-0.2,0.4-0.3,0.6-0.4c0.1,0,0.2-0.1,0.4-0.1c0,0,0.1,0,0.1,0 c0,0,0.1,0,0.1-0.1c0.1,0,0.2,0,0.3,0C85.3,72.3,85.3,72.2,85.4,72.2z"></path> <path style="fill:#FFFFFF;" d="M75.1,72.2c0.1,0,0.2,0.1,0.3,0.1c0.5,0.1,0.9,0.5,1.2,0.9c0.2,0.4,0.3,0.8,0.2,1.2 c-0.1,0.5-0.3,1-0.8,1.3c-0.4,0.3-0.8,0.4-1.3,0.4c-0.4,0-0.7-0.1-1-0.3c-0.1-0.1-0.2-0.2-0.3-0.3c-0.2-0.2-0.4-0.5-0.4-0.7 C73,74.5,73,74.3,73,74.1c0-0.2,0-0.5,0.1-0.7c0.2-0.4,0.4-0.7,0.8-0.9c0.2-0.1,0.4-0.2,0.6-0.2c0.1,0,0.1,0,0.2,0 c0,0,0.1,0,0.1-0.1C74.9,72.2,75,72.2,75.1,72.2z"></path> <path style="fill:#FFFFFF;" d="M12.8,72.3c0,2.4,0,4.9,0,7.3c0,0,0,0.1,0,0.1c0,0.1,0,0.1-0.1,0.1c0-2.5,0-5,0-7.5 C12.7,72.3,12.8,72.4,12.8,72.3z"></path> <path style="fill:#FFFFFF;" d="M20.1,72.3c0,0.1-0.1,0-0.2,0c-2.3,0-4.5,0-6.8,0c-0.1,0-0.2,0-0.2,0c0,0,0,0,0-0.1 C15.3,72.2,17.7,72.2,20.1,72.3C20.1,72.2,20.1,72.2,20.1,72.3z"></path> <path style="fill:#FFFFFF;" d="M39.1,72.2C39,72.2,39.1,72.2,39.1,72.2c-0.1,0.1-0.2,0.1-0.3,0.1c-1.6,0-3.1,0-4.7,0 c-0.1,0-0.1,0-0.2,0c0,0,0-0.1,0-0.1C35.6,72.2,37.3,72.2,39.1,72.2z"></path> <path style="fill:#FFFFFF;" d="M61.8,72.2C61.8,72.2,61.8,72.2,61.8,72.2c0.9-0.1,1.7-0.1,2.6-0.1c0,0,0,0,0,0.1 C63.5,72.3,62.7,72.3,61.8,72.2C61.8,72.3,61.8,72.2,61.8,72.2z"></path> <path style="fill:#FFFFFF;" d="M46.3,72.2C46.2,72.2,46.3,72.2,46.3,72.2c-0.8,0.1-1.6,0.1-2.4,0.1c0,0,0,0,0-0.1 C44.7,72.2,45.5,72.2,46.3,72.2z"></path> <path style="fill:#FFFFFF;" d="M12.9,72.2C12.9,72.2,12.9,72.2,12.9,72.2c0,0.1-0.1,0.1-0.1,0.1c0,0-0.1,0-0.1,0c0,0,0-0.1,0-0.1 C12.8,72.2,12.8,72.2,12.9,72.2z"></path> <path style="fill:#FFFFFF;" d="M74.8,72.2C74.8,72.2,74.8,72.3,74.8,72.2c-0.2,0.1-0.2,0.1-0.3,0.1c0,0,0.1,0,0-0.1 C74.6,72.2,74.7,72.2,74.8,72.2z"></path> <path style="fill:#FFFFFF;" d="M84.9,72.2C84.9,72.2,84.9,72.3,84.9,72.2c-0.1,0.1-0.2,0.1-0.2,0.1c0,0,0,0,0-0.1 C84.7,72.2,84.8,72.2,84.9,72.2z"></path> <path style="fill:#FFFFFF;" d="M85.4,72.2c-0.1,0-0.2,0.1-0.2-0.1C85.3,72.2,85.3,72.2,85.4,72.2C85.4,72.2,85.4,72.2,85.4,72.2z "></path> <path style="fill:#FFFFFF;" d="M12.7,79.9C12.7,79.9,12.7,79.9,12.7,79.9C12.8,79.9,12.8,79.9,12.7,79.9 C12.8,80,12.8,80,12.7,79.9C12.7,80,12.7,80,12.7,79.9C12.7,80,12.7,79.9,12.7,79.9z"></path> <path style="fill:#FFFFFF;" d="M33.9,72.3c0.1,0.1,0.1,0,0.2,0c1.6,0,3.1,0,4.7,0c0.1,0,0.2,0,0.3,0c0.1,0,0.1,0.1,0.1,0.2 c0,0.3,0,0.5,0,0.8c0,0.3,0,0.6,0,0.9c0,0.1,0,0.1,0,0.2c0,0.1-0.1,0.2-0.2,0.2c0,0-0.1,0-0.1,0c-1.4,0-2.8,0-4.2,0 c0,0-0.1,0-0.1,0c0-0.1,0-0.1-0.1-0.1c-0.1,0-0.1,0-0.1,0.1c-0.1,0.1-0.3,0-0.4,0.1c-0.2,0-0.4,0.1-0.6,0.2c-0.1,0-0.2,0-0.2,0.1 c0,0,0,0,0,0c-0.2,0.1-0.3,0.2-0.4,0.3c0,0,0,0,0,0c-0.4,0.3-0.6,0.7-0.8,1.1c-0.2,0.4-0.2,0.8-0.2,1.3c0,0.1,0,0.1,0.1,0.1 c0.2,0,0.4,0,0.5,0c2.2,0,4.4,0,6.6,0c0.1,0,0.2,0,0.3,0c0.1,0,0.1,0,0.1,0.1c0,0.1,0,0.2,0,0.2c0,0.5,0,1.1,0,1.6 c0,0,0,0.1,0,0.1c0,0.1-0.1,0.2-0.2,0.2c-0.1,0-0.1,0-0.2,0c-2.4,0-4.7,0-7.1,0c-0.2,0-0.3,0-0.2,0.2c0,0.4,0.1,0.8,0.2,1.3 c0.1,0.3,0.2,0.6,0.4,0.9c0.2,0.3,0.5,0.5,0.8,0.6c0.4,0.2,0.9,0.3,1.4,0.3c1.4,0,2.9,0,4.3,0c0.1,0,0.1,0,0.2,0 c0.2,0,0.3,0.1,0.3,0.2c0,0.1,0,0.2,0,0.2c0,0.5,0,1,0,1.4c0,0.3-0.1,0.4-0.4,0.4c-1.6,0-3.2,0-4.8,0c-0.4,0-0.8,0-1.2-0.1 c-0.2,0-0.4-0.1-0.6-0.1c-0.4-0.1-0.7-0.2-1.1-0.4c-0.3-0.2-0.6-0.4-0.8-0.6c0,0,0,0,0,0c-0.2-0.2-0.4-0.4-0.6-0.6 c-0.2-0.2-0.3-0.4-0.4-0.6c0-0.1,0-0.1-0.1-0.1c-0.1-0.1-0.2-0.3-0.2-0.4c-0.2-0.4-0.3-0.8-0.4-1.2c-0.2-0.8-0.2-1.7-0.2-2.5 c0-0.3,0-0.6,0.1-0.9c0.1,0,0.1,0,0.1-0.1c0-0.1,0.1-0.2-0.1-0.3c0-0.4,0.1-0.9,0.2-1.3c0.1,0,0.1,0,0.1-0.1c0-0.1,0-0.1-0.1-0.1 c0,0,0-0.1,0-0.1c0,0,0,0,0,0c0,0,0,0,0-0.1c0,0,0,0,0,0c0-0.1,0.1-0.2,0.1-0.3c0.1,0,0.1-0.1,0.1-0.1c0,0,0,0,0,0 c0.1,0,0.1,0,0.2-0.1c0.1-0.2,0.2-0.3,0.2-0.5c0,0,0-0.1,0-0.1c0-0.1,0-0.1,0.1-0.2c0.1,0,0.1-0.1,0.1-0.1c0-0.1,0.1-0.1,0.1-0.1 c0.1,0,0.1,0,0.1-0.1c0,0,0-0.1,0.1-0.1c0.1,0,0.2-0.1,0.1-0.2c0-0.1,0.1-0.1,0.1-0.1c0.1,0,0.2-0.1,0.2-0.2c0,0,0,0,0,0 c0.1,0,0.1,0,0.1-0.1c0.4-0.3,0.8-0.5,1.2-0.7c0.1,0,0.1,0,0.2-0.1c0.2,0.1,0.2,0.1,0.3-0.1C32.7,72.4,33.3,72.3,33.9,72.3z"></path> <path style="fill:#FFFFFF;" d="M61.8,72.2C61.8,72.2,61.8,72.3,61.8,72.2c0.9,0,1.8,0,2.6,0c0.1,0,0.1,0,0.1,0.1 c0.1,0.1,0.1,0.2,0.2,0.4c0.1,0.3,0.3,0.6,0.4,0.9c0.1,0.3,0.3,0.7,0.4,1c0,0,0,0.1,0,0.1c0.1,0.3,0.2,0.5,0.4,0.8 c0.1,0.3,0.2,0.6,0.4,0.9c0.1,0.2,0.2,0.4,0.3,0.7c0.1,0.3,0.3,0.6,0.4,1c0,0,0,0.1,0,0.1c0.1,0.3,0.2,0.5,0.4,0.8 c0.2,0.5,0.4,0.9,0.6,1.4c0.1,0.3,0.3,0.6,0.4,1c0.2,0.4,0.3,0.8,0.5,1.2c0.1,0.2,0.2,0.5,0.3,0.7c0.1,0.3,0.3,0.7,0.4,1 c0,0.1,0.1,0.2,0.1,0.3c0.1,0.1,0.1,0.3,0.2,0.4c0,0.1,0.1,0.1,0.1,0.2c0,0.2,0,0.3-0.2,0.3c0,0-0.1,0-0.1,0c-0.7,0-1.4,0-2.1,0 c-0.4,0-0.5-0.1-0.6-0.4c0-0.1-0.1-0.2-0.1-0.3c-0.1-0.1-0.1-0.2-0.1-0.4c0,0,0-0.1,0-0.1c0,0,0,0,0,0c-0.1-0.3-0.2-0.5-0.3-0.8 c-0.1-0.2-0.2-0.5-0.3-0.7c0-0.1-0.1-0.2-0.1-0.2c0-0.1-0.1-0.1-0.1-0.1c-0.1,0-0.3,0-0.4,0c-1.7,0-3.4,0-5.1,0 c-0.2,0-0.2,0-0.3,0.2c0,0.1-0.1,0.3-0.1,0.4c-0.1,0.4-0.3,0.8-0.4,1.2c-0.1,0.3-0.2,0.6-0.3,0.8c0,0.1-0.1,0.2-0.1,0.3 c-0.1,0.1-0.1,0.2-0.2,0.2c-0.1,0-0.1,0-0.2,0c-0.7,0-1.4,0-2.1,0c-0.1,0-0.2,0-0.3,0c0,0,0,0,0,0c-0.1-0.1,0-0.2,0-0.3 c0,0,0.1,0,0-0.1c0,0,0-0.1,0-0.1c0,0,0,0,0,0c0-0.1,0-0.1,0-0.2c0.1,0,0.1-0.1,0.1-0.1c0,0,0,0,0,0c0,0,0.1,0,0-0.1 c0-0.1,0-0.1,0.1-0.2c0,0,0,0,0,0c0-0.1,0.1-0.2,0.1-0.3c0.1-0.1,0.2-0.3,0.2-0.4c0,0,0,0,0,0c0.1-0.2,0.1-0.3,0.2-0.5 c0,0,0,0,0,0c0-0.2,0.1-0.3,0.2-0.5c0,0,0,0,0,0c0-0.2,0.1-0.3,0.2-0.5c0,0,0,0,0,0c0.1-0.3,0.2-0.6,0.4-0.9c0,0,0-0.1,0-0.1 c0,0,0,0,0,0c0.1-0.2,0.2-0.5,0.3-0.7c0.1-0.2,0.2-0.4,0.3-0.6c0.1-0.2,0.2-0.4,0.3-0.7c0,0,0-0.1,0-0.1c0,0,0,0,0,0 c0.1-0.1,0.1-0.2,0.2-0.4c0,0,0,0,0,0c0,0,0,0,0-0.1c0,0,0,0,0,0c0-0.1,0.1-0.1,0.1-0.2c0.1,0,0.1-0.1,0.1-0.1c0,0,0-0.1,0.1-0.1 c0,0,0,0,0-0.1c0-0.1,0-0.1,0.1-0.2c0.1,0,0.1-0.1,0.1-0.1c0,0,0,0,0,0c0,0,0,0,0,0c0.1-0.1,0.2-0.3,0.2-0.5c0,0,0,0,0,0 c0.1-0.1,0.1-0.2,0.1-0.3c0,0,0-0.1,0-0.1c0,0,0.1,0,0-0.1c0,0,0-0.1,0-0.1c0.1,0,0.1-0.1,0.1-0.2c0,0,0,0,0,0c0,0,0.1,0,0-0.1 c0,0,0-0.1,0-0.1c0,0,0,0,0,0c0,0,0,0,0,0c0.1-0.1,0.1-0.1,0.1-0.2c0.1-0.2,0.2-0.4,0.2-0.6c0.1-0.3,0.2-0.6,0.4-0.8 c0.1-0.3,0.2-0.6,0.4-0.8c0.1-0.2,0.2-0.5,0.3-0.7C61.5,72.4,61.5,72.3,61.8,72.2C61.7,72.2,61.7,72.2,61.8,72.2z M61,79.9 c0.1,0,0.1,0,0.2,0c1.2,0,2.3,0,3.5,0c0,0,0.1,0,0.1,0c0.1,0,0.1,0,0.1-0.1c-0.1-0.1-0.1-0.2-0.1-0.3c-0.2-0.4-0.3-0.8-0.4-1.2 c-0.2-0.4-0.3-0.8-0.5-1.3c-0.1-0.4-0.3-0.8-0.4-1.1c-0.1-0.3-0.3-0.6-0.4-0.9c0-0.1,0-0.1-0.1-0.2c-0.1,0.2-0.2,0.4-0.3,0.6 c-0.1,0.1-0.1,0.2-0.1,0.4c0,0.2-0.1,0.4-0.2,0.5c0,0.1-0.1,0.2-0.1,0.3c-0.1,0.2-0.1,0.4-0.2,0.5c-0.1,0.2-0.2,0.5-0.3,0.7 c-0.1,0.3-0.2,0.6-0.4,1C61.2,79.2,61.1,79.5,61,79.9z"></path> <path style="fill:#FFFFFF;" d="M43.8,72.3c0.8,0,1.6,0,2.4,0c0.1,0.1,0.2,0.2,0.2,0.3c0,1.1,0,2.3,0,3.4c0,0.9,0,1.7,0,2.6 c0,0.5,0,1,0,1.6c0,0.4,0,0.8,0,1.2c0,0.2,0.1,0.5,0.2,0.7c0.1,0.2,0.2,0.3,0.3,0.5c0.2,0.2,0.5,0.4,0.7,0.5 c0.2,0.1,0.5,0.2,0.8,0.2c0.4,0,0.7,0.1,1.1,0.1c1,0,1.9,0,2.9,0c0.2,0,0.2,0,0.2,0.2c0,0.5,0,1.1,0,1.6c0,0.2-0.1,0.3-0.3,0.3 c-1.3,0-2.5,0-3.8,0c-0.4,0-0.9-0.1-1.3-0.1c-0.3,0-0.5-0.1-0.8-0.2C46.2,85,46,85,45.8,84.8c0,0,0,0,0,0c0,0-0.1,0-0.1,0 c0-0.1-0.1-0.1-0.1-0.1c-0.1,0-0.2-0.1-0.2-0.1c0-0.1,0-0.1-0.1-0.1c0,0-0.1,0-0.1-0.1c0,0,0-0.1-0.1-0.1c-0.1,0-0.2-0.2-0.3-0.2 c-0.1-0.1-0.1-0.1-0.2-0.2c0,0,0,0,0,0c-0.1-0.2-0.2-0.3-0.3-0.4c-0.2-0.3-0.4-0.7-0.5-1.1c0,0,0,0,0-0.1c0,0,0,0,0,0 c0-0.1,0-0.2-0.1-0.3c0.1-0.1,0.1-0.1,0-0.1c-0.1-0.4-0.1-0.8-0.1-1.2c0.1,0,0.1,0,0.1-0.1c0-0.2,0-0.3,0-0.5c0-0.1,0-0.2,0-0.2 c0-0.2,0-0.4,0-0.7c0-0.1,0-0.2-0.1-0.2c0-0.5,0-1,0-1.5c0,0,0.1-0.1,0.1-0.1c0-0.1,0-0.1-0.1-0.2c0-0.6,0-1.2,0-1.8 c0-0.9,0-1.8,0-2.7c0-0.1,0-0.2,0-0.3c0,0,0,0,0,0C43.7,72.3,43.8,72.2,43.8,72.3z"></path> <path style="fill:#FFFFFF;" d="M83.6,82.3c0-0.1,0.1-0.1,0.2-0.2c0,0,0.1,0,0.1-0.1c0-0.1,0.1-0.1,0.1-0.1c0,0,0,0,0,0 c0.1,0,0.1-0.1,0.2-0.1c0,0.1,0.1,0,0.1,0c0.2-0.1,0.5-0.2,0.8-0.2c0.5,0,1,0.2,1.4,0.6c0.2,0.2,0.4,0.6,0.5,0.9 c0.2,0.6,0,1.1-0.3,1.6c-0.2,0.3-0.6,0.6-0.9,0.7c-0.3,0.1-0.7,0.1-1,0.1c-0.2,0-0.3-0.1-0.4-0.1c0,0,0-0.1-0.1-0.1 c-0.2-0.1-0.5-0.2-0.6-0.5c0,0,0,0-0.1-0.1c0-0.1,0-0.1-0.1-0.1c-0.1-0.1-0.1-0.3-0.2-0.4c0.1,0,0-0.1,0-0.1c0-0.1-0.1-0.1,0-0.2 c0,0,0,0,0,0c0,0,0,0,0,0c0,0,0-0.1,0-0.1c0-0.1,0-0.3,0-0.4c0-0.1,0.1-0.1,0.1-0.2c0-0.1,0-0.2,0-0.4 C83.3,82.6,83.4,82.5,83.6,82.3C83.6,82.3,83.6,82.3,83.6,82.3z"></path> <path style="fill:#FFFFFF;" d="M73.7,82.1c0-0.1,0.1-0.1,0.1-0.1c0,0,0,0,0,0c0,0,0.1,0,0.1,0c0,0,0,0,0,0c0,0,0,0,0,0 c0,0,0,0,0,0c0,0,0,0,0,0c0,0,0,0,0,0c0.1,0,0.1,0,0.2-0.1c0.1,0.1,0.1,0.1,0.2,0c0.2-0.1,0.5-0.1,0.7,0c0.7,0.1,1.2,0.4,1.5,1 c0.4,0.8,0.3,1.6-0.3,2.3c-0.1,0.2-0.3,0.3-0.5,0.4c-0.2,0.1-0.5,0.2-0.7,0.2c-0.4,0-0.8-0.1-1.2-0.3c-0.4-0.3-0.7-0.6-0.8-1.1 c-0.1-0.3-0.1-0.6,0-0.9c0,0,0,0,0-0.1c0,0,0-0.1,0-0.1c0,0,0,0,0,0c0-0.2,0.1-0.3,0.2-0.4c0.1,0,0.1-0.1,0.1-0.1l0,0 c0.1,0,0.1-0.1,0.1-0.1c0,0,0,0,0,0C73.6,82.3,73.6,82.3,73.7,82.1z"></path> <path style="fill:#FFFFFF;" d="M78.7,77.3c0.1-0.1,0.1-0.1,0.2-0.1c0,0,0,0,0,0c0.1,0,0.1-0.1,0.2-0.1c0,0,0,0,0,0 c0.4-0.1,0.8-0.2,1.2-0.1c0.3,0.1,0.6,0.2,0.9,0.5c0.3,0.3,0.5,0.7,0.6,1.2c-0.1,0.1-0.1,0.1,0,0.2c0,0.5-0.2,0.9-0.5,1.2 c-0.3,0.4-0.7,0.5-1.1,0.7c0,0-0.1,0-0.1,0c0-0.1,0-0.1-0.1-0.1c-0.1,0,0,0.1,0,0.1c-0.1,0-0.2,0-0.3,0c0,0,0,0,0,0 c-0.2,0-0.3-0.1-0.5-0.1c-0.3-0.1-0.5-0.3-0.7-0.5c0-0.2,0-0.2-0.2-0.3c-0.1-0.2-0.2-0.5-0.3-0.8c0-0.2,0-0.4,0-0.6c0,0,0,0,0,0 c0,0,0-0.1,0-0.1c0.1,0,0.1-0.1,0.1-0.1c0.1-0.1,0.1-0.2,0-0.3c0,0,0-0.1,0-0.1c0.1,0,0.1,0,0.1-0.1c0-0.1,0-0.1,0-0.2 c0,0,0-0.1,0.1-0.1C78.6,77.5,78.7,77.5,78.7,77.3z"></path> <path style="fill:#FFFFFF;" d="M45.2,91.5c-0.1,0.3-0.2,0.6-0.3,0.9c0,0.2-0.1,0.3-0.2,0.5c0,0.3-0.2,0.5-0.2,0.7 c0,0.3-0.2,0.5-0.2,0.7c0,0.2-0.1,0.3-0.1,0.5c0,0.1-0.1,0.1-0.1,0.2c0,0.1-0.1,0.3-0.1,0.4c0,0.1-0.1,0.1-0.2,0.1 c-0.1,0-0.2-0.1-0.3-0.3c0-0.2-0.1-0.3-0.2-0.5c-0.1-0.3-0.2-0.6-0.3-1c0-0.1-0.1-0.2-0.1-0.3c-0.1-0.3-0.2-0.6-0.3-0.9 c-0.1-0.3-0.2-0.6-0.3-0.9c0,0,0,0,0-0.1c0,0,0,0.1,0,0.1c0,0.3-0.1,0.7-0.1,1c-0.1,0.5-0.1,1-0.2,1.5c-0.1,0.3-0.1,0.7-0.2,1 c0,0.3-0.1,0.3-0.3,0.3c-0.1,0-0.2-0.1-0.2-0.2c0,0,0,0,0-0.1c0-0.3,0-0.6,0.1-0.8c0.1-0.2,0.1-0.5,0.1-0.7c0-0.1,0-0.1,0-0.1 c0-0.2,0.1-0.4,0.1-0.6c0.1-0.3,0.1-0.6,0.2-0.9c0.1-0.3,0.1-0.6,0.2-0.9c0-0.1,0-0.2,0.1-0.3c0.1-0.2,0.5-0.3,0.7-0.1 c0.1,0.1,0.1,0.2,0.2,0.3c0.1,0.3,0.2,0.6,0.2,0.8c0.1,0.3,0.2,0.6,0.2,0.8c0,0.1,0.1,0.3,0.1,0.4c0.1,0.3,0.2,0.6,0.2,0.9 c0,0.1,0.1,0.3,0.2,0.4c0-0.2,0.2-0.4,0.2-0.7c0-0.1,0.1-0.2,0.1-0.3c0-0.1,0.1-0.2,0.1-0.3c0-0.1,0-0.1,0-0.2 c0.1-0.2,0.1-0.4,0.2-0.5c0.1-0.2,0.1-0.3,0.1-0.5c0.1-0.2,0.1-0.3,0.1-0.5c0-0.1,0.1-0.2,0.1-0.4c0-0.1,0-0.2,0-0.2 c0.1-0.2,0.3-0.3,0.5-0.2c0.2,0,0.3,0.2,0.4,0.4c0.1,0.3,0.1,0.5,0.1,0.8c0.1,0.4,0.1,0.8,0.2,1.2c0,0.3,0.1,0.6,0.2,0.9 c0.1,0.4,0.1,0.7,0.2,1.1c0,0.1,0,0.2-0.1,0.3c-0.1,0.1-0.2,0.1-0.3,0.1c-0.1,0-0.2-0.1-0.2-0.2c0-0.1-0.1-0.3-0.1-0.4 c0-0.3-0.1-0.6-0.1-0.9c0-0.3-0.1-0.6-0.1-0.9c0-0.3-0.1-0.6-0.1-1C45.3,92.1,45.3,91.9,45.2,91.5C45.3,91.6,45.3,91.6,45.2,91.5 z"></path> <path style="fill:#FFFFFF;" d="M71.3,94.4c0-0.1,0-0.1,0-0.2c0-1,0-2,0-3c0-0.1,0-0.2,0-0.3c0-0.1,0-0.1,0.1-0.1 c0.2-0.1,0.4,0,0.5,0.2c0,0.1,0,0.1,0,0.2c0,1.3,0,2.6,0,3.9c0,0.1,0,0.1,0,0.2c0,0.2-0.2,0.3-0.4,0.2c-0.1,0-0.2-0.1-0.2-0.2 c-0.5-0.7-1-1.4-1.4-2.1c-0.3-0.5-0.7-1-1-1.4c0,0.1,0,0.2,0,0.3c0,1,0,2,0,3c0,0.1,0,0.2,0,0.2c0,0.2-0.1,0.2-0.3,0.2 c-0.2,0-0.3,0-0.3-0.2c0-0.1,0-0.1,0-0.2c0-1.3,0-2.7,0-4c0,0,0-0.1,0-0.1c0-0.1,0-0.2,0.1-0.2c0.1,0,0.3,0,0.4,0.1 c0.1,0.1,0.2,0.2,0.3,0.3c0.3,0.4,0.6,0.9,0.9,1.3c0.2,0.3,0.4,0.5,0.5,0.8c0.2,0.3,0.4,0.6,0.6,0.9c0.1,0.1,0.1,0.2,0.2,0.3 C71.2,94.4,71.3,94.4,71.3,94.4z"></path> <path style="fill:#FFFFFF;" d="M85.6,92.8c0.2,0,0.3,0,0.4,0c0.1,0,0.2,0,0.3,0.1c0.1,0.1,0.2,0.2,0.2,0.3c0,0.3,0,0.6-0.1,1 c-0.1,0.2-0.1,0.4-0.3,0.6c-0.2,0.2-0.4,0.4-0.6,0.6c-0.3,0.2-0.5,0.2-0.8,0.2c-0.3,0-0.6,0-0.9-0.1c-0.3-0.1-0.6-0.3-0.8-0.6 c-0.1-0.2-0.2-0.3-0.3-0.5c-0.1-0.2-0.1-0.4-0.2-0.7c0-0.2,0-0.4,0-0.5c0-0.3,0-0.6,0.1-0.9c0.1-0.3,0.2-0.5,0.4-0.7 c0.2-0.2,0.4-0.4,0.6-0.5c0.1-0.1,0.2-0.1,0.3-0.1c0.4-0.1,0.8-0.2,1.2-0.1c0.3,0.1,0.6,0.2,0.9,0.3c0.1,0.1,0.2,0.2,0.3,0.3 c0.1,0.1,0,0.2,0,0.3c-0.1,0.1-0.1,0.1-0.2,0.1c-0.1,0-0.2-0.1-0.3-0.1c-0.2-0.1-0.4-0.3-0.7-0.3c-0.1,0-0.2,0-0.4-0.1 c-0.3,0-0.6,0-0.8,0.2c-0.3,0.2-0.5,0.5-0.6,0.8c-0.1,0.4-0.1,0.8-0.1,1.3c0,0.2,0.1,0.5,0.2,0.7c0.1,0.3,0.3,0.5,0.6,0.7 C84,95,84.2,95,84.3,95c0.6,0.1,1.2-0.1,1.5-0.6c0.1-0.1,0.1-0.2,0.1-0.4c0.1-0.2,0.1-0.3,0.1-0.5c0-0.1,0-0.1-0.1-0.1 c-0.2,0-0.5,0-0.7,0c-0.1,0-0.2,0-0.2-0.1c-0.1-0.1,0-0.4,0.1-0.4C85.3,92.8,85.5,92.8,85.6,92.8z"></path> <path style="fill:#FFFFFF;" d="M16,92.8c0.2,0,0.3,0,0.5,0c0.3,0,0.4,0.1,0.5,0.4c0,0.5-0.1,1-0.3,1.4c-0.3,0.5-0.7,0.8-1.3,0.9 c-0.4,0-0.8,0-1.1-0.1c-0.2-0.1-0.3-0.1-0.4-0.3c-0.2-0.2-0.5-0.4-0.6-0.7C13,94.3,13,94.2,12.9,94c-0.1-0.3-0.1-0.5-0.1-0.8 c0-0.4,0.1-0.8,0.2-1.2c0.1-0.4,0.3-0.7,0.7-0.9c0.4-0.3,0.9-0.4,1.5-0.4c0.5,0,0.9,0.2,1.2,0.4c0.1,0.1,0.1,0.1,0.2,0.2 c0,0.2-0.1,0.3-0.3,0.3c-0.1,0-0.2,0-0.2-0.1c-0.2-0.2-0.5-0.3-0.8-0.4c-0.3-0.1-0.5,0-0.8,0c-0.4,0.1-0.6,0.4-0.8,0.7 c-0.1,0.2-0.2,0.5-0.2,0.7c0,0.3,0,0.7,0,1c0.1,0.4,0.3,0.7,0.6,1c0.2,0.2,0.4,0.2,0.6,0.3c0.2,0,0.4,0,0.6,0 c0.2,0,0.3-0.1,0.5-0.2c0.5-0.3,0.6-0.8,0.6-1.3c0-0.1,0-0.1-0.1-0.1c-0.3,0-0.5,0-0.8,0c-0.1,0-0.2-0.1-0.2-0.2c0,0,0-0.1,0-0.1 c0-0.1,0.1-0.2,0.2-0.2c0.1,0,0.1,0,0.2,0C15.7,92.8,15.8,92.8,16,92.8z"></path> <path style="fill:#FFFFFF;" d="M31,95.4c0,0.1-0.1,0.2-0.3,0.2c-0.1,0-0.2-0.1-0.3-0.2c-0.1-0.3-0.2-0.5-0.3-0.8 c0,0,0-0.1-0.1-0.1c0,0-0.1,0-0.1,0c-0.6,0-1.3,0-1.9,0c-0.1,0-0.2,0-0.2,0.1c-0.1,0.2-0.1,0.4-0.2,0.5c0,0.1-0.1,0.2-0.1,0.3 c-0.1,0.2-0.4,0.2-0.5,0c-0.1-0.1,0-0.1,0-0.2c0.1-0.2,0.1-0.3,0.2-0.5c0.1-0.1,0.1-0.2,0.1-0.3c0.1-0.2,0.2-0.5,0.3-0.7 c0.1-0.2,0.2-0.5,0.2-0.7c0.2-0.5,0.4-1,0.6-1.4c0.1-0.2,0.1-0.4,0.2-0.6c0.1-0.1,0.2-0.2,0.3-0.2c0.1,0,0.2,0,0.3,0.1 c0.1,0,0.1,0.1,0.2,0.2c0.1,0.2,0.2,0.4,0.2,0.7c0.1,0.3,0.2,0.5,0.3,0.8c0.1,0.2,0.2,0.5,0.3,0.7c0.1,0.3,0.2,0.5,0.3,0.8 c0,0.1,0.1,0.2,0.1,0.3c0.1,0.3,0.2,0.6,0.3,1C31,95.3,31,95.3,31,95.4z M30,94c-0.1-0.3-0.2-0.6-0.3-0.9 c-0.2-0.5-0.3-0.9-0.5-1.4c0-0.1,0-0.2-0.1-0.3c-0.3,0.9-0.6,1.7-0.9,2.6C28.7,94,29.3,94,30,94z"></path> <path style="fill:#FFFFFF;" d="M57.5,93.2c0,0.7,0,1.3,0,2c0,0,0,0.1,0,0.1c0,0.2-0.3,0.4-0.4,0.2c0,0-0.1-0.1-0.1-0.1 c0-0.1,0-0.2,0-0.4c0-1.2,0-2.5,0-3.7c0-0.1,0-0.2,0-0.3c0-0.1,0.1-0.2,0.3-0.2c0.2,0,0.2,0,0.3,0.2c0,0.1,0,0.1,0,0.2 C57.5,91.8,57.5,92.5,57.5,93.2C57.5,93.2,57.5,93.2,57.5,93.2z"></path> <path style="fill:#FFFFFF;" d="M43.6,79.1c0.1,0,0.1,0.1,0.1,0.2c0,0.2,0,0.4,0,0.7c0,0.1,0,0.2,0,0.2c0,0.2,0,0.3,0,0.5 c0,0.1,0,0.1-0.1,0.1c-0.1-0.5-0.1-0.9,0-1.4C43.6,79.2,43.6,79.1,43.6,79.1z"></path> <path style="fill:#FFFFFF;" d="M29.3,74.6C29.3,74.7,29.3,74.7,29.3,74.6c0,0.2-0.1,0.4-0.2,0.6c0,0.1-0.1,0.1-0.2,0.1 c0-0.2,0.1-0.3,0.2-0.4C29.2,74.8,29.2,74.7,29.3,74.6z"></path> <path style="fill:#FFFFFF;" d="M83.3,82.8c0,0.1,0,0.2,0,0.4c0,0.1-0.1,0.1-0.1,0.2c-0.1-0.1,0-0.1,0-0.2 C83.1,83,83.2,82.9,83.3,82.8C83.2,82.8,83.2,82.8,83.3,82.8z"></path> <path style="fill:#FFFFFF;" d="M78.2,78c0,0.1,0,0.2,0,0.3c0,0-0.1,0.1-0.1,0.1C78,78.2,78,78.1,78.2,78z"></path> <path style="fill:#FFFFFF;" d="M28.4,77.5c0.1,0.1,0.1,0.2,0.1,0.3c0,0.1-0.1,0.1-0.1,0.1C28.4,77.7,28.4,77.6,28.4,77.5z"></path> <path style="fill:#FFFFFF;" d="M73.7,82.1c0,0.2-0.1,0.2-0.3,0.3C73.5,82.2,73.6,82.1,73.7,82.1z"></path> <path style="fill:#FFFFFF;" d="M78.7,77.3c0,0.2-0.1,0.2-0.3,0.3C78.5,77.4,78.6,77.4,78.7,77.3z"></path> <path style="fill:#FFFFFF;" d="M78.3,79.8c0.2,0,0.2,0,0.2,0.3C78.4,80,78.3,79.9,78.3,79.8z"></path> <path style="fill:#FFFFFF;" d="M59.6,77c0,0.2-0.1,0.3-0.2,0.5c0,0,0,0,0,0C59.4,77.3,59.5,77.1,59.6,77z"></path> <path style="fill:#FFFFFF;" d="M43.6,77.2c0.1,0,0.1,0.1,0.1,0.2c0,0-0.1,0.1-0.1,0.1c0,0,0,0,0,0C43.7,77.4,43.6,77.3,43.6,77.2 z"></path> <path style="fill:#FFFFFF;" d="M28.7,76c0.1,0,0.1,0.1,0.1,0.1c0,0.1-0.1,0.1-0.1,0.1C28.6,76.1,28.7,76,28.7,76z"></path> <path style="fill:#FFFFFF;" d="M78.4,77.6c0,0.1,0,0.1,0,0.2c0,0.1-0.1,0.1-0.1,0.1C78.2,77.8,78.3,77.7,78.4,77.6z"></path> <path style="fill:#FFFFFF;" d="M34.3,74.5c0-0.1,0.1-0.1,0.1-0.1c0.1,0,0.1,0,0.1,0.1C34.4,74.5,34.3,74.5,34.3,74.5z"></path> <path style="fill:#FFFFFF;" d="M32.1,72.5c-0.1,0.1-0.1,0.1-0.3,0.1C31.9,72.6,32,72.5,32.1,72.5z"></path> <path style="fill:#FFFFFF;" d="M30.2,73.5c0,0.1-0.1,0.2-0.2,0.2C30.1,73.6,30.2,73.6,30.2,73.5z"></path> <path style="fill:#FFFFFF;" d="M59.7,76.6c0,0.1,0,0.2-0.1,0.3C59.6,76.8,59.6,76.7,59.7,76.6z"></path> <path style="fill:#FFFFFF;" d="M29.9,73.8c0,0.1,0,0.2-0.1,0.2C29.8,73.9,29.8,73.9,29.9,73.8z"></path> <path style="fill:#FFFFFF;" d="M81.8,78.9c-0.1-0.1-0.1-0.2,0-0.2C81.9,78.7,81.9,78.8,81.8,78.9z"></path> <path style="fill:#FFFFFF;" d="M80,80.7C80,80.7,80,80.6,80,80.7c0.1-0.1,0.1-0.1,0.1,0C80.1,80.7,80,80.7,80,80.7z"></path> <path style="fill:#FFFFFF;" d="M60.2,75.6c0,0.1,0,0.2-0.1,0.2C60.1,75.7,60.1,75.6,60.2,75.6z"></path> <path style="fill:#FFFFFF;" d="M59.9,76.1c0,0.1,0,0.2-0.1,0.2C59.9,76.2,59.9,76.1,59.9,76.1z"></path> <path style="fill:#FFFFFF;" d="M74.4,81.7c0,0.1-0.1,0.1-0.2,0C74.3,81.7,74.4,81.6,74.4,81.7z"></path> <path style="fill:#FFFFFF;" d="M20.4,83.2c0.1,0,0.1,0.1,0.1,0.2C20.5,83.3,20.4,83.3,20.4,83.2z"></path> <path style="fill:#FFFFFF;" d="M19.7,81.9c0.1,0,0.1,0.1,0.1,0.2C19.7,82,19.7,81.9,19.7,81.9z"></path> <path style="fill:#FFFFFF;" d="M20.1,82.5c0.1,0,0.1,0.1,0.1,0.2C20.1,82.7,20.1,82.6,20.1,82.5z"></path> <path style="fill:#FFFFFF;" d="M43.7,81.9c0.1,0,0.1,0.1,0,0.1C43.7,82,43.8,82,43.7,81.9z"></path> <path style="fill:#FFFFFF;" d="M30.4,73.4c0,0.1-0.1,0.1-0.1,0.1C30.3,73.4,30.4,73.4,30.4,73.4z"></path> <path style="fill:#FFFFFF;" d="M83.1,83.7c0,0,0,0.1,0,0.1C83.1,83.8,83.1,83.8,83.1,83.7C83.1,83.8,83.1,83.7,83.1,83.7z"></path> <path style="fill:#FFFFFF;" d="M73.3,82.5c0,0.1,0,0.1-0.1,0.1C73.2,82.5,73.3,82.5,73.3,82.5z"></path> <path style="fill:#FFFFFF;" d="M29,75.3c0,0.1,0,0.1-0.1,0.1C28.9,75.3,28.9,75.3,29,75.3z"></path> <path style="fill:#FFFFFF;" d="M83.6,82.3C83.6,82.3,83.6,82.3,83.6,82.3C83.5,82.3,83.5,82.3,83.6,82.3z"></path> <path style="fill:#FFFFFF;" d="M45.3,84.5c0.1,0,0.1,0,0.1,0.1C45.4,84.6,45.3,84.5,45.3,84.5z"></path> <path style="fill:#FFFFFF;" d="M56.3,84.6c0,0,0,0.1-0.1,0.1C56.2,84.6,56.3,84.6,56.3,84.6z"></path> <path style="fill:#FFFFFF;" d="M59.1,78c0,0,0,0.1-0.1,0.1C59.1,78,59.1,78,59.1,78z"></path> <path style="fill:#FFFFFF;" d="M29.7,74.1c0,0.1,0,0.1-0.1,0.1C29.6,74.2,29.6,74.1,29.7,74.1z"></path> <path style="fill:#FFFFFF;" d="M83.4,84.6C83.5,84.6,83.5,84.6,83.4,84.6C83.4,84.7,83.4,84.6,83.4,84.6z"></path> <path style="fill:#FFFFFF;" d="M83.8,82C83.8,82.1,83.8,82.1,83.8,82C83.7,82,83.8,82,83.8,82z"></path> <path style="fill:#FFFFFF;" d="M59.4,77.5c0,0,0,0.1-0.1,0.1C59.3,77.5,59.3,77.5,59.4,77.5z"></path> <path style="fill:#FFFFFF;" d="M45.6,84.7c0.1,0,0.1,0,0.1,0.1C45.7,84.8,45.6,84.7,45.6,84.7z"></path> <path style="fill:#FFFFFF;" d="M21.3,84.8c0.1,0,0.1,0.1,0.1,0.1C21.4,84.9,21.3,84.9,21.3,84.8z"></path> <path style="fill:#FFFFFF;" d="M29.5,74.3c0,0.1,0,0.1-0.1,0.1C29.4,74.4,29.4,74.4,29.5,74.3z"></path> <path style="fill:#FFFFFF;" d="M73.4,82.4c0,0.1,0,0.1-0.1,0.1C73.3,82.4,73.4,82.4,73.4,82.4z"></path> <path style="fill:#FFFFFF;" d="M29.2,82.9c0.1,0,0.1,0.1,0.1,0.1C29.2,82.9,29.2,82.9,29.2,82.9z"></path> <path style="fill:#FFFFFF;" d="M84.3,81.8C84.3,81.8,84.2,81.9,84.3,81.8C84.2,81.8,84.2,81.8,84.3,81.8z"></path> <path style="fill:#FFFFFF;" d="M59.8,76.4C59.9,76.5,59.8,76.5,59.8,76.4C59.8,76.5,59.8,76.4,59.8,76.4z"></path> <path style="fill:#FFFFFF;" d="M60,76C60,76,60,76,60,76C59.9,76,59.9,76,60,76z"></path> <path style="fill:#FFFFFF;" d="M73,83.1C73.1,83.1,73.1,83.2,73,83.1C73,83.2,73,83.1,73,83.1z"></path> <path style="fill:#FFFFFF;" d="M84.2,85.2C84.2,85.2,84.2,85.3,84.2,85.2C84.2,85.3,84.2,85.3,84.2,85.2z"></path> <path style="fill:#FFFFFF;" d="M56.1,85C56.2,85,56.2,85,56.1,85C56.1,85,56.1,85,56.1,85z"></path> <path style="fill:#FFFFFF;" d="M20.6,83.6C20.7,83.6,20.7,83.6,20.6,83.6C20.7,83.6,20.6,83.6,20.6,83.6z"></path> <path style="fill:#FFFFFF;" d="M83.2,84.1C83.2,84.1,83.3,84.1,83.2,84.1C83.2,84.2,83.2,84.2,83.2,84.1z"></path> <path style="fill:#FFFFFF;" d="M56.4,84.4C56.4,84.5,56.4,84.5,56.4,84.4C56.3,84.5,56.3,84.5,56.4,84.4z"></path> <path style="fill:#FFFFFF;" d="M83.1,73.9C83.2,73.9,83.1,73.9,83.1,73.9C83.1,73.9,83.1,73.9,83.1,73.9 C83.1,73.9,83.1,73.9,83.1,73.9z"></path> <path style="fill:#FFFFFF;" d="M45.1,84.3C45.2,84.3,45.2,84.4,45.1,84.3C45.2,84.4,45.1,84.4,45.1,84.3z"></path> <path style="fill:#FFFFFF;" d="M74.1,81.8C74.1,81.8,74.1,81.8,74.1,81.8C74.1,81.8,74.1,81.8,74.1,81.8z"></path> <path style="fill:#FFFFFF;" d="M18.9,80.5C19,80.6,19,80.6,18.9,80.5C19,80.6,18.9,80.6,18.9,80.5z"></path> <path style="fill:#FFFFFF;" d="M43.8,82.3C43.8,82.3,43.8,82.3,43.8,82.3C43.8,82.3,43.8,82.3,43.8,82.3z"></path> <path style="fill:#FFFFFF;" d="M57.4,81.9C57.4,82,57.4,82,57.4,81.9C57.4,82,57.4,82,57.4,81.9z"></path> <path style="fill:#FFFFFF;" d="M73.9,81.9C73.9,81.9,73.8,81.9,73.9,81.9C73.8,81.9,73.8,81.9,73.9,81.9z"></path> <path style="fill:#FFFFFF;" d="M57,83C57,83,57,83,57,83C57,83,57,83,57,83z"></path> <path style="fill:#FFFFFF;" d="M73.1,83C73.1,83,73.1,83,73.1,83C73,83,73,83,73.1,83z"></path> <path style="fill:#FFFFFF;" d="M84,81.9C84,81.9,84,81.9,84,81.9C84,81.9,84,81.9,84,81.9z"></path> <path style="fill:#FFFFFF;" d="M74,81.9C74,81.9,74,81.9,74,81.9C73.9,81.9,73.9,81.8,74,81.9z"></path> <path style="fill:#FFFFFF;" d="M74,81.8C74,81.8,74,81.8,74,81.8C74,81.8,74,81.8,74,81.8z"></path> <path style="fill:#FFFFFF;" d="M56.8,83.5C56.8,83.5,56.8,83.5,56.8,83.5C56.8,83.5,56.8,83.5,56.8,83.5z"></path> <path style="fill:#FFFFFF;" d="M19.3,81.2C19.3,81.2,19.3,81.2,19.3,81.2C19.3,81.2,19.3,81.2,19.3,81.2z"></path> <path style="fill:#FFFFFF;" d="M57.9,80.9C57.9,80.9,57.9,81,57.9,80.9C57.8,80.9,57.9,80.9,57.9,80.9z"></path> <path style="fill:#FFFFFF;" d="M44.7,83.9C44.7,83.9,44.7,83.9,44.7,83.9C44.7,83.9,44.7,83.9,44.7,83.9z"></path> <path style="fill:#FFFFFF;" d="M83.1,83.9C83.1,83.9,83.1,83.9,83.1,83.9C83.1,83.9,83.1,83.9,83.1,83.9z"></path> <path style="fill:#FFFFFF;" d="M66.5,84.1C66.5,84.1,66.5,84.1,66.5,84.1C66.5,84.2,66.5,84.1,66.5,84.1z"></path> <path style="fill:#FFFFFF;" d="M79.6,80.7C79.6,80.7,79.7,80.7,79.6,80.7C79.7,80.7,79.7,80.7,79.6,80.7 C79.6,80.7,79.6,80.7,79.6,80.7z"></path> <path style="fill:#FFFFFF;" d="M30.3,84.2C30.3,84.2,30.3,84.2,30.3,84.2C30.3,84.2,30.3,84.2,30.3,84.2z"></path> <path style="fill:#FFFFFF;" d="M56.5,84.2C56.5,84.2,56.4,84.3,56.5,84.2C56.4,84.2,56.4,84.2,56.5,84.2z"></path> <path style="fill:#FFFFFF;" d="M58.8,78.8C58.8,78.8,58.8,78.8,58.8,78.8C58.7,78.8,58.8,78.8,58.8,78.8z"></path> <path style="fill:#FFFFFF;" d="M78,78.5C78,78.5,78,78.5,78,78.5C78,78.5,78,78.5,78,78.5z"></path> <path style="fill:#FFFFFF;" d="M59,78.4C59,78.4,58.9,78.4,59,78.4C58.9,78.4,58.9,78.4,59,78.4z"></path> <path style="fill:#FFFFFF;" d="M59,78.3C59,78.3,59,78.3,59,78.3C59,78.3,59,78.3,59,78.3z"></path> <path style="fill:#FFFFFF;" d="M59.2,77.8C59.2,77.8,59.2,77.8,59.2,77.8C59.2,77.8,59.2,77.8,59.2,77.8z"></path> <path style="fill:#FFFFFF;" d="M78.9,77.1C78.9,77.1,78.9,77.1,78.9,77.1C78.9,77.1,78.9,77.1,78.9,77.1z"></path> <path style="fill:#FFFFFF;" d="M79.2,77C79.1,77,79.1,77,79.2,77C79.1,77,79.1,77,79.2,77z"></path> <path style="fill:#FFFFFF;" d="M45.8,84.8C45.8,84.8,45.8,84.8,45.8,84.8C45.8,84.8,45.8,84.8,45.8,84.8z"></path> <path style="fill:#FFFFFF;" d="M56.2,84.8C56.2,84.8,56.2,84.8,56.2,84.8C56.2,84.8,56.2,84.8,56.2,84.8z"></path> <path style="fill:#FFFFFF;" d="M21.5,85.1C21.5,85.1,21.5,85.2,21.5,85.1C21.5,85.2,21.5,85.2,21.5,85.1z"></path> <path style="fill:#FFFFFF;" d="M21.6,85.2C21.6,85.3,21.6,85.3,21.6,85.2C21.6,85.3,21.6,85.3,21.6,85.2z"></path> <path style="fill:#FFFFFF;" d="M56.1,85.3C56.1,85.3,56.2,85.3,56.1,85.3C56.1,85.4,56.1,85.3,56.1,85.3z"></path> <path style="fill:#FFFFFF;" d="M60.1,75.8C60,75.9,60,75.9,60.1,75.8C60,75.8,60,75.8,60.1,75.8z"></path> <path style="fill:#FFFFFF;" d="M28.8,75.8C28.8,75.8,28.7,75.9,28.8,75.8C28.7,75.8,28.7,75.8,28.8,75.8z"></path> <path style="fill:#FFFFFF;" d="M28.8,75.7C28.8,75.7,28.8,75.7,28.8,75.7C28.8,75.7,28.8,75.7,28.8,75.7z"></path> <path style="fill:#FFFFFF;" d="M32.5,75.1C32.5,75.1,32.5,75.1,32.5,75.1C32.5,75.1,32.5,75.1,32.5,75.1z"></path> <path style="fill:#FFFFFF;" d="M33,74.8C33,74.8,33,74.8,33,74.8C33,74.8,33,74.8,33,74.8z"></path> <path style="fill:#FFFFFF;" d="M43.7,72.3C43.7,72.3,43.7,72.4,43.7,72.3C43.7,72.3,43.7,72.3,43.7,72.3z"></path> <path style="fill:#FFFFFF;" d="M57.2,82.5C57.2,82.5,57.2,82.5,57.2,82.5C57.2,82.5,57.2,82.5,57.2,82.5z"></path> <path style="fill:#FFFFFF;" d="M21.3,76.9C21.3,76.9,21.3,76.8,21.3,76.9C21.3,76.9,21.3,76.9,21.3,76.9z"></path> <path style="fill:#FFFFFF;" d="M21.3,76.7C21.3,76.7,21.3,76.7,21.3,76.7C21.3,76.7,21.3,76.7,21.3,76.7z"></path> <path style="fill:#FFFFFF;" d="M21.3,75.6C21.3,75.6,21.3,75.6,21.3,75.6C21.3,75.6,21.3,75.6,21.3,75.6z"></path> </g> <path style="fill:#FFFFFF;" d="M86.7,68.5H13c-0.5,0-0.9-0.4-0.9-0.9v-0.1c0-0.5,0.4-0.9,0.9-0.9h73.7c0.5,0,0.9,0.4,0.9,0.9v0.1 C87.6,68.1,87.2,68.5,86.7,68.5z"></path> </g> <g> <path style="fill:#FFFFFF;" d="M38.9,10.6c0.7-0.7,1.5-1.2,2.3-1.7c0.7-0.4,1.4-0.7,2.1-1.1c0.3-0.2,0.7-0.2,1.1-0.4 c0.3-0.1,0.9,0.3,1.1,0.6c0.2,0.5,0,0.8-0.3,1.2l0,0c-0.8,0.4-1.6,0.6-2.3,1.1c-0.7,0.4-1.4,0.8-2,1.3c-0.4,0.3-0.8,0.7-1.2,1 c-0.2,0.1-0.3,0.2-0.4,0.4l0,0c-0.7,0.7-1.3,1.5-1.8,2.4c-0.4,0.6-0.7,1.3-1,2.1c-0.2,0.6-0.5,1.2-0.6,1.9 c-0.2,0.7-0.3,1.3-0.3,2.1c0,0.6-0.1,1.2-0.1,1.8c0,1.9,0.4,3.7,1.2,5.5c0.1,0.2,0.2,0.5,0.3,0.7c0,0,0,0.1,0.1,0.1c0,0,0,0,0,0.1 c0,0,0,0.1,0.1,0.1c0.8,1.5,1.9,2.9,3.2,4c1.7,1.5,3.7,2.5,5.8,3.1c1.6,0.4,3.2,0.5,4.8,0.4c1.6-0.1,3.1-0.5,4.6-1.2 c1.4-0.6,2.7-1.5,3.9-2.6c1.2-1.1,2.2-2.3,2.9-3.7c0.7-1.2,1.1-2.4,1.4-3.8c0.1-0.5,0.4-1.1,0.2-1.6c0.3-0.4,0.1-0.8,0.2-1.2 c0.1-0.5,0-1-0.1-1.5c0-0.8-0.2-1.5-0.4-2.2c-0.4-1.5-1-2.9-1.8-4.1c-0.6-0.9-1.3-1.8-2.1-2.6c-1.3-1.2-2.7-2.2-4.4-2.9 c-0.7-0.3-1.4-0.5-2.1-0.7c-0.1,0-0.2,0-0.2,0c-0.1-0.1-0.2,0-0.3-0.1c0.1,0.1,0.1,0.2,0.2,0.2c0.3,0.3,0.6,0.6,0.6,1.1 c0,0.5-0.3,0.7-0.7,0.9c-0.4,0.2-0.7,0.1-1-0.2c-0.9-0.9-1.9-1.8-2.8-2.8c-0.3-0.3-0.3-1,0-1.4c0.9-0.9,1.8-1.8,2.7-2.7 c0.4-0.4,1.1-0.3,1.5,0c0.3,0.3,0.4,1.1-0.1,1.5c-0.3,0.2-0.5,0.5-0.8,0.8c-0.2,0.2-0.1,0.2,0.1,0.3c0.7,0.1,1.3,0.3,1.9,0.5 c0.9,0.2,1.8,0.6,2.6,1c1.3,0.6,2.4,1.3,3.5,2.3c0,0,0.1,0.1,0.2,0.1c0,0,0,0.1,0.1,0c0.5,0.5,0.9,0.9,1.4,1.4c0,0,0,0.1,0,0.1 c0.7,0.8,1.4,1.7,1.9,2.6c0.4,0.7,0.8,1.4,1,2.2c0,0,0,0.1,0.1,0.1c0.3,1,0.6,1.9,0.8,2.9c0.1,0.7,0.3,1.4,0.2,2 c0,0.2,0,0.5,0,0.7c0,0.6-0.1,1.3-0.1,1.9c0,0.6-0.2,1.2-0.3,1.8c0,0.1-0.1,0.2-0.2,0.4c-0.1,0.1-0.1,0.2,0,0.3 c-0.5,1.8-1.2,3.5-2.3,5c-0.8,1.2-1.8,2.3-2.9,3.2c-1.1,1-2.4,1.8-3.7,2.4c-0.9,0.4-1.9,0.8-2.9,1c-0.9,0.2-1.8,0.4-2.8,0.5 c0,0,0,0,0,0.1c-0.9,0-1.8,0-2.6,0c-0.3-0.2-0.6-0.1-0.8-0.1c-1.5-0.2-3-0.6-4.4-1.2c-1.1-0.5-2.2-1.1-3.1-1.8 c-0.9-0.7-1.8-1.5-2.6-2.4c-0.6-0.7-1.2-1.5-1.8-2.4c-0.5-0.8-0.9-1.6-1.2-2.4c-0.4-1.1-0.7-2.1-0.9-3.3c-0.2-1.1-0.2-2.3-0.2-3.5 c0-1.4,0.3-2.8,0.7-4.1c0.3-1.1,0.8-2.2,1.4-3.2c0.9-1.6,2-3,3.4-4.3C38.7,10.8,38.7,10.7,38.9,10.6 C38.9,10.7,38.9,10.7,38.9,10.6z M52,6.7C52,6.7,52,6.7,52,6.7C52,6.7,52,6.7,52,6.7C52,6.7,52,6.7,52,6.7C52,6.7,52,6.7,52,6.7z"></path> <path style="fill:#FFFFFF;" d="M56.2,31.4c-0.8,0.7-1.8,1.2-2.8,1.6c-0.5,0.2-1.1,0.4-1.6,0.5c-0.6,0.1-1.1,0.2-1.7,0.2 c-0.4,0-0.7,0-1.1,0c-0.6,0-1.1-0.1-1.7-0.2c-0.9-0.2-1.8-0.5-2.6-1c-1-0.6-2-1.3-2.9-2.1c-1.4-1.5-2.3-3.3-2.7-5.3 C38.9,24,38.9,23,39,22c0.2-1.8,0.8-3.5,1.9-5c0.9-1.3,2.1-2.4,3.5-3.2c0.9-0.5,2-0.9,3-1.1c0.8-0.2,1.5-0.3,2.3-0.2 c2.1,0.1,4,0.6,5.8,1.8c1.8,1.2,3.1,2.8,3.9,4.7c0,0.1,0.1,0.2,0.1,0.3c0,0,0,0.1,0.1,0.1c0.2,0.7,0.5,1.4,0.5,2.1 c0.1,1,0.2,2,0,3.1c-0.2,1-0.4,2-0.8,2.9c-0.6,1.4-1.5,2.7-2.7,3.7C56.5,31.1,56.4,31.2,56.2,31.4C56.2,31.3,56.2,31.4,56.2,31.4z M46.4,27.9c0.5,0.4,1.1,0.7,1.8,0.9c0.4,0.1,0.4,0.2,0.4,0.5c0,0.5,0.5,0.9,0.9,0.9c0.8,0.1,1.2-0.5,1.2-1.2 c0-0.3,0.1-0.4,0.3-0.5c1.4-0.5,2.6-2.2,2.3-3.9c-0.2-1.3-1-2.1-2.2-2.6c-0.7-0.3-1.4-0.5-2-0.9c-0.3-0.2-0.6-0.2-0.5-0.7 c0-0.6,0.1-0.9,0.7-1.1c0.6-0.2,1.2-0.1,1.7,0.2c0.5,0.3,1.1,0.2,1.4-0.3c0.3-0.4,0.2-1.2-0.3-1.4c-0.4-0.2-0.7-0.4-1.1-0.5 c-0.2,0-0.3-0.1-0.3-0.4c-0.1-0.6-0.1-0.9-0.8-1.1c-0.6-0.2-1.3,0.3-1.2,0.9c0,0.4-0.1,0.5-0.4,0.7c-0.6,0.2-1,0.6-1.3,1.1 c-0.4,0.6-0.6,1.3-0.5,2.1c0,0.3,0.2,0.6,0.3,0.8c0.2,0.4,0.4,0.7,0.7,1c0.5,0.3,1,0.7,1.7,0.9c0.4,0.1,0.7,0.3,1.1,0.5 c0.4,0.2,0.8,0.3,1,0.7c0,0,0,0.1,0.1,0.1c0,0,0,0.1,0,0.1c0.3,0.6-0.4,1.7-1.1,1.9c-0.8,0.2-1.6,0.1-2.2-0.4 C47.4,26,47,26,46.6,26.1C45.9,26.4,45.8,27.1,46.4,27.9C46.3,27.8,46.3,27.9,46.4,27.9z"></path> </g> </g> </svg> 