<?xml version="1.0" encoding="UTF-8"?> <svg xmlns="http://www.w3.org/2000/svg" xmlns:xlink="http://www.w3.org/1999/xlink" version="1.1" id="Layer_1" x="0px" y="0px" viewBox="0 0 1000 1000" style="enable-background:new 0 0 1000 1000;" xml:space="preserve"> <path style="fill:#FFFFFF;" d="M30.5,518.2c2.5-5.3,3.8-8.6,5.5-11.6C61.3,462.7,86.7,419,111.8,375c4.3-7.6,9.8-11.2,18.6-10.8 c8.8,0.5,17.7,0.3,26.5,0.1c7.3-0.2,10.6,3.4,11.7,10.3c6.6,44.2,13.3,88.5,20.1,132.7c1.2,7.8-0.7,12.2-9.5,11.4 c-2.9-0.3-5.9,0-8.8,0c-19.5,0-19.2-0.1-23.8-18.6c-0.7-3-5.4-6.9-8.4-7c-14.7-0.7-29.4-0.8-44.1,0c-3.7,0.2-7.8,4.1-10.7,7.2 c-5,5.6-8.4,15.8-14,17.1C57.6,520.1,44.9,518.2,30.5,518.2z M143.1,458.9c-2.6-18.3-4.9-35.1-7.8-55.1 c-11.2,19.9-20.7,36.9-31,55.1C117.8,458.9,129.6,458.9,143.1,458.9z"></path> <path style="fill:#FFFFFF;" d="M468.5,413.3c4.6-7.8,30.3-13.6,36.9-7.8c1.6,1.4,2.2,5.4,1.7,7.8c-6.7,32.7-13.5,65.3-21,97.8 c-0.7,3.1-6.2,6.5-10,7.3c-5.6,1.2-11.7,0.3-17.6,0.3c-6.4,0.1-13,0.5-9.2-11.4c-12.9,12.5-26.7,14.7-41.5,13.2 c-16.9-1.7-28.9-11.5-30.5-28.1c-2.6-27.2,3.7-52.3,21.6-73.9C413.2,401.2,449.9,394.5,468.5,413.3z M416,472.2 c2.6,6,3.6,14,7.3,15.5c5.6,2.3,14.2,2.2,19.4-0.7c5.4-2.9,9.3-10,12.2-16c2.5-5.1,2.8-11.3,3.9-17c1.5-7.9,1.9-15.6-6.8-19.9 c-7.8-3.8-19.5-1-24,7.4C422.8,451,420,461.6,416,472.2z"></path> <path style="fill:#FFFFFF;" d="M540.2,435c-1.9-0.3-3.5-0.2-4.7-0.8c-5.2-2.4-15.7,5.9-15.7-6.6c-0.1-18.6,3.9-23.6,18-23.4 c7.1,0.1,11.3-1.6,11.5-9.4c0.1-2.5,1.1-5,1.7-7.5c5.6-27.1,7.4-28.3,34.8-25.2c6.4,0.7,8.2,3.6,6.8,9.5 c-2.3,10.3-4.4,20.6-6.9,32.5c8.7,0,15.9,0.2,23.2,0c7.7-0.2,9.9,3.3,7.9,10.3c-0.7,2.5-1.4,5-1.6,7.5c-0.8,9.3-5.1,13-15.1,12.7 c-20.7-0.7-20.8-0.1-25.2,20.2c-1.5,6.8-2.9,13.6-4.1,20.5c-1.5,8.2,1.6,12.1,10.5,12.3c22.6,0.5,24.7,4,16,25.2 c-1,2.5-4.5,5.6-6.8,5.6c-12.1,0.1-24.4,0.6-36.2-1.5c-16.3-2.9-24.4-13.4-23-29.8c1.3-14.9,5.1-29.6,7.7-44.3 C539.4,440.3,539.7,437.8,540.2,435z"></path> <path style="fill:#FFFFFF;" d="M243.1,474.6c12.7-21.8,24.1-40.6,34.7-59.8c4.5-8.2,10.1-11.7,19.4-11c7.8,0.6,15.7,0.1,26.3,0.1 c-3.3,6.2-4.8,9.4-6.7,12.4c-18.5,30-37.4,59.7-55.4,89.9c-5.6,9.4-12,13-23,12.6c-25.3-1-19.7,2.4-24.7-20.6 c-5.8-26.9-10.7-53.9-15.9-80.9c-2.3-12.1-1.2-13.5,11.2-13.4c25.3,0.3,22.7-3.9,26.6,22.9C237.8,441.8,240.3,456.6,243.1,474.6z"></path> <path style="fill:#FFFFFF;" d="M614.3,518.7c4-19.2,7.5-36,11.1-52.7c3.5-16.8,7.3-33.7,10.5-50.6c1.6-8.3,5.7-12.2,14.3-11.4 c4.7,0.4,9.6,0.2,14.3,0c7.2-0.2,13.3,0.5,11.1,7.5c12.8-2.4,26-5.3,39.3-7.3c7.3-1.1,10.2,2.7,8.2,9.9c-0.2,0.7-0.4,1.4-0.5,2.1 c-5.9,26.8-1.1,22.7-28.4,23.1c-17.2,0.2-23.2,4.6-26.9,21.2c-3.6,15.7-7,31.5-10,47.3c-1.5,7.7-4.8,11.6-13.2,11 C634.9,518.3,625.7,518.7,614.3,518.7z"></path> <path style="fill:#FFFFFF;" d="M811.9,467.9c5.4,6.7,10.7,12.5,15.2,19c1.5,2.1,2.2,6.3,1.1,8.4c-10.6,21.2-20.6,42.9-33,63.1 c-9.3,15.1-24.2,23.2-43.1,21.5c-6.2-0.6-12.5,0.3-18.7-0.2c-4.1-0.3-8-1.9-12.1-2.9c1.9-4.1,2.9-8.9,5.8-12.3 c14.3-16.8,29-33.2,43.6-49.7C784.7,498.9,798.7,482.9,811.9,467.9z M811.4,476.5c-1.4-0.2-2.8-0.4-4.1-0.6 c-4.3,24.7-8.6,49.4-12.9,74C810.9,527.8,807,501.2,811.4,476.5z"></path> <path style="fill:#FFFFFF;" d="M877,453.8c-6-8-11.4-15.1-17.8-23.6c8.2-22.6,18.3-46.5,34.4-67.3c10.8-14.1,24.5-23,43.5-21.3 c6.6,0.6,13.3-0.2,19.9,0.2c3.7,0.3,7.3,1.9,11,2.9c-1.6,3.8-2.5,8.2-5.1,11.2c-17,19.8-34.3,39.3-51.6,58.9 C899.7,428,888.1,441.2,877,453.8z M895.8,369.4c-17.2,22.1-14,48.7-17.9,76.6c4.7-7.1,7.9-11.8,11-16.5c-1.2-0.3-2.3-0.6-3.5-0.8 c1.9-9.6,3.9-19.1,5.6-27.8c0.1,0-1.5,0.6-2.8,1.1C890.8,390.9,893.3,380.2,895.8,369.4z"></path> <path style="fill:#FFFFFF;" d="M735.4,518.7c-1.8,0-3.7,0-5.5,0c-13.2-0.1-13.3-0.1-10.7-12.8c6.4-30.5,13.2-61,19.3-91.5 c1.5-7.7,5.4-10.4,12.8-10.3c34.6,0.5,28.6-3.4,22.7,26.6c-4.5,23-9.7,45.9-14.8,68.9C754.5,520.2,758.8,518.6,735.4,518.7z"></path> <path style="fill:#FFFFFF;" d="M311.6,518.7c2-10.1,3.6-18.2,5.3-26.3c5.3-25.5,10.8-50.9,15.9-76.4c1.7-8.5,5.5-12.4,14.8-12.2 c30.9,0.6,27.2-2.9,21.3,26.3c-5.2,25.8-11.3,51.5-16.3,77.4c-1.7,8.6-5.5,11.8-14.1,11.2C330.2,518.3,321.8,518.7,311.6,518.7z"></path> <path style="fill:#FFFFFF;" d="M818.3,404.5c12.1-3.5,19.1,3.6,23.8,15.7c3.2,8.1,7.8,15,16.7,19.2c10,4.7,13.5,18,10.1,28.9 c-3.2,10.4-14.2,18.3-25.2,18.1c-11.2-0.2-23.4-8-24.2-18.8c-1.3-17.4-10.9-30.8-17.8-45.6c-7.7-16.4-7.2-17.5,11.3-17.5 C814.2,404.5,815.3,404.5,818.3,404.5z M843.6,474.3c4.9-6.3,10-10,9.7-13.4c-0.3-3.6-5.5-9.5-8.7-9.6c-3.4-0.1-9.1,5.1-9.7,8.7 C834.3,463.3,839.2,467.6,843.6,474.3z"></path> <path style="fill:#FFFFFF;" d="M872.5,480.4c4.2,8.2,9.2,18,14.1,27.8c3.4,6.8,1.4,10.6-6.5,10.5c-2.2,0-4.4,0-6.6,0 c-25.1,0-27.2-1.6-33.8-24.4C850.3,489.8,860.8,485.3,872.5,480.4z"></path> <path style="fill:#FFFFFF;" d="M359.4,390.4c-19.2-2.5-21.5,2.7-16.5-21.6c1.9-9.5,6.1-13.4,15.5-12.1c1.4,0.2,2.9,0,4.4,0 c22,0,26.6,7,15.3,26.6C375.6,387.8,365.9,388.1,359.4,390.4z"></path> <path style="fill:#FFFFFF;" d="M744.3,388.3c2.2-10.5,3.4-18.1,5.6-25.3c0.8-2.5,4.1-5.7,6.5-5.9c9.1-0.7,18.3-0.4,27.4-0.2 c1.3,0,3.6,1.3,3.6,1.7c-1,8.1-1.6,16.4-3.9,24.3c-0.7,2.5-5.9,4.9-9.2,5.2C765,388.8,755.6,388.3,744.3,388.3z"></path> </svg> 