<?xml version="1.0" encoding="UTF-8"?> <svg xmlns="http://www.w3.org/2000/svg" xmlns:xlink="http://www.w3.org/1999/xlink" version="1.1" id="Layer_1" x="0px" y="0px" viewBox="0 0 1000 1000" style="enable-background:new 0 0 1000 1000;" xml:space="preserve"> <path style="fill:#FFFFFF;" d="M954.4,436.4c-31.4,0-62.7,0-94.1,0c-0.8,0-1.8-0.5-2.2,0.8l0,0l0,0c0,5.1-0.1,10.1-0.1,15.2 c0,0.7-0.4,1.6,0.7,1.9c26.8,0,53.6,0.1,80.4,0.1c0.8,0,1.6,0.1,2.1-0.6c0.7-0.1,1.5,0.2,1.9-0.7l0,0c1.7-0.2,3.1-1.3,4.5-2.1 c2.3-1,3.6-2.9,4.7-5l0,0c1.8-1.4,1.9-3.5,2.5-5.4l0,0l0,0c0.2-0.5,0.2-1,0.8-1.3c0-0.9,0-1.8,0-2.6 C955.2,436.5,954.8,436.4,954.4,436.4z"></path> <path style="fill:#FFFFFF;" d="M169.5,500.7c0-1.6-0.7-2-2.2-2c-15.5,0-30.9,0.1-46.4,0c-2.2,0-2.7,1-2.3,2.8 c1.2,5.9,3.9,10.8,9.8,13.4c1.7,1.3,3.8,1.8,5.9,2.1l0,0c0,0.2,0.1,0.4,0.1,0.6c11.7,0,23.3,0,35,0c0-0.2,0-0.5,0-0.7l0,0 c0-0.2,0-0.4,0-0.7l0,0l0,0C169.4,510.9,169.4,505.8,169.5,500.7z"></path> <path style="fill:#FFFFFF;" d="M166.7,454.3c0.8,0,2,0.7,2.6-0.7c0-5.5,0-11,0-16.4l0,0c0-0.2,0-0.4,0-0.7l0,0 c-0.5-1.1-1.5-0.6-2.3-0.6c-30.8,0-61.6,0-92.4,0c-0.9,0-2-0.5-2.6,0.7l0,0c-0.1,1.6-0.2,3.1,0.7,4.5l0,0l0,0 c0.4,2.4,1.5,4.4,3.1,6.2l0,0c1.7,3.2,4.4,5,7.9,5.8c1.5,1,3.1,1.3,4.9,1.3C114.5,454.3,140.6,454.4,166.7,454.3z M83.7,452.2 L83.7,452.2L83.7,452.2L83.7,452.2C83.7,452.2,83.7,452.2,83.7,452.2z"></path> <path style="fill:#FFFFFF;" d="M928.1,467.5c-22.1,0-44.3,0.1-66.4-0.1c-3.2,0-4.4,0.8-3.6,4l0,0l0,0c0,4,0,8.1,0,12.1 c0,0.9-0.1,1.9,1.3,1.6c18.9,0,37.8,0.1,56.7,0.1c0.5,0,1.1,0,1.4-0.6c5.7,0,9.1-3.4,11.8-7.9c0.3-0.8,1.4-1,1.3-2l0,0l0,0 c0.2-0.7,0.2-1.4,0.6-2.1C933,468.5,932.4,467.5,928.1,467.5z M860,470.1L860,470.1c0.1,0.1,0,0.1,0,0.2 C860,470.2,860,470.2,860,470.1z M908.1,474.2c0.1-0.1,0.1-0.1,0.2-0.2c0,0,0,0.1,0.1,0.1C908.3,474.2,908.2,474.2,908.1,474.2z"></path> <path style="fill:#FFFFFF;" d="M167,485.9c0.8,0,1.8,0.5,2.3-0.6l0,0c0-1.5,0-3.1,0-4.6c0-3.6,0-7.2,0.1-10.8 c0.1-1.5-0.6-1.9-1.9-1.8c-0.3-0.6-0.8-0.6-1.4-0.6c-23.3,0-46.6,0.1-69.9,0.1l0,0l0,0c-1.1-0.3-1.5,0.3-1.3,1.2 c0.8,3.3,1.2,6.7,3.8,9.3l0,0l0,0c1,2.1,2.8,3.4,4.7,4.6l0,0c2.1,1.6,4.4,2.7,7.1,2.6c1.2,0.8,2.5,0.6,3.8,0.6 C131.9,485.9,149.4,485.9,167,485.9z M158.6,482.6c-0.2-0.4,0.4,0.2-0.1,0.3c-0.9,0-1.8,0-2.7,0c0.8,0,1.7-0.1,2.5-0.1 C158.6,482.8,158.6,482.7,158.6,482.6z M112.8,483.3c0.1,0,0.2,0,0.3,0c-0.1,0.1-0.1,0.1-0.2,0.2 C112.8,483.4,112.7,483.4,112.8,483.3C112.7,483.3,112.7,483.3,112.8,483.3z M167.9,483.9C168,483.9,168,483.9,167.9,483.9 C168,483.9,168,483.9,167.9,483.9L167.9,483.9z"></path> <path style="fill:#FFFFFF;" d="M303.2,458.9c0-7.4,0-14.9,0-22.3c-0.5-1-1.5-0.7-2.3-0.7c-5,0-10,0-15,0c-0.8,0-1.8-0.4-2.3,0.7l0,0 c0,7.7,0,15.3,0,23l0,0l0,0c0,0.5,0,0.9,0,1.4c0,6.1,0,12.3,0,18.4l0,0l0,0c0,3.3,0,6.6,0,9.8l0,0c0,4,0,7.9,0,11.9l0,0 c-0.3,4.8-0.3,9.5,0,14.3l0,0l0,0c0.1,1.5,1.2,1,2,1c5.7,0,11.4-0.1,17-0.1l0,0l0,0l0,0l0,0c1.1-0.3,0.8-1.2,0.8-1.9 C303.2,495.9,303.2,477.4,303.2,458.9z M285.5,464.1C285.5,464.1,285.5,464.2,285.5,464.1C285.5,464.2,285.5,464.2,285.5,464.1 C285.5,464.2,285.5,464.2,285.5,464.1C285.5,464.2,285.5,464.2,285.5,464.1c0,0.1-0.1,0.1-0.1,0.1l0,0 C285.4,464.1,285.4,464.1,285.5,464.1z M302.5,483.3c0,0.1,0,0.1,0,0.2l0,0C302.5,483.4,302.5,483.3,302.5,483.3z M284.8,480.6 L284.8,480.6C284.8,480.7,284.8,480.7,284.8,480.6C284.8,480.7,284.8,480.7,284.8,480.6L284.8,480.6L284.8,480.6z"></path> <path style="fill:#FFFFFF;" d="M392.9,474L392.9,474c0-0.8,0-1.6,0.1-2.4c-0.3-1.1-1.1-0.9-1.9-0.9c-12.9,0-25.9,0-38.8,0 c-1.8,0-2.3,0.7-2.2,2.4c0.1,4,0.1,8.1,0.2,12.1l0,0c0.8,1.2,2,0.7,3,0.7c6,0,12.1,0,18.1,0.1c1.1,0,2.5-0.7,3.2,0.9l0,0l0,0 c-1,2.9-2.8,5.2-4.7,7.5l0,0l0,0c-0.7,0.5-1.5,0.9-2.2,1.4c-8,6.7-27.4,4.7-32.3-9.3c-0.6-2.2-1.1-4.3-1.7-6.5l0,0l0,0l0,0l0,0l0,0 c0-2.4,0.1-4.7,0.1-7.1c0.8-3.1,1.7-6.2,2.5-9.4l0,0l0,0c2.1-3.9,5.6-6.3,9.4-8.4l0,0c2.3-0.8,4.6-1.3,6.9-1.5c1.4,0,2.8,0,4.3,0 l0,0l0,0c0.6,0.1,1.3,0.1,1.9,0.2l0,0l0,0c2.7,1.1,6,1.4,7.7,3.9c3,4.5,7.3,4.2,11.7,4c2.5-0.1,5,0,7.5,0c5.8,0,5.8,0,4-5.4l0,0l0,0 c-0.9-2.5-2.2-4.7-3.9-6.7c-4.1-6.2-10.2-9.6-17.1-11.8c-1.1-1.2-2.6-1.3-4.1-1.3l0,0l0,0c-9.7-2.2-19.2-1.7-28.3,2.7l0,0l0,0 c-2.9,0.5-5,2.4-7.3,4l0,0l0,0c-3.7,2.9-7.1,6.1-9.3,10.3c-1,1.7-2.7,3.1-2.5,5.4c-0.5,1.1-1.5,2-1.3,3.3l0,0l0,0 c-0.8,0.7-0.8,1.7-0.8,2.7c-0.8,0.9-0.6,2.1-0.6,3.2v0.1c-1.2,2.3-0.5,4.8-1,7.2l0,0c-0.5,0.5-0.5,0.9,0,1.4l0,0l0,0 c0.2,2,0.3,3.9,0.5,5.9l0,0c1.1,8.3,4.2,15.7,10.1,21.8c1.6,2.3,3.7,4,6.1,5.3l0,0l0,0c4.8,3.7,10.3,5.7,16.3,6.5 c1.5,0.9,3.3,0.4,4.9,0.7c0,0.2,0.1,0.4,0.1,0.6c2,0,4,0,5.9,0c0-0.2,0-0.4,0.1-0.6c1.6-0.3,3.3,0.2,4.9-0.7l0,0l0,0 c5-0.5,9.6-2.2,13.7-5.1l0,0l0,0c4.1-1.9,7.3-5,10-8.6c2.3-2.1,3.7-4.8,5.1-7.6C394.3,488.2,393,481,392.9,474L392.9,474z M352.1,483.3L352.1,483.3L352.1,483.3L352.1,483.3z M327.1,505.6L327.1,505.6L327.1,505.6L327.1,505.6z M383.1,503.6L383.1,503.6 C383.1,503.7,383.1,503.7,383.1,503.6L383.1,503.6z M391.7,487.9L391.7,487.9L391.7,487.9C391.7,487.8,391.7,487.8,391.7,487.9 L391.7,487.9L391.7,487.9z"></path> <path style="fill:#FFFFFF;" d="M560.5,435.9c-15.6,0-31.2,0-46.7,0c-0.9,0-2-0.5-2.6,0.8l0,0c0,6.5,0,13.1,0,19.6l0,0 c0,4.4,0,8.8,0,13.2l0,0l0,0c0,3.3,0,6.6,0,9.9l0,0c0,3.3,0,6.6,0,9.8c-0.3,5-0.3,10.1,0,15.1c-0.3,3.7-0.3,7.4,0,11.2l0,0l0,0l0,0 l0,0c0.5,1.5,1.8,0.8,2.8,0.8c4.4,0.1,8.8-0.1,13.1,0.1c2.9,0.1,3.9-0.5,3.9-3.7c-0.2-9.6,0-19.2,0.1-28.8c7.8,0,15.7-0.1,23.5-0.1 c0.2-0.2,0.2-0.4,0.2-0.6c1.3-4.8,0.9-9.6,0-14.5l0,0c-1.1-0.7-2.3-0.4-3.5-0.4c-5.9,0-11.8-0.1-17.7,0c-1.9,0-2.7-0.5-2.6-2.6 c0.2-4.5,0.1-8.9,0.1-13.4c-0.1,0-0.2,0-0.2,0v-0.1l0.2,0.1c9.7,0,19.3,0,29-0.1c1.1,0,2.4,0.8,3.2-0.7l0,0l0,0c0-5,0-9.9,0-14.9 C562.6,435.5,561.4,435.9,560.5,435.9z M525.6,474.7L525.6,474.7L525.6,474.7L525.6,474.7z M513,468.2L513,468.2 C513,468.1,513,468.1,513,468.2L513,468.2L513,468.2z M528.9,504.3L528.9,504.3L528.9,504.3L528.9,504.3L528.9,504.3L528.9,504.3z M530.2,451L530.2,451L530.2,451L530.2,451z M512.3,455.6L512.3,455.6c0,0.1,0.2,0,0.2,0c0.1,0.1,0.1,0.2,0.2,0.4l0,0 c0-0.1-0.1-0.2-0.1-0.4c0,0.1,0,0.1,0,0.2C512.4,455.8,512.4,455.7,512.3,455.6C512.3,455.7,512.3,455.7,512.3,455.6 C512.2,455.6,512.3,455.6,512.3,455.6L512.3,455.6z M554.5,468.9L554.5,468.9L554.5,468.9c0-0.1,0.1-0.1,0.1-0.2 C554.6,468.8,554.5,468.9,554.5,468.9z M512.5,436.7C512.5,436.7,512.4,436.7,512.5,436.7C512.4,436.7,512.5,436.7,512.5,436.7 L512.5,436.7z"></path> <path style="fill:#FFFFFF;" d="M677.3,436.4c-1.1,0-2.4-0.5-3.4,0.6l0,0c-0.8,0.8-1.2,1.7-1.3,2.8l0,0l0,0 c-2.3,4.7-4.8,9.4-6.6,14.4l0,0c-1,1.4-2,2.8-2,4.6c-1.4,2.3-2.8,4.6-3.4,7.2c-0.9,0.6-0.6,2.2-1.9,2.6c-0.7-0.9-1.2-1.8-1.8-2.6 c-0.5-2.1-1.2-4.2-2.6-6l0,0l0,0c-2.9-6.3-5.8-12.6-8.7-18.9c-0.6-1.1-0.8-2.5-1.8-3.4c0-0.3,0-0.7-0.1-1c-0.2-0.2-0.4-0.6-0.7-0.6 c-6.8-0.1-13.7-0.2-20.5-0.1c-1.5,0-1.6,0.9-0.6,1.9l0,0c0.9,1.5,1.8,3.1,2.6,4.6c2.2,5.2,5.1,10.1,7.8,15.2l0,0l0,0 c0.3,1,0.6,1.9,1.4,2.7c1.7,4.4,4,8.4,6.4,12.5l0,0l0,0c0.7,1.3,1.3,2.6,2,3.9l0,0c2.1,4.1,4.2,8.3,6.2,12.4l0,0 c0.1,0.2,0.2,0.5,0.3,0.7c0.1,6.6,0.1,13.1,0.2,19.7l0,0l0,0c0.1,2.1-1,4.4,0.5,6.4c0,0.1,0.1,0.2,0.2,0.2l0,0l0,0l0,0 c6.1,0.4,12.2,0.3,18.4,0c1.1-0.2,0.8-1.1,0.8-1.8c0-4.2-0.1-8.4-0.1-12.7l0,0c0-4.2,0-8.4,0-12.6c-0.1,0.2-0.2,0.3-0.2,0.5 c0-0.2,0.1-0.4,0.2-0.5c2.3-4.3,4.5-8.6,6.8-12.9c0.9-0.7,1.2-1.7,1.3-2.8c1.1-1.4,1.9-3,2.5-4.7l0,0l0,0c0.2-0.5,0.4-1,0.6-1.5 c3-5.6,6.6-10.9,8.8-16.9c2.7-4.4,5-9,7.3-14C689.3,436.4,683.3,436.4,677.3,436.4z M687.6,450.3 C687.6,450.2,687.6,450.2,687.6,450.3C687.6,450.2,687.7,450.2,687.6,450.3L687.6,450.3z"></path> <path style="fill:#FFFFFF;" d="M753.2,504.6c0-4.3,0-4.2-4.4-4.3c-8.4-0.1-16.9,0.4-25.3-0.3l0,0l0,0c0-5.6,0.1-11.1,0.1-16.7 c8.5,0,16.9-0.1,25.4-0.1l0,0l0,0c1.5-0.6,0.9-1.9,0.8-2.8c-0.3-4.1,0.9-8.3-0.6-12.3l0,0l0,0h0.1l0,0c-1-1.1-2.3-0.6-3.4-0.6 c-7.4-0.1-14.9-0.2-22.3-0.2l0,0c0-5,0-9.9,0-14.9l0,0l0,0c8.8,0,17.7,0,26.5,0c1,0,2.2,0.6,2.9-0.6l0,0c0-5,0-10,0-15.1l0,0l0,0 l0,0l0,0c-0.5-1.1-1.5-0.7-2.3-0.7c-14.9,0-29.8,0-44.6,0c-0.8,0-1.8-0.4-2.3,0.7c0,9.8,0,19.7,0,29.5c0,6.1,0,12.3,0,18.4l0,0l0,0 c0,5,0,10.1,0,15.1l0,0c-0.1,4.9-0.1,9.8-0.2,14.7c0,0.7-0.3,1.6,0.9,1.8l0,0l0,0c16,0.3,31.9,0.3,47.9,0c1.5-0.3,0.9-1.6,0.9-2.4 C753.3,510.7,753.2,507.7,753.2,504.6z M706.4,504.8c0,0.1,0,0.1,0.1,0.2h-0.1C706.3,504.9,706.4,504.8,706.4,504.8z M720.9,455.6 L720.9,455.6C720.8,455.6,720.8,455.6,720.9,455.6C720.8,455.6,720.8,455.6,720.9,455.6L720.9,455.6 C720.8,455.6,720.8,455.6,720.9,455.6L720.9,455.6L720.9,455.6z M750.9,506.7L750.9,506.7L750.9,506.7L750.9,506.7z M723.5,451 L723.5,451C723.5,451,723.5,451.1,723.5,451C723.5,451.1,723.5,451,723.5,451L723.5,451z M705.1,490.5L705.1,490.5L705.1,490.5 C705.1,490.5,705,490.5,705.1,490.5C705,490.5,705,490.5,705.1,490.5C705,490.5,705,490.5,705.1,490.5z M704.4,490.5L704.4,490.5 L704.4,490.5L704.4,490.5z M704.4,515.5L704.4,515.5C704.4,515.4,704.4,515.4,704.4,515.5L704.4,515.5L704.4,515.5z"></path> <path style="fill:#FFFFFF;" d="M827.6,514.9L827.6,514.9c-1.8-2.9-3-6.1-5.2-8.7c-3.6-5.5-6-11.6-10-16.8l0,0 c-0.3-0.6-0.6-1.1-1-1.7c-1.4-2-1.7-3.5,1.3-4.4c1.8-0.5,3.7-1.2,5.1-2.6l0,0l0,0c4.9-3.6,8-8.4,9.2-14.4c0.1-0.1,0.1-0.2,0.2-0.3 c0.9-1.9,0.4-3.8,0.4-5.8c0.1-1.2,0.4-2.5-0.5-3.6l0,0c-0.2-2.6-0.9-4.9-2.6-6.9c-2.1-4.5-5.4-7.8-10-9.7l0,0 c-3.8-2.3-8-3.2-12.4-3.5c-0.3-0.2-0.6-0.5-0.8-0.5c-11.7,0-23.4,0-35.1,0c-0.2,0-0.4,0.2-0.5,0.3c0,0.1,0,0.2,0.1,0.3l0,0l0,0l0,0 v-0.3c-0.6,0.4-0.6,1.1-0.6,1.8c0,8.5,0.1,16.9,0.1,25.4c0,5,0,10.1,0,15.1l0,0l0,0c0,11.9-0.1,23.7-0.1,35.6c0,0.7-0.3,1.6,0.8,1.9 c5.7,0,11.5,0.1,17.2,0.1c0.7,0,1.6,0.3,1.9-0.7c0.3-6,0.2-11.9-0.1-17.9l0,0l0,0c0-2.9,0.1-5.9,0.1-8.8c0-2.7,1.3-3.7,3.8-2.9 c1.3,0.4,1.4,1.6,1.9,2.5c3.2,5.5,5.8,11.3,9.4,16.5l0,0c1.4,3.8,3.5,7.2,5.6,10.6l0,0l0,0c0.1,0.2,0.3,0.5,0.4,0.5 c7.1,0.6,14.2,0.2,21.3,0.2C828.3,516.2,828.3,515.5,827.6,514.9L827.6,514.9z M767,501.7L767,501.7 C767.1,501.7,767.1,501.7,767,501.7L767,501.7z M800.5,453c0,0.1,0.1,0.2,0.1,0.2c2.7,1.8,5.3,3.7,6.2,7.2c0.1,0.3,0.3,0.6,0.5,0.8 c0,0.4,0,0.8,0,1.2c-0.4,0.9-0.3,2-0.8,2.9c-0.4,1-0.8,2.1-0.3,3.1l0,0c-0.3,0.2-0.5,0.5-0.6,0.8c-0.4-0.2-0.8-0.2-1.2,0 c-4.9,2.8-10.2,1.7-15.3,1.9c-1.8,0.1-3.1-0.6-3.9-2.3c-0.1-0.1-0.2-0.2-0.3-0.2c0-0.1,0-0.1,0-0.2v-0.1c0.5-4,0.1-7.9,0.3-11.9 c0-1.2-0.3-2.5,0.7-3.4c0.1,0,0.1,0,0.2,0c0.9,0.2,1.8,0.1,2.7,0.2c3.5,0.1,6.9-0.2,10.4,0.2C799.6,453.5,800.1,453.4,800.5,453z M783.6,469.5L783.6,469.5c-0.1,0-0.1,0-0.1-0.1l0,0C783.5,469.4,783.6,469.5,783.6,469.5L783.6,469.5 C783.6,469.4,783.6,469.4,783.6,469.5L783.6,469.5z M765.8,502.4c0.1,0.1,0.2,0.3,0.3,0.4c-0.1,0-0.2-0.1-0.3-0.1 C765.8,502.6,765.8,502.5,765.8,502.4z M783.5,512.9L783.5,512.9L783.5,512.9L783.5,512.9L783.5,512.9L783.5,512.9z M766.4,436.7 L766.4,436.7L766.4,436.7L766.4,436.7z"></path> <path style="fill:#FFFFFF;" d="M472.9,436.5L472.9,436.5L472.9,436.5c-6.4-0.9-12.9-0.8-19.3,0c-1,1.1-0.6,2.5-0.6,3.8 c-0.1,9.1-0.2,18.2-0.2,27.2l0,0c-8.9,0-17.7,0-26.6,0.1c-2.3,0-3-0.6-3-2.9c0.1-9.3,0-18.5,0-27.8l0,0l0,0 c-0.5-1.3-1.6-0.8-2.5-0.9c-4.9,0-9.8,0-14.7,0c-0.8,0-1.8-0.4-2.3,0.7l0,0c0,12.9,0,25.8,0,38.8c0,6.4,0,12.7,0,19.1 c0,3.1,0,6.1,0,9.2l0,0c0,1.8-0.3,3.7-0.1,5.5c0.2,2.3-1,4.8,0.7,7l0,0l0,0c6.1,0.4,12.3,0.3,18.4,0l0,0l0,0l0,0l0,0 c1.4-0.8,0.7-2.2,0.7-3.2c0.1-9.6,0.1-19.3,0.1-28.9l0,0c8.8-0.1,17.6,0,26.3-0.2c2.6-0.1,3.3,0.7,3.3,3.3c-0.2,9,0,18-0.1,26.9 c0,2.1,0.6,2.9,2.8,2.8c5-0.1,10.1-0.1,15.2,0c2,0,2.6-0.7,2.6-2.7c-0.1-14-0.1-28-0.2-42.1l0,0l0,0c0-5,0-10.1,0-15.1l0,0 c0-3.6,0.2-7.2,0.1-10.8C473.3,442.9,474.1,439.6,472.9,436.5z M420.7,452.3L420.7,452.3C420.7,452.4,420.7,452.4,420.7,452.3 L420.7,452.3z M471.5,466.9L471.5,466.9C471.5,466.8,471.5,466.8,471.5,466.9C471.5,466.8,471.5,466.8,471.5,466.9 C471.5,466.8,471.5,466.8,471.5,466.9C471.5,466.8,471.5,466.9,471.5,466.9z M454.9,497.1L454.9,497.1L454.9,497.1L454.9,497.1z M421.5,469.6l-0.1-0.1l0,0l0,0l0,0c0.1,0,0.1,0,0.2,0L421.5,469.6L421.5,469.6z M453.8,461.6l0.1,0.1c0,0-0.1,0-0.2,0 C453.7,461.6,453.7,461.6,453.8,461.6z"></path> <path style="fill:#FFFFFF;" d="M269.6,500.4c0-4.4,0-8.8,0-13.2l0,0l0,0c0-16.9-0.1-33.7-0.1-50.6l0,0c-0.5-1.1-1.5-0.7-2.3-0.7 c-5,0-10,0-15,0c-0.8,0-1.8-0.5-2.3,0.7l0,0l0,0l0,0l0,0c-0.1,10.3-0.2,20.6-0.3,30.9l0,0c-9.1,0-18.1,0-27.2,0 c-1,0-2.2,0.7-2.9-0.6c0.4-0.1,0.6-0.3,0.4-0.7l0,0c0-9.9,0-19.7,0-29.6c-6.6-1.3-13.1-0.9-19.7-0.2l0,0l0,0 c-0.8,0.8-0.5,1.9-0.5,2.8c0,24.7,0,49.5,0.1,74.2c0,0.9-0.5,2,0.7,2.7c5.4,0,10.7-0.1,16.1,0.2c2.9,0.1,3.7-0.6,3.6-3.6 c-0.2-9.8,0-19.6,0.1-29.4c9.8,0,19.6,0,29.4,0c0-0.1,0-0.1,0-0.2l0.1,0.1l0,0l0,0l-0.1,0.1c0.1,7.2,0.2,14.4,0.3,21.7 c0,3.5,0,7,0,10.5l0,0c0.1,0.8,0.7,0.7,1.2,0.7c5.9,0,11.8-0.1,17.8-0.1c1.1-0.2,0.8-1.2,0.8-1.8C269.7,509.6,269.6,505,269.6,500.4 z M201.7,509.6L201.7,509.6L201.7,509.6L201.7,509.6L201.7,509.6z M252,507.5c0,0-0.1,0-0.1,0.1l0,0v-0.1 C251.9,507.5,251.9,507.5,252,507.5z M218.2,468.8L218.2,468.8L218.2,468.8L218.2,468.8z M218.4,469c-0.1-0.1-0.1-0.1-0.2-0.2l0,0 l0,0l0,0c0.2,0,0.3,0,0.5,0l0,0C218.5,468.8,218.4,468.9,218.4,469z M250.5,460.9L250.5,460.9L250.5,460.9L250.5,460.9z M219.5,436.6L219.5,436.6C219.5,436.7,219.5,436.6,219.5,436.6L219.5,436.6L219.5,436.6z"></path> <path style="fill:#FFFFFF;" d="M617.8,501.1L617.8,501.1L617.8,501.1c-5.8,0-11.6,0-17.5-0.2c-2.5-0.1-5,0.5-7.4-0.6l0,0l0,0 c0.8-21.2-0.1-42.4-0.1-63.7l0,0l0,0c-0.3-1-1.2-0.8-1.9-0.8c-5.4,0-10.7,0-16.1,0c-0.6,0-1.4-0.1-1.6,0.7l0,0c0,12.5,0,25-0.1,37.4 l0,0l0,0c0,3.9,0,7.9,0,11.8l0,0c0,5,0,10.1,0,15.1l0,0c0,4.4-0.1,8.9-0.1,13.3c0,0.7-0.4,1.6,0.8,1.8l0,0l0,0c14.7,0,29.3,0,44,0 c1.7-1.6,0.8-3.6,0.7-5.4C618.3,507.6,619.6,504.2,617.8,501.1z M575,487.2L575,487.2L575,487.2L575,487.2 C575,487.3,575,487.2,575,487.2C575,487.3,574.9,487.3,575,487.2L575,487.2C574.9,487.2,575,487.2,575,487.2z"></path> <path style="fill:#FFFFFF;" d="M908.1,498.9L908.1,498.9L908.1,498.9c-16.2-0.1-32.4-0.2-48.5-0.2c-1.2,0-1.9,0.5-1.8,1.7 c0.1,1.2,0.2,2.4,0.2,3.6c-0.3,1.3-0.4,2.5-0.4,3.8c-0.2,2.8-0.1,5.6,0.3,8.4l0,0l0,0l0,0c-0.2,0.2-0.2,0.4,0,0.6l0,0 c0,0.2,0,0.5,0.1,0.7c11.7,0,23.3,0,35,0c0-0.2,0-0.4,0-0.6l0,0l0,0c0.2-0.2,0.5-0.5,0.7-0.7l0,0l0,0c1.1,0.1,2-0.1,3.1-0.6 c6-2.5,9.8-6.7,11.3-13C908.7,501.4,909.6,500.1,908.1,498.9z"></path> </svg> 