<?xml version="1.0" encoding="UTF-8"?> <svg xmlns="http://www.w3.org/2000/svg" xmlns:xlink="http://www.w3.org/1999/xlink" version="1.1" id="Layer_1" x="0px" y="0px" viewBox="0 0 1000 1000" style="enable-background:new 0 0 1000 1000;" xml:space="preserve"> <path style="fill:#FFFFFF;" d="M523.6,183.4c2.6,1.6,4.2,4.1,5.5,6.7c2,4.2,4,8.5,6,12.7c1.7,3.6,3.4,7.2,5,10.8 c4.4,10.2,12.3,15.6,23.2,16.9c8.6,1,17.2,2,25.8,3c1.7,0.2,3.4,0.5,5,1.1c4.1,1.5,5.2,4.6,2.7,8.2c-1.1,1.6-2.4,3.1-3.8,4.4 c-5.5,5.3-11.2,10.4-16.7,15.6c-1.6,1.5-3.1,2.9-4.6,4.5c-5.6,6-7.7,13.2-6.3,21.2c1.6,9.6,3.8,19.1,5.6,28.7 c0.4,2.1,0.5,4.4,0.3,6.6c-0.3,2.8-1.9,4.2-4.7,4.1c-1.5-0.1-3.1-0.3-4.4-1c-5.8-3.1-11.7-6.2-17.3-9.6c-6.2-3.8-12.6-7.1-19.8-8.4 c-3.4-0.6-6.7,0-9.9,1.2c-5.3,2.1-10.4,4.6-15.2,7.8c-4.7,3.1-9.6,5.7-14.5,8.4c-1.7,0.9-3.6,1.5-5.5,1.9c-3.4,0.7-5.4-0.8-6.1-4.2 c-0.7-3.4,0.5-6.6,1-9.9c1.5-8.4,3.3-16.8,4.8-25.2c1.2-6.6-0.2-12.8-4.4-18.1c-2.5-3.2-5.4-6.1-8.4-8.9c-4.8-4.5-9.8-8.9-14.7-13.4 c-1.3-1.2-2.6-2.6-3.7-4c-3.5-4.6-2.4-8,3.2-9.6c2.2-0.6,4.6-1,6.9-1.3c8.1-1.1,16.1-2,24.2-3.1c0.4-0.1,0.8-0.2,1.2-0.2 c9-1.6,15.5-6.4,19.4-14.7c2.5-5.2,4.9-10.5,7.3-15.8c1.9-4,3.7-7.9,5.7-11.8c1-2,2.6-3.6,4.7-4.6 C522,183.4,522.8,183.4,523.6,183.4z"></path> <path style="fill:#FFFFFF;" d="M973.9,616.3c-2.5,4.3-6.3,7.6-9.9,11c-5.7,5.4-11.5,10.6-17.3,16c-4.6,4.3-8.3,9.2-9.9,15.5 c-1.3,5.2-0.9,10.3,0.1,15.4c1.8,9.1,3.7,18.1,5.4,27.2c0.5,2.9,0.9,5.8,0.8,8.8c0,4.4-2.6,6.5-7,5.7c-1.6-0.3-3.2-0.8-4.6-1.6 c-5.6-3-11-6.1-16.6-9.1c-5.7-3-11.3-6-17.2-8.6c-7.6-3.4-15.3-3.4-22.7,0.4c-7.5,3.9-14.8,8.1-22.2,12.2c-3.2,1.8-6.4,3.6-9.7,5.2 c-1.7,0.8-3.6,1.5-5.5,1.9c-4.2,0.8-6.8-1.3-6.8-5.6c0-2.9,0.3-5.9,0.7-8.8c0.5-3.2,1.1-6.4,1.8-9.6c1.3-5.5,2.8-11,4.2-16.5 c0.1-0.3,0.3-0.5,0.6-0.9c0.4,0.9,0.6,1.8,1.1,2.3c0.6,0.6,1.6,1,2.4,1.2c2.6,0.5,5.2,1.1,7.8,1.3c12.5,1,25,2,37.8,3 c3.6-3,7.4-6.2,11.3-9.3c1.1-0.9,1.3-1.9,1.1-3.2c-1.7-11.4-3.5-22.7-5.1-34.1c-2.5-16.9-4.9-33.7-7.4-50.6c-0.1-0.9-0.1-1.8-0.2-3 c2.4,0.2,4.6,0.4,6.8,0.5c1.2,0.1,2.5,0.1,3.7,0.3c2.2,0.4,4.2,0,6-1.5c0.5-0.4,1.2-0.7,1.9-1.2c0.8,1.7,1.7,3.2,2.4,4.8 c4.8,10.5,12.9,16.5,24.4,18c8.6,1.1,17.2,2,25.8,3.1c3,0.4,6.1,0.8,9.1,1.3c2.9,0.5,5.4,1.7,7,4.2 C973.9,613.4,973.9,614.9,973.9,616.3z"></path> <path style="fill:#FFFFFF;" d="M295.2,488.5c-9,0-17.8,0-27,0c-0.3-19.4-0.1-38.7-0.7-58.3c-14.2,18.8-28.3,37.6-42.7,56.6 c-14.3-19.1-28.4-37.9-42.6-56.9c0,19.8,0,39.1,0,58.7c-9.3,0-18.5,0-27.9,0c0-47.8,0-95.5,0-143.1c0.1,0,0.1-0.1,0.2-0.1 c0.1,0,0.2,0,0.3,0c0.2,0.2,0.4,0.4,0.6,0.6c23.1,30.8,46.1,61.7,69.2,92.5c0,0.1,0.2,0.1,0.5,0.2c23.2-31.1,46.4-62.3,69.8-93.5 C295.6,347.5,295.8,482.2,295.2,488.5z"></path> <path style="fill:#FFFFFF;" d="M552.8,343c1.1,0,2,0,2.9,0c11.1,0,22.2,0,33.3,0c19.8,0.1,35.6,15.5,36,35.3 c0.1,2.5-0.3,5.1-0.6,7.6c-0.6,4.3,0,5.7,3.9,8c4.1,2.4,7.9,5,11.2,8.4c14.2,14.9,18.4,32.4,12.5,51.9 c-5.8,19.1-19.6,29.9-38.8,34.1c-3.4,0.7-6.9,0.9-10.3,0.9c-15.9,0.1-31.8,0.1-47.7,0.1c-0.7,0-1.4-0.1-2.4-0.1 C552.8,440.4,552.8,391.9,552.8,343z M581.4,416c-0.7,4.7-0.5,43.4,0.3,45.6c5.5,0,11.1,0,16.7,0c2.7,0,5.5-0.1,8.2-0.5 c10.8-1.5,19.6-11.9,19.5-22.6c-0.1-11-8.8-21-19.9-22.1c-6.8-0.7-13.6-0.3-20.5-0.4C584.4,415.9,582.9,416,581.4,416z M581.3,371.9 c0,5.1,0,10.2,0,15.2c3,0.7,5.8,0.5,8.7,0.1c4.3-0.6,6.6-3.4,6.7-7.7c0.1-3.8-2.2-6.9-6.2-7.4C587.5,371.5,584.4,371.9,581.3,371.9z "></path> <path style="fill:#FFFFFF;" d="M807.2,607.4c-0.1,6.1-0.6,12-2.1,17.9c-4.1,16.4-14.5,26.7-30.6,31.3c-8,2.3-16.2,2.6-24.5,2 c-8.5-0.6-16.7-2.2-24.6-5.4c-16.1-6.5-27.4-18-34.2-33.9c-3.8-8.9-5.6-18.3-6.5-27.8c-0.9-8.9-0.9-17.9,0.5-26.8 c1.2-7.6,3.3-14.9,7.5-21.5c6.9-10.9,16.8-17.3,29.4-19.5c16.9-3,33.1-0.7,48.2,7.7c13.7,7.7,22.8,19.4,28.8,33.8 c4,9.7,6.1,19.8,7.3,30.1C806.7,599.3,806.9,603.4,807.2,607.4z M772.5,602c-0.6-8.4-1.5-16.7-3.5-24.8c-1.3-5.4-3.3-10.5-6.4-15.1 c-4.8-7-12.1-10.1-20.4-10.6c-4.3-0.3-8.6,0-12.5,1.9c-2.9,1.4-5.5,3.2-7,6.2c-3.6,7-4.5,14.5-4.3,22.2c0.1,4.3,0.6,8.5,1.1,12.7 c0.7,5.9,1.9,11.6,4.2,17.1c3.5,8.6,9.2,14.9,18.5,17.1c3.4,0.8,7.1,1,10.6,1c9.4-0.2,15.8-5.3,17.9-14.5 C771.6,610.9,771.9,606.4,772.5,602z"></path> <path style="fill:#FFFFFF;" d="M94.2,618.7c-1.3,8.2-2.6,15.8-3.8,23.5c-1.2,7.4-2.3,14.9-3.6,22.3c-0.4,2.1,0.1,3.3,1.9,4.6 c4,2.8,7.8,5.9,11.7,8.8c3.2,2.3,7,3.1,10.7,4.4c2.4,0.9,4.9,1.3,7.4,2c1.1,0.3,2.1,0.8,3.1,1.1c1.7,0.5,3.5,1.2,5.3,1.3 c8.6,0.8,17-0.1,25.3-2.6c0.5-0.1,1-0.3,1.8-0.5c0.8,4.6,1.5,9,2.3,13.5c1.1,6.2,2.4,12.4,3.5,18.6c0.3,1.9,0.4,3.8,0.3,5.8 c-0.2,3.7-2.7,5.9-6.4,5.1c-2.8-0.6-5.7-1.7-8.2-3.1c-7.1-3.8-13.9-8-21.1-11.8c-4.2-2.2-8.7-4-13.1-5.7c-5.5-2.1-11-1.7-16.4,0.4 c-7.1,2.7-13.5,6.6-20.1,10.3c-5.2,3-10.5,5.8-15.8,8.7c-1.2,0.6-2.5,1-3.7,1.3c-4.3,1.2-7.5-1-7.4-5.4c0.1-4.1,0.6-8.3,1.3-12.4 c1.5-8.4,3.4-16.7,4.9-25.1c1.8-10.3-0.5-19.5-8.1-26.9c-5.8-5.7-12-11.1-17.9-16.6c-3.1-2.9-6.1-5.9-9.2-9 c-0.7-0.7-1.3-1.6-1.8-2.4c-2.3-3.9-1.3-7.2,2.9-8.8c2.6-1,5.5-1.6,8.3-2c7.3-1,14.6-1.6,21.8-2.5c5.5-0.7,10.9-1.7,16.1-3.6 c4.7-1.7,8.6-4.6,11.5-8.7c4.1-5.6,6.8-11.8,9.7-18c2.7-6,5.4-12.1,8.2-18.1c0.9-1.9,2.2-3.7,3.6-5.3c2.6-2.8,5.7-2.8,8.2,0 c1.4,1.6,2.7,3.4,3.6,5.3c2.8,5.7,5.5,11.6,8.2,17.4c1.8,3.8,3.6,7.6,5.3,11.3c1.8,3.8,4,7.3,7.1,10.2c0.9,0.8,1.1,1.6,1,2.7 c-0.9,5.2-1.7,10.4-2.7,15.6c-1.6,8.2-12.8,11.2-18.1,7c-4.8-3.7-9.8-7.3-14.7-10.9C96.3,620.2,95.5,619.6,94.2,618.7z"></path> <path style="fill:#FFFFFF;" d="M440.6,520.2c11-0.2,21.6-0.3,32.6-0.5c0.2,8.3-0.2,16.4-0.3,24.5c-0.1,8.1-0.2,16.3-0.4,24.7 c1.3-0.5,1.7-1.6,2.3-2.5c9.6-14.7,19.2-29.3,28.6-44.1c1.2-1.9,2.5-2.8,4.9-2.7c11.4,0.1,22.8,0.1,34.3,0.1c1,0,2,0.1,3.3,0.1 c-0.6,1-1,1.7-1.4,2.2c-5.4,6.5-10.8,13-16.1,19.5c-8,9.8-16,19.5-24,29.3c-2,2.5-2.1,2.5-0.3,5.2c15,23.3,30.1,46.5,45.1,69.8 c0.8,1.2,1.5,2.4,2.6,4.1c-2.1,0-3.8,0.1-5.4,0.1c-4.9,0-9.8-0.1-14.7-0.1c-7.2,0-14.5,0-21.8,0c-10.9-15.7-20.3-32.2-30.6-48.6 c-2.9,3.1-5.7,6.2-8,9.6c-0.4,0.6-0.4,1.6-0.4,2.3c-0.1,2.7,0,5.5-0.1,8.2c-0.1,9-0.3,17.9-0.4,26.9c0,0.4-0.1,0.8-0.1,1.6 c-1.2,0.1-2.3,0.3-3.5,0.3c-6.5,0-13,0-19.6,0c-2.3,0-4.7,0.2-7,0.2c-1,0-2-0.1-3.4-0.2C438,607,439.3,563.8,440.6,520.2z"></path> <path style="fill:#FFFFFF;" d="M753.1,343.1c0,9.5,0,18.8,0,28.4c-19.3,0-38.3,0-57.5,0c0,10.2,0,20.1,0,30.5 c14.2,0.5,28.5,0.1,42.9,0.3c0,9.4,0,18.5,0,28c-3.5,0.2-7,0.1-10.5,0.1c-3.6,0-7.1,0-10.7,0c-3.6,0-7.1,0-10.7,0 c-3.6,0-7.1,0-10.6,0c-0.7,2.4-0.9,26.8-0.2,31c9.5,0.3,19,0.1,28.5,0.1c9.5,0,18.9,0,28.6,0c0,9,0,17.8,0,26.6 c-2.3,0.6-82.8,0.7-86.3,0.1c0-48.3,0-96.6,0-145.2C695.4,343.1,724.2,343.1,753.1,343.1z"></path> <path style="fill:#FFFFFF;" d="M600.6,650.5c-11,0-21.9,0-33.1,0c-1-43.7-2.1-87-3.1-130.7c2.9,0,5.5,0,8.1,0 c10.9,0.2,21.8,0.3,32.7,0.6c7.9,0.2,15.9,0.4,23.8,1.1c6.6,0.6,12.9,2.7,18.8,6c10,5.6,16.3,14,19.1,25c2.2,8.9,2.9,17.8,1.3,26.9 c-2.9,16-12.7,25.4-28.2,29.4c-4.7,1.2-9.5,1.5-14.3,1.4c-7.3-0.1-14.7-0.3-22-0.4c-4.2-0.1-4.5,0.2-4.4,4.2 c0.2,6.4,0.5,12.8,0.7,19.2C600.2,639.1,600.4,644.7,600.6,650.5z M596.6,548c0.4,12.5,0.9,24.9,1.3,37.5c7.8,0.1,15.3,0.3,22.7,0.3 c6.9,0,11.4-3.5,13-10.2c1.7-6.9,0.8-13.6-2.6-19.8c-2.7-5-7.1-7.4-12.8-7.6c-1.5-0.1-3-0.2-4.6-0.2C608.1,548,602.6,548,596.6,548z M620.1,587.3c-0.1,0-0.2,0-0.2,0c-2.6,0-5.3,0-7.9,0c0,0,0,0,0,0C614.7,587.3,617.4,587.3,620.1,587.3z"></path> <path style="fill:#FFFFFF;" d="M307.3,654.1c-11.2,0.5-22.3,1-33.8,1.5c-2-8.1-4-16.2-6.1-24.6c-0.9-0.1-1.9-0.3-3-0.3 c-8,0.4-16.1,0.8-24.1,1.3c-5.1,0.3-10.2,0.6-15.3,0.8c-2.2,0.1-3.2,1-4,2.9c-3.1,7.4-6.4,14.7-9.6,22.1c-0.2,0.4-0.4,0.7-0.7,1.3 c-10.1,0.7-20.3,1.3-30.7,2c20.6-44.7,41.1-89,61.7-133.7c11.5-0.6,23.3-1.3,35-1.9C286.9,568.4,297.1,611.1,307.3,654.1z M252.3,561.2c-0.2,0-0.4,0-0.6,0c-6.1,15.1-12.2,30.2-18.4,45.7c9.6-0.5,18.7-1,28.1-1.5C258.3,590.4,255.3,575.8,252.3,561.2z"></path> <path style="fill:#FFFFFF;" d="M418.2,557.2c-3.8-2.2-7.2-4.3-10.7-6.1c-6.1-3.2-12.7-5.1-19.6-5.5c-6.6-0.4-13,0.6-19,3.4 c-4.6,2.2-8.5,5.5-10.9,10c-2.4,4.5-4.1,9.5-5.1,14.6c-1.7,8.7-2.4,17.5-1.8,26.4c0.2,3.2,0.8,6.5,1.6,9.6 c2.7,10.1,9.5,15.4,19.7,17.1c10.7,1.7,20.7-0.7,30.2-5.2c4.4-2.1,8.6-4.7,13.1-7.2c0.1,0.5,0.3,1.1,0.3,1.6 c-0.3,8.8-0.6,17.5-0.8,26.3c0,1.9-1,2.7-2.5,3.4c-7.2,3.4-14.9,5.6-22.7,7.1c-12.9,2.5-25.9,2.8-38.8-0.4 c-9.7-2.4-18.2-7.1-24.5-15.1c-4.6-5.8-6.8-12.7-8.2-19.9c-1.8-9.4-0.9-18.9-1.2-28.3c-0.2-5.3,0.5-10.4,1.4-15.4 c0.9-5.1,2.5-10.1,4.1-15c2.6-8,6.8-15.2,12.4-21.6c8.6-9.7,19.7-15,32.2-17.3c17-3.2,33.3-1,49,5.9c2.9,1.3,2.9,1.3,2.8,4.5 c-0.3,7.9-0.7,15.9-1,23.8C418.4,554.9,418.3,555.9,418.2,557.2z"></path> <path style="fill:#FFFFFF;" d="M870.3,371.9c-12.2,0-24,0-36.2,0c0,39.1,0,78,0,117c-9.5,0-18.6,0-28.2,0 c-0.1-38.9-0.2-77.8-0.3-116.9c-12.2,0-24.2,0-36.1,0c-0.8-2.5-1-21.6-0.5-28.5c2.2-0.6,94.8-0.9,101.2-0.3 C870.3,352.6,870.2,362,870.3,371.9z"></path> <path style="fill:#FFFFFF;" d="M536.4,371.8c-12,0-23.8,0-36,0c0,39.1,0,77.9,0,117c-9.5,0-18.6,0-28.2,0 c-0.1-19.4-0.1-38.8-0.1-58.2c0-19.4,0-38.9,0-58.6c-12.5,0-24.6,0-36.8,0c0-9.8,0-19.2,0-28.8c33.7,0,67.3,0,101.1,0 C536.4,352.6,536.4,362,536.4,371.8z"></path> <path style="fill:#FFFFFF;" d="M438.2,489.2c-11.4,0-22.8,0-34.4,0c0.4-5.7-3.2-8.6-7.3-11.2c-0.6-0.4-1.2-0.7-1.8-1.2 c-2.1-1.5-2.1-2.2-0.4-4.1c1.8-2,1.6-2.7-1-3.5c-1.6-0.5-2.5-1.5-3.2-3c-3.5-7.4-5.2-15.2-6-23.2c-0.3-3.1-0.4-6.3-0.6-9.7 c1.3-0.1,2.4,0,3.5-0.2c1.7-0.3,3.5-0.5,5-1.2c2.1-1,2.1-3.4,0.1-4.6c-1-0.6-2.3-0.9-3.4-1.3c-0.8-3-0.8-3-3.7-3.7 c-0.4-2.9-0.4-5.6,1.3-8.4c2.3-3.8,4.3-7.9,5.1-12.3c0.6-3.2-0.2-5-3-6.7c-2.6-1.6-5.5-2.2-8.4-2.4c-0.7-0.1-1.5,0.1-2.1-0.2 c-0.7-0.4-1.6-1.2-1.7-1.9c-0.1-0.7,0.6-1.7,1.2-2.1c1-0.5,1.9-0.8,1.5-2.3c-0.6-0.3-1.3-0.6-2.2-1c0-0.7,0-1.5,0-2.5 c1.2,0,2.4,0,3.8,0c0.2,0.5,0.6,1.1,1,1.9c0.4-0.4,0.8-0.5,0.8-0.7c0-1.8,0-3.6-0.1-5.7c-1.2,2.5-3.1,2-5.3,1.6 c0.3-1,0.3-1.9,0.7-2.6c2.1-2.7,2-2.8-1.4-3.6c-0.2,0-0.4-0.2-0.7-0.4c0.1-1.9-0.9-4,0.8-5.9c0.6-0.7,0.1-1.7-0.8-1.9 c-1.4-0.2-2.8-0.1-4.2,0.1c-0.3,0.1-0.9,1.5-0.7,1.7c1.9,1.8,0.7,4,1,6.2c-0.6,0.1-1.1,0.2-1.6,0.3c-2.4,0.7-2.5,1.2-0.9,3.2 c0.6,0.7,0.7,1.7,1.2,2.8c-1.7,0-2.9,0-4.2,0c-0.3-0.5-0.6-1.1-0.9-1.6c-1.1,0.4-1,4.2,0.1,6.4c0.4-0.8,0.8-1.4,1.2-2.1 c1.1,0,2.2,0,3.6,0c0.1,0.9,0.2,1.7,0.3,2.6c-0.6,0.3-1.1,0.4-1.5,0.7c-1.3,0.8-1.3,1.6,0,2.4c0.2,0.1,0.4,0.2,0.6,0.2 c1.3,0.3,1.5,1.3,1.4,2.4c-0.2,1.2-1.1,1.7-2.1,1.8c-1.9,0.3-3.9,0.3-5.7,0.8c-1.6,0.4-3.1,1-4.5,1.8c-2.4,1.3-3.5,3.5-2.9,6.2 c0.6,2.5,1.4,4.9,2.3,7.2c0.7,1.8,1.5,3.6,2.6,5.2c1.9,2.7,2.1,5.6,1.6,8.7c-3,0.8-3,0.8-3.8,3.8c-1,0.3-2.1,0.4-2.9,0.9 c-0.8,0.6-1.6,1.6-1.9,2.5c-0.4,1.2,0.7,2.1,1.8,2.5c1.4,0.5,2.9,0.8,4.4,1c1.1,0.2,2.2,0.2,3.4,0.2c0.1,0.5,0.3,0.9,0.3,1.3 c-0.2,10.3-1.5,20.3-5.5,29.8c-1,2.4-2,4.6-5,5.2c-1.4,0.3-1.6,1.3-0.7,2.6c2.4,3.3,2.4,3.3-1.1,5.6c-1,0.7-2.1,1.3-3,2 c-3.4,2.7-4.5,4.7-4.8,9c-2,0.6-30.6,0.8-34.7,0.2c21.5-48.4,42.9-96.8,64.4-145.3C374.9,345.5,437.4,485.8,438.2,489.2z"></path> <path style="fill:#FFFFFF;" d="M905,536.5c1.5,9.1,2.9,17.9,4.4,27.1c-5.6,0.2-10.9-0.7-16.2-1.1c-5.3-0.4-10.7-0.8-16.3-1.2 c5.2,34.5,10.4,68.6,15.6,103c-0.7,0.2-1.4,0.5-2,0.4c-9.6-0.7-19.3-1.4-28.9-2.1c-0.6,0-1.2-0.3-2.1-0.5c-0.4-2.5-0.8-5.1-1.2-7.7 c-2.6-18.2-5.2-36.4-7.8-54.6c-0.4-2.8-0.8-5.6-1.2-8.4c-0.9-5.9-2-11.8-2.8-17.7c-0.3-2.1-0.1-4.2-0.3-6.3c-0.2-2.8-0.6-5.6-1-8.6 c-11.1-0.8-22-1.6-33.1-2.4c-1.2-9.1-2.3-17.9-3.5-27.3C840.9,531.3,872.7,533.8,905,536.5z"></path> <path style="fill:#FFFFFF;" d="M151.8,536.9c9.6-0.7,19.1-1.4,29-2.1c-0.2,3.4-0.3,6.5-0.7,9.6c-1.3,9.7-3,19.3-3.9,29 c-1.5,15.2-4,30.2-6.2,45.2c-0.8,5.4-1.5,10.9-3.1,16.1c-5,16.1-15.9,26.4-32,31.2c-12.9,3.8-25.5,3-38.1-1.5 c-0.7-0.2-1.3-0.6-2.1-1c1.6-9.5,3.1-19,4.7-28.9c1.2,0.8,2,1.3,2.8,1.8c1.9,1.3,3.9,2.6,5.8,4c9.4,7,25.3,1.3,28.4-10.1 c1.3-4.8,2-9.7,2.8-14.7c2-12.9,3.7-25.9,5.7-38.9c1.7-11.4,3.6-22.8,5.5-34.2C150.8,540.6,151.3,538.9,151.8,536.9z"></path> <path style="fill:#FFFFFF;" d="M621.5,247.1c2.1,1.5,2.4,3.2,2.9,4.8c1.3,4.4,2.5,8.8,3.8,13.2c0.8,2.5,1.6,5,2.5,7.5 c1.6,4.4,4.6,7.4,9,8.9c3.8,1.2,7.6,2.3,11.4,3.4c3.3,1,6.6,1.9,9.9,3c1.3,0.4,2.7,0.9,3.4,2.2c-0.7,1.9-2.4,2.1-3.8,2.5 c-5.2,1.6-10.4,3-15.6,4.5c-2,0.6-4.1,1.2-6.1,2c-4.1,1.6-7.1,4.4-8.5,8.7c-1.4,4.2-2.4,8.6-3.6,12.9c-0.9,3.1-1.8,6.2-2.8,9.3 c-0.2,0.8-0.6,1.5-1,2.2c-0.9,1.4-2.2,1.4-3.1-0.1c-0.7-1.1-1.2-2.4-1.5-3.6c-1.1-4-1.8-8.1-3-12.1c-1.1-3.7-2.5-7.3-4-10.9 c-1.2-2.9-3.6-4.9-6.6-6c-4.2-1.5-8.5-2.8-12.8-4.2c-3.3-1-6.7-1.9-10-2.9c-1.2-0.4-2.3-1.1-3.5-1.8c0.7-1.9,2.1-2.3,3.4-2.7 c4.9-1.5,9.8-2.9,14.7-4.3c1.7-0.5,3.3-1,5-1.5c6.1-1.7,10.1-5.5,11.9-11.6c1.4-4.9,2.8-9.8,4.2-14.7c0.6-2,1.2-3.9,1.9-5.8 C620.1,249.2,620.8,248.3,621.5,247.1z"></path> <path style="fill:#FFFFFF;" d="M383.8,288.4c1.1-0.6,2.1-1.4,3.3-1.7c4.8-1.5,9.6-2.8,14.4-4.2c2.1-0.6,4.1-1.2,6.1-1.8 c5.3-1.7,9-5.1,10.7-10.4c1.3-4.3,2.5-8.6,3.8-12.9c0.8-2.7,1.6-5.5,2.5-8.2c0.4-1.1,1.1-2,1.6-3c2,0.4,2.2,1.9,2.6,3.1 c1.3,4,2.4,8,3.6,12c1.1,3.6,2.2,7.2,3.5,10.7c1.5,4.1,4.4,6.9,8.5,8.2c4.6,1.5,9.4,2.8,14,4.2c2.6,0.8,5.3,1.5,7.9,2.5 c1.2,0.4,2.2,1.2,3.4,1.8c-1,2.2-2.9,2.5-4.5,2.9c-5.7,1.7-11.5,3.3-17.3,5c-1.1,0.3-2.1,0.7-3.2,1.1c-4.6,1.7-7.9,4.7-9.4,9.4 c-1.2,3.7-2,7.4-3.1,11.1c-1.1,3.7-2.2,7.4-3.3,11.1c-0.1,0.5-0.4,1-0.6,1.4c-1.1,1.9-2.3,1.9-3.4,0.1c-0.4-0.7-0.8-1.5-1-2.2 c-1-3.8-1.7-7.7-2.9-11.5c-1.4-4.5-3-8.9-4.8-13.2c-1.1-2.7-3.5-4.5-6.3-5.5c-4.9-1.7-9.9-3.2-14.8-4.8c-2.7-0.9-5.5-1.6-8.2-2.4 C385.8,290.7,384.4,290.4,383.8,288.4z"></path> <path style="fill:#FFFFFF;" d="M620.1,587.3c-2.7,0-5.4,0-8.1,0c0,0,0,0,0,0c2.6,0,5.3,0,7.9,0C619.9,587.2,620,587.2,620.1,587.3z"></path> </svg> 