<?xml version="1.0" encoding="UTF-8"?> <svg xmlns="http://www.w3.org/2000/svg" version="1.1" viewBox="0 0 5000 5000"><defs><style> .cls-1 { fill: #00d5c8; } .cls-2 { fill: #231f20; } .cls-3 { fill: #ed1b27; } .cls-4 { fill: #070809; } .cls-5 { fill: #fff; } .cls-6 { fill: red; } </style></defs><g><g id="Layer_1"><g><g><path class="cls-5" d="M2855.9,785.9c33.4-62.3,111-85.7,173.3-52.3l1487,797.2c62.3,33.4,85.7,111,52.3,173.3l-1166.2,2175.2c-33.4,62.3-111,85.7-173.3,52.3l-1487-797.2c-62.3-33.4-85.7-111-52.3-173.3L2855.9,785.9Z"></path><path class="cls-3" d="M4253.2,2060.3c-55.3,23.3-96.7,43.8-151,75.2-3.9-62.6-9.6-108.4-20.9-167.4,55.3-23.3,96.7-43.8,151-75.2,3.9,62.6,9.6,108.4,20.9,167.4Z"></path><path class="cls-3" d="M4156.3,1760.3l38.1,13.6,7,3.8,35.9,26.1-7.5,14.1-81.1-43.4,7.5-14.1h0ZM4381.3,1592.8l21.1,11.3-46.4,281.4-32.7-17.6,42.3-249.1,8.1,4.4-185.1,172.6-16.5-8.8,209.3-194.1ZM4262.6,1715.2l95.1,51.1-3,19.3-106.5-57.1,14.3-13.1h0ZM4289.5,1831.8l47.3,18.5,7,3.8,40.8,28.7-7.5,14.1-95.1-51.1,7.5-14.1h0Z"></path><path class="cls-3" d="M2020.7,2644c55.3-23.3,96.7-43.8,151-75.2,3.9,62.6,9.6,108.4,20.9,167.4-55.3,23.3-96.7,43.8-151,75.2-3.9-62.6-9.6-108.4-20.9-167.4h0Z"></path><path class="cls-3" d="M2117.6,2944l-38.1-13.6-7-3.8-35.9-26.1,7.5-14.1,81.1,43.4-7.5,14.1h0ZM1892.6,3111.5l-21.1-11.3,46.4-281.4,32.7,17.6-42.3,249.1-8.1-4.4,185.1-172.6,16.5,8.8-209.3,194.1h0ZM2011.2,2989.1l-95.1-51.1,3-19.3,106.5,57.1-14.3,13.1h0ZM1984.3,2872.5l-47.3-18.5-7-3.8-40.8-28.7,7.5-14.1,95.1,51.1-7.5,14.1h0Z"></path><path class="cls-6" d="M3437.1,2200.3c-19.3-121.9-29-234.5-32.8-335.7-86.3,52.9-185.6,107.2-297.8,158.5-126.7,58-245.6,100.9-352.2,133.3,32,106.6,62.1,229.5,84,367.1,19.3,121.9,29,234.5,32.8,335.7,86.3-52.9,185.6-107.2,297.8-158.5,126.7-58,245.6-100.9,352.2-133.3-32-106.6-62.1-229.5-84-367.1Z"></path></g><g><rect class="cls-5" x="846.7" y="970.6" width="1943.1" height="2724.1" rx="127.9" ry="127.9" transform="translate(-500.7 497) rotate(-13.7)"></rect><path class="cls-4" d="M1111.7,1700.9c-12.8-16.9-32.8-33.6-59.4-49.6-45.1-27.1-94.6-43.2-95-43.3l-1-.3-.7.7c-.3.3-36.9,37.2-64.5,82.1-16.3,26.4-26.4,50.4-29.9,71.3-4.6,26.4,1.3,48,17.4,64l.9.9h0c16.7,16.1,41.6,22.6,65.1,16.8,25-6.1,43.6-24.3,50.5-46.4,10.1,60.4-6.5,74.8-6.5,74.8l30.6-7.4,30.6-7.4s-21.2-5.1-40.1-62.9c16.2,16,41,23.5,65.7,17.5,23.5-5.7,42.6-22.8,50.1-44.9h0l.3-1.1c6.9-21.6,2.2-43.4-14-64.9v.2Z"></path><path d="M809.9,1554.6l37.5-15.3,7.8-1.9,44.2-4.6,3.8,15.5-89.4,21.8-3.8-15.5h0ZM865.6,1279.5l23.3-5.7,153.3,240.6-36.1,8.8-134.8-213.7,8.9-2.2-22.6,252.1-18.3,4.5,26.3-284.3ZM859,1450l105-25.6,10.6,16.3-117.4,28.6,1.8-19.4h0ZM956.8,1518.7l47.5-17.7,7.8-1.9,49.6-5.9,3.8,15.5-105,25.6-3.8-15.5h.1Z"></path><path class="cls-4" d="M2524.2,2965.5c12.8,16.9,32.8,33.6,59.4,49.6,45.1,27.1,94.6,43.2,95,43.3l1,.3.7-.7c.3-.3,36.9-37.2,64.5-82.1,16.3-26.4,26.4-50.4,29.9-71.3,4.6-26.4-1.3-48-17.4-64l-.9-.9h0c-16.7-16.1-41.6-22.6-65.1-16.8-25,6.1-43.6,24.3-50.5,46.4-10.1-60.4,6.5-74.8,6.5-74.8l-30.6,7.4-30.6,7.4s21.2,5.1,40.1,62.9c-16.2-16-41-23.5-65.7-17.5-23.5,5.7-42.6,22.8-50.1,44.9h0l-.3,1.1c-6.9,21.6-2.2,43.4,14,64.9v-.2Z"></path><path d="M2826,3111.9l-37.5,15.3-7.8,1.9-44.2,4.6-3.8-15.5,89.4-21.8,3.8,15.5h0ZM2770.2,3386.9l-23.3,5.7-153.3-240.6,36.1-8.8,134.8,213.7-8.9,2.2,22.6-252.1,18.3-4.5-26.3,284.3h0ZM2777,3216.5l-105,25.6-10.6-16.3,117.4-28.6-1.8,19.4h0ZM2679.1,3147.7l-47.5,17.7-7.8,1.9-49.6,5.9-3.8-15.5,105-25.6,3.8,15.5h-.1Z"></path><path class="cls-2" d="M2289.4,2313.1c-14.2-33.6-35.4-66-79.5-108.9-85.1-82.8-161.3-113.7-243.3-159-60.5-33.5-143.5-85.6-235.6-165.1-45.3,113-95,197.3-133.4,255-52,78-105.5,140.4-143,253.1-19.4,58.4-23.4,97-20.6,133.3,2.2,27.8,8.1,102.5,68.6,162.8,16.8,16.8,76.9,71.4,163.8,66.7,47.2-2.5,81.7-21.2,95.5-29.8,12.7-7.8,55.7-35.1,77.2-86.6,15.1-36.2,12.7-68,19.2-68.1,7.4-.1,13.8,41.1,15,48.2,3.4,22.5,8.7,58.5-1.1,104.3-6.5,30.7-19.6,65-31,79.5-8,10.4-14.3,21.9-21.6,32.9-.2.2-1.1,1.6-1.9,3.7-1.1,2.9-2.9,6.7-1.5,10.4,1.8,4.9,7.8,6.4,8.5,6.6,44.3-10.7,90.7-22,135-32.9,44.3-10.7,90.7-22,135-32.9.6-.5,5.1-4.6,4.5-9.7-.5-3.9-3.8-6.6-6.1-8.6-1.7-1.4-3.1-2.2-3.4-2.3-11.4-6.4-22.4-13.7-34.3-19.3-16.8-7.8-44.1-32.1-64.1-56.4-29.7-36.2-41.7-70.5-48.9-92.1-2.3-6.9-15.6-46.4-8.9-49.7,5.8-2.9,18.3,26.4,48.3,51.6,42.7,35.9,93.6,40.3,108.4,41.5,16.3,1.3,55.5,2.1,98.6-17.5,79.3-35.9,107.6-112.1,114.8-134.6,25.9-81.3-3.1-150.4-13.9-176.1h-.2Z"></path></g></g><g><path class="cls-1" d="M670,3411.2v689.2h133.9v-270.3c-6.9-14.2-5-20.6,7.8-1.6,64.1,85.8,128.3,171.6,195.7,261.9,67.5-90,132.6-176.2,197.3-262.5,11.2-17.3,11.8-15,10.3,5.2v266.9h130.1v-689.1c-114.4,153.8-224.9,302-337.5,453.6-114.1-153.4-224.4-301.4-337.5-453.3h0Z"></path><path class="cls-1" d="M3503.2,3402.9c-85.1,0-159.1,0-245.5.3h-137.3v696.9h413.9v-129.6h-192.3c-37.7,0-64.9,0-84.2-.6v-149.1c12.2-.3,32.1,0,63.6,0h143.9v-134.3h-131.5c-37.3,0-61,0-75.9-1v-146.9c12.8-.3,34.2.3,68.4.3h209.5v-135.8h-32.3v-.3h-.3Z"></path><path class="cls-1" d="M2038.5,3402.8h-24v137h176.4c-.4,160.6.6,373.8.9,525v36.3h133.6c0-167.1.6-390.8-.4-561.2h173.6v-137h-460.1.1Z"></path><path class="cls-1" d="M3804.2,3403.1h-193.3v137h176.4c-.4,160.6.6,373.8.9,525v36.3h133.6c0-167.1.6-390.8-.4-561.2h173.6v-137h-290.8.1Z"></path><path class="cls-1" d="M1410.2,4102.6c46.7,0,87-.6,127,.3h38.3v-15.5c0-8.1,13.6-25.2,25.8-33.6,12.2-8.4,25.5-13.9,25.5-21.1s-12.2-8.1-12.2-18.4,17.1-5.2,22.6-15.5c5.5-10.5,34.2-63.8,34.2-163.7,0,0-48.1,2.5-48.1-16.8s24.8-17.4,24.8-17.4c0,0-1.6-17.8,9.4-17.8h8.1v-27.4s-32.9-52.1-32.9-81.4,46.2-36.1,63-36.1,11.6-18.7,5.2-18.4-9-3.5-9-9.7,12.7-5.2,12.7-5.2v-13.3h-19.3v9.7h-8.7v-32.9h7.4v10h18.7s1.9-12.8-2.9-12.8-7.4-5.2-7.4-11.6,18-6.9,18-6.9v-24.5s-6.5,1.6-6.5-7.2,10.2-8.1,16.2-8.1,16.2-.6,16.2,8.1-6.5,7.2-6.5,7.2v24.5s18,.4,18,6.9-2.5,11.6-7.4,11.6-2.9,12.8-2.9,12.8h18.7v-10h7.4v32.9h-8.7v-9.7h-19.3v13.3s12.7-1,12.7,5.2-2.5,10-9,9.7c-6.5-.3-11.6,18.4,5.2,18.4s63,6.8,63,36.1-32.9,81.4-32.9,81.4v27.4h8.1c10.9,0,9.4,17.8,9.4,17.8,0,0,24.8-1.9,24.8,17.4s-48.1,16.8-48.1,16.8c0,99.8,28.8,153.4,34.2,163.7s22.6,5.2,22.6,15.5-12.2,11.4-12.2,18.4,13.3,12.7,25.5,21.1c12.2,8.4,25.8,25.5,25.8,33.6v14.9h25.2c44.7,1,89.4.6,140.1.6-104.1-233.7-205.1-461.1-310.3-697.3-105.1,237-206.1,464.8-309.2,697h-.1Z"></path><path class="cls-1" d="M2937,3646.8c-17.8-10-22-19.2-18.3-39.2,19.5-109.3-59.7-203.1-171.2-204.4-15.9-.3-33.6-.7-62.4,0h-109v50.1h0c.9,134.3.6,268.5.7,402.9v246.6c85.1,0,164.3.7,243.5,0,113-1.2,209.1-75.4,234.8-180.3,27-109.7-19.9-220.9-118.1-275.5h0ZM2711.2,3603.6v-51c.3-.7.3-1.5,0-2.1v-11.4c5.8-.4,15.2-.7,29.9-.7,30.4,0,47.9,15.5,45.9,40.6-2.2,27.9-20.1,36.9-46,36.9s-23,0-29.8-.4v-11.9h0ZM2825.5,3970c-20.9,1.3-73.9.7-114.3.6v-205.9c.3-.6.3-1.2,0-1.8v-11.4c36.6,0,89.2-.7,111.5,0,56.9,2.1,103.7,49.4,105.4,105.6,1.9,56.3-45.3,108.8-102.8,112.5h0v.3Z"></path></g></g></g></svg> 