<?xml version="1.0" encoding="UTF-8"?> <svg xmlns="http://www.w3.org/2000/svg" xmlns:xlink="http://www.w3.org/1999/xlink" version="1.1" id="Layer_1" x="0px" y="0px" viewBox="0 0 1000 1000" style="enable-background:new 0 0 1000 1000;" xml:space="preserve"> <path style="fill:#B6B7B9;" d="M679.4,499.5c0.2,2-0.4,3.9-0.8,5.8c-1.5,6.9-3.9,13.5-7.4,19.6c-2.1,3.8-4.5,7.4-7.2,10.7 c-2.4,3-5.2,5.8-8,8.4c-3.5,3.2-7.3,5.9-11.3,8.3c-6.4,3.9-13.2,6.6-20.4,8.3c-2.8,0.7-5.6,1.1-8.5,1.5c-4.1,0.6-8.1,0.5-12.1,0.3 c-5.7-0.3-11.3-1-16.7-2.6c-4.6-1.4-9.1-3-13.3-5.3c-6.3-3.3-12.1-7.4-17.3-12.4c-7.2-6.9-12.6-15-16.6-24.1 c-2.5-5.7-4.1-11.7-5-17.8c-0.4-3.1-0.4-6.1-0.5-9.1c0-1.3,0.2-1.5,1.6-1.6c0.5,0,1.1,0,1.6,0c11.2,0,22.4,0,33.6,0 c0.3,0,0.5,0,0.8,0c2.2,0,2.4,0,2.6,2.3c0.5,6.5,2.7,12.5,6.8,17.6c2.8,3.5,6.1,6.4,10,8.6c3.6,2,7.4,3.4,11.5,3.8 c6.1,0.6,12,0.1,17.7-2.5c6.2-2.8,11-7.1,14.6-12.8c1.4-2.2,2.4-4.6,3.3-7.1c0.2-0.4,0.3-0.8,0.5-1.2c1.4-1.9,0.7-4.3,1.9-6.4 c1.1-1.9,2.6-2.8,4.6-2.7c10.1,0.4,20.2,0,30.3,0.2c1.8,0,3,0.7,3,2.7C678.4,494.7,680.4,496.9,679.4,499.5z"></path> <path style="fill:#EFEFEF;" d="M406.5,394.6c-0.2-0.3-0.4-0.6-0.5-0.9c-0.1-0.4,0-0.9,0-1.3c0-11.7,0-23.4,0-35.1c0-0.5,0-0.9,0-1.4 c0.1-0.9,0.3-1.2,1.1-1.2c0.6,0,1.3,0,1.9,0c46,0,92,0,138,0c0.5,0,0.9,0,1.4,0c1.3,0.1,1.5,0.3,1.6,1.6c0,0.5,0,1.1,0,1.6 c0,11.3,0,22.7,0,34c0,0.4,0,0.7,0,1.1c0,2-0.1,2.1-2.2,2.1c-7,0-14.1,0-21.1,0c-9.4,0-18.8,0-28.1,0c0.7-1.9,2.3-1.3,3.6-1.3 c10.3-0.1,20.5,0,30.8,0c4.2,0,8.5,0,12.7,0c2,0,2.9-0.8,2.9-2.9c0.1-5.1-0.2-5.5-5.4-5.2c-5.8,0.4-11.7-0.1-17.5,0 c-5.9,0.1-11.9,0.2-17.8,0.3c-7.7,0.2-15.5-0.1-23.2,0c-7.3,0.1-14.6-0.1-21.9,0.2c-8.8,0.4-17.6,0.4-26.5,0.3 c-8.8,0-17.7-0.1-26.5,0.1c-1.8,0-2.5,0.8-2.6,2.6C407.3,391.1,407.8,393,406.5,394.6z"></path> <path style="fill:#EFEFEF;" d="M850.9,394.6c-0.8-0.6-0.5-1.5-0.5-2.3c0-4.6,0-9.2,0-13.8c0-2,0-4,0-5.9c0-1.1,0-2.1,0.3-3.2 c0.2-0.7,0.2-1.6,0.2-2.4c0-3.1,0-6.3,0-9.4c0-0.6,0-1.3,0-1.9c0-0.6,0.4-1,1-1.1c0.6,0,1.3,0,1.9,0c46.2,0,92.5,0,138.7,0 c0.5,0,0.9,0,1.4,0c1.3,0.1,1.5,0.3,1.6,1.6c0,0.4,0,0.9,0,1.3c0,10.7,0,21.4,0,32.1c-3.4-0.6-6.9-0.4-10.3-1.1 c-7.5-1.5-15.1-1.3-22.6-1.1c-2.2,0.1-4.3-0.3-6.5-0.3c-4.1,0-8.3-0.1-12.4,0c-12.3,0.3-24.5-0.9-36.6-2.4c-5-0.6-10.1-0.3-15.1-0.6 c-5.9-0.4-11.9-1.2-17.8-0.7c-6.7,0.5-13.3-0.1-20-0.3c-1.7-0.1-2.3,0.5-2.3,2.1c0,2,0,4,0,5.9C851.7,392.4,851.9,393.7,850.9,394.6 z"></path> <path style="fill:#B6B7B9;" d="M302.1,499c0.2,3.3-0.6,6.4-1.2,9.6c-1,5.5-2.6,10.8-4.7,16c-1,2.5-2.4,4.8-4,7 c-0.8,1.1-1.8,2-3.2,2.4c-0.5,0.2-1,0.4-1.5,0.6c-1.1,0.6-1.7,1.6-1.6,2.9c0,1,1.1,2.1,2.3,2.4c0.5,0.1,1.1,0.1,1.6,0.2 c0.8,0.2,1.2,1.3,0.7,2c-0.9,1.2-2.1,2.2-3.4,3c-2.2,1.3-4.3,2.6-6.4,4c-1.9,1.2-3.2,2.9-4.3,4.8c-1,1.8-1.3,3.7-1.3,5.7 c0.1,3.3,0.2,3.1-3,3.1c-14.2,0-28.5,0-42.7,0c-2.8,0-3.4,0.3-1.9-3c3.7-8.1,7.1-16.3,10.7-24.5c2.4-5.4,4.8-10.7,7.1-16 c2.1-4.8,4.1-9.6,6.2-14.3c1.2-2.5,2-5.2,3.6-7.5c1.5-1.8,3.6-1.7,5.7-1.7c6.4,0.2,12.7,0.1,19.1,0.1c6.9,0.1,13.8-0.3,20.7,0.3 C302.3,496.2,302.7,497.3,302.1,499z"></path> <path style="fill:#B6B7B9;" d="M380.5,498.4c1.5,2.6,2.5,5.4,3.7,8.1c1.7,3.8,3.3,7.6,5,11.4c2.9,6.7,5.8,13.4,8.8,20 c1.7,3.8,3.4,7.6,5,11.3c1.8,4.1,3.6,8.2,5.4,12.4c0.3,0.7,0.1,1-0.7,1.1c-0.6,0-1.3,0-1.9,0c-14.2,0-28.5,0-42.7,0 c-3.3,0-3.1,0.2-3.1-3.1c0-4.2-1.8-7.4-5-10c-1.6-1.3-3.3-2.4-5.2-3.4c-1.5-0.8-2.9-1.8-4.2-2.9c-0.4-0.4-0.8-0.8-1.1-1.2 c-0.5-0.9-0.1-1.8,0.9-2c0.7-0.2,1.4-0.2,2.1-0.6c2-1.1,2.2-3.3,0.4-4.6c-0.5-0.4-1.1-0.6-1.7-0.8c-1.8-0.5-3-1.7-4-3.1 c-1.8-2.6-3.2-5.4-4.3-8.4c-2.1-5.7-3.6-11.7-4.5-17.7c-0.2-1.6-0.6-3.2-0.5-4.8c-0.8-2.5,1-2.5,2.5-2.5c3.4,0,6.8-0.1,10.3-0.1 c10.6,0.1,21.2,0.1,31.8,0C378.6,497.5,379.7,497.6,380.5,498.4z"></path> <path style="fill:#EFEFEF;" d="M704.8,409.2c0-17.1,0-34.2,0-51.3c0-0.6,0-1.3,0.1-1.9c0.1-0.8,0.6-1.3,1.4-1.3c0.6-0.1,1.3,0,1.9,0 c39.2,0,78.4,0,117.6,0c0.4,0,0.7,0,1.1,0c1.7,0.1,1.8,0.2,1.8,1.9c0,7.8,0,15.7,0,23.5c-3.8-0.1-7.7,0-11.5,0.2 c-5.8,0.2-11.5,0.4-17.3,0.7c-4.3,0.2-8.4-0.6-12.7-0.6c-11.4,0.1-22.9,1-34.3,1c-13.4,0.1-26.9,0.1-40.3,0.1 c-7.6,0-6.4-0.6-6.5,6.4c0,0.3,0,0.5,0,0.8c0.1,2.2,0.1,4.3,0,6.5c0.1,2.7,0.1,5.3,0,8c-0.1,2,0.4,4-0.5,5.9 C705.4,409.3,705.2,409.3,704.8,409.2z"></path> <path style="fill:#B6B7B9;" d="M166.2,562.2c0-0.7-0.1-1.4-0.1-2.2c0-22.9,0-45.8,0-68.7c0-0.5,0-1.1,0-1.6c0.9-0.7,2-0.7,3.1-0.6 c7.4,0.6,14.8,0,22.3,0.1c3.1,0,6.2,0.2,9.4-0.1c1.7-0.1,3.8-0.3,5.1,1.6c0,23,0,45.9,0.1,68.9c0,2.2-0.5,2.9-2.8,2.9 c-11.5-0.1-23.1-0.1-34.6-0.1C167.8,562.4,167,562.6,166.2,562.2z"></path> <path style="fill:#B6B7B9;" d="M149.4,499.5c-0.6,1.5-1.8,2.7-2.8,4c-2.6,3.5-5.3,6.8-7.9,10.3c-4.5,5.9-8.9,11.7-13.4,17.6 c-5.4,7.1-10.7,14.2-16.1,21.3c-0.9,1.2-1.9,2.4-2.8,3.6c-0.3,0.3-0.5,0.7-1.2,0.8c-1.9-2.4-3.8-4.9-5.7-7.4 c-5.8-7.6-11.5-15.2-17.3-22.8c-3.2-4.1-6.4-8.3-9.5-12.4c-3.3-4.3-6.5-8.6-9.8-12.9c-0.5-0.6-0.9-1.3-1.3-2 c0.1-1.9,1.4-2.2,2.8-2.1c8,0.4,16-0.1,24,0c9.6,0.1,19.3,0,28.9,0c5.8,0,11.7,0.1,17.5,0c4,0,8.1-0.1,12.1,0.2 C148.1,497.7,149.8,497.4,149.4,499.5z"></path> <path style="fill:#B6B7B9;" d="M943.5,498.4c0,0.6,0,1.3,0,1.9c0,19.8,0,39.7,0,59.5c0,0.8-0.1,1.6-0.1,2.4 c-0.7,0.4-1.4,0.3-2.1,0.3c-11.7,0-23.4,0-35.2,0.1c-2,0-2.6-0.5-2.6-2.6c0.1-19.8,0.1-39.6,0-59.4c0-2.2,0.8-2.9,2.8-3 c4.5-0.2,9,0,13.5,0c6.7,0,13.3,0.1,20,0C941.3,497.4,942.5,497.4,943.5,498.4z"></path> <path style="fill:#B6B7B9;" d="M498.6,498.9c0,0.8,0.1,1.6,0.1,2.4c0,19.4,0,38.8,0,58.1c0,0.9-0.1,1.8-0.1,2.7 c-0.8,0.5-1.6,0.3-2.4,0.3c-11.5,0-23,0-34.6,0.1c-2.2,0-2.9-0.5-2.9-2.8c0.1-20.3,0-40.6,0.1-60.9c0.6-1.4,1.9-1.1,3-1.2 c4.2-0.3,8.4-0.1,12.6,0c6.8,0,13.6-0.3,20.4,0C496.3,497.6,497.6,497.7,498.6,498.9z"></path> <path style="fill:#EBEBEB;" d="M850.9,394.6c0-3.4,0-6.8,0-10.3c0-0.4,0-0.9,0.1-1.3c0-0.4,0.3-0.7,0.7-0.7c0.5-0.1,1.1-0.2,1.6-0.1 c2.1,0.7,4.3,0.4,6.4,0.5c1.5,0,3.1-0.2,4.6,0c2.8,0.4,5.5,0.3,8.3,0c3-0.3,6.1-0.1,9.2-0.1c0.4,0,0.9-0.1,1.3,0.1 c2.1,0.7,4.3,0.4,6.4,0.5c1.6,0.1,3.2-0.1,4.8,0.4c0.6,0.2,1.2,0.1,1.9,0.1c2,0,4,0.1,5.9,0c3.2-0.1,6.2,0.5,9.3,0.9 c3,0.4,6,0.9,9.1,0.7c3.3-0.2,6.6,0.4,9.9,1c0.7,0.1,1.4,0.1,2.2,0.1c4.1,0,8.3,0,12.4,0c1.4,0,2.7-0.5,4-0.5c1.2,0,2.4,0.5,3.7,0.5 c1.5-0.1,3.1,0,4.6,0c0.7,0,1.5,0,2.1,0.2c0.9,0.3,1.7,0.4,2.6,0c0.4-0.2,0.9-0.3,1.3-0.2c2.4,0.5,4.8-0.2,7.2,0 c0.9,0.1,1.8-0.1,2.7,0.3c0.3,0.1,0.8,0.3,1,0.1c1.4-0.6,2.8-0.3,4.2,0.1c0.8,0.2,1.6,0.1,2.4,0.1c0.7,0,1.4,0,2.1,0.3 c1.7,0.7,3.5,0.9,5.3,0.8c0.6,0,1.3,0,1.9,0c1.8-0.1,3.4,0.1,4.7,1.5c0.1,0.1,0.3,0.1,0.5,0.1c0,1.4,0,2.9,0,4.3c0,0.6-0.4,1-1,1 c-0.8,0-1.6,0-2.4,0c-15,0-30,0-45,0c-0.8,0-1.6,0-2.4,0c-0.6,0-1,0.4-1,1.1c0,0.9,0,1.8,0,2.7c-0.9,0.8-2,0.7-3.1,0.5 c-10.2-2.3-20.6-2.4-31-3.4c-0.3,0-0.5,0-0.8-0.1c-3.6-0.2-3.8,0-3.9,3.6c0,0.9,0,1.8-0.1,2.7c-0.1,0.3-0.2,0.6-0.4,0.9 c-0.2,0.3-0.5,0.4-0.8,0.2c0-2.2,0-4.5,0-6.7c0-1-0.3-1.3-1.3-1.3c-0.8,0-1.6,0-2.4,0c-15.3,0-30.6,0-46,0 C852.8,395.1,851.8,395.5,850.9,394.6z"></path> <path style="fill:#EDEDED;" d="M406.5,394.6c0-2.3,0-4.7,0-7c0-1.4,0.2-1.6,1.6-1.6c2.5,0.1,5-0.2,7.5-0.1c1.9,0.1,3.8,0.3,5.6-0.3 c0.2-0.1,0.4-0.1,0.5,0c3,0.7,6.1,0.2,9.2,0.4c1.4,0.1,2.7-0.4,4-0.4c1.3,0,2.6,0.4,4,0.4c4.9,0,9.7,0,14.6,0c1.3,0,2.5,0.1,3.7-0.4 c0.3-0.1,0.7-0.2,1.1-0.1c2.3,0.7,4.6-0.1,6.9,0c2.4,0.1,4.9,0,7.3,0c2.3,0,4.7,0,7,0c1.2,0,2.3,0.1,3.5-0.3c0.3-0.1,0.7-0.1,1.1,0 c3.2,0.6,6.4,0.5,9.6,0.1c0.3,0,0.5-0.1,0.8,0c4.1,0.7,8.3,0.3,12.4,0.2c1.4,0,2.8-0.3,4.2,0c0.8,0.2,1.6,0.1,2.4-0.2 c1.1-0.4,2.3-0.4,3.4,0c1,0.3,1.9,0.3,2.9,0.1c2.7-0.6,5.3-0.6,8,0c0.7,0.2,1.4,0.2,2.1,0c2.6-0.6,5.1-0.6,7.7,0 c1.1,0.2,2.2,0.3,3.2,0c2.4-0.7,4.8-0.3,7.3-0.3c0.6,0,1.1,0.4,1.1,1c0,2.5,0,5,0,7.6c0,0.8-0.4,1.1-1.2,1.1c-0.8,0-1.6,0-2.4,0 c-14.8,0-29.6,0-44.4,0c-0.9,0-2-0.4-2.8,0.5c0,1.1,0,2.2,0,3.2c-1.2,1-2.7,0.8-4.1,0.8c-8.4,0-16.9,0-25.3,0c-3.6,0-7.1,0-10.6,0.8 c0-1.3,0-2.5-0.1-3.8c0-0.6-0.4-1-1-1.1c-0.8,0-1.6,0-2.4,0c-9.9,0-19.8,0-29.7,0c-1.2,0-2.3,0-3.5-0.3c-0.7-0.2-1.6-0.2-2.4-0.2 C415.2,394.6,410.9,394.6,406.5,394.6z"></path> <path style="fill:#B7B8BA;" d="M149.4,499.5c-0.1-0.6-0.3-1-1-1.1c-1.2,0-2.3,0-3.5,0c-1.2,0-2.3,0.1-3.5-0.4 c-0.5-0.2-1.3-0.2-1.9,0c-3.1,0.8-6.3,0.3-9.4,0.3c-0.9,0-1.7-0.1-2.6,0c-3,0.2-5.9,0.3-8.9-0.1c-0.3,0-0.7-0.1-1-0.1 c-3.4,0.5-6.8,0.5-10.2,0c-1.5,0.7-3.2-0.3-4.7,0.3c-0.6,0.2-1.3,0-1.9,0.1c-2,0.2-4-0.4-6.1-0.1c-1.9,0.3-4,0.1-5.9,0.1 c-0.9,0-1.8,0.1-2.7-0.2c-0.4-0.2-0.9-0.1-1.3,0c-0.6,0.2-1.2,0.2-1.8,0c-0.4-0.2-0.8-0.2-1.3-0.1c-2.1,0.4-4.3,0.4-6.4,0 c-0.3,0-0.6-0.2-0.8-0.1c-2.6,0.7-5.2,0.2-7.8,0.3c-0.6,0-1.3,0-1.9-0.1c-1.5-0.5-2.4,0.2-3.1,1.3c-1.4-1-2.1-2.5-3.1-3.7 c-2.8-3.5-5.5-7.1-8.2-10.7c-0.4-0.6-0.8-1.2-1.1-1.8c-0.6-2.1,1.1-1.7,2.1-1.8c6.6-0.5,13.3-0.1,19.9-0.2 c6.6-0.1,13.1,0.3,19.7-0.2c2.6-0.2,5.2,0.4,7.8,0.4c1.2,0,1.9,0.9,2.6,1.7c1.4,1,2.1,2.6,3.2,3.9c0.4,0.5,0.8,1,1.5,1 c0.8-1,2-1,3.2-1c10.9,0.3,21.8,0.1,32.6,0c4.2,0,8.4,0.3,12.7,0c1.5-0.1,3.2,0.3,2.4,2.7c-2.4,3.2-4.7,6.3-7.1,9.5 C149.8,499.3,149.6,499.4,149.4,499.5z"></path> <path style="fill:#EEEEEE;" d="M639.8,388.1c0-10.2,0-20.3,0-30.5c0-3.1-0.1-3,2.9-3c11.4,0,22.9,0,34.3,0c0.5,0,1.1,0,1.6,0 c0.9,0.1,1.2,0.3,1.2,1.1c0,0.6,0,1.3,0,1.9c0,9.6,0,19.2,0,28.9c-0.5,0.3-1,0.3-1.6,0.3c-10.8-0.3-21.6,0.9-32.4,0.5 C643.8,387.1,641.9,388.1,639.8,388.1z"></path> <path style="fill:#BABBBD;" d="M807.1,480c-1.1,0-2.2,0-3.2,0c-18.3,0-36.6,0-54.9,0c-4,0-3.6-0.3-3.6,3.7c0,11.8,0,23.6,0,35.4 c0,3.2-0.2,3.1,3.1,3.1c25.6,0,51.2,0,76.8,0c0.9,0,1.8,0,2.7,0.1c0.4,0,0.6,0.3,0.7,0.7c0.1,0.4,0.1,0.7,0.1,1.1 c0,12.7,0,25.4-0.1,38.1c-0.4,0.2-0.7,0.1-0.9-0.3c-0.7-1.4-0.5-2.8-0.5-4.2c0-10.1,0-20.2,0-30.2c0-3.6-0.2-3.8-3.8-3.8 c-24.1,0-48.1,0-72.2,0c-7.3,0-7.3,0-7.3-7.5c0-8.5,0-17.1,0-25.6c0-3.4-0.3-3.7-3.7-3.7c-10.7,0.1-21.4,0-32.2-0.1 c-1,0-2,0.1-2.8-0.6c-0.3-4.2-0.4-8.4,0-12.7c1.1-0.9,2.4-0.7,3.6-0.7c31.5,0,63.1,0,94.6,0c1.2,0,2.4-0.1,3.4,0.6 C807.7,475.5,807.5,477.7,807.1,480z"></path> <path style="fill:#ECEDED;" d="M705.3,388.6c0-2.3,0-4.5,0-6.8c0-1,0.3-1.3,1.3-1.3c0.7,0,1.4,0,2.2,0c8.2,0,16.4,0,24.6,0 c1.5,0,3.1,0.2,4.6-0.3c0.2-0.1,0.5,0,0.8,0c2.8,0.5,5.5,0.5,8.3,0c0.3,0,0.5-0.1,0.8,0c2.7,0.7,5.4,0.2,8.1,0.3 c0.6,0,1.2-0.2,1.9-0.2c0.6-0.1,1.3-0.4,1.8-0.2c2,0.7,3.9-0.1,5.8-0.1c2,0.1,4,0,5.9,0c0.5,0,1.1-0.2,1.6-0.3 c0.4-0.1,0.8-0.3,1-0.2c1.8,0.9,3.5-0.1,5.3-0.1c1.8,0,3.6,0,5.4,0c1.7,0,3.4,0,5.1,0c0.5,0,1.1-0.1,1.6,0c2.9,0.9,5.9,0.4,8.9,0.5 c1.4,0.1,2.8-0.4,4.2,0c1.1,0.3,2.2-0.8,3.4-0.2c3-0.5,6.1-0.1,9.2-0.2c1.1,0,2.1-0.1,3.2-0.3c1.9-0.5,3.9-0.2,5.9-0.2 c0.9,0,1.4,1.1,2.4,1c0,2.3,0,4.7,0,7c-0.9,0.6-1.9,0.4-2.9,0.4c-12.9-0.2-25.7,0.3-38.6,1c-0.4,0-0.7,0.1-1.1,0.1 c-10.2-0.3-20.3,0.5-30.5,0.6c-15.3,0.2-30.6,0.6-45.9,0.5C708.2,389.5,706.6,389.7,705.3,388.6z"></path> <path style="fill:#EBEBEB;" d="M705.3,388.6c11.2,0,22.3,0,33.5,0c1.3,0,2.5,0,3.7-0.4c0.7-0.3,1.6-0.2,2.4-0.2c7.1,0,14.2,0,21.3,0 c1.1,0,2.1,0,3.2-0.3c0.7-0.2,1.6-0.2,2.4-0.2c4.7,0,9.4,0,14.1,0c1,0,2,0,2.9-0.3c0.8-0.2,1.6-0.2,2.4-0.2c3.3,0,6.7,0,10,0 c1.6,0,3.2,0.1,4.8-0.4c0.6-0.2,1.4-0.1,2.1-0.1c5.4,0,10.8,0,16.2,0c1.5,0,2.9,0.1,4.2,0.6c0,2.2,0,4.5,0,6.7c0,1-0.3,1.3-1.3,1.3 c-0.8,0-1.6,0-2.4,0c-25.2,0-50.4,0-75.6,0c-0.8,0-1.6,0-2.4,0c-1.3,0.1-1.5,0.3-1.5,1.6c0,1.4,0,2.9,0,4.3c0,3.8,0,7.6,0,11.3 c-0.3,0.2-0.6,0.1-0.8-0.2c-0.4-0.7-0.4-1.5-0.5-2.3c-0.1-2.6-0.1-5.1,0-7.7c-0.1-1.4-0.1-2.9,0-4.3c0.1-1.8-0.8-2.7-2.6-2.6 c-6.2,0.5-12.4-0.2-18.6,0.3c-3.2,0.3-6.5,0.4-9.7-0.1c-1.4-0.2-2.9-0.1-4.3,0.1c-1.2,0.2-2.5,0.4-3.6-0.6 C705.3,393,705.3,390.8,705.3,388.6z"></path> <path style="fill:#BABBBD;" d="M101.3,483.2c-1.1-0.9-2.4-1.1-3.8-1.1c-1.9,0.1-3.7,0-5.6-0.4c-0.5-0.1-1.1-0.1-1.6,0.1 c-1.2,0.5-2.5,0.4-3.7,0.4c-3.7-0.2-7.4,0.1-11,0c-2-0.1-3.9,0.1-5.9-0.3c-0.3,0-0.5-0.1-0.8,0c-2.3,0.5-4.6,0.3-7,0.2 c-1.4-0.1-2.8,0.2-4.2-0.3c-0.6-0.2-1.4,0.3-2.1,0.4c-1.7,0.3-3.4,0-5.1,0c-0.8,0-1.2,0.3-1.3,1.1c-1.5-1.4-2.6-3.2-3.8-4.9 c-1.1-0.2-0.7,0.6-0.8,1.1c-0.2,0.9,0.4,2-0.7,2.6c-4.2,0.3-8.5,0.3-12.6,0.1c-6.1-0.4-12.2-0.1-18.4-0.3c-2.8-0.1-5.6,0-8.2-1.3 c-0.3-2.9-0.2-5.8,0-8.6c2.5-1.6,5.3-0.9,7.9-0.8c5.8,0.2,11.7,0.4,17.5,0.5c13.4,0.2,26.8,0.7,40.2,0.5c6.5-0.1,13,0,19.4,0 c1.8,0,3.4,0.3,4.5,1.9c1.3,0.8,1.8,2.2,2.7,3.2c1.3,1.5,2.5,3.2,3.7,4.8C101,482.4,101.1,482.8,101.3,483.2z"></path> <path style="fill:#C4C5C6;" d="M705.4,473.5c0,4.1,0,8.3,0,12.4c1.1,1.4,0.8,3.1,0.8,4.7c0,21.9,0,43.8,0,65.7c0,0.9,0,1.8,0,2.7 c0,1.6,0.7,2.3,2.3,2.3c1,0,2,0,3,0c37.2,0,74.5,0,111.7,0c1.7,0,3.5-0.4,4.9,0.9c0.2,0,0.4,0,0.5,0c-0.2,0.3-0.5,0.5-0.9,0.5 c-0.8,0-1.6,0-2.4,0c-39,0-77.9,0-116.9,0c-0.8,0-1.6,0-2.4,0c-1-0.1-1.2-0.3-1.3-1.3c0-0.8,0-1.6,0-2.4c0-32.1,0-64.1,0-96.2 c0.8-1.8-0.4-3.9,0.7-5.7c1.2-0.7,2.4-0.5,3.7-0.5c31.3,0,62.6,0,93.9,0c1.3,0,2.7-0.2,3.9,0.7c0.6,2.2,0.3,4.5,0.2,6.7 c-0.6,1-1.6,0.9-2.6,0.9c-22-0.2-44.1-0.1-66.1-0.1c-9.5,0-19.1-0.1-28.6,0c-3.5,0-3.6,0.2-3.7,3.7 C706.1,470.1,706.6,471.9,705.4,473.5z"></path> <path style="fill:#BABBBD;" d="M166.2,481.1c-0.2-0.7,0.1-1.5-0.3-2.4c-1.8,1.2-2.4,3.3-4,4.6c-1.9-1-3.9-1-6-1 c-6.5,0-13.1,0-19.6,0c-4.6,0-9.1-0.4-13.7,0c-3.7,0.4-7.5,0.7-11.1-1.2c0.1-0.5,0.4-1,0.7-1.4c1.5-1.9,2.9-3.8,4.3-5.7 c0.4-0.6,0.8-1.2,1.5-1.5c0.9-0.2,1.8-0.3,2.7-0.3c24.8,0.1,49.6,0,74.4,0c2.7,0,5.4,0.4,8.1,0.1c0.9-0.1,1.8,0,2.6,0.6 c0.5,2.9,0.2,5.8,0.2,8.7c-0.4,0.6-1.1,0.8-1.7,0.7c-4.8-0.8-9.5,0.2-14.3,0.1c-4.5-0.1-9.1-0.5-13.7,0 C172.8,482.6,169.4,482.7,166.2,481.1z"></path> <path style="fill:#BDBEC0;" d="M205.7,473c-1.8,0.1-3.6-0.3-5.3,0.4c-0.2,0.1-0.6,0.1-0.8,0c-1.4-0.6-2.8-0.4-4.3-0.4 c-3.2,0-6.3,0-9.5,0c-3.3-0.1-6.6,0-9.9,0c-3.3,0-6.7,0-10,0s-6.7,0-10,0s-6.7,0.1-10,0c-4.1-0.1-8.3,0-12.4,0c-4.1,0-8.1,0-12.2,0 c-1.2,0-2.4,0.1-3.4-0.6c1.8-2.9,3.8-5.5,6-8.1c2.8-1.5,5.9-0.7,8.7-0.7c4,0.1,8.1-0.2,12.1-0.2c14.6,0.2,29.2-0.1,43.7,0.1 c4,0.1,7.9-0.1,11.9-0.1c1.8,0,3.6,0,5.2,1.2c0.6,2.3,0.1,4.6,0.3,6.9C206,472,206.1,472.5,205.7,473z"></path> <path style="fill:#BDBEC0;" d="M94.3,474c-1.1-0.8-2.4-1.1-3.8-1.1c-2.1,0-4.3,0.2-6.4-0.2c-1-0.2-2.1,0.2-3.2,0.3 c-1.6,0.2-3-0.8-4.5-0.4c-1.4,0.3-2.8,0.4-4.3,0.4c-4.8,0-9.5,0-14.3,0c-1.3,0-2.5,0.2-3.7-0.3c-0.5-0.2-0.9,0.1-1.3,0.1 c-2,0.2-3.9,0.4-5.9-0.2c-0.3-0.1-0.7-0.2-1.1-0.2c-1.9,0.4-3.9-0.3-5.8,0.4c-0.8,0.3-1.8,0.2-2.7,0c-1.3-0.4-2.7-0.4-4-0.4 c-3.5,0-7,0-10.5,0c-0.9,0-1.8,0.1-2.7-0.2c-0.8-0.3-1.6-0.3-2.4,0c-0.9,0.4-1.8,0.4-2.7,0.1c-1.2-0.4-2.5-0.4-3.7-0.4 c-2.2,0-4.3,0-6.5,0c-0.5-2.7-0.4-5.5-0.1-8.2c2.2-1.3,4.6-1,6.9-0.9c23.4,0.9,46.9,0.6,70.3,0.7c1.8,0,3.9-0.4,5.3,1.3 c1.3,0.8,1.9,2.3,2.9,3.4c1.4,1.6,2.6,3.3,3.9,5C94.2,473.5,94.2,473.8,94.3,474z"></path> <path style="fill:#B7B8BA;" d="M380.5,498.4c-1.8-0.3-3.6,0-5.3,0c-4,0-8.1-0.1-12.1,0c-2.2,0-4.5-0.1-6.7-0.1c-2.2,0-4.5,0-6.7,0.1 c-1.9,0.1-3.7-0.3-5.6-0.1c-1.9,0.2-3.8,0.1-5.7,0c-1.2,0-2.3,0-3.5-0.2c-0.6-0.1-1.3,0.1-1.7,0.6c-0.2,0.3-0.2,0.8-0.3,1.3 c-0.1-0.3-0.4-0.6-0.4-1c-0.5-5.5-1-10.9-0.6-16.4c13.1-0.5,26.2-1.2,39.3-0.9c0.9,0,1.8,0,2.4,0.9l0,0c0.3,0.3,0.2,0.8,0.5,1.1 c1.7,3,3,6.3,4.3,9.4C379.1,494.9,380.2,496.5,380.5,498.4z"></path> <path style="fill:#B8B9BB;" d="M302.1,499c0-0.4,0-0.7-0.1-1.1c-0.2-0.9-0.3-1.1-1.2-1.1c-1.4,0-2.9,0-4.3,0c-1.2,0-2.3,0.1-3.5-0.4 c-0.8-0.3-1.8-0.2-2.7,0c-2.7,0.6-5.3,0.6-8,0c-0.9-0.2-1.8-0.2-2.7-0.1c-3,0.6-5.3,0.6-8.5,0c-0.6-0.1-1.3-0.2-1.9,0 c-1.7,0.7-3.5,0.2-5.3,0.4c-1.1,0.1-2.3,0.1-3.5-0.3c-0.8-0.3-1.6-0.3-2.4-0.1c-1.1,0.3-2.2,0.6-3.3,1c0.4-2,1.5-3.8,2.3-5.7 c1.6-3.5,2.9-7.1,4.8-10.5c1.3-0.8,2.8-0.8,4.2-0.6c5.9,0.6,11.8-0.1,17.7,0.4c2,0.2,3.9-0.9,5.8-0.4c1.3,1.2,2.8,1.8,4.7,1.7 c0.6,0,1.2,0.1,1.9,0.2c1.8,0.3,3.6,0.3,5.4,0c1.3-0.2,1.6,0,1.6,1.4c-0.1,3.6,0.3,7.2-0.4,10.7c-0.2,1-0.1,2-0.1,3 C302.6,498,302.5,498.6,302.1,499z"></path> <path style="fill:#B7B8BA;" d="M943.5,498.4c-1.9-0.3-3.8,0.1-5.6,0c-2.5-0.1-5-0.1-7.6-0.1c-2.5,0-5,0.1-7.6,0.1 c-2,0-3.9-0.2-5.9,0c-1.9,0.1-3.8,0.1-5.7,0c-2-0.1-3.9,0-5.9,0c-1,0-1.2,0.3-1.3,1.3c0,0.7,0,1.4,0,2.2c0,18.9,0,37.8,0,56.8 c0,0.9,0,1.8,0.1,2.7c0,0.4,0.3,0.7,0.7,0.7c0.8,0.1,1.6,0.1,2.4,0.1c12.1,0,24.2,0,36.3,0c-0.2,0.3-0.5,0.5-0.9,0.5 c-0.6,0-1.3,0-1.9,0c-11.4,0-22.7,0-34.1,0c-0.5,0-1.1,0-1.6,0c-1.3-0.1-1.5-0.2-1.5-1.6c0-0.4,0-0.9,0-1.4c0-20.2,0-40.3,0-60.5 c0-0.6,0-1.3,0-1.9c0.6-4.4,0-8.9,0.3-13.3c0.7-1,1.7-0.9,2.7-0.9c6.5,0.1,13,0,19.6,0c5,0,10,0.2,15,0.1c0.9,0,1.8,0,2.6,0.6 C943.5,488.6,943.5,493.5,943.5,498.4z"></path> <path style="fill:#CACBCC;" d="M4.9,463.8c0,2.7,0,5.4,0,8.1c0,2.9,0,5.8,0,8.6c1.6,2.8,0.6,5.8,0.8,8.7c0.2,20.6,0,41.3,0.1,61.9 c0,2.5,0,5,0,7.6c0,1.8,0.8,2.6,2.6,2.6c10.8,0,21.7,0,32.5,0c2.5,0,2.7-1.5,2.7-3.3c0-11.5,0-23.1,0-34.6c0-11.2-0.1-22.3,0.1-33.5 c0.2-2.8-0.7-5.6,0.8-8.2c0-1.1,0-2.1,0.2-3.2c0.1-0.6,0.6-0.5,0.9,0c-0.3,0.2-0.5,0.5-0.5,0.9c0,0.8,0,1.6,0,2.4 c0,25.9,0,51.7,0,77.6c0,3.6,0.3,3.4-3.3,3.4c-11.4,0-22.7,0-34.1,0c-0.5,0-1.1,0-1.6,0c-1.3-0.1-1.5-0.2-1.6-1.6c0-0.4,0-0.9,0-1.4 c0-41,0-82,0-122.9c0.7-2.7-0.2-5.5,0.5-8.2c0.9-0.8,2-0.7,3.1-0.7c15.3,0.3,30.5-0.8,45.8-0.6c1.8,0,3.6-0.9,5.3,0.3 c1.9,2.3,3.8,4.7,5.6,7c0.4,0.5,0.6,1.1,0.9,1.6c-1.5,1.3-3.3,1.4-5.1,1.3c-7.6-0.3-15.3-0.3-22.9-0.2c-7.5,0.1-15.1-0.2-22.7,0.6 c-2.1,0.2-4.1,0.3-6.2,0.2c-2.2-0.1-3.1,0.8-3,3c0.1,1.1,0,2.2,0,3.2c0.1,2.5,0.1,5,0,7.5c0.1,1.7,0.1,3.3,0,5 C5.5,459.2,6.3,461.6,4.9,463.8z"></path> <path style="fill:#B7B8BA;" d="M498.6,498.9c-1.5-0.5-3-0.5-4.5-0.6c-2-0.1-4.1,0.3-6.1-0.3c-0.3-0.1-0.7,0.1-1.1,0.1 c-3.7,0.4-7.3,0.3-11,0.1c-1.3-0.1-2.7,0.1-4,0.2c-4.3,0-8.6-0.1-12.9,0c-0.6-4.5-0.1-9.1-0.3-13.6c0-0.3,0-0.6,0.1-1 c0.7-0.7,1.6-0.8,2.5-0.7c5.3,0.7,10.6-0.1,15.9,0.1c4.4,0.2,9,0.3,13.4,0c2.7-0.2,5.6-0.9,7.8,1.7 C498.6,489.5,498.6,494.2,498.6,498.9z"></path> <path style="fill:#C8C8CA;" d="M139,444.8c1.9-3.1,4-6,6.5-8.6c0.8-1.2,2.1-0.9,3.2-0.8c10.9,0.8,21.9,0.3,32.8,1 c6.7,0.4,13.5,0.1,20.2,0.1c1.3,0,2.7-0.2,3.9,0.7c0.5,2.9,0.2,5.7,0.2,8.6c-1,1.3-2.5,1-3.8,0.9c-6.5-0.3-13-0.3-19.4-0.2 c-10.3,0.3-20.5-0.9-30.7-0.6c-3.5,0.1-7-0.2-10.5-0.3C140.6,445.6,139.7,445.6,139,444.8z"></path> <path style="fill:#C4C5C7;" d="M4.9,451.9c0-2.5,0-5,0-7.6c2.1-1.3,4.5-1.1,6.8-1.1c14.5-0.1,29,0.5,43.5,0.3c4.3-0.1,8.7,0,13,0 c1.4,0,2.9,0,3.9,1.4c1.1,0.6,1.5,1.7,2.2,2.6c1.1,1.4,2.4,2.8,3.2,4.5c-0.8,1.5-2.2,1.4-3.5,1.3c-8.6-0.5-17.2,0.1-25.9-0.2 c-5.1-0.2-10.2,0-15.3-0.1c-8.5-0.2-17.1,0-25.6-0.3C6.3,452.6,5.5,452.5,4.9,451.9z"></path> <path style="fill:#C0C1C3;" d="M4.9,463.8c0-2.3,0-4.7,0-7c0.9-0.8,2-0.8,3.1-0.7c15.5,0.9,31.1,0.4,46.6,0.7c8,0.1,16-0.1,24,0.1 c1.5,0,2.9,0.1,3.8,1.5c1.4,0.9,2.1,2.4,3,3.6c0.7,0.9,1.7,1.6,1.9,2.8c-1.2-0.6-2.4-0.5-3.7-0.5c-16.4,0-32.8,0-49.1,0 c-2.2,0-4.3,0.1-6.4-0.2c-4.1-0.6-8.3-0.2-12.4-0.3c-1.3,0-2.5,0.2-3.7-0.3c-0.2-0.1-0.5-0.1-0.8,0C9,464.1,7,463.6,4.9,463.8z"></path> <path style="fill:#C0C1C3;" d="M205.7,464.9c-0.3,0-0.5,0-0.8,0c-5.2-1-10.4-0.4-15.6-0.4c-1.2,0-2.5-0.1-3.7-0.1 c-5.6,0-11.2-0.1-16.8,0c-4.5,0.1-9-0.1-13.4,0c-4.4,0-8.8,0-13.2,0c-1.3,0-2.7-0.1-4,0.4c-0.5,0.2-1.3,0.1-1.9,0 c-2.2-0.6-4.4-0.6-6.6,0c-0.4,0.1-0.9,0.2-1.3,0c-1.4-0.6-2.8-0.4-4.3-0.4c1.4-2.2,2.9-4.2,4.7-6c0.9-1,2-1.4,3.4-1.5 c6-0.2,12.1-0.2,18.1-0.2c8.9,0.1,17.8-0.2,26.7,0c5.8,0.1,11.7,0,17.5,0.3c2.8,0.1,5.6-0.3,8.4,0c3.2,0.3,3.2,0.2,3.2,3.5 C205.9,462,206.3,463.5,205.7,464.9z"></path> <path style="fill:#C4C5C7;" d="M139,444.8c2.8,0,5.6,0.2,8.3,0c0.7,0,1.4,0,2.1,0.3c0.5,0.2,1.1,0.3,1.6,0.1c0.7-0.3,1.4-0.3,2.1,0 c0.1,0,0.2,0.1,0.3,0c1.3-0.3,2.6-0.3,4,0c1.7-0.7,3.3-0.2,5,0c1.2,0.1,2.3,0,3.5,0c0.7,0,1.5,0,2.1,0.2c1,0.3,1.9,0.4,2.9,0 c0.4-0.2,0.9-0.1,1.3,0c3,0.7,6,0.7,9.1,0c0.8-0.2,1.6-0.3,2.4,0c1.1,0.5,2.3,0.4,3.5,0.4c2.4,0,4.9,0,7.3,0c1.3,0,2.5-0.3,3.7-0.3 c1.1,0,2.3,0.3,3.5,0.3c1.4,0,2.7,0,4.1,0c0.4,2.2,0.5,4.5-0.1,6.7c-1.1,0.8-2.4,0.7-3.6,0.7c-21.2,0-42.4,0-63.7,0 c-1.7,0-3.5,0.2-4.7-1.4c0.1-1.1,1.1-1.8,1.7-2.6C136.5,447.7,137.5,446.1,139,444.8z"></path> <path style="fill:#C8C8CA;" d="M72.1,444.8c-1.1-0.6-2.3-0.5-3.4-0.5c-10.6,0-21.3,0-31.9,0c-3.1,0-6.1,0-9.2,0 c-1.9,0-3.7-0.1-5.6-0.4c-2.3-0.3-4.7-0.5-7,0.2c-0.8,0.2-1.6,0.3-2.4,0c-0.5-0.2-1.1-0.4-1.6-0.2c-2,0.8-4.1,0.4-6.2,0.5 c0-1.9,0-3.8,0-5.7c0-1,0.3-1.3,1.3-1.3c1.5,0,3.1,0,4.6,0c1.7,0,3.4,0.2,5.1-0.4c0.6-0.2,1.4-0.1,2.1-0.1c3.3,0,6.7,0,10,0 c0.9,0,1.8,0.1,2.7-0.2c1.3-0.4,2.5,0.5,3.7,0.1c1.1-0.4,2.3-0.8,3.4-0.4c1.6,0.6,3.2,0.4,4.8,0.4c1,0.1,2-0.4,2.9-0.3 c1,0.1,1.9,0.1,2.9-0.1c0.8-0.2,1.7-0.2,2.4,0c1.5,0.5,3,0.4,4.5,0.4c1,0,2,0,3,0c1.8,0,3.6,0.1,5.3-0.5c0.6-0.2,1.2-0.1,1.9-0.1 c1.7,1.6,2.9,3.6,4.3,5.4C70.6,442.7,71.8,443.4,72.1,444.8z"></path> <path style="fill:#E9E9EA;" d="M458.5,400c1.5-1.3,3.2-1.7,5.2-1.7c11.6,0.1,23.2,0,34.8,0c0,3.6,0,7.2,0,10.8 c-1.2,1-2.7,0.8-4.1,0.8c-8.7,0-17.4,0-26.1,0c-3.3,0-6.6-0.2-9.8,0.8C458.5,407.2,458.5,403.6,458.5,400z"></path> <path style="fill:#C2C3C5;" d="M133.6,451.9c1.5,0.5,3,0.6,4.5,0.6c22.5,0,45,0,67.6,0c0.7,1-0.1,2.2,0.5,3.2c0,5.4,0,10.8,0,16.2 c-0.2,0.2-0.3,0.2-0.5,0c0-2.3,0-4.7,0-7c0-1.9,0-3.8,0-5.7c0-1-0.3-1.3-1.3-1.3c-1.5-0.1-3,0-4.6-0.3c-0.9-0.2-1.9,0.4-2.9,0.3 c-2-0.1-4.1,0-6.1-0.3c-0.7-0.1-1.5,0.4-2.1,0.3c-1.5-0.4-3,0.1-4.5,0.1c-1.3,0-2.5,0.1-3.7-0.4c-0.8-0.3-1.8-0.1-2.7-0.1 c-2.1,0-4.2,0.2-6.4,0.1c-1.1,0-2.1-0.2-3.2,0.2c-0.3,0.1-0.7-0.1-1-0.1c-1.1,0-2.1-0.1-3.2,0.2c-1.3,0.3-2.7,0.3-4-0.1 c-1.3-0.4-2.5-0.5-3.7-0.3c-2.2,0.3-4.4,0.1-6.6,0c-1.9-0.1-3.7,0.1-5.6,0.4c-1,0.2-2.2,0.3-3.2,0c-2.1-0.7-4.1-0.2-6.1-0.1 c-0.4,0-0.9,0.3-1.3,0.2c-1.7-0.6-3.2,0.2-4.7,0.6c0.2-1.2,1.2-1.9,1.9-2.8C131.6,454.3,132.3,452.7,133.6,451.9z"></path> <path style="fill:#CFD0D1;" d="M59,427.6c-0.3,0-0.6-0.1-0.8,0c-2.6,0.7-5.4,0.4-8,0.6c-3,0.2-6.1-0.4-9.1,0.2 c-2.6-0.5-5.2,0-7.8-0.2c-1.2-0.1-2.5-0.1-3.7,0.3c-0.7,0.2-1.6,0.2-2.4,0.2c-3.5,0-7,0-10.5,0c-1.5,0-3.1-0.3-4.5,0.4 c-0.2,0.1-0.6,0.1-0.8,0c-2.1-0.8-4.3-0.3-6.4-0.4c-0.5-2.3-0.2-4.6-0.2-6.9c0.5-0.8,1.4-0.8,2.2-0.9c15.1-1.1,30.1-1.2,45.2-1.2 c0.4,0,0.7,0.1,1,0.3c0.3,0.3,0.8,0.5,1,0.9C55.8,423.1,57.4,425.3,59,427.6z"></path> <path style="fill:#BEBFC1;" d="M639.9,485.4c0-5.2,0-10.5,0-15.7c0.5-1.2,0.3-2.5,0.2-3.7c-0.3-2.3,0.9-3,2.9-3 c5.5-0.1,11,0.1,16.4,0c5.2-0.1,10.4-0.2,15.6,0.1c4.1,0.2,4.1,0.2,4.8,4c0,3.4,0,6.8,0,10.3c-0.2,0-0.5,0-0.5-0.1 c-0.9-3.2-3.5-2.9-6-2.9c-9.5,0.1-19-0.1-28.5,0c-3.5,0-3.6,0.2-3.6,3.7c0,1.3,0.1,2.7,0,4C641,483.3,641.6,484.8,639.9,485.4z"></path> <path style="fill:#C2C3C5;" d="M82.4,458.4c-1.4-0.9-3-0.7-4.5-0.7c-0.3,0-0.6,0.2-0.8,0.1c-1.5-0.5-2.9-0.6-4.5-0.3 c-1.4,0.3-2.8-0.1-4.2,0.1c-1.2,0.1-2.4-0.4-3.7,0c-1.7-0.6-3.4,0.1-5.1-0.2c-1.8-0.3-3.5,0.3-5.3,0.3c-1.2,0-2.5-0.7-3.7,0 c-1.8-0.7-3.7,0.2-5.6-0.2c-1.6,0.5-3.2-0.2-4.8,0.1c-1.2,0.2-2.5-0.1-3.7-0.1c-5.7,0-11.3,0-17,0c-1.2,0-2.3,0.2-3.5-0.3 c-0.2-0.1-0.6-0.2-0.8-0.1c-2.2,0.6-4.4,0.1-6.6-0.1c-1.2-0.1-2.5,0-3.8,0c0-1.6,0-3.2,0-4.9c3.3,0.1,6.7-0.3,10,0.2 c3.9-0.5,7.9-0.1,11.9-0.2c0.4,0,0.7,0,1.1,0c1.4-0.2,2.6,0.4,4,0.6c1.3,0.1,2.4-0.8,3.7-0.5c2.2,0.6,4.4-0.1,6.6,0.4 c1.3,0.3,2.7,0.3,4-0.2c0.9-0.3,1.8-0.3,2.7-0.2c3.7,0.8,7.5,0.5,11.2,0.2c0.4,0,0.7-0.1,1-0.1c2.6,0.4,5.2,0.6,7.7-0.1 c0.6-0.2,1.2,0.1,1.8,0.2c2,0.4,3.9,0.3,5.9,0.1c0.3,0,0.7-0.3,1-0.4c1.2,1,1.9,2.3,2.8,3.5C81,456.4,82.1,457,82.4,458.4z"></path> <path style="fill:#EBEBEC;" d="M639.8,388.1c1.5-1.3,3.2-1.7,5.2-1.7c3.9,0.1,7.7,0.1,11.6,0c1.7,0,3.4-0.2,5.1-0.1 c1.7,0.1,3.4-0.1,5-0.4c0.4-0.1,0.9,0,1.3,0c3,0,5.9,0,8.9,0c1,0,2,0,2.9,0.5c0,3.1,0,6.1,0,9.2c-10.9,0.1-21.7,0.2-32.6,0.4 c-2.5,0-5,0.6-7.5,0.7C639.8,393.9,639.8,391,639.8,388.1z"></path> <path style="fill:#EDEDED;" d="M305.3,382.2c1.3-2.9,2.5-5.7,3.8-8.6c1.7-3.9,3.4-7.9,5.1-11.8c0.8-1.9,1.7-3.8,2.5-5.6 c0.2-0.3,0.4-0.6,0.8-0.5c0.2,0.1,0.5,0.3,0.6,0.5c1.9,4.3,3.8,8.5,5.7,12.8c2,4.6,4.1,9.2,6.1,13.8c0.3,0.7,0.6,1.5,0.9,2.3 c-0.6,0.5-1.4,0.4-2.1,0.2c-4.8-1.8-9.7-1.5-14.7-1.5C311.1,383.5,308.1,383.6,305.3,382.2z"></path> <path style="fill:#B8B9BB;" d="M639.9,485.4c0.4-0.3,0.5-0.7,0.5-1.1c0-0.7,0-1.4,0-2.1c1.5-1.1,3.2-1,4.9-1c7,0.2,14,0.2,21-0.2 c3.6-0.2,7.3,0.4,11,0.4c1.8,0,2.5,0.9,2.4,2.7c-0.1,1.3-0.3,2.7,0.2,4c0,3.1,0,6.3,0,9.4c0,0.7,0.1,1.4-0.5,2c0-0.6,0-1.3,0-1.9 c0-0.5,0-0.9-0.4-1.2c-1.2-1-1.2-2.3-1.2-3.7c0-2.4,0-2.4-2.6-2.5c-8.4,0-16.9,0-25.3,0c-1.2,0-2.3,0-3.5-0.2 c-1.2-0.2-2.5,0.2-3.7,0.4c-0.4,0.1-0.5,0.5-0.6,0.8c-0.1,0.5-0.2,1.1-0.7,1.4c-1.4,0.7-1.5,1.5-0.6,2.7c0.3,0.3,0.1,1.1-0.3,1.2 c-1.1,0.2-1.1,1.4-1.8,1.9c-0.2-1.4,0.4-2.6,0.6-3.9c0.5-2.5,0.4-5,0.4-7.4C639.8,486.5,639.8,485.9,639.9,485.4z"></path> <path style="fill:#BABBBD;" d="M943.5,483.8c-1.3,0-2.6,0.4-4,0.1c-1.2-0.3-2.6-0.2-4,0.3c-1.2,0.4-2.5,0.3-3.7,0 c-2.9-0.6-5.9-0.6-8.8,0c-0.8,0.2-1.6,0.2-2.4,0c-2.8-0.7-5.6-0.5-8.5-0.1c-1.4,0.2-3,0.1-4.5-0.2c-1.3-0.2-2.5-0.1-3.7-0.2 c-0.5-2.9-0.4-5.9,0-8.8c1.1-0.9,2.4-0.7,3.6-0.7c10.1,0,20.3,0,30.4,0c2,0,4.2-0.1,5.6,1.9C943.5,478.7,943.5,481.3,943.5,483.8z"></path> <path style="fill:#CBCBCC;" d="M205.7,437.3c-7.7,0-15.5,0-23.2,0c-1.3,0-2.5,0.1-3.7-0.4c-0.7-0.3-1.6-0.2-2.4-0.2 c-4.5,0-9,0-13.5,0c-1.3,0-2.7,0.2-4-0.4c-0.2-0.1-0.6-0.1-0.8,0c-1.4,0.6-2.8,0.4-4.2-0.1c-0.5-0.2-1.1-0.1-1.6,0 c-2.2,0.2-4.5-0.3-6.7,0c0.1-0.3,0.2-0.7,0.4-1c1.3-1.8,2.7-3.5,4.1-5.2c0.1-0.1,0.3-0.2,0.4-0.3c2-0.6,4.1-0.4,6.1-0.4 c6.6,0,13.1,0.4,19.7,0.7c9.3,0.4,18.7,1.3,28,1.2c0.5,0,0.9,0.2,1.3,0.4c0.5,0.3,0.4,0.9,0.4,1.3 C205.8,434.4,206.3,435.9,205.7,437.3z"></path> <path style="fill:#B8B9BB;" d="M111.4,481c1.3,0.1,2.7-0.1,4,0.5c2.8,0,5.5,0.4,8.3-0.3c1.2-0.3,2.5-0.3,3.7,0 c2.2,0.5,4.4,0.6,6.6,0c0.9-0.2,1.8-0.2,2.7,0c2.7,0.6,5.5,0.6,8.2,0c1-0.2,2-0.3,2.9,0c2.1,0.7,4.3,0.4,6.4,0.3c1,0,2.1,0,3.2-0.3 c1.3-0.4,2.6,0.5,3.9,0.6c0.6,0.1,0.5,0.9,0.5,1.4c-1.5,2.3-3.1,4.4-4.9,6.4c0.1-0.9-0.3-1.5-1.2-1.9c-0.7-0.3-1.4-0.3-2.1-0.1 c-3.6,0.7-7.1,0.7-10.7,0c-0.4-0.1-0.9-0.1-1.3,0c-3.3,0.7-6.6,0.5-9.9,0.2c-0.4,0-0.9-0.2-1.3,0c-0.7,0.3-1.4,0.3-2.1,0 c-0.4-0.2-0.9-0.1-1.3,0c-0.3,0.1-0.7,0.3-1,0.2c-2.4-0.8-4.8,0.2-7.2,0.1c-2.4-0.1-4.9,0-7.3,0c-1.5,0-3-0.5-4.5-0.3 c-0.4,0-0.7,0.2-1,0.2c0.4-1.5,1.7-2.4,2.6-3.6C109.4,483.3,110.1,481.9,111.4,481z"></path> <path style="fill:#BABBBD;" d="M679.9,488.1c-0.2-0.3-0.4-0.6-0.5-0.9c-0.1-0.5,0-1.1-0.1-1.6c0-3.7,0.3-3.4-3.6-3.4 c-1.6,0-3.2-0.1-4.9,0c-1.5,0.1-2.8-0.6-4.3-0.6c-1.5,0-2.8,0.6-4.2,0.6c-4.8-0.1-9.5,0-14.3-0.1c-2-0.1-3.9-0.1-5.8,0 c-0.6,0.1-1.3,0-1.9,0c0-2.3,0-4.7,0-7c0-1.4,0.2-1.6,1.5-1.6c1.7,0,3.4,0,5.1,0c1.4,0,2.9,0.2,4.3-0.3c0.2-0.1,0.5-0.1,0.8,0 c1.5,0.5,3,0.3,4.5,0.3c6.7,0,13.5,0,20.2,0c2,0,2.6-0.1,2.5,2.3c0,0.5,0,1.1,0.5,1.4C679.9,480.9,679.9,484.5,679.9,488.1z"></path> <path style="fill:#B8B9BB;" d="M166.2,481.1c1.5,0,3,0.2,4.5,0.4c2.3,0.3,4.7,0.4,7-0.2c1-0.3,1.9-0.2,2.9,0c2.5,0.6,5,0.6,7.5,0 c0.7-0.2,1.4-0.2,2.1,0c2.8,0.6,5.5,0.6,8.3,0c1.4-0.3,2.9-0.4,4.3,0.1c1,0.3,1.9,0.3,2.9,0.3c0.6,1.9,0.1,3.9,0.3,5.8 c-0.1,0.9,0.2,1.9-0.3,2.9c-1,0-2,0-2.9-0.3c-1.3-0.4-2.7-0.3-4,0c-1.7,0.5-3.4,0.5-5.1,0c-0.7-0.2-1.4-0.3-2.1-0.1 c-0.7,0.2-1.4,0.2-2.1,0c-0.4-0.1-0.9-0.1-1.3,0c-1,0.4-1.9,0.4-2.9,0c-0.4-0.2-0.9-0.1-1.3,0c-2.4,0.6-4.8,0.6-7.2,0.1 c-0.5-0.1-0.9-0.1-1.3,0.1c-1.6,0.5-3.2,0.5-4.8-0.1c-0.4-0.1-0.9-0.2-1.3-0.1c-1.1,0.3-2.1-0.1-3.2,0 C166.2,486.8,166.2,484,166.2,481.1z"></path> <path style="fill:#E8E9E9;" d="M639.8,396.8c1-0.8,2.1-1.3,3.5-1.1c0.7,0.1,1.5,0.1,2.1-0.2c1.2-0.4,2.2-0.4,3.4,0 c1.1,0.4,2.3-0.1,3.4-0.2c1.9-0.2,3.8-0.2,5.6-0.2c2.1,0,4.1-0.1,6.2,0c1.5,0.1,2.8-0.6,4.2-0.5c1.3,0.1,2.6,0.6,4,0.5 c1.6-0.1,3.2,0.2,4.8-0.4c0.3-0.1,0.7,0,1,0.1c0.6,0.2,1.1,0.5,1.7,0.8c0,2.5,0,5,0,7.6c-0.5,0.4-1.1,0.5-1.8,0.5 c-10.2-0.5-20.3,0.8-30.5,0.4c-2.6-0.1-5.2,1-7.8,0.3C639.8,401.8,639.8,399.3,639.8,396.8z"></path> <path style="fill:#E8E8E9;" d="M904,402.7c0-2.1,0-4.1,0-6.2c0-1.3,0.3-1.5,1.6-1.4c0.8,0.1,1.6,0.1,2.4,0.1c3,0.1,6.1,0.8,9.1,0.6 c1.8,0.7,3.7,0.6,5.6,0.5c3.9-0.1,7.7,0.7,11.5,1.3c1.8,0.3,3.5,0.8,5.3,0.9c1.3,0,2.6,0.7,4,0.5c0,2.7,0,5.4,0,8.1 c-0.7,0.6-1.5,0.5-2.3,0.4c-8.5-0.8-16.9-1.8-25.3-3.3c-2.8-0.5-5.5-0.7-8.3-0.7C906.3,403.5,905,403.6,904,402.7z"></path> <path style="fill:#BBBCBE;" d="M373.5,482.7c-0.3-0.1-0.5-0.3-0.8-0.2c-2,0.4-3.9,0.2-5.9,0.2c-8.3,0-16.6,0-24.9,0 c-1.2,0-2.3,0.1-3.5,0.3c-1.7,0.4-3.4,0.4-5.1-0.1c-0.5-0.1-1.1-0.2-1.6-0.3c0.3-0.4,0.7-0.6,1.2-0.4c2.1,0.6,4.3,0.4,6.4,0 c0.7-0.1,1.4,0,2.2-0.1c1.8-0.3,3.2-1.1,3.9-2.9c0.5-1.4,0.5-2.6-0.3-3.9c-0.4-0.7-1-1.3-1.5-1.9c-0.2-0.2-0.4-0.4-0.6-0.5 c-0.2,0-0.3,0-0.5-0.1c-0.3-0.3-0.8-0.2-1.1-0.5c-0.5,0-1,0-1.5,0c-0.5-2,1.1-1.5,1.9-1.6c5.3-0.6,10.6-0.3,15.9-0.3 c2.7,0,5.4-0.1,8.1,0.1c1,0.1,2,0,2.8,0.7C370.5,475,372.3,478.7,373.5,482.7z"></path> <path style="fill:#BABBBD;" d="M498.6,484.9c-2.9-1.2-5.9-1.4-8.9-0.7c-0.9,0.2-1.8,0.2-2.7,0c-2.6-0.6-5.1-0.6-7.7,0 c-0.9,0.2-1.8,0.2-2.7,0c-2.3-0.5-6.8-0.5-9.1,0c-0.5,0.1-1,0.2-1.6,0.1c-2.3-0.5-4.6-0.4-6.9-0.4c-0.5-2.6-0.2-5.3-0.2-8 c0.7-0.9,1.7-0.9,2.7-0.8c5.8,0.7,11.5,0.4,17.2-0.1c2.1-0.2,4.1,0.3,6.2,0.3c3.5,0.1,7-0.2,10.5,0.2c1.4,0.1,2.4,0.6,3,1.9 C498.6,479.8,498.6,482.3,498.6,484.9z"></path> <path style="fill:#D0D0D2;" d="M807.1,463.8c0-2.2,0-4.3,0-6.5c-1.1-1.5-0.7-3.2-0.8-4.9c0-1.7-0.1-3.4,0-5.1 c-0.2-4.8-0.2-4.8-5.1-4.8c-30.3,0-60.7,0-91,0c-1.6,0-3.3,0.3-4.8-0.6c-0.9-1.4-0.3-3-0.4-4.5c0.7-1.2,1.9-1.4,3-1.4 c11.8-0.2,23.7,0,35.5,0.6c0.3,0,0.5,0.1,0.8,0.2c0.5,0.2,0.7,0.6,0.7,1.1c0.1,0.7-0.3,1.4,0.3,2c19.7,0,39.5,0,59.2,0 c3.1,0,3,0,3,2.9c0,11.5,0,23,0,34.6c0,0.8,0.4,1.8-0.5,2.5c0-2.2,0-4.3,0-6.5C805.8,470.3,805.8,467,807.1,463.8z"></path> <path style="fill:#D3D4D5;" d="M679.9,430.8c0,2.5,0,5,0,7.6c-5.4,0.1-10.8-0.1-16.2,0c-5.6,0.1-11.1-0.3-16.7-0.2 c-2.6,0.1-5.3-0.2-7.2,2.3c0-2.2,0-4.3,0-6.5c0.2-0.3,0.3-0.7,0.3-1c-0.4-2.3,0.9-2.7,2.9-3.1c3.9-0.8,7.7,0,11.6-0.3 c7.6-0.5,15.3,0,22.9-0.2C678.6,429.4,679.4,429.8,679.9,430.8z"></path> <path style="fill:#E5E5E6;" d="M639.8,404.3c1.6-0.8,3.3-0.9,5-0.9c5.7-0.2,11.5-0.1,17.2-0.2c1,0,1.9,0,2.9-0.3 c1.1-0.4,2.3,0.5,3.4-0.2c3.7,0.1,7.4-0.5,11,0.5c0.2,0,0.4,0,0.5,0c0,2.3,0,4.7,0,7c-1.3,1-2.8,0.7-4.2,0.7 c-9.9-0.1-19.9,0.2-29.8,0.1c-2.1,0-4.1,0.4-6.1,0.8C639.8,409.4,639.8,406.8,639.8,404.3z"></path> <path style="fill:#D7D7D8;" d="M943.5,427.6c0,2.3,0,4.7,0,7c-0.7,0.6-1.6,0.9-2.5,0.7c-3.7-0.6-7.5-0.6-11.2-1.4 c-5.1-1.1-10.3-1.6-15.5-1.8c-3.4-0.1-6.8-0.3-10.1-1.1c-0.8-2-0.2-4.1-0.4-6.2c0-0.3,0.1-0.6,0.4-0.8c2.1-0.9,4.3-0.5,6.4-0.3 c4.7,0.5,9.3,0.5,14,0.7C930.9,424.7,937.4,425.2,943.5,427.6z"></path> <path style="fill:#BDBEC0;" d="M265.8,472.4c0.5-1.4,1-2.8,1.6-4.2c0.7-1.5,1.5-3,2.2-4.5c0.8-1.4,2.2-1.3,3.6-1.4 c8.4-0.1,16.8,0.8,25.3,0.6c1.3,0,2.7,0,2.8,2c0.2,2.1-1.5,1.5-2.5,2c-0.5,0.2-1,0.4-1.4,0.7c-1.1,0.7-1.8,1.6-1.9,3.1 c-0.1,1.4-0.2,1.4-1.7,1.8c-1,0.3-2,0.7-3.1,1c-7-0.6-13.9-0.1-20.9-0.3C268.5,473.2,267,473.5,265.8,472.4z"></path> <path style="fill:#CECFD0;" d="M152.6,427c0.5-1.6,1.7-2.6,2.7-3.9c0.4-0.5,0.8-1,1.2-1.4c2.3-1.4,4.7-0.9,7.1-0.7 c7.6,0.6,15.3,0.7,22.9,0.9c5.7,0.2,11.3,0.7,17,0.6c0.7,0,1.4,0.1,2.1,0.5c0.5,0.4,0.4,0.9,0.4,1.4c-0.1,1.5,0.2,3-0.2,4.4 c-1,0.8-2.2,0.7-3.4,0.5c-3-0.5-5.9-0.4-8.9-0.4c-12.7,0.1-25.4-1.1-38.1-1.1C154.4,427.8,153.4,427.8,152.6,427z"></path> <path style="fill:#BFC0C2;" d="M498.6,463.8c0,2.5,0,5,0,7.6c-12.3,0.1-24.5-0.3-36.8-0.3c-0.9,0-1.8,0-2.6-0.5 c-0.8-2-0.3-4.1-0.3-6.1c0-1.1,0.9-1.4,1.9-1.5c6.6-0.4,13.1,0,19.7-0.1c4.5,0,9-0.2,13.5,0C495.5,462.9,497.1,462.8,498.6,463.8z"></path> <path style="fill:#D5D6D7;" d="M458.5,440.5c0-2.2,0-4.3,0-6.5c0.2-0.2,0.3-0.5,0.3-0.7c0.2-4.5,0.2-4.4,4.8-4.5 c6.2-0.1,12.4-0.2,18.5,0c4.6,0.1,9.1-0.2,13.7,0.1c1.1,0.1,2.2,0.2,2.8,1.3c0,2.3,0,4.7,0,7c-11.1-0.5-22.3-0.1-33.4-0.3 c-2.6,0-5.3-0.3-6,3.2C459.2,440.6,458.8,440.5,458.5,440.5z"></path> <path style="fill:#D2D3D4;" d="M205.7,423.2c-1.8,0-3.6-0.1-5.4,0c-1.9,0.1-3.9-0.6-5.8,0c-4.3-1-8.6-0.3-12.9-0.5 c-0.2,0-0.4,0-0.5,0c-4.2-0.8-8.4-0.4-12.5-0.5c-1.3,0-2.7,0.1-4-0.4c-0.6-0.2-1.2-0.1-1.9-0.1c-2.1,0-4.1,0-6.2,0 c1.3-1.7,2.5-3.4,3.8-5.1c0.3-0.3,0.7-0.6,1-0.9c0.3-0.2,0.6-0.4,0.9-0.5c4.6-0.1,9.2,0.1,13.7,0.5c6.5,0.5,12.9,0.8,19.4,1.1 c3.4,0.2,7.1-0.6,10.3,1.3c0.2,0.3,0.4,0.5,0.4,0.9C205.9,420.4,206.2,421.8,205.7,423.2z"></path> <path style="fill:#BDBEC0;" d="M943.5,476.2c-1.7-0.8-3.5-1.1-5.5-1.1c-11.4,0-22.7,0-34.1,0c-0.5-2.4-0.3-4.7-0.1-7.1 c1.1-0.9,2.4-0.8,3.6-0.8c7.3,0,14.6-0.2,21.9,0c1.4,0,2.7,0,4,0.5c2.2,1,4.5,1.2,6.9,1.1c1.2,0,2.4,0,3.3,0.8 C943.5,471.9,943.5,474.1,943.5,476.2z"></path> <path style="fill:#DCDCDD;" d="M36.8,398.4c1.9,2.4,3.8,4.7,5.7,7.1c0.2,0.3,0.2,0.7,0.3,1c-0.5,0.3-1,0.4-1.6,0.3 c-10.8-0.5-21.6,0.8-32.4,0.5c-1.3,0-2.7,0.2-3.9-0.7c-0.5-2.6-0.3-5.2-0.1-7.8c1.2-1,2.7-0.8,4.1-0.8c8.3,0.2,16.5-0.2,24.8-0.8 c0.9-0.1,1.8,0,2.6,0.5l0,0C36.5,398,36.7,398.2,36.8,398.4z"></path> <path style="fill:#DDDDDE;" d="M206.2,404.9c0,2.5,0,5,0,7.6c-1.2,0-1.2-1-1.2-1.7c-0.1-2-1.3-2.6-3-2.7c-3.2-0.2-6.4-0.5-9.7-0.6 c-6.6-0.2-13.2-1.1-19.9-1.2c-1.2,0-2.4-0.1-3.1-1.3c1.3-2.4,3-4.5,4.9-6.5c0.2-0.2,0.4-0.3,0.5-0.5l0,0c2.4-1,4.9-0.4,7.2-0.1 c5.9,0.7,11.9,0.2,17.8,0.5c0.4,0,0.7,0,1.1,0c4.7,0.2,4.9,0.4,5,5.1C206,403.8,205.9,404.4,206.2,404.9z"></path> <path style="fill:#C4C5C6;" d="M679.9,467c-0.6-0.4-0.5-1.1-0.6-1.7c-0.2-1.2-0.6-1.5-1.8-1.4c-0.3,0-0.7,0.3-1,0.2 c-3.6-0.7-7.2-0.3-10.7-0.3c-3.5,0-7-0.2-10.5,0.1c-0.3,0-0.7,0-1.1,0c-4.1-0.3-8.3-0.1-12.4-0.1c-1.1,0-1.4,0.3-1.4,1.5 c0,1,0,2,0,3c0,0.5,0,1.1-0.5,1.5c0-2.5,0-5,0-7.6c0.8-1.6-0.4-3.6,0.8-5.1c1-0.6,2.1-0.5,3.2-0.5c10.7-0.1,21.4,0.1,32.1,0 c1.6,0,3.3-0.2,4,1.9C679.9,461.3,679.9,464.1,679.9,467z"></path> <path style="fill:#D3D4D5;" d="M904,430.8c2.3,0.1,4.6-0.1,7,0.5c1.4,0.4,3.1,0.1,4.6,0.1c2.5-0.1,5,0.6,7.5,0.9 c0.4,0.1,0.9,0.3,1.3,0.2c2.6-0.3,5,0.4,7.4,1.1c1.3,0.4,2.6,0.6,4,0.5c1.3,0,2.7,0,4,0.4c1.2,0.3,2.5,0.1,3.8,0.1 c0,1.8,0,3.6,0,5.4c-1,1.2-2.4,1.1-3.8,0.9c-6.5-0.6-12.9-1.1-19.4-1.7c-2.5-0.2-5-0.1-7.6,0.1c-3,0.3-6.1,0.4-9-1 c-0.3-2.2-0.1-4.5-0.1-6.7C903.7,431.4,903.8,431.1,904,430.8z"></path> <path style="fill:#C4C5C6;" d="M498.6,463.8c-1.1-0.1-2.1,0.1-3.2-0.2c-0.3-0.1-0.7-0.1-1,0c-1.9,0.3-3.9,0.4-5.8-0.1 c-0.3-0.1-0.6-0.1-0.8-0.1c-1.9,0.6-3.9,0.2-5.8,0.4c-1.2,0.1-2.2-0.8-3.4-0.2c-1,0.5-2.1,0.1-3.2,0c-0.9-0.1-1.8,0-2.6,0.1 c-1.1,0.1-2.2,0.3-3.2-0.1c-1-0.4-1.9,0.5-2.9,0c-1-0.6-1.9,0-2.9,0.1c-1.1,0.2-2.3,0.2-3.5,0c-0.8-0.1-1.2,0.2-1.2,1 c-0.1,0.8,0,1.6,0,2.4c0,1.1,0,2.2,0,3.2c0.1,0.1,0.2,0.2,0.2,0.4c0,0.1,0,0.2-0.1,0.2c-0.2,0.1-0.4,0.1-0.6-0.1c0-2.5,0-5.1,0-7.6 c0.6-1.8,0.1-3.8,0.3-5.6c0.1-0.3,0.3-0.6,0.6-0.7c1-0.4,2.1-0.4,3.2-0.4c10.5,0,21,0,31.5,0c1.6,0,3.3-0.1,4.4,1.4 C498.6,459.8,498.6,461.8,498.6,463.8z"></path> <path style="fill:#E5E6E6;" d="M180.2,390.8c0.2-1.5,1.4-2.3,2.1-3.3c1.7-2.4,3.5-4.7,5.3-7c0.3-0.4,0.8-0.7,1.2-1 c2.7-1.3,5.5,0,8.2-0.1c1.8-0.1,3.6,0.4,5.4,0.5c3.1,0.2,3.5,0.8,3.5,3.8c0,0.8-0.2,1.6,0.3,2.4c0,3.6,0,7.2,0,10.8 c-0.7,0.1-1-0.4-1.1-1c-0.2-2.8-2.2-3-4.4-3.1c-6-0.2-11.9-1.1-18-1.2C181.9,391.5,181,391.4,180.2,390.8z"></path> <path style="fill:#CFCFD0;" d="M904,438.4c1.4,0.1,2.8,0.1,4.3,0.3c1.4,0.2,3,0.3,4.5,0c2.4-0.5,4.9-0.6,7.2-0.2 c2.5,0.4,5,0.1,7.5,0.5c2.7,0.5,5.5,0.2,8.2,0.9c1.7,0.4,3.5,0.2,5.3,0.4c1,0.2,1.7-0.3,2.6-0.3c0,2.3,0,4.7,0,7 c-0.9,0.8-2,0.9-3.1,0.7c-6-0.8-12-0.1-17.9-1.8c-2.1-0.6-4.5-0.1-6.7-0.2c-4-0.2-8-0.8-11.9-1.8C903.6,442,903.5,440.2,904,438.4z"></path> <path style="fill:#DDDDDE;" d="M943.5,427.6c-2.7,0-5.3-0.7-7.9-1.3c-0.6-0.1-1.2-0.4-1.8-0.3c-1.8,0.2-3.6-0.2-5.3-0.6 c-1.7-0.3-3.3-0.4-5-0.1c-0.4,0.1-0.9,0-1.3-0.1c-1.5-0.1-3,0-4.5-0.2c-1.4-0.1-2.9-0.1-4.3-0.2c-0.4,0-0.9,0.1-1.3,0 c-2.6-0.8-5.4-0.4-8-0.5c-0.6-2.3-0.1-4.6-0.3-6.9c-0.1-1.4,0.7-1.4,1.7-1.3c7.8,0.8,15.5,2,23.2,3.2c3.9,0.6,7.8,0.9,11.7,1.6 c1.2,0.2,2.3,0.4,3.1,1.3C943.5,424,943.5,425.8,943.5,427.6z"></path> <path style="fill:#E6E6E6;" d="M904,402.7c1.4,0,2.9,0,4.3,0c2.9-0.1,5.7,0.1,8.5,0.9c1.3,0.4,2.6,0.2,4,0.5 c1.9,0.5,3.9,0.5,5.8,0.7c1.5,0.2,3,0.5,4.5,0.8c0.7,0.2,1.4,0.3,2.1,0.2c2.6-0.3,5.1,0.5,7.7,0.6c0.9,0,1.7,0.6,2.6,0.5 c0,1.8,0,3.6,0,5.4c-1.6,1.2-3.5,0.8-5.2,0.4c-6.8-1.6-13.7-1.4-20.6-2c-3.2-0.3-6.4-0.7-9.6-0.9c-2.9-0.2-3.2,0.1-3.4,3 c-0.2,1,0.3,2.3-1.3,2.7c0-2.3,0-4.7,0-7c0.8-1.7-0.2-3.7,0.5-5.4C904,403.1,904,402.9,904,402.7z"></path> <path style="fill:#CDCECF;" d="M498.6,441.6c0,2.2,0,4.3,0,6.5c-0.9,0.5-1.9,0.3-2.9,0.3c-10.8,0-21.7,0-32.5,0 c-2.2,0-3.4,0.7-3.4,3c-0.1,0.3-0.2,0.6-0.4,0.9c-0.2,0.3-0.5,0.4-0.8,0.2c0-1.8,0-3.6,0-5.4c0.5-1.1,0.3-2.3,0.2-3.5 c-0.2-2.1,0.8-2.7,2.7-2.8c3.4-0.1,6.9-0.1,10.3-0.1c7.7,0.1,15.3,0,23,0.1C496,440.8,497.4,440.6,498.6,441.6z"></path> <path style="fill:#CCCCCD;" d="M904,443.8c0.6,0,1.3,0,1.9,0c2-0.2,4,0.1,5.8,0.7c1,0.3,1.9,0.4,2.9,0.4c0.5,0,0.9,0,1.4,0 c4.3-0.3,8.4,0.4,12.5,1.4c0.7,0.2,1.4,0.2,2.1,0.2c1.9,0,3.8,0,5.7,0c1.1,0,2.1,0.1,3.2,0.3c1.3,0.3,2.7,0.2,4,0.2 c0,1.8,0,3.6,0,5.4c-2.6,1.5-5.5,1-8.1,0.6c-3.1-0.5-6.3-0.8-9.4-0.7c-6.4,0.1-12.7-0.9-19.1-0.6c-1,0-2,0-2.9-0.6 c-0.7-1.9-0.2-3.9-0.3-5.8C903.8,444.7,903.7,444.2,904,443.8z"></path> <path style="fill:#D8D9DA;" d="M169.4,404.9c1.4,0.5,2.8,0.6,4.2,0.6c2.1-0.1,4.3,0,6.4,0.5c0.9,0.2,1.8,0,2.7,0.1 c1.3,0,2.7-0.1,4,0.4c0.6,0.2,1.2,0.1,1.9,0.1c2.1,0,4.3-0.2,6.4,0.2c2.2,0.4,4.5,0.3,6.7,0.4c0.6,0,1.2,0.3,1.8,0.4 c2.2,0.5,2.1,0.5,2.2,2.7c0,0.8-0.2,1.6,0.5,2.3c0,2.2,0,4.3,0,6.5c-0.2,0.2-0.3,0.2-0.5,0c0-0.2,0-0.4,0-0.5 c-0.9-1.1-0.7-2.4-0.9-3.6c-0.3-1.2-1.4-0.9-2.2-1c-11.6-0.6-23.1-1-34.7-1.7c-1.2-0.1-2.3-0.1-3.4-0.8c0.1-0.3,0.1-0.7,0.3-1 c1.3-1.8,2.7-3.5,4.1-5.2C169.1,405,169.3,404.9,169.4,404.9z"></path> <path style="fill:#BEBFC1;" d="M368.6,471.3c-2.8,0.3-5.6-0.3-8.3,0.2c-4.9-0.5-9.9-0.1-14.9-0.2c-1,0-2-0.1-2.9,0.3 c-0.6,0.3-1.2,0-1.8-0.1c-0.6-0.1-0.7,0.4-0.8,0.9c-0.3-0.2-0.5-0.5-0.5-0.9c0-2.6-1.3-4.1-3.8-4.6c-2.3-0.1-1.9-1.9-1.9-3.3 c0-1.5,1.2-1.4,2.1-1.3c8.9,1.1,17.8,0.2,26.7,0.8c1.1,0.1,2.2,0.1,2.9,1.1C366.9,466.5,367.7,468.9,368.6,471.3z"></path> <path style="fill:#C8C9CA;" d="M904,450.8c2.7,0,5.4,0,8.1,0c1.7,0,3.4-0.2,5.1,0.4c0.6,0.2,1.2,0.1,1.9,0.1c2.4,0,4.9,0,7.3,0 c0.9,0,1.8-0.1,2.7,0.3c0.3,0.1,0.8,0.3,1,0.1c1.4-0.7,2.7-0.2,3.9,0.2c1.4,0.4,2.8,0.5,4.2,0.5c1.8,0,3.6,0,5.4,0c0,2,0,4,0,5.9 c-0.6,0.5-1.3,0.6-2,0.5c-8.4-1-16.9-0.4-25.3-1.2c-2.7-0.3-5.4,0.6-8.1,0.4c-1.5-0.1-3.1,0-4.2-1.4 C903.7,454.7,903.5,452.7,904,450.8z"></path> <path style="fill:#BABBBD;" d="M265.8,472.4c7.1,0,14.3,0,21.4,0c0.6,0,1.2,0,1.9,0c0.8,0,1.3,0.5,1.7,1.1c0,0,0,0,0,0 c-0.3,0.1-0.4,0.4-0.6,0.6c-0.9,1.7-1.6,3.4-0.8,5.3c0.1,0.3,0.2,0.7,0.3,1c-1.7,0.9-3.5,1.2-5.4,1.1c-2.8-0.1-5.5,0.2-8.3-0.5 c-0.5-0.1-1.1-0.1-1.6,0.1c-2.5,0.6-4.9,0.6-7.4,0c-0.7-0.2-1.5-0.3-2.1,0c-1,0.4-1.9,0-2.9-0.1C263,478.1,264.3,475.2,265.8,472.4z "></path> <path style="fill:#CDCDCE;" d="M679.9,442.7c0,2,0,4,0,5.9c-0.9,0.5-1.8,0.2-2.6,0.2c-10.9-0.3-21.8-0.1-32.7-0.2 c-2,0-3.6,0.5-3.5,2.9c-0.1,0.3-0.2,0.5-0.4,0.8c-0.2,0.2-0.5,0.3-0.8,0.1c0-1.8,0-3.6,0-5.4c0.4-0.7,0.2-1.4,0.3-2.1 c0.1-3.4,0.2-3.6,3.7-3.6c10.6,0,21.2,0,31.9,0C677.2,441.3,678.8,441.3,679.9,442.7z"></path> <path style="fill:#E0E1E1;" d="M36.3,397.8c-0.3,0-0.6,0-0.8,0c-2.5,0.7-5,0.5-7.5,0.5c-0.5,0-1.1-0.1-1.6,0.1 c-2.2,0.7-4.4,0.5-6.7,0.5c-4.9,0-9.9,0-14.8,0c-0.2-0.3-0.3-0.6-0.3-0.9c0.1-2.3-0.3-4.5,0.2-6.8c1.5-1.3,3.4-1,5.1-1 c6.8-0.2,13.6-0.4,20.4,0.1c1.6,1,2.4,2.7,3.5,4C34.8,395.4,35.8,396.4,36.3,397.8z"></path> <path style="fill:#BDBDBF;" d="M459,470.8c0-0.2,0-0.4,0-0.5c4.1,0,8.2,0,12.4,0c1.3,0,2.7-0.2,4,0.3c0.4,0.2,0.9-0.1,1.3-0.1 c0.6-0.1,1.3-0.3,1.9-0.1c1.6,0.5,3.3,0.1,5,0.4c0.3,0.1,0.8,0.2,1.1,0c1.4-0.7,3,0.4,4.4-0.4c0.2-0.1,0.6-0.1,0.8,0 c1.3,0.8,2.7,0.2,3.9,0c1.8-0.3,3.4,0.1,4.9,1c0,2,0,4,0,5.9c-1-0.7-1.9-1.2-3.2-1.1c-1.8,0.1-3.5-0.3-5.3,0c-0.9,0.2-2,0.1-2.9-0.1 c-0.9-0.2-1.7-0.3-2.6,0c-0.8,0.3-1.8,0.2-2.6-0.1c-1.5-0.5-3-0.4-4.5,0c-0.6,0.2-1.3,0.4-1.8,0.2c-1.8-0.4-3.5,0-5.3,0 c-1.7,0-3.4,0-5.1,0c-1.1,0-2.1,0-3.2-0.3c-0.9-0.3-2-0.1-2.9-0.2C458.6,474,458.6,472.4,459,470.8z"></path> <path style="fill:#C4C5C6;" d="M904,456.8c2.2,0.6,4.4,0.6,6.7,0.5c1.4-0.1,2.8-0.3,4.2-0.4c0.7-0.1,1.5-0.2,2.1,0.1 c1.3,0.5,2.6,0.4,4,0.4c3.2,0,6.4,0,9.6,0.1c0.3,0,0.7,0.1,1,0.2c0.5,0.1,1.1,0.3,1.6,0.2c3.2-0.7,6.3,0.1,9.5,0.6 c0.3,0,0.5,0,0.8,0c0,1.8,0,3.6,0,5.4c-1.1,0.8-2.3,0.2-3.4,0.2c-5,0.1-10,0-15-0.3c-5.5-0.4-11.1-0.5-16.7-0.1 c-1.4,0.1-2.9,0.3-4.3-0.1c-0.2-0.2-0.3-0.5-0.3-0.8c0-1.8,0-3.6,0-5.4C903.8,457,903.9,456.9,904,456.8z"></path> <path style="fill:#EAEAEA;" d="M206.2,385.9c-0.4-0.3-0.5-0.7-0.5-1.2c0-0.7,0-1.4,0-2.2c0-1.2-0.1-1.2-1.3-1.7 c-0.7-0.3-1.4-0.4-2.1-0.4c-1.4,0-2.9,0.1-4.3-0.4c-0.4-0.2-0.9-0.1-1.3-0.1c-2.1,0-4.1,0.1-6.1-0.5c-0.5-0.2-1.1,0-1.6-0.1 c0.2-1.5,1.4-2.3,2.1-3.4c3.8-5.2,7.8-10.3,11.7-15.4c0.9-1.1,1.8-2.2,2.7-3.3c0.1-0.1,0.3-0.2,0.5-0.1c0.1,0,0.3,0.2,0.3,0.4 c0,0.4,0,0.9,0,1.3C206.3,367.9,206.2,376.9,206.2,385.9z"></path> <path style="fill:#E1E2E2;" d="M180.2,390.8c0.5-0.2,1-0.6,1.5-0.3c1.1,0.5,2.3,0.3,3.4,0.3c1.9,0.1,3.7-0.2,5.6,0.5 c0.6,0.2,1.2,0.1,1.9,0.1c1.5,0,3-0.1,4.5,0.4c0.6,0.2,1.4,0.1,2.1,0.1c1.1,0,2.2-0.1,3.2,0.1c1,0.1,2,0.3,2.8,0.8 c0.8,0.5,0.3,1.7,0.4,2.5c0,0.5,0,1.1,0.5,1.4c0,2.7,0,5.4,0,8.1c-0.2-0.3-0.4-0.6-0.5-0.9c-0.1-0.5,0-1.1-0.1-1.6 c0-0.8,0.2-1.7-0.2-2.4c-0.5-0.8-1.5-0.3-2.3-0.6c-2.2-0.8-4.4-0.3-6.6-0.4c-2.8-0.2-5.6,0-8.4,0c-1.6,0-3.2,0.2-4.8-0.4 c-0.4-0.2-0.9-0.1-1.3-0.1c-2.4,0-4.9,0.2-7.2-0.6c0.1-0.3,0-0.6,0.2-0.8c1.4-1.9,2.9-3.8,4.4-5.6C179.6,391.2,180,391,180.2,390.8z "></path> <path style="fill:#D7D8D9;" d="M4.9,406.5c4.5,0,9,0,13.5,0c1.7,0,3.4,0.2,5.1-0.4c0.5-0.2,1.1-0.1,1.6-0.1c5,0,9.9,0,14.9,0 c1,0,2,0,2.9,0.5c1.5,1.1,2.5,2.6,3.3,4.3c-0.8,1.5-2.2,1.4-3.5,1.4c-10.4-0.2-20.8,1-31.2,0.5c-2.1-0.1-4.3,0.9-6.4-0.1 C4.4,410.6,4.5,408.5,4.9,406.5z"></path> <path style="fill:#D2D2D4;" d="M53.1,420c-0.9,0.5-1.9,0.6-2.9,0.6c-4.4,0-8.8,0-13.2,0c-3.4,0-6.8,0.1-10.1,0.2 c-0.8,0-1.6,0-2.4-0.1c-1.3-0.2-2.7-0.3-4,0.2c-0.5,0.2-1.1,0.2-1.6,0.2c-2,0.1-4-0.1-5.9,0.5c-0.5,0.2-1.1,0-1.6,0 c-2.2,0-4.3,0-6.5,0c-0.5-1.6-0.3-3.3-0.1-4.9c1-0.9,2.2-0.8,3.3-0.7c7.8,0.3,15.5-0.9,23.2-0.7c6,0.1,12-1.1,18-0.2 C50.9,416.5,52.2,418.1,53.1,420z"></path> <path style="fill:#E4E5E5;" d="M458.5,410.8c0.8-1.4,2.1-1.7,3.6-1.7c12.1,0.1,24.3,0,36.4,0c0,1.8,0,3.6,0,5.4 c-1.2,1-2.7,0.8-4.1,0.8c-9.3,0-18.5,0-27.8,0c-2.9,0-6.1-0.7-8.2,2.4C458.5,415.5,458.5,413.1,458.5,410.8z"></path> <path style="fill:#E1E1E2;" d="M639.8,411.9c0.2-0.2,0.4-0.4,0.5-0.6c0.2-0.7,0.6-1.1,1.4-0.9c0.3,0.1,0.7,0.3,1,0.2 c2.1-0.6,4.3-0.3,6.4-0.3c5.6-0.1,11.1,0,16.7,0c2,0,4.1,0,6.1-0.5c0.3-0.1,0.8-0.1,1.1,0c2.2,0.9,4.6,0.1,6.9,0.5c0,2,0,4,0,5.9 c-10.3-0.1-20.6,0.2-30.9,0.2c-0.6,0-1.3,0.1-1.9,0c-3-0.3-5.5,0.6-7.3,3C639.8,416.9,639.8,414.4,639.8,411.9z"></path> <path style="fill:#D1D2D3;" d="M498.6,441.6c-7.6,0-15.1,0-22.7,0c-2.3,0-4.7-0.1-7,0c-2.2,0.1-4.5,0-6.8,0c-0.7,0-1.4,0-2.2,0.1 c-0.5,0-0.8,0.4-0.8,0.9c-0.1,1,0,2-0.1,3c0,0.5,0,1.1-0.5,1.5c0-2.2,0-4.3,0-6.5c0.4-0.3,0.5-0.7,0.5-1.2c0-0.7,0-1.4,0.1-2.2 c0-0.5,0.3-0.9,0.8-0.9c0.6-0.1,1.3-0.1,1.9-0.1c11.1,0,22.2,0,33.3,0c1.3,0,2.5,0.3,3.5,1.1C498.6,438.7,498.6,440.2,498.6,441.6z"></path> <path style="fill:#C0C1C3;" d="M904,463.2c1.9-0.7,3.9-0.4,5.8-0.5c2.6-0.1,5.2-0.2,7.8,0c2,0.1,3.9,0.2,5.8,0 c1.8-0.2,3.6,0,5.3,0.7c0.5,0.2,1,0.4,1.6,0.3c1-0.3,2-0.4,3.2-0.3c1,0.1,1.9-0.2,2.9,0.2c0.2,0.1,0.5-0.1,0.8-0.1 c2.2-0.4,4.3-0.3,6.4,0.3c0,2,0,4,0,5.9c-1.7,0-3.4,0-5.1,0c-1.6,0-3.2,0.1-4.7-0.9c-0.9-0.6-2.2-0.7-3.4-0.7c-2.1,0.1-4.1,0-6.2,0 c-1,0-2,0.1-2.9-0.3c-0.2-0.1-0.5-0.2-0.8-0.1c-4.8,1-9.7,0.2-14.5,0.4c-0.6,0-1.3,0-1.9,0C903.6,466.5,903.6,464.9,904,463.2z"></path> <path style="fill:#C2C3C4;" d="M365.5,464.3c-0.6-0.2-1.1-0.5-1.8-0.5c-3.3,0.1-6.6-0.1-9.9,0c-3.3,0-6.6,0-9.9,0 c-1.5,0-3,0-4.5-0.4c-1-0.3-2.1-0.1-3.2-0.1c-0.6,0-1.3-0.7-1.8-0.1c-0.7,0.8-0.4,1.9-0.2,2.8c0.2,0.7,1.1,0.5,1.5,1.1 c-0.4,0-0.7,0-1.1,0c-0.6,0-1.1-0.3-1.1-0.9c0-2.6-0.1-5.2,0-7.8c0-1.1,0.6-2,1.6-2.6c1-0.6,2.1-0.4,3.2-0.2 c7.1,1.5,14.2,0.9,21.3,0.9c0.9,0,1.8-0.3,2.6,0.3C363.5,459.1,364.7,461.7,365.5,464.3z"></path> <path style="fill:#DFDFE0;" d="M458.5,426.5c0-1.6,0-3.2,0-4.9c0.1-2.2,1.2-2.9,3.4-3c11.1-0.3,22.2,0.3,33.4-0.1 c1.3,0,2.5,0.1,3.3,1.4c0,1.8,0,3.6,0,5.4c-6.8,0.2-13.6-0.2-20.5-0.1c-5.2,0-10.4-0.3-15.6-0.2 C460.9,425.1,459.9,426.3,458.5,426.5z"></path> <path style="fill:#EBEBEB;" d="M305.3,382.2c1.4,0.1,2.9-0.1,4.3,0.4c0.6,0.2,1.4,0.1,2.1,0.1c2.6,0,5.2,0.1,7.8,0 c2.3-0.1,4.4,0.5,6.7,0.6c0.5,0,1,0.4,1.5,0.6c1,0.3,2,0.7,3.1,1c1.1,2.5,2.2,5,3.3,7.6c0.4,0.9,0.8,1.8,1.2,2.7 c0.3,0.7,0.8,1.4,0.8,2.2c-2.9,1.2-5.4-0.2-8-1.1c-2.1-0.7-4.2-1.2-6.4-1c-0.1,1.2,1.6,1,1.4,2.1c-3.5,0.1-3.2,0.1-3.2-3.2 c0-0.4,0-0.7,0-1.1c-0.2-2,0.2-3.7,1.9-5c0.1-0.1,0.2-0.3,0.3-0.5c0.3-0.4,0.3-0.7,0-1.1c0-0.2,0-0.4,0-0.5 c-0.2-0.2-0.3-0.4-0.5-0.5l0,0c-0.2-0.2-0.4-0.4-0.5-0.5c-0.2,0-0.4,0-0.5,0c-0.3-0.3-0.8-0.2-1.1-0.5c-1.3,0-2.5,0-3.8,0 c-0.3,0.3-0.8,0.2-1.1,0.5c-0.2,0-0.4,0-0.5,0c-0.2,0.2-0.4,0.3-0.5,0.5v0c-0.2,0.2-0.4,0.4-0.5,0.5l0,0c-0.7,0.7,0.2,1.9-0.8,2.5 c-3-0.1-6,0.5-8.9-0.9c0-0.6,0.3-1.1,0.6-1.6c0.3-0.3,0.2-0.8,0.5-1.1l0,0c0.3-0.3,0.2-0.8,0.5-1.1c0-0.2,0-0.4,0-0.5 c0.2-0.2,0.3-0.4,0.5-0.5C305.3,382.5,305.3,382.3,305.3,382.2z"></path> <path style="fill:#DEDEDF;" d="M639.8,419.5c0.6-0.4,0.5-1.1,0.6-1.7c0.1-1.3,0.2-1.3,1.4-1.5c3.3-0.7,6.6-0.5,9.9-0.6 c2.5-0.1,5,0.4,7.5-0.3c0.6-0.2,1.3,0,1.8,0.2c1.2,0.4,2.3-0.3,3.4-0.1c1.1,0.2,2.1,0.4,3.2,0.2c1.7-0.3,3.3-0.5,5,0 c0.6,0.2,1.3,0.2,1.9-0.1c2-0.8,3.7-0.3,5.4,0.7c0,1.6,0,3.2,0,4.9c-3.4,0.4-6.8,0.2-10.2,0.2c-7.8-0.1-15.7,0.7-23.5,0.5 c-2.2-0.1-4.4,0.2-6.4,1.5C639.8,422,639.8,420.7,639.8,419.5z"></path> <path style="fill:#D9DADB;" d="M458.5,426.5c0.7-1.7,2-2.3,3.9-2.2c1.5,0.1,3.1,0,4.6,0c0.8,0,1.6-0.1,2.4,0.3 c0.2,0.1,0.3,0.1,0.5,0.2c1,0.3,1.9-0.5,2.9-0.4c0.9,0.1,1.7,0.7,2.6,0.2c0.9-0.4,2-0.4,2.9-0.2c2,0.5,3.9,0.4,5.8,0 c0.6-0.1,1.3-0.1,1.9,0.2c0.6,0.3,1.2,0.4,1.8,0.3c2-0.4,3.9,0,5.9,0c0.5,0,1,0.1,1.3-0.1c1.4-0.7,2.4,0.1,3.5,0.6 c0,1.6,0,3.2,0,4.9c-2.1-0.5-4.2-1.1-6.5-0.7c-2.6,0.4-5.4,0.5-8-0.1c-0.5-0.1-1-0.1-1.6-0.1c-3.3,0.3-6.7,0.5-10-0.1 c-1.2-0.2-2.3,0.3-3.4,0.3c-1.6,0.1-3.2,0.2-4.8,0c-1.3-0.1-2.6,0.3-4-0.2c-0.4-0.2-0.9,0.3-0.9,0.8c-0.1,0.7-0.1,1.4-0.2,2.1 c0,0.6,0.1,1.3-0.5,1.7C458.5,431.5,458.5,429,458.5,426.5z"></path> <path style="fill:#D5D5D6;" d="M49.3,415.1c-0.8,0.5-1.7,0.6-2.6,0.6c-1.5,0-3.1,0-4.6,0c-1.4,0-2.9-0.1-4.3,0.4 c-0.6,0.2-1.4,0-2.1,0.1c-1.5,0.3-2.8-0.8-4.2-0.3c-1.4,0.5-2.9,0.2-4.3,0.3c-2.4,0-4.8,0-7.3,0.5c-1.2,0.2-2.5,0.1-3.8,0.1 c-1.4,0.1-2.9-0.2-4.3,0.3c-0.2,0.1-0.5,0.1-0.8,0c-2-0.6-4.1-0.2-6.2-0.3c-0.4-1.4-0.4-2.9,0-4.3c0.4,0,0.7,0.1,1.1,0 c2-0.7,4.1-0.5,6.1-0.5c3.9,0,7.9,0,11.8,0c1.9,0,3.7,0.2,5.6-0.4c0.7-0.2,1.4-0.1,2.1-0.1c3.9,0,7.7,0,11.6,0c1,0,2,0,2.9-0.6 C47.5,411.9,48.6,413.4,49.3,415.1z"></path> <path style="fill:#C1C2C3;" d="M298.8,467c0.3-0.4,0.7-0.5,1.2-0.5c0.8-0.1,1-0.7,0.9-1.4c0-0.8-0.3-1.2-1.1-1.3c-0.6,0-1.3,0-1.9,0 c-1.7,0-3.4,0.2-5.1-0.1c-1.7-0.2-3.4,0.2-5.1,0.1c-1.6-0.1-3.2,0.1-4.8-0.5c-0.3-0.1-0.7-0.1-1.1-0.1c-3.4,0-6.8,0-10.3,0 c-0.8,0-1.4,0.2-2.1,0.5c0.8-2.5,1.7-4.9,3.2-7.1c2.1-1.3,4.4-0.9,6.6-0.7c5.8,0.5,11.7,0.3,17.5,0.3c1.5,0,2.9,0.1,4.2,0.9 c0.4,0.3,0.5,0.7,0.5,1.2c0,2.3,0,4.7,0,7c0,1.3-0.2,1.5-1.6,1.5C299.5,467,299.2,467,298.8,467z"></path> <path style="fill:#C8C8CA;" d="M679.9,458.4c-0.6-0.5-1.1-1.2-2-1.1c-3,0.2-5.9-0.3-8.9,0.3c-0.3,0.1-0.6,0.1-0.8,0 c-1.6-0.5-3.2-0.3-4.8-0.3c-7.7,0-15.3,0-23,0c-0.1-0.1-0.2-0.3-0.2-0.4c0.1-1.5-0.3-3,0.2-4.5c1.7-1.3,3.7-0.7,5.5-0.8 c7.2-0.4,14.4,0,21.5-0.2c3.3-0.1,6.6,0.2,10,0.4c1,0,2,0.2,2.5,1.3C679.9,454.8,679.9,456.6,679.9,458.4z"></path> <path style="fill:#D7D7D8;" d="M679.9,430.8c-0.8-0.4-1.5-1.1-2.4-0.6c-3.8,0-7.6,0.1-11.3-0.1c-1.6-0.1-3.2,0.2-4.8,0.1 c-3.2-0.1-6.4-0.1-9.6,0.3c-0.5,0.1-0.9,0.2-1.3,0c-1.3-0.6-2.7-0.4-4-0.3c-1.7,0.1-3.3,0.6-5.1,0.6c-0.5,0-0.7,0.4-0.8,0.9 c-0.1,0.8,0.2,1.7-0.6,2.3c0-2,0-4,0-5.9c0.6-3.3,0.6-3.3,4-3.4c10.6-0.3,21.3-0.1,31.9-0.1c1.5,0,3.1-0.3,4.1,1.3 C679.9,427.6,679.9,429.2,679.9,430.8z"></path> <path style="fill:#C7C8C9;" d="M498.6,457.8c-1.5-0.5-3-0.6-4.5-0.5c-11.7,0-23.3,0-35,0c-0.4-1.6-0.4-3.2,0-4.9 c1-0.9,2.3-0.8,3.6-0.8c10.5-0.1,21,0,31.5,0c1.6,0,3.3-0.1,4.5,1.4C498.6,454.6,498.6,456.2,498.6,457.8z"></path> <path style="fill:#E1E2E2;" d="M498.6,420c-1.3-0.6-2.7-0.9-4.2-0.6c-0.9,0.2-1.8,0-2.7,0c-5.2,0-10.5,0-15.7,0 c-1.6,0-3.2,0-4.8-0.3c-0.5-0.1-1.1-0.3-1.6-0.1c-1.1,0.5-2.3,0.3-3.5,0.4c-1.7,0-3.4,0-5.1,0c-1.4,0-1.4,0-2,1.5 c-0.1,0.2-0.3,0.4-0.5,0.6c0-1.3,0-2.5,0-3.8c0.7-0.5,0.5-1.3,0.6-2c0.1-1,0.3-1.2,1.4-1.2c0.7,0,1.4,0,2.2,0c12,0,24,0,35.9,0 C498.6,416.4,498.6,418.2,498.6,420z"></path> <path style="fill:#C4C4C6;" d="M301,457.3c-3.3-0.1-6.6,0.1-9.9,0c-0.9,0-1.8,0.1-2.7-0.3c-0.4-0.2-0.9-0.2-1.3-0.1 c-2.2,0.6-4.4,0.6-6.6,0c-0.7-0.2-1.4-0.1-2.1-0.1c-1.9,0-3.8,0-5.7,0c0-0.1,0-0.2,0-0.3c0.8-2.6,2-4.9,3.3-7.3 c0.4-0.3,0.3-0.8,0.6-1.1l0,0c2.3-0.8,4.7-0.3,6.9-0.1c4.3,0.3,8.6,0.7,12.6,2.3C297.8,452.6,299.4,454.9,301,457.3z"></path> <path style="fill:#CACBCC;" d="M498.6,453c-1.4-0.5-2.8-0.6-4.2-0.6c-4,0-7.9,0-11.9,0c-0.9,0-1.8,0.1-2.7-0.2 c-0.3-0.1-0.7-0.2-1-0.1c-2.7,0.5-5.4,0.3-8.1,0.2c-1.1-0.1-2.1,0.1-3.2,0.1c-2.8,0-5.6,0-8.4,0c0-1.3,0-2.5,0-3.8c0-0.6,0.4-1,1-1 c0.6,0,1.3,0,1.9,0c3.9,0,7.7,0,11.6,0c3.7,0,7.4,0,11,0c3.6,0,7.2,0,10.8,0c1.1,0,2.2-0.1,3.1,0.5 C498.6,449.7,498.6,451.3,498.6,453z"></path> <path style="fill:#DBDBDC;" d="M679.9,425.9c-0.8-0.5-1.7-0.6-2.6-0.5c-9.8,0-19.6,0-29.5,0.1c-2.1,0-4.2,0.1-6.3,0 c-0.7,0-1,0.2-1.1,0.9c-0.1,0.6,0.1,1.3-0.6,1.7c0-1.6,0-3.2,0-4.9c0.1-0.1,0.2-0.1,0.2-0.2c0.2-0.6,0.3-1.3,0.7-1.7 c0.6-0.6,1.5-0.3,2.3-0.3c1.1-0.1,2.2,0.1,3.2-0.2c0.3-0.1,0.7-0.1,1,0c2.3,0.4,4.6,0.4,6.9-0.1c1.2-0.3,2.5-0.2,3.7-0.1 c2.2,0.2,4.5-0.1,6.7,0c2.2,0,4.5,0,6.8,0c0.4,0,0.8,0.1,1.1,0c2-0.8,3.9,0.1,5.8,0.1c0.5,0,1,0.3,1.5,0.5 C679.9,422.7,679.9,424.3,679.9,425.9z"></path> <path style="fill:#D0D0D2;" d="M679.9,442.7c-1.4-0.5-2.8-0.6-4.3-0.6c-10.6,0-21.3,0-31.9,0c-3.4,0-3.4-0.3-3.3,3.1 c0,0.6,0.1,1.3-0.5,1.7c0-2.2,0-4.3,0-6.5c0.2-0.2,0.4-0.4,0.5-0.6c0.2-0.6-0.2-1.5,0.5-1.7c1-0.4,2-1,3.1-0.7 c0.8,0.3,1.5,0.3,2.3,0c0.8-0.3,1.6-0.2,2.4,0.1c0.9,0.3,1.7,0.3,2.6,0c1.6-0.5,3.2-0.4,4.8-0.1c2,0.5,4.1,0.5,6.1,0 c0.3-0.1,0.8-0.2,1-0.1c1,0.4,1.9,0.3,2.9,0c0.3-0.1,0.7-0.1,1.1,0.1c1.8,0.7,3.8,0.5,5.6,0.3c1.3-0.1,2.6,0.1,4-0.3 c1.1-0.3,2.2,0.5,3.3,0.9C679.9,439.8,679.9,441.3,679.9,442.7z"></path> <path style="fill:#CCCDCE;" d="M152.6,427c2.7,0,5.4,0,8.1,0c1.6,0,3.2,0,4.8,0.3c1.1,0.2,2.4,0.4,3.7,0c0.8-0.3,1.7,0.2,2.6,0.3 c2.8,0.1,5.6-0.2,8.3,0.2c6.4,0.8,12.7,0.2,19.1,0.4c0.4,0,0.9-0.1,1.3,0.1c1.7,0.6,3.4,0.4,5.1,0.5c0.4,1.1,0.4,2.2,0,3.2 c-1.1,0.1-2.2-0.1-3.2,0.2c-0.2,0.1-0.5,0.2-0.8,0.1c-2.7-0.7-5.4-0.3-8-0.3c-2.2,0-4.4-0.5-6.6-0.5c-1,0-2-0.1-2.9-0.1 c-0.5,0-1.1,0.1-1.6,0c-3.1-0.9-6.2-0.4-9.4-0.5c-1.4-0.1-2.9,0.1-4.3-0.4c-0.6-0.2-1.4-0.1-2.1-0.1c-2.7,0-5.4,0-8.1,0 c-0.9,0-1.8,0.1-2.7-0.2c-0.3-0.1-0.7-0.2-1,0c-1.5,0.6-3,0.1-4.5-0.3c0.2-0.2,0.3-0.4,0.5-0.5c0.4-0.2,0.3-0.8,0.6-1l0,0 c0.2-0.2,0.4-0.4,0.5-0.6l0,0C152.3,427.4,152.5,427.2,152.6,427L152.6,427z"></path> <path style="fill:#C6C6C8;" d="M362.2,456.7c-1.5,0.5-3,0.6-4.5,0.6c-2.8,0-5.5-0.1-8.3,0c-3.6,0.1-7.1-0.3-10.6-1 c-1.2-0.2-2.5-0.3-3.7-0.7c1.3-2,2.7-4,3.7-6.2c0.1-0.3,0.4-0.6,0.6-0.8c1.4-1.1,3.1-0.9,4.6-0.7c4.8,0.6,9.4,1.8,14.3,2.2 c0.4,0,0.8,0.3,1.2,0.6l0,0c0.3,0.3,0.2,0.8,0.6,1.1C361.2,453.3,361.6,455.1,362.2,456.7z"></path> <path style="fill:#E2E2E3;" d="M904,413c0-0.9,0-1.8,0-2.7c0-0.6,0.4-1.1,1-1c1.9,0,3.8-0.3,5.6,0.3c0.6,0.2,1.2,0.2,1.9,0.2 c1.1,0,2.1,0,3.2,0.4c0.4,0.2,0.9,0.2,1.3,0c0.9-0.4,1.7-0.2,2.6,0c1.8,0.4,3.7-0.3,5.5,0.7c1.9-0.2,3.7,0.3,5.6,0.1 c1.9-0.2,3.8,0.3,5.6,0.8c2.4,0.6,4.7,0.9,7.2,0.8c0,1.8,0,3.6,0,5.4c-1.3,1-2.7,0.8-4.1,0.4c-6.2-1.9-12.6-2-18.9-2.8 C915,414.7,909.4,414.7,904,413z"></path> <path style="fill:#E0E0E0;" d="M904,413c1.4-0.4,2.8,0,4.2,0.2c0.4,0,0.7,0.3,1,0.3c2.3-0.2,4.4,0.6,6.7,0.6c1.4,0,2.8,0.7,4.3,0.5 c1.3-0.1,2.7-0.1,4,0.4c0.2,0.1,0.4,0.1,0.5,0.1c1.5,0,3.1-0.1,4.5,0.5c2.7-0.2,5.3,0.6,8,1.1c0.4,0.1,1,0,1.3,0.3 c1.6,1,3.3,0.8,5,0.8c0,1.4,0,2.9,0,4.3c-1.2-0.3-2.4-0.6-3.7-0.6c-1.5,0-3-0.2-4.5-0.6c-1.2-0.3-2.3-0.5-3.5-0.4 c-1.5,0.1-2.8-0.4-4.2-0.7c-0.9-0.2-1.8-0.3-2.6-0.4c-2.2-0.2-4.4-0.6-6.6-0.9c-3.5-0.4-6.8-1.5-10.4-1.3c-1.3,0.1-2.4-0.7-3.8-0.7 c-0.4,2.6-0.1,5.2-0.2,7.7c-0.2,0.2-0.4,0.3-0.5,0c0-2.9,0-5.8,0-8.7C904.3,414.9,903.9,413.9,904,413z"></path> <path style="fill:#CACBCC;" d="M679.9,453c-0.6-0.2-1.1-0.6-1.8-0.5c-2.1,0.2-4.3-0.3-6.4,0c-0.3,0-0.5,0-0.8,0 c-1.1,0-2.2-0.8-3.4-0.3c-1.1,0.4-2.2-0.2-3.4-0.1c-0.6,0.1-1.2,0.1-1.8,0.2c-2,0.3-4.1,0.4-6.1-0.1c-1.4-0.4-2.8-0.4-4.2,0 c-0.9,0.3-1.8,0.3-2.7,0.3c-3-0.2-5.9,0.1-8.8,0c0-1.1,0-2.2,0-3.2c0-0.6,0.4-1.1,1-1c1.3,0.1,2.6-0.8,4-0.2c0.3,0.1,0.7-0.1,1-0.2 c0.6-0.2,1.3-0.4,1.9-0.2c1.8,0.7,3.7,0.2,5.6,0.4c1.2,0.1,2.5,0.1,3.7-0.2c1.4-0.4,2.9-0.2,4.2,0c2.2,0.3,4.4,0.5,6.6-0.1 c0.3-0.1,0.7-0.1,1.1,0c2.5,0.8,5,0.3,7.5,0.4c1,0,2,0,2.9,0.6C679.9,450.1,679.9,451.5,679.9,453z"></path> <path style="fill:#EAEAEA;" d="M4.9,391.3c0,2.3,0,4.7,0,7c-0.2,0.2-0.3,0.2-0.5,0c0-13.4,0-26.8,0-40.1c0-0.4,0-0.9,0.1-1.3 c0-0.1,0.1-0.2,0.1-0.2c0.2,0,0.4,0,0.5,0c0.9,1.1,1.9,2.1,2.8,3.3c3.4,4.4,6.7,8.8,10.1,13.2c0.4,0.6,0.7,1.2,1.1,1.8 c-1,1.7-2.8,1.7-4.3,1.5c-2.4-0.2-4.6,0.3-6.9,0.3c-1.5,0-2.1,0.8-2.1,2.2c0,2,0,3.9,0,5.9C5.6,387.2,6.2,389.4,4.9,391.3z"></path> <path style="fill:#E7E7E8;" d="M323.2,397.3c-0.5-0.7-1.3-0.4-2-0.6c-0.6-0.2-0.8-0.7-0.7-1.5c0.1-0.6,0.3-1,1-1c0.4,0,0.7,0,1.1,0 c2.3,0.6,4.8,0.4,6.8,1.9c2.3,0.5,4.5,1.2,6.8,1.3c1.7,3.7,3.6,7.4,4.9,11.3c-2,0.6-4,0.1-6-0.3c-1.8-0.3-3.2-0.3-3.1,2.1 c0,0.6-0.1,1.5-1.2,1.4c0-2.1,0-4.3,0-6.4c0-0.4,0-0.9-0.1-1.3c-0.1-0.5-0.4-0.7-0.9-0.8c-0.5,0-0.9,0.1-1,0.6 c-0.1,0.3-0.1,0.7-0.1,1.1c-0.2,1.3-0.3,1.4-1.4,1.5c-1.1,0-2.2,0-3.2,0c-1,0-1.2-0.3-1.3-1.4c0-0.8,0-1.6,0-2.4 c0-0.7,0.3-1.2,1-1.5c0.2-0.1,0.5-0.1,0.7-0.3c1.2-0.9,1.2-2.1,0.1-3.2C324,397.4,323.6,397.3,323.2,397.3z"></path> <path style="fill:#E6E6E7;" d="M4.9,384.9c0-2.3,0-4.6,0-7c0-1.5,0.2-1.6,1.8-1.7c1.7-0.1,3.4,0.1,5-0.5c0.5-0.2,1.1-0.2,1.6,0 c2,0.7,3.8-0.1,5.7-0.6c0.9,0.3,1.1,1.3,1.7,2c1.4,1.7,2.8,3.4,4.1,5.2c0.5,0.6,0.8,1.3,1.2,2c-0.7,0.7-1.6,0.8-2.5,0.8 c-5.7,0-11.4,0.1-17.1,0.2C5.8,385.4,5.3,385.2,4.9,384.9z"></path> <path style="fill:#E4E4E4;" d="M4.9,384.9c0.5-0.1,1.1-0.1,1.6-0.3c0.6-0.2,1.2-0.4,1.8-0.3c2,0.4,3.9,0,5.8,0c2,0,4,0,5.9,0 c2,0,4,0,5.9,0c1.2,0.9,2,2.3,2.8,3.5c0.6,0.8,1.5,1.3,1.5,2.4c-0.9,0.5-1.9,0.6-2.9,0.6c-3.9,0-7.8,0-11.6,0c-3.7,0-7.3,0-11,0.5 C4.9,389.2,4.9,387,4.9,384.9z"></path> <path style="fill:#DADADB;" d="M346.5,421.1c0.2,0.3,0.5,0.5,0.6,0.8c0.5,1.8,1.7,3.3,2.1,5.1c-3.4,1.6-6.8,0.7-10.3,0.5 c-2.7-2-5.7-3.3-9-4c-0.9-0.2-1.8-0.3-2.7-0.3c-1.5,0-3.1,0-4.6,0c-0.9-5.9-0.9-5.8,4.8-4.8c4.2,0.7,8.6,0.3,12.8,0.8 C342.4,419.5,344.8,419.1,346.5,421.1z"></path> <path style="fill:#DBDBDC;" d="M289.1,419.5c0.8-2.5,1.6-4.9,3.2-7c1.4-1.1,3.1-0.8,4.6-0.6c3.3,0.6,6.6,1.4,10,1.9 c0.7,0.1,1.7,0.2,1.6,1.4l0,0c-0.4,0.7-0.5,1.4,0,2.1c4.2,0,3.7-0.4,3.8,3.8c0,0.2,0,0.3,0,0.5c-0.2,0.1-0.5,0.4-0.7,0.3 c-7.2-0.9-14.5-0.6-21.6-2C289.7,419.8,289.4,419.7,289.1,419.5z"></path> <path style="fill:#E5E6E6;" d="M295.6,404.3c1.1-2.5,2.1-4.9,3.2-7.4c0.3-0.6,0.5-1.4,1.1-1.8c3.1-0.7,6.2-0.4,9.3,0.3 c0.9,0.2,1.7,0.7,1.6,1.9c-0.3,0.4-0.6,0.7-0.8,1.1c-0.6,1.2-0.4,2.1,0.9,2.6c1.3,0.5,1.5,1.3,1.5,2.5c0,3,0.1,3-2.9,3 c-0.3,0-0.5,0-0.8,0c-2,0-2.3-0.1-2.3-2c0-0.2,0-0.4-0.1-0.5c-0.2-0.5-0.6-0.7-1-0.6c-0.5,0-0.9,0.2-0.9,0.8 c-0.1,0.8-0.1,1.6-0.1,2.4c0,1.8,0,3.6,0,5.4c-1.5-0.3-1.3-1.6-1.2-2.5c0.1-2.1-1-3-2.9-3.4C298.5,405.7,296.9,405.4,295.6,404.3z"></path> <path style="fill:#C8C9CA;" d="M296.2,450.2c-2.1,0.3-4.1-0.3-6.1-0.7c-3-0.5-6-1-9-0.9c-1.5,0.1-3-0.1-4.5-0.6c0-0.2,0-0.4,0-0.5 c0.9-2.4,2-4.8,3.2-7c0.1-0.1,0.1-0.2,0.2-0.2c2.4-1.2,10.8,0,12.9,1.8c1,1.4,1.2,3.1,2,4.6C295.4,447.9,295.7,449.1,296.2,450.2z"></path> <path style="fill:#CACACC;" d="M359.5,450.8c-3.5,0.3-6.9-0.5-10.3-1.2c-3.2-0.6-6.5-1.1-9.8-0.9c0.9-2.3,1.8-4.7,2.7-7 c0.8-0.7,1.8-0.5,2.8-0.4c2.9,0.1,5.7,0.7,8.5,0.8c1.1,0,2.1,0.3,2.8,1.3c1.3,1.6,1.6,3.8,2.7,5.5 C359.3,449.4,359.5,450,359.5,450.8z"></path> <path style="fill:#E0E1E1;" d="M295.6,404.3c0.4,0,0.7-0.1,1.1,0c1.9,0.5,3.8,0.9,5.7,1.5c1.2,0.4,1.3,0.5,1.3,1.7c0,1,0,2,0,3 c0,0.5,0,1.1,0.5,1.4c0.3,0,0.5,0,0.8,0c0.7,0,1.3-0.2,1.3-1c0.1-1.4,1-1.8,2.2-1.7c0.9,0,1.8,0,2.7,0c1.1,0.1,1.6,0.5,1.6,1.7 c0.1,1,0,2,0,2.9c0,0.9-0.3,1.2-1.3,1.3c-1,0-2,0-2.9,0c-0.4-0.6-1.1-0.7-1.6-0.7c-3.2-0.2-6.3-1-9.3-1.8c-1.8-0.4-3.5-0.1-5.3-0.2 c0.1-0.5,0.1-1.1,0.3-1.6C293.6,408.7,294.6,406.5,295.6,404.3z"></path> <path style="fill:#E1E1E2;" d="M330.7,411.9c0.4-0.3,0.5-0.7,0.5-1.2c0-0.7,0-1.4,0-2.1c0.1-1.4,0.3-1.5,1.6-1.3 c2,0.3,4,0.9,6.1,0.8c0.8,0,1.4,0.2,2,0.5c0,0,0,0,0,0c0.3,0.3,0.2,0.8,0.5,1.1c0.6,1.1,1.1,2.2,1.7,3.3c0.3,0.6,0.5,1.3,0.5,2 c-1.8,1.3-3.8,0.8-5.7,0.6c-2.8-0.4-5.7-0.4-8.5-0.8c-1-0.2-2.1-0.4-3.1,0.3c-1,0-2,0-2.9,0c-1,0-1.3-0.3-1.4-1.2c0-1-0.1-2,0-2.9 c0.1-1.2,0.5-1.6,1.6-1.7c1.1-0.1,2.1,0,3.2,0c0.8,0,1.5,0.3,1.5,1.2C328.5,412,329.7,411.9,330.7,411.9z"></path> <path style="fill:#D6D7D7;" d="M289.1,419.5c1.6-0.2,3.2-0.1,4.7,0.2c0.8,0.2,1.6,0.3,2.4,0.3c1,0,2,0,2.9,0.3 c0.6,0.2,1.2,0.2,1.9,0.2c0.9,0,1.8,0.1,2.7,0c3-0.2,5.9,0.4,8.7,1.1c-0.3,1.6-0.3,1.6-1.5,1.6c-1.9,0-3.7,0-5.6,0 c-0.5,0.5-1.2,0-1.6,0.5c-0.2,0.1-0.3,0.2-0.5,0.2c-2.9,0.8-5.4,2.2-7.7,4.1c-1.8-0.7-3.8-0.8-5.7-1.1c-1.3-0.2-2.6-0.3-3.5-1.6 c0.3-1.8,1.4-3.2,2.2-4.9C288.9,420.3,288.8,419.7,289.1,419.5L289.1,419.5z"></path> <path style="fill:#EAEAEA;" d="M310.7,397.3c-0.7-1.3-2.1-1.2-3.2-1.6c-0.2-0.1-0.5,0-0.8,0c-2.3,0-4.6,0.1-6.9-0.6 c0.1-0.4,0-0.9,0.2-1.3c0.9-2,1.8-3.9,2.7-5.9c0.1-0.1,0.3-0.2,0.4-0.4c0.7,0,1.4,0,2.1,0c2.4,0,4.8-0.1,7.1,0.5 c0.2-0.3,0.4-0.3,0.5,0c0.5,0.4,1,0.8,1.4,1.2c0.5,0.4,0.7,1,0.7,1.7c0,1.7,0,3.4,0,5.1c0,0.9-0.3,1.2-1.3,1.3 C312.7,397.3,311.7,397.3,310.7,397.3z"></path> <path style="fill:#DDDEDE;" d="M326.4,415.2c-0.2-0.3-0.4-0.6-0.6-0.8c0.1-0.3,0.2-0.3,0.4-0.3c1.2,0,2.5,0,3.7,0 c0.3,0,0.6,0,0.8,0.1c1.2,0.5,2.4,0.4,3.7,0.4c1.1,0,2.1,0.1,3.2,0.4c1,0.3,2.1,0.2,3.2,0.2c1,0,2,0,2.9,0c1.4,1.7,1.9,3.9,2.7,6 c-2-0.6-4.2-1-6.3-1.1c-1.3-0.1-2.7,0.1-4-0.4c-0.3-0.1-0.7-0.2-1.1-0.1c-1.7,0.5-3.4-0.1-5,0c-1.9,0.1-3.7-0.3-5.5-1.1 c-0.3-0.2-0.7-0.3-1-0.4c-0.4-0.1-0.9,0.2-1,0.7c-0.1,0.6-0.1,1.3-0.1,1.9c0,0.9,0,1.8,0,2.7c-0.4-0.3-0.5-0.7-0.5-1.2 c0-1.1,0-2.1,0-3.2c0-1.3,0.2-1.5,1.6-1.5c0.3,0,0.5,0,0.8,0C326.2,417.2,326.2,417.2,326.4,415.2z"></path> <path style="fill:#D6D6D7;" d="M164.5,411.3c0.4-0.1,0.9-0.5,1.3-0.3c1.5,0.5,3,0.3,4.5,0.3c1.3,0,2.7-0.1,4,0.4 c0.6,0.2,1.2,0.1,1.9,0.1c2.2,0,4.5,0,6.7,0c1.3,0,2.5-0.1,3.7,0.4c0.6,0.2,1.2,0.1,1.9,0.1c1.8,0,3.6,0,5.4,0c1.2,0,2.3,0,3.5,0.4 c0.7,0.2,1.4,0.2,2.1,0.2c1.5,0,3.1,0,4.6,0c1.3,0,1.3,0.1,1.6,1.6c-1,0.9-2.3,0.8-3.6,0.8c-11.9,0.1-23.7,0-35.6-0.6 c-1.2-0.1-2.3-0.1-3.3-0.9c-0.1-0.1-0.2-0.3-0.3-0.4C163,412.4,163.7,411.8,164.5,411.3z"></path> <path style="fill:#CCCDCE;" d="M292.9,442.2c-1.2-0.7-2.6-0.4-3.8-1c-2.9,0.1-5.8-0.8-8.7-0.8c-0.2,0-0.3,0.1-0.5,0.2 c0.7-2.7,2-5.1,3.3-7.6c0.3-0.3,0.2-0.8,0.5-1.1l0,0c2.5-0.7,4.9,0.3,7.3,0.9c1,0.2,1.1,1.2,1.1,2.2c0.1,1.5-0.3,3,0.2,4.5 C292.4,440.4,293,441.2,292.9,442.2z"></path> <path style="fill:#CECFD0;" d="M356.2,443.2c-0.9-0.5-1.9-0.6-2.9-0.5c-1.4,0-2.9,0.2-4.3-0.4c-0.1,0-0.2-0.1-0.3,0 c-2.3,0.2-4.5-0.4-6.7-0.6c-0.1-1,0.4-1.8,0.5-2.7c0.1-0.1,0.2-0.3,0.2-0.5c0.3-4.3,0.3-4.3,4.8-4.1c1.8,0.1,3.8-0.3,5.2,1.3 C354.2,438.1,355.4,440.6,356.2,443.2z"></path> <path style="fill:#D3D4D5;" d="M352.9,435.7c-1.3-0.6-2.8-0.4-4.2-0.5c-1.5-0.1-3,0.1-4.5-0.4c-0.6-0.2-1,0.2-1.1,0.9 c0,0.7,0,1.4,0,2.1c0,0.5-0.2,0.9-0.5,1.2c0-0.7,0-1.4,0-2.1c0.1-3.2-0.8-5.9-3-8.2c-0.1-0.1-0.2-0.3-0.3-0.5 c-0.2-0.2-0.3-0.4-0.5-0.5c0,0,0,0,0,0c0.5-0.7,1.3-0.5,2-0.5c2.8,0,5.5,0,8.3,0C350.6,429.8,351.9,432.7,352.9,435.7z"></path> <path style="fill:#D1D1D3;" d="M292.3,439.4c-0.5-0.4-0.5-0.9-0.5-1.4c0-1,0-1.9,0-2.9c0-1.2-0.5-1.8-1.6-2c-0.2,0-0.4-0.1-0.5-0.1 c-2.1,0.1-4-0.7-6-1.1c0.5-2.3,1.7-4.4,2.7-6.5c2.1,0.5,4.2,1.2,6.4,1.1c0.7,0,1.5,0.4,2.3,0.6c0.4,0.1,0.4,0.5,0.5,0.9 c-0.7,0.9-1.3,1.9-2,2.8c-0.8,1.2-1.2,2.6-1.2,4C292.3,436.4,292.3,437.9,292.3,439.4z"></path> <path style="fill:#BABBBD;" d="M459,484.3c0,4.7,0,9.4,0,14.1c0,20.1,0,40.2,0,60.3c0,3.8-0.3,3.5,3.5,3.5c12,0,24,0,36,0 c-0.2,0.3-0.5,0.5-0.9,0.5c-0.6,0-1.3,0-1.9,0c-11.4,0-22.7,0-34.1,0c-0.5,0-1.1,0-1.6,0c-1.3-0.1-1.5-0.2-1.6-1.6 c0-0.4,0-0.9,0-1.4c0-24.4,0-48.8,0-73.2c0-0.7,0-1.4,0.1-2.2C458.7,484.1,458.9,484.1,459,484.3z"></path> <path style="fill:#BABBBD;" d="M205.7,490.3c0-0.9,0-1.8,0-2.7c0.2-0.2,0.3-0.2,0.5,0c0,0.9,0.1,1.8,0.1,2.7c0,23,0,45.9,0,68.9 c0,3.9,0.3,3.5-3.5,3.5c-11.3,0-22.5,0-33.8,0c-0.9,0-2,0.4-2.8-0.5c12.1,0,24.3,0,36.4,0c3.2,0,3.1,0.1,3.1-3.1 C205.7,536.1,205.7,513.2,205.7,490.3z"></path> <path style="fill:#ECEDED;" d="M705.3,437.3c0,1.4,0,2.9,0,4.3c1.3,1.8,0.7,3.9,0.8,5.9c0.1,1.7,0,3.3,0,5c0,1.7,0.4,3.4-0.8,4.8 c0,1.3,0,2.7,0,4c0,0.5,0,1.1-0.5,1.5c0-2.3,0-4.7,0-7c0-15.5,0-31,0-46.5c0.2,0,0.4,0,0.5,0c0.4,0.3,0.6,0.8,0.7,1.3 c0.2,1.8,0.1,3.5,0.1,5.3c0.1,1.8,0,3.5,0,5.3c0.1,1.5,0,2.9,0,4.4c0.1,1.6,0,3.3,0,4.9C706,432.7,706.8,435.1,705.3,437.3z"></path> <path style="fill:#E4E4E4;" d="M4.4,398.4c0.2,0,0.3,0,0.5,0c0,0.2,0,0.4,0,0.5c0,2.5,0,5,0,7.6c0,2,0,4,0,5.9c0,1.4,0,2.9,0,4.3 c0,1.6,0,3.2,0,4.9c0,2.3,0,4.7,0,7c0,2.1,0,4.3,0,6.4c0,0.6,0,1.3-0.5,1.7c0-8.6,0-17.2,0-25.8C4.3,406.8,4.4,402.6,4.4,398.4z"></path> <path style="fill:#C8C9CA;" d="M904,463.2c0,1.6,0,3.2,0,4.9c0,2.3,0,4.7,0,7c0,2.9,0,5.8,0,8.6c0,3.8,0,7.7,0,11.5 c0,0.7,0.1,1.4-0.5,2c0-2.4-0.1-4.9-0.1-7.3c0-9.1,0-18.2,0.1-27.3c0.2-0.3,0.3-0.2,0.5,0C904,462.9,904,463.1,904,463.2z"></path> <path style="fill:#E5E5E5;" d="M744.9,438.4c0-0.4,0-0.7,0-1.1c-1.4-2.2-0.6-4.6-0.8-6.9c0.1-1.6-0.1-3.3,0-4.9c0-1.6-0.1-3.3,0-4.9 c0-1.6-0.1-3.2,0-4.9c0-1.2-0.2-2.3,0.8-3.3c0.2,0,0.3,0,0.5,0c0,8.7,0,17.3,0,26C745.2,438.6,745,438.6,744.9,438.4z"></path> <path style="fill:#CCCDCE;" d="M205.7,437.3c0-1.4,0-2.9,0-4.3c0.2-0.2,0.3-0.2,0.5,0c0,7.6,0,15.1,0,22.7c-0.4-0.3-0.5-0.7-0.5-1.1 c0-0.7,0-1.4,0-2.1c0-2.2,0-4.3,0-6.5C205.7,443.1,205.7,440.2,205.7,437.3z"></path> <path style="fill:#C0C1C3;" d="M206.2,487.6c-0.2,0-0.3,0-0.5,0c0-2,0-4,0-5.9c0-2.9,0-5.8,0-8.6c0-0.4,0-0.7,0-1.1 c0.2,0,0.3,0,0.5,0C206.2,477.1,206.2,482.3,206.2,487.6z"></path> <path style="fill:#D7D7D8;" d="M904,443.8c0,0.4,0,0.7,0,1.1c-0.2,0.2-0.3,0.2-0.5,0c0-4.5,0-9,0-13.5c0.2-0.3,0.3-0.2,0.5,0 c0,2.3,0,4.7,0,7C904,440.2,904,442,904,443.8z"></path> <path style="fill:#BFC0C2;" d="M459,484.3c-0.2,0-0.3,0-0.5,0c0-4.5,0-9,0-13.5c0.2,0,0.3,0,0.5,0c0,1.6,0,3.2,0,4.9 c0,2.7,0,5.4,0,8.1C459,484,459,484.1,459,484.3z"></path> <path style="fill:#CFCFD0;" d="M903.5,444.9c0.2,0,0.3,0,0.5,0c0,2,0,4,0,5.9c0,2,0,4,0,5.9v0c-0.2,0.2-0.3,0.2-0.5,0 C903.5,452.8,903.5,448.8,903.5,444.9z"></path> <path style="fill:#D2D3D4;" d="M206.2,433c-0.2,0-0.3,0-0.5,0c0-0.4,0-0.7,0-1.1c0-1.1,0-2.2,0-3.2c0-1.4,0-2.9,0-4.3 c0.2-0.2,0.3-0.2,0.5,0C206.2,427.2,206.2,430.1,206.2,433z"></path> <path style="fill:#DDDDDE;" d="M904,431.3c-0.2,0-0.3,0-0.5,0c0-2.3,0-4.7,0-7c0.2,0,0.4,0,0.5,0c0,2.2,0,4.3,0,6.5 C904,431,904,431.2,904,431.3z"></path> <path style="fill:#CCCCCD;" d="M903.5,456.8c0.2,0,0.3,0,0.5,0c0,2,0,4,0,5.9c-0.2,0-0.3,0-0.5,0 C903.5,460.7,903.5,458.7,903.5,456.8z"></path> <path style="fill:#CACBCC;" d="M459,452.4c0,1.6,0,3.2,0,4.9c0,0.2,0,0.4,0,0.5c-0.2,0.2-0.3,0.2-0.5,0c0-1.8,0-3.6,0-5.4 C458.7,452.4,458.9,452.4,459,452.4z"></path> <path style="fill:#C7C8C9;" d="M458.5,457.8c0.2,0,0.3,0,0.5,0c0,1.3,0,2.6,0,4c0,0.5,0,1.1-0.5,1.4 C458.5,461.4,458.5,459.6,458.5,457.8z"></path> <path style="fill:#E8E8E9;" d="M904,403.2c0,1.3,0,2.7,0,4c0,0.5-0.1,1.1-0.5,1.4c0-1.8,0-3.6,0-5.4 C903.6,403.2,903.8,403.2,904,403.2z"></path> <path style="fill:#D5D6D7;" d="M206.2,424.3c-0.2,0-0.3,0-0.5,0c0-0.4,0-0.7,0-1.1c0-1.4,0-2.9,0-4.3c0.2,0,0.3,0,0.5,0 C206.2,420.7,206.2,422.5,206.2,424.3z"></path> <path style="fill:#C8C8CA;" d="M640.4,457.3c0,1.1,0,2.3,0,3.4c0,0.5,0,1.1-0.5,1.4c0-1.6,0-3.2,0-4.9 C640,457,640.2,457.1,640.4,457.3L640.4,457.3z"></path> <path style="fill:#CACBCC;" d="M640.4,457.3c-0.2,0-0.4,0-0.5,0c0-1.6,0-3.2,0-4.9c0.2,0,0.4,0,0.5,0 C640.4,454,640.4,455.7,640.4,457.3z"></path> <path style="fill:#EDEDED;" d="M312.9,388.1c-0.2,0-0.4,0-0.5,0c0.1-0.7-0.3-1.6,0.5-2.2C312.9,386.7,312.9,387.4,312.9,388.1z"></path> <path style="fill:#E0E1E1;" d="M308.6,417.3c-0.8-1-0.8-1.1,0-2.1C308.6,415.8,308.6,416.6,308.6,417.3z"></path> <path style="fill:#D3D4D5;" d="M744.9,438.4c0.2,0,0.3,0,0.5,0c0,0.5,0.1,1.1,0.1,1.6C744.7,439.6,744.9,439,744.9,438.4z"></path> <path style="fill:#DBDBDC;" d="M303.7,423.8c0.4-0.6,1-0.5,1.6-0.5C304.9,423.9,304.3,423.8,303.7,423.8z"></path> <path style="fill:#EDEDED;" d="M304.8,383.8c0,0.4-0.1,0.9-0.5,1.1C304.2,384.4,304.3,384,304.8,383.8z"></path> <path style="fill:#DBDBDC;" d="M289.1,419.5c0,0.4-0.1,0.8-0.5,1.1C288.5,420.1,288.6,419.7,289.1,419.5z"></path> <path style="fill:#BEBFC1;" d="M341.5,472.5c0.5,0,0.9,0,1.1,0.5C342.2,473,341.8,472.8,341.5,472.5z"></path> <path style="fill:#D6D6D7;" d="M161.9,415.7c-0.2,0-0.4,0-0.6,0c0.1-0.4,0.2-0.8,0.6-1.1c0.1,0.1,0.1,0.2,0.2,0.2 C162.2,415.2,162.2,415.4,161.9,415.7z"></path> <path style="fill:#E7E7E8;" d="M341.6,409.7c-0.4-0.2-0.5-0.6-0.5-1.1C341.5,408.9,341.6,409.3,341.6,409.7z"></path> <path style="fill:#CECFD0;" d="M151.6,428.1c0,0.5-0.1,0.9-0.6,1C151,428.7,151.2,428.3,151.6,428.1z"></path> <path style="fill:#BBBCBE;" d="M374.1,483.8c-0.5-0.2-0.5-0.6-0.5-1.1C374,482.9,374.1,483.3,374.1,483.8z"></path> <path style="fill:#D1D1D3;" d="M283.7,431.9c0,0.5-0.1,0.9-0.5,1.1C283.1,432.5,283.2,432.1,283.7,431.9z"></path> <path style="fill:#EDEDED;" d="M322.1,386.5c0.6,0.4,0.6,0.7,0,1.1C322.1,387.2,322.1,386.8,322.1,386.5z"></path> <path style="fill:#C8C9CA;" d="M276.6,448.1c0,0.5-0.1,0.9-0.6,1.1C276.1,448.7,276.2,448.3,276.6,448.1z"></path> <path style="fill:#CACACC;" d="M360,451.9c-0.5-0.2-0.6-0.6-0.6-1.1C359.9,451,360,451.4,360,451.9z"></path> <path style="fill:#EDEDED;" d="M304.2,384.9c0,0.4-0.1,0.8-0.5,1.1C303.7,385.5,303.8,385.1,304.2,384.9z"></path> <path style="fill:#EDEDED;" d="M319.4,384.3c0.4,0,0.8,0.1,1.1,0.5C320,384.8,319.6,384.8,319.4,384.3z"></path> <path style="fill:#EDEDED;" d="M314.5,384.9c0.2-0.4,0.6-0.5,1.1-0.5C315.4,384.8,315,384.8,314.5,384.9z"></path> <path style="fill:#BDBEC0;" d="M290.2,474.1c0.1-0.3,0.3-0.5,0.6-0.6C290.6,473.7,290.4,473.9,290.2,474.1z"></path> <path style="fill:#CECFD0;" d="M152.6,427c-0.2,0.2-0.4,0.4-0.5,0.6C152.3,427.4,152.5,427.2,152.6,427z"></path> <path style="fill:#D6D6D7;" d="M161.9,414.6c0.2-0.2,0.4-0.4,0.5-0.6c0,0.1,0.1,0.2,0.1,0.3C162.3,414.6,162.1,414.7,161.9,414.6 L161.9,414.6z"></path> <path style="fill:#D6D6D7;" d="M162.4,414c0.2-0.2,0.3-0.4,0.5-0.6c0,0,0,0,0,0C163.1,414,162.9,414.2,162.4,414L162.4,414z"></path> <path style="fill:#CECFD0;" d="M152.1,427.6c-0.2,0.2-0.3,0.4-0.5,0.6C151.8,427.9,151.9,427.7,152.1,427.6z"></path> <path style="fill:#DADADB;" d="M338.9,427.6c0.2,0.2,0.4,0.4,0.5,0.5C339.2,427.9,339.1,427.7,338.9,427.6z"></path> <path style="fill:#EDEDED;" d="M305.3,382.7c-0.2,0.2-0.4,0.4-0.5,0.5C305,383.1,305.1,382.9,305.3,382.7z"></path> <path style="fill:#E1E2E2;" d="M174.9,397.8c-0.2,0.2-0.4,0.4-0.5,0.5C174.5,398.2,174.7,398,174.9,397.8z"></path> <path style="fill:#E0E1E1;" d="M36.8,398.4c-0.2-0.2-0.4-0.4-0.5-0.5C36.5,398,36.6,398.2,36.8,398.4z"></path> <path style="fill:#EDEDED;" d="M321.5,385.4c0.2,0.2,0.4,0.4,0.5,0.5C321.9,385.8,321.7,385.6,321.5,385.4z"></path> <path style="fill:#EDEDED;" d="M312.9,385.9c0.2-0.2,0.4-0.4,0.5-0.5C313.3,385.6,313.1,385.8,312.9,385.9z"></path> <path style="fill:#EDEDED;" d="M321,384.9c0.2,0.2,0.4,0.4,0.5,0.5C321.4,385.2,321.2,385,321,384.9z"></path> <path style="fill:#EDEDED;" d="M313.4,385.4c0.2-0.2,0.4-0.4,0.5-0.5C313.8,385,313.6,385.2,313.4,385.4z"></path> <path style="fill:#BEBFC1;" d="M343.1,473c0.2,0.2,0.4,0.3,0.6,0.5C343.5,473.3,343.3,473.2,343.1,473z"></path> <path style="fill:#E8E9E9;" d="M705.3,395.1c1.4-0.1,2.8,0,4.3-0.4c1.3-0.4,2.7-0.3,4,0c3,0.6,6,0.4,9.1,0.1 c2.6-0.2,5.2-0.7,7.7,0.1c0.5,0.2,1.1,0.2,1.6,0c0.8-0.4,1.5-0.4,2.3,0c0.2,0.1,0.5,0.1,0.8,0c2.7-0.8,5.6-0.3,8.3-0.4 c1,0,1.3,0.3,1.3,1.3c0,2.1,0,4.1,0,6.2c-2.3,1.4-4.8,1.3-7.3,1.4c-6.9,0.1-13.9,0-20.8,0c-2.6,0-5.2-0.1-7.8,0.4 c-1.2,0.2-2.5,0.2-3.6-0.7C705.3,400.5,705.3,397.8,705.3,395.1z"></path> <path style="fill:#E5E5E5;" d="M705.3,403.2c1.7,0,3.4,0.1,5.1-0.4c0.7-0.2,1.6-0.1,2.4-0.1c8.5,0,16.9,0,25.4,0 c1.1,0,2.1-0.1,3.2-0.3c1.1-0.3,2.3-0.2,3.5-0.2c0,2.7,0,5.4,0,8.1c-1,0.9-2.3,0.8-3.6,0.8c-10.8-0.1-21.6,0.1-32.3,0 c-1.3,0-2.5,0.1-3.6-0.8c0-0.4,0-0.7,0-1.1C705.3,407.2,705.3,405.2,705.3,403.2z"></path> <path style="fill:#B6B7B9;" d="M828.2,562.1c-40,0-80,0-120,0c-2.8,0-2.9,0-2.9-2.8c0-24.5,0-48.9,0-73.4c3.1-0.2,6.3,0,9.4,0 c2.4,0,4.8,0,7.2-0.3c1-0.1,2.1,0.3,3.2,0.3c4,0,7.9,0.1,11.9,0c2.2-0.1,4.3,0,6.4,0.1c1,0,1.3,0.3,1.3,1.3c0,0.7,0,1.4,0,2.2 c0,10.1,0,20.2,0,30.2c0,3.2-0.1,3.1,3.2,3.1c25.5,0,51,0,76.5,0c0.8,0,1.6,0,2.4,0c1,0.1,1.2,0.3,1.3,1.4c0,0.6,0,1.3,0,1.9 C828.2,538,828.2,550.1,828.2,562.1z"></path> <path style="fill:#BFBFC1;" d="M807.1,463.8c0,3.2,0,6.5,0,9.7c-33.9,0-67.8,0-101.7,0c0-3.1,0-6.1,0-9.1c1.1-0.6,2.2-0.7,3.2-0.6 c7.6,0,15.1,0,22.7,0c0.6,0,1.3,0.1,1.9,0.2c0.4,0,0.7,0.2,1,0.2c2.9-0.7,5.7-0.3,8.6-0.3c19.6,0,39.1,0,58.7,0 c1.4,0,2.9-0.2,4.3,0.3C806.2,464.2,806.7,463.9,807.1,463.8z"></path> <path style="fill:#E0E0E1;" d="M705.3,410.3c3.3,0,6.6,0,10,0c3.3,0,6.6,0,9.9,0c3.2,0,6.4-0.1,9.7,0c3.3,0.1,6.6,0,10,0 c0,0.7,0,1.4,0,2.2c0,1.1,0,2.2,0,3.2c-0.8,0.7-1.8,0.8-2.8,0.8c-11.3,0.2-22.6,0-34,0c-1,0-2-0.1-2.8-0.8 C705.3,413.9,705.3,412.1,705.3,410.3z"></path> <path style="fill:#B8B9BB;" d="M4.9,489.2c0-2.9,0-5.8,0-8.6c1.7,0,3.4-0.1,5.1,0.4c0.6,0.2,1.4,0.1,2.1,0.1c4.8,0,9.5,0,14.3,0 c1.5,0,3-0.2,4.5,0.4c1.1,0.4,2.1-0.5,3.2-0.3c1,0.1,1.9,0.6,2.9,0.1c0.8-0.4,1.6-0.4,2.4-0.2c1.7,0.6,3.4,0.4,5.1,0.5 c0,2.7,0,5.4,0,8.1c-0.6,0.6-1.4,0.8-2.2,0.8c-9.8,0.2-19.6,0.4-29.3-0.3c-1.5-0.1-3.1-0.1-4.6-0.2C7,490,5.9,490,4.9,489.2z"></path> <path style="fill:#C7C8C9;" d="M705.3,457.3c0-1.6,0-3.2,0-4.9c0.6-1.1,1.7-0.8,2.7-0.8c12.2-0.3,24.5,0,36.7,0 c18.1,0,36.2,0,54.3,0c1.6,0,3.2-0.1,4.8-0.3c1.3-0.2,2.6-0.2,3.3,1.1c0,1.6,0,3.2,0,4.9c-11.8,0-23.6,0-35.4,0 c-3.8,0-7.5-0.1-11.3,0c-3.8,0-7.6,0-11.4,0c-1.6,0-3.2,0.1-4.8,0.2c-1.5,0.1-3-0.1-4.5,0.1c-1.3,0.1-2.6-0.3-4-0.3 C725.5,457.3,715.4,457.3,705.3,457.3z"></path> <path style="fill:#B6B7B9;" d="M4.9,489.2c1.8,0,3.6,0,5.4,0c1.3,0,2.5-0.1,3.7,0.4c0.6,0.2,1.4,0.1,2.1,0.1c3.5,0,7,0,10.5,0 c1.6,0,3.2-0.2,4.8,0.4c0.4,0.2,0.9,0.2,1.3,0c1.9-0.7,3.9-0.4,5.9-0.5c1.9,0,3.8,0,5.7,0c0,23.3,0,46.6,0,69.9c0,0.5,0,1.1-0.1,1.6 c-0.1,0.5-0.4,0.8-0.9,0.8c-0.6,0.1-1.3,0.1-1.9,0.1c-11.3,0-22.5,0-33.8,0c-0.5,0-1.1,0-1.6,0c-0.8-0.1-1.1-0.3-1.2-1.1 c0-0.6,0-1.3,0-1.9C4.9,535.8,4.9,512.5,4.9,489.2z"></path> <path style="fill:#CDCDCF;" d="M705.3,447.6c0-2,0-4,0-5.9c32.7,0,65.4,0,98,0c0.9,0,1.8,0,2.7,0c0.6,0,1,0.4,1,1.1 c0,1.6,0,3.2,0,4.9c-1,0.9-2.3,0.9-3.6,0.9c-31.5,0-63.1,0-94.6,0C707.7,448.4,706.4,448.5,705.3,447.6z"></path> <path style="fill:#CACBCC;" d="M705.3,447.6c33.9,0,67.8,0,101.8,0c0,1.6,0,3.2,0,4.9c-0.9-0.5-1.9-0.8-2.9-0.5 c-2,0.6-4.1,0.5-6.2,0.4c-2.4-0.1-4.8,0-7.3,0c-7,0-14.1,0-21.1,0c-2.7,0-5.4,0-8.1,0c-2.6,0-5.2,0-7.8,0c-1.1,0-2.2,0.1-3.2-0.3 c-0.3-0.1-0.7-0.2-1.1-0.1c-3.2,0.8-6.4,0.3-9.7,0.4c-2.5,0-5,0-7.5,0c-1.3,0-2.5,0.2-3.8-0.2c-0.3-0.1-0.6-0.2-0.8-0.1 c-1.8,0.6-3.6,0.3-5.3,0.1c-4.3-0.3-8.7,0.4-13,0.2c-1.1-0.1-2.2,0.1-3.2-0.2c-0.3-0.1-0.7,0.1-1,0.2 C705.3,450.8,705.3,449.2,705.3,447.6z"></path> <path style="fill:#D3D4D5;" d="M744.9,430.3c0,2.3,0,4.7,0,7c-3.3,0-6.6,0-9.9-0.2c-1.3-0.1-2.8-0.6-4.2,0.1c-0.1,0.1-0.4,0-0.5,0 c-3.5-0.9-7.1-0.3-10.7-0.4c-3.3-0.1-6.6,0-10,0c-1.5,0-2.9,0.1-4.2,0.6c0-2.3,0-4.7,0-7c1.8-1.5,3.9-1,6-1 c7.3,0.1,14.6-0.3,21.8-0.1c3.1,0.1,6.3,0.1,9.4,0.2C743.4,429.3,744.4,429.3,744.9,430.3z"></path> <path style="fill:#D5D6D7;" d="M162.4,414.1c0.2-0.2,0.4-0.4,0.5-0.5c1.4,0.5,2.8,0.6,4.2,0.5c1.8-0.1,3.6-0.1,5.4,0 c1.7,0.1,3.3,0.4,5,0.5c0.7,0.1,1.4,0,2.2,0c8.6,0,17.3,0,25.9,0c0,1.3,0,2.5,0,3.8c-1.4-0.5-2.8-0.6-4.2-0.6 c-1.7,0-3.4,0.2-5.1-0.4c-0.2-0.1-0.6-0.1-0.8-0.1c-1.8,0.7-3.5-0.1-5.3,0c-1.8,0-3.6,0-5.4,0c-1.5,0-3-0.7-4.5-0.6 c-1.5,0.1-3,0.1-4.5-0.4c-0.6-0.2-1.2-0.1-1.9-0.1c-1.8,0-3.6,0-5.4,0c-1.1,0-2.1-0.1-3.2-0.3c-1.1-0.3-2.3-0.2-3.5-0.2 c0-0.4,0-0.7,0-1.1C162.1,414.4,162.2,414.2,162.4,414.1z"></path> <path style="fill:#DADADB;" d="M744.8,420.5c0,1.6,0,3.2,0,4.9c-1,0.9-2.3,0.9-3.6,0.9c-10.8,0-21.6,0-32.4,0 c-1.3,0-2.5,0.1-3.6-0.9c0-1.4,0-2.9,0-4.3c0.9-1.1,2.1-1.4,3.4-1.4c11.1,0,22.2-0.1,33.4,0C743.1,419.7,744.1,419.8,744.8,420.5z"></path> <path style="fill:#DDDEDE;" d="M744.8,420.5c-3.9-0.1-7.7,0.3-11.6-0.2c-8.3,0.5-16.5,0.1-24.8,0.2c-1.1,0-2.1,0.4-3.2,0.6 c0-1.8,0-3.6,0-5.4c7.5,0,14.9,0,22.4,0c1.1,0,2.2-0.1,3.2,0.3c0.2,0.1,0.5,0.2,0.8,0.1c4.4-0.9,8.8-0.2,13.2-0.4 C744.8,417.3,744.8,418.9,744.8,420.5z"></path> <path style="fill:#D6D7D8;" d="M705.3,425.4c13.2,0,26.3,0,39.5,0c0,1.6,0,3.2,0,4.9c-0.1,0-0.2-0.1-0.2-0.1c-0.6-0.4-1.2-0.3-1.8,0 c-0.5,0.2-1-0.1-1.6-0.3c-0.6-0.2-1.2-0.1-1.8,0.1c-1,0.4-2.1,0.4-3.2,0c-0.3-0.1-0.5-0.2-0.8-0.2c-2.8,0.3-5.7-0.4-8.5,0.2 c-0.3,0.1-0.8,0.3-1,0.1c-1.3-0.7-2.6-0.3-4-0.2c-0.8,0.1-1.6,0.1-2.4-0.1c-0.8-0.2-1.7-0.3-2.4,0c-1.2,0.5-2.4,0.3-3.7,0.2 c-0.6-0.1-1.2-0.3-1.8,0c-0.1,0.1-0.4,0.2-0.5,0.1c-2-1-3.9,0.1-5.8,0.1C705.3,428.6,705.3,427,705.3,425.4z"></path> </svg> 