<?xml version="1.0" encoding="UTF-8"?> <svg xmlns="http://www.w3.org/2000/svg" xmlns:xlink="http://www.w3.org/1999/xlink" version="1.1" id="Layer_1" x="0px" y="0px" viewBox="0 0 1000 1000" style="enable-background:new 0 0 1000 1000;" xml:space="preserve"> <g> <path style="fill:#FFFFFF;" d="M372.9,409.4c-5.8-0.2-19.5,0-29,0v2.9c0,0.1,0,0.3,0,0.5v50.4c0,0.1,0,0.2,0,0.3v2.8 c10.5,0.1,24.2,0.2,29.7-0.1c14.9-1,27.2-14.6,26.7-29.2C399.8,422.2,387.6,409.9,372.9,409.4z"></path> <path style="fill:#FFFFFF;" d="M363.6,364.5c0.5-6.5-4-10.6-11.9-10.6c-3.8,0-6.2,0.1-7.8,0.2v2.9c0,0.2,0.1,0.4,0,0.6v12.9 c0,0.1,0,0.3,0,0.4v3.1c1.7,0.1,4.2,0.1,7.7,0.1C358.4,374.1,363,371.7,363.6,364.5z"></path> <path style="fill:#FFFFFF;" d="M780.7,156c0.1-7.9,0.2-15.9,0.2-24.1v-26.1H203.2v26c0,8.9,0.1,17.5,0.3,26H47.2v26 C47.2,462.6,279.5,537,324.1,548c25.5,27.6,51.5,47.5,74.2,64.7c44.6,35.3,66.9,53.9,66.9,94.7v79.9c-42.8,3.7-83.6,20.4-98.4,52 h-59.5c-29.7,0-52,24.1-52,52h471.8c0-29.7-24.1-52-52-52h-59.5c-14.8-31.5-55.8-46.5-98.4-52v-79.7c1.9-42.8,24.1-61.3,68.7-94.7 c22.5-17.1,48.1-36.8,73.2-64.1c36.5-8.5,279.7-79.8,279.7-366.9V156H780.7z M101.1,209.9h104.5c7.5,120.3,32.5,202.7,64.4,262 C202.6,436.9,110.5,362.2,101.1,209.9z M433.2,453.6c-6.7,27.3-31.6,46.5-61,46.8c-20.6,0.2-41.2,0-63.3,0c0-22.2,0-43.1,0-64 c0-34.9,0.1-69.8-0.2-104.7h0v-13h28.3c7.5-0.2,12.1-0.1,16.2,0c29,0.3,49.6,24.7,44.5,53.1c-0.9,5.2,0.1,7.6,4.8,10.2 C428,396.2,440.2,425.1,433.2,453.6z M426.3,296.8c0-19.2,0-38.4,0-57.6c0.3-4.4,0.2-4.8-2.2-1.1c-14,18.6-28,37.2-42.6,56.7 c-14.5-19.5-28.4-38-42.2-56.5c-2.8-4.1-3.2-2.7-1.7,0.3c0,19.3,0,38.5,0,58.3c-10.2,0-19.2,0-28.9,0c0-49.3,0-98.3,0-148.7 c24.4,32.8,48.2,64.7,72.8,97.8c24.3-32.7,48.1-64.7,72.8-97.9c0,50.3,0,99.2,0,148.7C445.2,296.8,436.2,296.8,426.3,296.8z M558.1,354c-18.5,0-36.4,0-54.4,0c-8.9,0-14.4-0.2-17.8-0.1v38.2c3.9,0.3,10.1,0.3,19.7,0.3c11.3,0,22.5,0,34.2,0 c0,12,0,22.7,0,34.9c-12.7,0-25,0-37.4,0c-8.2,0-13.3-0.1-16.5,0V466c5,0.2,12.1,0.1,21.9,0.1c16.5,0,33,0,50,0 c0,11.7,0,22.3,0,33.7c-23.9,0-47.8,0-71.9,0c-11.5,0-23.1,0-34.7,0h-0.9V328.1c0-0.5,0-0.9,0-1.4v-8h35.7 c22.5-0.1,41.7-0.1,63.8-0.1c2.6,0,5.1,0,8.4,0C558.1,330.7,558.1,341.8,558.1,354z M566.5,297.3c0-0.4,0-1.8,0-3.2 c0-1.7-2.9-5.4-5.6-7.2c-2.6-1.8-5.5-3-5.5-4.5c0-1.5,2.6-1.7,2.6-4c0-2.2-3.7-1.1-4.9-3.3c-1.2-2.2-7.4-13.8-7.4-35.3 c0,0,10.3,0.6,10.3-3.6c0-4.2-5.3-3.8-5.3-3.8s0.3-3.8-2-3.8c-1.1,0-1.6,0-1.7,0v-5.9c0,0,7.1-11.2,7.1-17.6c0-6.3-10-7.8-13.6-7.8 c-3.6,0-2.5-4-1.1-4c1.4,0.1,2-0.8,2-2.1c0-1.3-2.7-1.1-2.7-1.1v-2.9h4.2v2.1h1.9v-7.1h-1.6v2.2h-4c0,0-0.4-2.8,0.6-2.8 c1,0,1.6-1.1,1.6-2.5c0-1.4-3.9-1.5-3.9-1.5v-5.3c0,0,1.4,0.4,1.4-1.6c0-1.9-2.2-1.8-3.5-1.8c-1.3,0-3.5-0.1-3.5,1.8 c0,2,1.4,1.6,1.4,1.6v5.3c0,0-3.9,0.1-3.9,1.5c0,1.4,0.6,2.5,1.6,2.5c1,0,0.6,2.8,0.6,2.8h-4v-2.2h-1.6v7.1h1.9v-2.1h4.2v2.9 c0,0-2.7-0.2-2.7,1.1c0,1.3,0.6,2.2,2,2.1c1.4-0.1,2.5,4-1.1,4c-3.6,0-13.6,1.5-13.6,7.8c0,6.3,7.1,17.6,7.1,17.6v5.9 c-0.2,0-0.6,0-1.7,0c-2.4,0-2,3.8-2,3.8s-5.3-0.4-5.3,3.8c0,4.2,10.3,3.6,10.3,3.6c0,21.5-6.2,33.1-7.4,35.3 c-1.2,2.2-4.9,1.1-4.9,3.3c0,2.2,2.6,2.4,2.6,4c0,1.5-2.9,2.7-5.5,4.5c-2.6,1.8-5.6,5.5-5.6,7.2c0,1.7,0,3.2,0,3.3l-8.3,0 c-8.7-0.2-17.3-0.1-27.4-0.1c22.2-50.1,44-99.3,66.7-150.4c22.7,51,44.5,100,66.9,150.5c-11,0-20.6,0.1-30.2-0.1L566.5,297.3z M703.4,354v0.3h-45.1c0.2,44.3,0.1,102.4,0.1,145.8c-12.1,0-22.8,0-34.7,0c0-3.3,0-6.3,0-9.4c-0.1-39.3-0.4-94.7-0.2-136.4h-45.8 v-35.6h5.2c0.3,0,0.6,0,1,0c14.6,0,29.3,0,44,0h75.5C703.4,330.2,703.4,341.4,703.4,354z M703.4,175.7v0.2h-37.5 c0.2,36.8,0.1,85,0.1,121.1c-10.1,0-18.9,0-28.8,0c0-2.7,0-5.3,0-7.8c-0.1-32.6-0.3-78.6-0.2-113.3h-38v-29.5h4.3 c0.3,0,0.5,0,0.8,0c12.2,0,24.3,0,36.5,0h62.7C703.4,156,703.4,165.3,703.4,175.7z M713.9,471.9c32-59.7,57.3-142.8,64.8-263.8 h104.4C873.6,363.2,781.2,437.8,713.9,471.9z"></path> </g> </svg> 