<?xml version="1.0" encoding="UTF-8"?> <svg xmlns="http://www.w3.org/2000/svg" xmlns:xlink="http://www.w3.org/1999/xlink" version="1.1" id="Layer_1" x="0px" y="0px" viewBox="0 0 1000 1000" style="enable-background:new 0 0 1000 1000;" xml:space="preserve"> <path style="fill:#00D9C9;" d="M788.9,148.6c0.1-8,0.2-16.2,0.2-24.5V97.6H202V124c0,9,0.1,17.8,0.3,26.4H43.4v26.4 c0,283.4,236.1,359.1,281.4,370.3c25.9,28.1,52.3,48.2,75.4,65.8c45.4,35.8,68,54.8,68,96.3v81.2c-43.5,3.8-84.9,20.7-100,52.9 h-60.4c-30.2,0-52.9,24.5-52.9,52.9h479.5c0-30.2-24.5-52.9-52.9-52.9h-60.4c-15.1-32.1-56.7-47.2-100-52.9v-81 c1.9-43.5,24.5-62.3,69.9-96.3c22.8-17.4,48.9-37.4,74.4-65.1c37.1-8.6,284.2-81.1,284.2-372.8v-26.5H788.9z M98.2,203.4h106.2 c7.6,122.3,33,206,65.4,266.3C201.4,434.1,107.7,358.2,98.2,203.4z M721,469.7c32.6-60.6,58.3-145.1,65.9-268.1H893 C883.3,359.2,789.4,435,721,469.7z"></path> <g> <path style="fill:#0A2232;" d="M309.2,132.9c0,51.3,0,101,0,151.1c9.9,0,19,0,29.3,0c0-20.1,0-39.7,0-59.3 c-1.5-3.1-1.1-4.5,1.7-0.3c14.1,18.8,28.1,37.6,42.9,57.4c14.8-19.7,29.1-38.7,43.3-57.6c2.5-3.8,2.6-3.3,2.3,1.1 c0,19.5,0,39,0,58.5c10,0,19.2,0,28.5,0c0-50.3,0-100,0-151.1c-25.1,33.7-49.3,66.2-74,99.5C358.2,198.7,334,166.2,309.2,132.9z"></path> <path style="fill:#0A2232;" d="M609.4,131.1c-0.3,0-0.6,0-0.8,0h-4.4v30h38.7c-0.1,35.2,0.1,82,0.2,115.1c0,2.6,0,5.2,0,7.9 c10.1,0,19.1,0,29.3,0c0-36.6,0.1-85.7-0.1-123.1h38.1v-0.2c0-10.7,0-20.1,0-29.8h-63.7C634.1,131.1,621.7,131.1,609.4,131.1z"></path> <path style="fill:#0A2232;" d="M471.6,284.6c10.2,0,19.1-0.1,27.9,0.1l8.4,0c0-0.1,0-1.7,0-3.4c0-1.8,3-5.5,5.7-7.4 c2.7-1.8,5.6-3,5.6-4.6s-2.7-1.8-2.7-4c0-2.3,3.8-1.1,5-3.4s7.5-14,7.5-35.9c0,0-10.5,0.6-10.5-3.7c0-4.2,5.4-3.8,5.4-3.8 s-0.4-3.9,2.1-3.9c1.2,0,1.6,0,1.8,0v-6c0,0-7.2-11.4-7.2-17.8c0-6.4,10.1-7.9,13.8-7.9c3.7,0,2.5-4.1,1.1-4s-2-0.8-2-2.1 c0-1.3,2.8-1.1,2.8-1.1v-2.9h-4.2v2.1h-1.9v-7.2h1.6v2.2h4.1c0,0,0.4-2.8-0.6-2.8c-1.1,0-1.6-1.1-1.6-2.5s3.9-1.5,3.9-1.5v-5.4 c0,0-1.4,0.4-1.4-1.6c0-1.9,2.2-1.8,3.6-1.8c1.3,0,3.6-0.1,3.6,1.8c0,2-1.4,1.6-1.4,1.6v5.4c0,0,3.9,0.1,3.9,1.5s-0.6,2.5-1.6,2.5 c-1.1,0-0.6,2.8-0.6,2.8h4.1v-2.2h1.6v7.2h-1.9v-2.1h-4.2v2.9c0,0,2.8-0.2,2.8,1.1c0,1.3-0.6,2.2-2,2.1s-2.5,4,1.1,4 c3.7,0,13.8,1.5,13.8,7.9c0,6.4-7.2,17.8-7.2,17.8v6c0.2,0,0.6,0,1.8,0c2.4,0,2.1,3.9,2.1,3.9s5.4-0.4,5.4,3.8 c0,4.2-10.5,3.7-10.5,3.7c0,21.9,6.3,33.6,7.5,35.9s5,1.1,5,3.4c0,2.3-2.7,2.5-2.7,4s2.9,2.8,5.6,4.6c2.7,1.8,5.7,5.6,5.7,7.4 c0,1.5,0,2.8,0,3.3l5.5,0c9.8,0.2,19.6,0.1,30.7,0.1c-22.8-51.3-45-101.1-68-152.9C516.3,183.6,494.2,233.6,471.6,284.6z"></path> </g> <g> <path style="fill:#0A2232;" d="M554.1,298.3c-22.5,0-42,0-64.8,0.1H453v8.1c0,0.4,0,0.9,0,1.4v174.5h1c11.9,0,23.6,0,35.3,0 c24.5,0,48.7,0,73,0c0-11.5,0-22.3,0-34.2c-17.2,0-34,0-50.8,0c-9.9,0-17.1,0-22.3-0.1v-39.4c3.2-0.1,8.5,0,16.8,0 c12.6,0,25.1,0,38,0c0-12.4,0-23.3,0-35.5c-11.8,0-23.3,0-34.7,0c-9.8,0-16.1,0-20.1-0.3v-38.8c3.4-0.1,9.1,0.1,18.1,0.1 c18.3,0,36.6,0,55.3,0c0-12.4,0-23.7,0-35.9C559.3,298.3,556.7,298.3,554.1,298.3z"></path> <path style="fill:#0A2232;" d="M633.5,298.3c-14.9,0-29.8,0-44.7,0c-0.4,0-0.7,0-1,0h-5.3v36.2H629c-0.1,42.4,0.1,98.7,0.2,138.6 c0,3.1,0,6.2,0,9.6c12.1,0,23,0,35.3,0c0-44.1,0.1-103.2-0.1-148.2h45.8v-0.3c0-12.8,0-24.2,0-35.9H633.5z"></path> <path style="fill:#0A2232;" d="M404.6,362.7c-4.7-2.6-5.8-5-4.9-10.4c5.2-28.8-15.8-53.6-45.2-54c-4.2-0.1-8.9-0.2-16.5,0h-28.8 v13.2h0c0.2,35.5,0.2,70.9,0.2,106.4c0,21.2,0,42.5,0,65.1c22.4,0,43.4,0.2,64.3,0c29.8-0.3,55.2-19.9,62-47.6 C442.8,406.4,430.5,377.1,404.6,362.7z M345,351.3c0-0.1,0-0.3,0-0.4v-13.1c0.1-0.2,0.1-0.4,0-0.6v-3c1.5-0.1,4-0.2,7.9-0.2 c8,0,12.7,4.1,12.1,10.7c-0.6,7.4-5.3,9.8-12.1,9.8c-3.6,0-6.1,0-7.9-0.1V351.3z M375.1,448c-5.5,0.4-19.5,0.2-30.2,0.1v-2.8 c0-0.1,0-0.2,0-0.3v-51.2c0-0.2,0-0.3,0-0.5v-3c9.6,0,23.6-0.2,29.4,0c15,0.5,27.4,13,27.8,27.9C402.7,433.2,390.3,447.1,375.1,448 z"></path> </g> </svg> 