<?xml version="1.0" encoding="utf-8"?>
<!-- Generator: Adobe Illustrator 24.2.1, SVG Export Plug-In . SVG Version: 6.00 Build 0)  -->
<svg version="1.1" xmlns="http://www.w3.org/2000/svg" xmlns:xlink="http://www.w3.org/1999/xlink" x="0px" y="0px"
	 viewBox="0 0 100 100" style="enable-background:new 0 0 100 100;" xml:space="preserve">
<style type="text/css">
	.st0{fill:none;stroke:#00D5C8;stroke-width:1.44;stroke-linecap:round;stroke-linejoin:round;}
</style>
<g id="Aktif_Bonuslar">
	<polygon class="st0" points="12.7,47.9 50.1,97.3 87.4,47.9 	"/>
	<polyline class="st0" points="39.2,47.9 37.5,47.9 49.1,91.9 50,95.4 50,95.1 50.1,95.4 50.9,91.9 62.6,47.9 	"/>
	<polyline class="st0" points="12.7,47.2 21,31.7 80.3,31.7 87.4,47.2 	"/>
	<path class="st0" d="M30,31.7l6.6,14.9c1.3,1.4,0.8,1.4,2,0l6.6-14.9"/>
	<path class="st0" d="M55,31.7l6.6,14.9c1.3,1.4,0.8,1.4,2,0l6.6-14.8"/>
	<line class="st0" x1="49.8" y1="4.7" x2="49.8" y2="16.4"/>
	<line class="st0" x1="24.1" y1="9.2" x2="29" y2="19.7"/>
	<line class="st0" x1="3.2" y1="22.5" x2="12.2" y2="30"/>
	<line class="st0" x1="75.6" y1="8.7" x2="70.8" y2="19.2"/>
	<line class="st0" x1="96.8" y1="21.6" x2="87.8" y2="29.1"/>
</g>
</svg>
