<?xml version="1.0" encoding="utf-8"?>
<!-- Generator: Adobe Illustrator 24.2.1, SVG Export Plug-In . SVG Version: 6.00 Build 0)  -->
<svg version="1.1" xmlns="http://www.w3.org/2000/svg" xmlns:xlink="http://www.w3.org/1999/xlink" x="0px" y="0px"
	 viewBox="0 0 100 100" style="enable-background:new 0 0 100 100;" xml:space="preserve">
<style type="text/css">
	.st0{fill-rule:evenodd;clip-rule:evenodd;fill:#00D5C8;}
	.st1{fill:#00D5C8;}
</style>
<g id="Spor_Geçmişim">
	<path class="st0" d="M63.6,74.8c0.1-0.1,0.3-0.4,0.4-0.5c0.1-0.3-0.3-0.8-0.3-0.9c-0.1-0.1-0.1-0.3-0.3-0.4c-0.1-0.3-0.1-0.5,0-0.8
		c0.3-0.5,0.8-0.9,1.3-1c0.4-0.1,0.8-0.3,1.2-0.5c0.7-0.4,1.2-0.9,1.6-1.4c1-1.3,1.8-2.7,2.5-4.2c0.4-0.8,0.7-1.6,0.9-2.5
		s0.3-2,0.1-2.9c-0.1-0.9-0.3-1.8-0.5-2.7c-0.1-0.7-0.9-1-1.6-0.9l0,0l-1.4,0.3c-0.4,0.1-0.9,0.1-1.3,0.3c-0.7,0.3-1.3,0.8-1.6,1.4
		c-0.4,0.8-0.8,1.6-1.2,2.4c-0.4,0.8-0.8,1.6-1.2,2.2S61.4,64,61,64.8c-0.3,0.4-0.4,0.8-0.4,1.2c0,0.4,0.1,0.9,0.3,1.3
		c0.3,0.9,0.5,1.8,0.8,2.7c0.1,0.4,0.3,0.9,0.4,1.3c0.1,0.3,0.3,0.4,0.3,0.5c0.4,0.5,0.4,1.2,0.1,1.7c-0.5,0.5-1.2,1-1.8,1.3
		c-0.8,0.5-1.6,1-2.4,1.6c-0.8,0.5-1.7,0.9-2.6,1.3C55,77.9,54,78.3,53.6,79c0,0.1-0.1,0.3-0.1,0.5c0,0.1,0,0.3,0,0.5
		c-0.1,0.5-0.9,0.8-1.3,0.9l0,0c-0.7,0.1-1.2,0.3-1.8,0.3c-1.3,0-2.4-0.1-3.7-0.3c-0.7,0-1.2-0.1-1.7-0.1c-1-0.1-2.1-0.4-3-0.8
		c-0.5-0.1-0.9-0.4-1.3-0.7c-0.3-0.3-0.3-0.7,0-0.8c0,0,0.1-0.1,0.3-0.1c0.4,0,0.8,0.1,1.2,0.3c1.2,0.4,2.4,0.7,3.5,0.9
		c0.9,0.1,1.7,0.3,2.6,0.4c0.5,0,0.9,0,1.4-0.1c0.5,0,0.9-0.4,1-0.8c0.1-0.4-0.3-0.7-0.5-0.9c-0.3-0.3-0.5-0.4-0.8-0.5
		c-1.2-0.5-2.4-1.2-3.4-1.8c-0.5-0.4-1-0.7-1.7-0.9c-0.8-0.1-1.6-0.3-2.4-0.3c-1.6-0.1-3-0.3-4.4-0.7c-0.4-0.1-0.8-0.1-1,0
		c-0.4,0.1-0.7,0.7-0.5,1l0,0c0.1,0.3,0.4,0.5,0.5,0.8c0.1,0.1,0.5,0.5,0.5,0.9c0,0.4-0.4,0.7-0.8,0.7c-0.3-0.1-0.7-0.3-0.9-0.4
		c-1.8-1.2-3.4-2.6-4.7-4.2c-3.5-4-5.6-9.1-5.9-14.5c-0.1-1.6-0.1-3.3,0.1-4.8c0.1-1.4,0.5-2.7,0.9-4.2c1.4-4.8,4.3-9,8.2-12.1
		c3-2.5,6.5-4.2,10.3-5c1.6-0.3,3-0.5,4.6-0.5c3.4-0.1,6.7,0.5,9.8,1.7c2.6,1,5,2.5,7.2,4.4c2.1,1.8,3.8,3.9,5.2,6.3
		c0.4,0.7,0.7,1.3,1,2c0.1,0.4,0.3,0.8,0.1,1.2c-0.1,0.8-0.8,1.2-0.8,2.1c0,0.7,0.1,1.3,0.3,2c0,0.3,0,0.4,0.1,0.7
		c0.1,0.4,0.5,0.5,0.8,0.7s0.1,0.1,0.1,0.1s0.3,0,0.3-0.1c0.3,0,0.5,0.1,0.8,0.3c0.3,0.3,0.4,0.7,0.4,0.9c0.1,0.9,0.1,1.7,0.1,2.6
		c0,3.1-0.5,6.3-1.7,9.3c-2.5,5.9-7.1,10.7-12.8,13.3c-0.3,0.1-0.7,0.3-1,0.4c-0.3,0-0.5-0.3-0.7-0.5v-0.1c0-0.3,0.4-0.5,0.7-0.7
		c0.3-0.1,0.7-0.3,0.9-0.4c1.2-0.5,2.2-1.2,3.3-2C63.2,75.2,63.5,75.1,63.6,74.8L63.6,74.8z M60.6,36.8c0,0.3,0.3,0.5,0.4,0.7
		c0.7,0.8,1.4,1.6,2.4,2.2c0.4,0.3,0.9,0.5,1.4,0.8c0.3,0.1,0.5,0.3,0.9,0.3c0.3-0.1,0.4-0.3,0.4-0.5c0-0.3-0.3-0.4-0.4-0.7
		c-0.9-0.9-1.8-1.7-3-2.5c-0.4-0.3-0.8-0.5-1.3-0.8c-0.1,0-0.3,0-0.3,0C60.9,36.3,60.8,36.6,60.6,36.8L60.6,36.8z M43,35
		c0-0.3-0.4-0.4-0.7-0.4c-0.7,0-1.3,0.3-2,0.5c-0.7,0.3-1.2,0.5-1.7,0.9c-2.2,1.2-4.2,2.6-5.9,4.6c-0.7,0.7-1.2,1.4-1.7,2.2
		c-0.1,0.3-0.3,0.4-0.3,0.7c0,0.3,0.4,0.5,0.7,0.7c0.7,0.1,1.2,0,1.7-0.4c0.5-0.3,1-0.8,1.6-1c1-0.8,2.2-1.4,3.4-2.1
		c0.3-0.1,0.7-0.3,0.9-0.5c0.8-0.4,1.4-1,2-1.8c0.4-0.5,0.7-1.2,1-1.7c0.1-0.3,0.4-0.5,0.5-0.8C42.9,35.5,42.9,35.2,43,35z
		 M48.8,34.9c-0.7,0-1.2,0.1-1.8,0.3c-0.9,0.3-1.7,0.9-2.2,1.6c-0.3,0.4-0.7,0.8-0.9,1.2c-0.3,0.4-0.5,0.8-0.8,1.2
		c-0.1,0.4-0.1,0.9,0.1,1.2c0.3,0.4,0.5,0.8,0.9,1c0.7,0.7,1.4,1.3,2.1,2.1c0.5,0.8,1.3,1.3,2.1,1.7c0.4,0,0.7,0,1,0
		c0.7,0,1.2,0,1.8,0c0.9,0,1.8,0,2.7,0.1c0.4,0.1,0.8,0.5,0.7,0.9c0,0,0,0,0,0.1c-0.1,0.8-1.3,0.7-2,0.7c-1.3,0.1-2.6,0.4-3.9,0.8
		c-0.5,0.4-0.9,0.8-1.2,1.3c-0.7,1.2-1.3,2.4-2,3.5c-0.5,0.9-0.9,1.8-1.3,2.7c-0.1,0.8-0.7,1.4-1.3,2c-0.5,0.1-1,0.3-1.6,0
		c-0.8-0.1-1.7-0.3-2.5-0.3h-2.4c-0.8-0.1-1.6-0.1-2.4-0.1c-0.5,0.3-0.9,0.7-1.2,1.2c-0.3,0.7-0.5,1.3-0.9,1.8
		c-0.4,0.5-0.5,1.3-0.7,2c-0.3,0.7-0.3,1.4-0.3,2.2c0.1,0.7,0.4,1.3,0.8,1.8c0.7,1.2,1.3,2.4,2.1,3.4c0.7,1,1.6,2,2.7,2.4
		c0.7,0.3,1.4,0.4,2.2,0.5s1.6,0.3,2.4,0.4c0.7,0.1,1.4,0.1,2.1-0.1c0.9-0.8,1.7-2,2.1-3.1c0.3-0.7,0.7-1.2,0.9-1.8
		c0.3-0.5,0.4-1.3,0.1-1.8c-0.3-0.7-0.5-1.2-0.8-1.8c-0.8-1.6-1.3-2.1-2.1-3.7c-0.3-0.4-0.4-0.8-0.4-1.2c0-0.7,0.5-0.9,1-0.4
		c0.1,0.1,0.3,0.4,0.4,0.5c0.5,0.8,0.7,1,1.2,1.7c0.7,1,1,1.7,1.7,2.6c0.5,0.5,1.2,0.9,1.8,1.2c0.9,0.1,1.8,0.3,2.9,0.1
		c1,0,2,0,3-0.1c0.5,0,1,0,1.4-0.1c0.4,0,0.8-0.1,1.2-0.3c0.7-0.3,1-0.8,1.4-1.3c0.4-0.7,0.8-1.3,1.2-2c0.4-0.7,0.7-1.4,1-2.1
		s0.7-1.4,0.9-2.1c0.1-0.4,0.3-0.8,0.3-1.2c0-0.4-0.1-0.8-0.3-1.2c-0.3-0.7-0.7-1.3-1-2c-0.4-0.7-0.8-1.3-1.2-2
		c-0.4-0.7-0.8-1.3-1.2-1.8c-0.3-0.4-0.7-0.7-0.9-1c-0.3-0.4-1.3-0.7-1.4-0.9c-0.1-0.3-0.1-0.7,0-0.9c0.1-0.3,1-0.7,1.6-1
		c0.3-0.3,0.5-0.5,0.7-0.9c0.4-0.7,0.8-1.3,1-2c0.5-0.5,0.7-1.3,0.7-2.1C60.4,39,60,38.5,59.5,38c-1-1-2.1-2-3.4-2.7
		c-0.7-0.4-1.4-0.7-2.2-0.8c-1-0.1-2-0.1-3,0C50.2,34.7,49.5,34.7,48.8,34.9L48.8,34.9z M61.8,42.3c-0.5,0.8-1,1.7-1.4,2.6
		c-0.3,0.4-0.4,0.8-0.4,1.3c0.1,0.7,0.4,1.2,0.8,1.6c1.2,1.6,2.2,3.3,3.1,5c0.1,0.3,0.3,0.5,0.4,0.8c0.3,0.5,0.8,0.8,1.3,0.9
		c0.4,0,0.7,0,1-0.1l2.2-0.4c0.8-0.1,1.4-0.5,1.6-1.3c0-0.8,0-1.4-0.1-2.2c0-0.7-0.1-1.4-0.3-2.1c-0.1-1.2-0.7-2.4-1.3-3.4
		c-1.2-1.3-2.5-2.4-3.9-3.3c-0.4-0.4-0.9-0.5-1.6-0.5c-0.1,0-0.3,0-0.3,0.1C62.5,41.6,62.2,41.9,61.8,42.3L61.8,42.3z M29.6,46.2
		c-0.4,0.4-0.8,0.8-1,1.3c-0.9,2-1.4,3.9-1.7,6c-0.1,1.7-0.1,3.3,0,5c0,0.7,0.1,1.4,0.4,2.1c0.1,0.5,0.5,0.9,1,1.2
		c0.5,0.3,0.8-0.3,1-0.7c0.3-0.4,0.4-1,0.5-1.6c0.4-1,0.9-2.1,1.4-3c0.3-0.4,0.4-0.9,0.5-1.4c0-0.7,0-1.2-0.1-1.8
		c-0.1-1.3-0.3-2.6-0.3-4c0-0.3,0-0.7,0-0.9c0-0.4,0-0.9-0.1-1.3c-0.3-0.5-0.8-0.8-1.3-0.9C29.8,46.1,29.7,46.2,29.6,46.2L29.6,46.2
		z M28,64.4c0,0.1,0,0.4,0.1,0.5c0.1,0.3,0.1,0.4,0.3,0.7c1.2,2.5,2.6,4.7,4.6,6.8c0.1,0.1,0.5,0.7,0.8,0.7s0.3-0.3,0.3-0.3
		c0-0.1-0.1-0.4-0.1-0.5c-0.3-0.5-0.7-1.2-1-1.7c-0.8-1.2-1.6-2.4-2.2-3.5c-0.3-0.4-0.4-0.9-0.7-1.3s-0.5-0.7-0.8-1
		C29,64.5,28.7,64,28.4,64C28.1,64.1,28,64.2,28,64.4z"/>
	<path class="st1" d="M92.4,68.1c-0.8,0-1.6-0.7-1.6-1.6v-41c0.1-0.8,0.8-1.4,1.7-1.4c0.8,0.1,1.3,0.7,1.4,1.4v41.1
		C93.9,67.5,93.3,68.1,92.4,68.1z"/>
	<path class="st1" d="M92.4,27.2H7.6c-0.8,0-1.6-0.7-1.6-1.4l0,0V10c0-0.8,0.7-1.6,1.6-1.6l0,0H23c0.8,0,1.6,0.7,1.6,1.6
		c0,0.8-0.7,1.6-1.6,1.6H9.2v12.5h81.7V11.6h-7.8c-0.8,0-1.6-0.7-1.6-1.6c0-0.9,0.7-1.6,1.6-1.6l0,0h9.3c0.8,0,1.6,0.7,1.6,1.4
		c0,0,0,0,0,0.1v15.5C93.9,26.4,93.3,27.2,92.4,27.2L92.4,27.2z"/>
	<path class="st1" d="M76.4,11.5H29.3c-0.8,0-1.6-0.7-1.6-1.6s0.7-1.6,1.6-1.6l0,0h47.1C77.2,8.3,78,9,78,9.9
		C77.9,10.8,77.2,11.5,76.4,11.5z"/>
	<path class="st1" d="M69.5,90.3c-0.8,0-1.4-0.8-1.4-1.6c0-0.5,0.3-0.9,0.8-1.2C72.1,86,73,74.5,72.5,67c0-0.4,0.1-0.8,0.4-1.2
		c0.3-0.3,0.7-0.5,1-0.5h18.4c0.7,0,1.2,0.4,1.4,0.9c0.3,0.5,0.1,1.2-0.3,1.7L75.1,86.4c-0.5,0.5-1.3,0.7-1.8,0.3
		c-0.7,1.4-1.7,2.6-3,3.4C70,90.2,69.8,90.2,69.5,90.3z M75.7,68.1c0.1,2.9,0,5.7-0.1,8.6c-0.1,2-0.4,3.9-0.8,5.9l14.1-14.5H75.7z"
		/>
	<path class="st1" d="M59.6,92.8h-52c-0.8,0-1.6-0.7-1.6-1.6l0,0V25.6c0.1-0.8,0.8-1.4,1.7-1.4c0.8,0.1,1.3,0.7,1.4,1.4v64.1h50.5
		c5,0,9.8-2,13.4-5.4c0.7-0.5,1.6-0.4,2.1,0.1c0.5,0.5,0.5,1.4,0,2C71,90.6,65.5,92.8,59.6,92.8z"/>
	<path class="st1" d="M23.3,17.9c-0.8,0-1.6-0.7-1.6-1.6V2.9c0-0.8,0.7-1.6,1.6-1.6c0.9,0,1.6,0.7,1.6,1.6l0,0v13.4
		C24.9,17.1,24.2,17.9,23.3,17.9z"/>
	<path class="st1" d="M76.6,17.9c-0.8,0-1.6-0.7-1.6-1.6l0,0V2.9c0-0.8,0.7-1.6,1.6-1.6c0.8,0,1.6,0.7,1.6,1.6l0,0v13.4
		C78.1,17.1,77.5,17.9,76.6,17.9z"/>
	<path class="st1" d="M92.4,98.7H11.4c-0.8,0-1.6-0.7-1.6-1.6c0-0.8,0.7-1.6,1.6-1.6h79.4V76.4c-0.1-0.8,0.5-1.6,1.4-1.7
		c0.9-0.1,1.6,0.5,1.7,1.4c0,0.1,0,0.1,0,0.3v20.9C93.9,98,93.3,98.7,92.4,98.7z"/>
</g>
</svg>
