<?xml version="1.0" encoding="utf-8"?>
<!-- Generator: Adobe Illustrator 24.2.1, SVG Export Plug-In . SVG Version: 6.00 Build 0)  -->
<svg version="1.1" xmlns="http://www.w3.org/2000/svg" xmlns:xlink="http://www.w3.org/1999/xlink" x="0px" y="0px"
	 viewBox="0 0 100 100" style="enable-background:new 0 0 100 100;" xml:space="preserve">
<style type="text/css">
	.st0{fill:none;stroke:#00D5C8;stroke-width:1.44;stroke-linecap:round;stroke-linejoin:round;}
</style>
<g>
	<path class="st0" d="M65.1,27.2v63.9c0,1.8-1.4,3.3-3.4,3.4H6.6c-1.8,0-3.4-1.4-3.4-3.4V8.9c0-1.8,1.4-3.4,3.4-3.4h36.8"/>
	<path class="st0" d="M65.1,27.2H46.7c-1.8,0-3.4-1.4-3.4-3.4V5.5L65.1,27.2L65.1,27.2z"/>
	<path class="st0" d="M77,16.6h11.9v61.9c0,12.3-11.9,12.3-11.9,0V16.6z"/>
	<polyline class="st0" points="96.7,49.6 96.8,26.4 76.9,26.4 	"/>
	<line class="st0" x1="82.8" y1="94.5" x2="82.8" y2="87.8"/>
	<line class="st0" x1="16.6" y1="23.4" x2="34.2" y2="23.4"/>
	<line class="st0" x1="16.6" y1="40" x2="51.8" y2="40"/>
	<line class="st0" x1="16.6" y1="49.8" x2="51.8" y2="49.8"/>
	<line class="st0" x1="16.6" y1="59.5" x2="51.8" y2="59.5"/>
	<line class="st0" x1="16.6" y1="69.3" x2="34.2" y2="69.3"/>
</g>
</svg>
