<?xml version="1.0" encoding="utf-8"?>
<!-- Generator: Adobe Illustrator 24.2.1, SVG Export Plug-In . SVG Version: 6.00 Build 0)  -->
<svg version="1.1" xmlns="http://www.w3.org/2000/svg" xmlns:xlink="http://www.w3.org/1999/xlink" x="0px" y="0px"
	 viewBox="0 0 100 100" style="enable-background:new 0 0 100 100;" xml:space="preserve">
<style type="text/css">
	.st0{fill:none;stroke:#00D5C8;stroke-width:1.44;stroke-linecap:round;stroke-linejoin:round;}
	.st1{fill:#00D5C8;}
	.st2{fill:none;stroke:#00D5C8;stroke-linecap:round;stroke-linejoin:round;}
</style>
<g>
	<polyline class="st0" points="38.7,46.4 36.9,46.4 48.6,89.9 49.3,93.5 49.4,93.2 49.4,93.5 50.3,89.9 61.8,46.4 	"/>
	<g>
		<path class="st1" d="M86.4,46.8c-0.4,0-0.6-0.2-0.9-0.5l-6.7-14.7H21.3l-8,14.8c-0.2,0.5-0.7,0.6-1.2,0.4
			c-0.5-0.2-0.6-0.7-0.4-1.2l8.2-15.4c0.1-0.2,0.5-0.5,0.7-0.5h58.5c0.4,0,0.6,0.2,0.9,0.5l7,15.2c0.2,0.5,0,1-0.5,1.2
			C86.6,46.6,86.5,46.8,86.4,46.8z"/>
	</g>
	<path class="st0" d="M29.6,30.6l6.5,14.6c1.2,1.3,0.7,1.3,2,0l6.5-14.6"/>
	<path class="st0" d="M54.2,30.6l6.5,14.6c1.2,1.3,0.7,1.3,2,0l6.5-14.6"/>
	<line class="st0" x1="49.1" y1="3.8" x2="49.1" y2="15.4"/>
	<line class="st0" x1="23.7" y1="8.3" x2="28.6" y2="18.7"/>
	<line class="st0" x1="3.2" y1="21.4" x2="11.9" y2="28.9"/>
	<line class="st0" x1="74.7" y1="7.8" x2="69.8" y2="18.2"/>
	<line class="st0" x1="95.5" y1="20.5" x2="86.7" y2="28"/>
	<path class="st0" d="M79.1,64.9c-0.4,0-0.7,0.4-0.7,0.7l0,0V78c0,0.4,0.4,0.7,0.7,0.7h8.8c0.4,0,0.7-0.4,0.7-0.7s-0.4-0.7-0.7-0.7
		h-8V65.6C79.9,65.3,79.6,64.9,79.1,64.9L79.1,64.9z"/>
	<path class="st1" d="M87.1,46c-0.1-0.2-0.5-0.5-0.7-0.5H12.5c-0.4,0-0.6,0.2-0.7,0.5c-0.1,0.2-0.1,0.6,0.1,1l36.8,48.8
		c0.1,0.2,0.4,0.4,0.7,0.4l0,0c0.2,0,0.5-0.1,0.7-0.4l13.2-17.5L62,77.2L49.4,93.7L14.3,47.4h70.2L77,57.3l1.7,0.7l8.3-10.9
		C87.2,46.6,87.2,46.4,87.1,46z"/>
	<path class="st2" d="M79.1,60.5c-6.4,0-12.3,3.4-15.3,9.1V62c0-0.4-0.4-0.7-0.7-0.7l0,0c-0.4,0-0.7,0.2-0.7,0.7l0,0v9.4
		c0,0.4,0.2,0.7,0.7,0.7l0,0h9.6c0.4,0,0.7-0.2,0.7-0.7l0,0c0-0.4-0.4-0.7-0.7-0.7l0,0h-7.7c4-7.8,13.7-11,21.6-7s11,13.7,7,21.6
		c-2.7,5.4-8.3,8.8-14.3,8.7c-6.7,0-13.2-5.1-15.3-12.1c-0.1-0.4-0.5-0.6-0.9-0.5l0,0c-0.4,0.1-0.6,0.5-0.5,1
		c2.3,7.6,9.3,13.1,16.8,13.1c9.7,0,17.5-7.8,17.5-17.5C96.6,68.3,88.8,60.5,79.1,60.5z"/>
	<path class="st1" d="M63.9,72.1c1,0,1.8-0.9,1.8-1.8s-0.9-1.8-1.8-1.8c-1,0-1.8,0.9-1.8,1.8S62.9,72.1,63.9,72.1z"/>
</g>
</svg>
