<?xml version="1.0" encoding="utf-8"?>
<!-- Generator: Adobe Illustrator 24.2.1, SVG Export Plug-In . SVG Version: 6.00 Build 0)  -->
<svg version="1.1" xmlns="http://www.w3.org/2000/svg" xmlns:xlink="http://www.w3.org/1999/xlink" x="0px" y="0px"
	 viewBox="0 0 100 100" style="enable-background:new 0 0 100 100;" xml:space="preserve">
<style type="text/css">
	.st0{fill:none;stroke:#00D5C8;stroke-width:1.44;stroke-linecap:round;stroke-linejoin:round;}
</style>
<g id="Para_Yatır">
	<path class="st0" d="M22.6,24v66.7c0,3.5,2.8,6.2,6.2,6.2h42.5c3.5,0,6.2-2.8,6.2-6.2V24"/>
	<line class="st0" x1="32.1" y1="88.1" x2="32.1" y2="81.1"/>
	<line class="st0" x1="32.1" y1="72.5" x2="32.1" y2="63.8"/>
	<polyline class="st0" points="54.3,22.6 54.3,96.9 64.4,96.9 64.4,22.2 	"/>
	<path class="st0" d="M79.1,33.8h3.6c1.7,0,3.1-1.4,3.1-3.1v-6.4c0-1.7-1.4-3.1-3.1-3.1H17.3c-1.7,0-3.1,1.4-3.1,3.1v6.6
		c0,1.7,1.4,3,3.1,3.1h3.6"/>
	<path class="st0" d="M20.9,49.9H5.8c-2.2,0-4-1.8-4-4V7.1c0-2.2,1.8-4,4-4h88.4c2.2,0,4,1.8,4,4v38.8c0,2.2-1.8,3.9-4,4H79.1"/>
</g>
</svg>
