<?xml version="1.0" encoding="utf-8"?>
<!-- Generator: Adobe Illustrator 24.2.1, SVG Export Plug-In . SVG Version: 6.00 Build 0)  -->
<svg version="1.1" xmlns="http://www.w3.org/2000/svg" xmlns:xlink="http://www.w3.org/1999/xlink" x="0px" y="0px"
	 viewBox="0 0 100 100" style="enable-background:new 0 0 100 100;" xml:space="preserve">
<style type="text/css">
	.st0{fill:#00D5C8;}
	.st1{fill:none;stroke:#00D5C8;stroke-width:2;stroke-miterlimit:10;}
</style>
<g>
	<path class="st0" d="M92.4,68.2c-0.8,0-1.6-0.7-1.6-1.6V25.7c0-0.8,0.7-1.6,1.6-1.6c0.8,0,1.6,0.7,1.6,1.6l0,0v41.1
		C93.8,67.5,93.2,68.2,92.4,68.2z"/>
	<path class="st0" d="M92.4,27.3H7.6c-0.8,0-1.6-0.7-1.6-1.6V10.2c0-0.8,0.7-1.6,1.6-1.6H23c0.8,0,1.6,0.7,1.6,1.6
		c0,0.8-0.7,1.6-1.6,1.6H9.2v12.5h81.6V11.7H83c-0.8,0-1.6-0.7-1.6-1.6s0.7-1.6,1.6-1.6l0,0h9.3c0.8,0,1.6,0.7,1.6,1.6l0,0v15.5
		C93.8,26.5,93.2,27.1,92.4,27.3z"/>
	<path class="st0" d="M76.3,11.6H29.3c-0.8,0-1.6-0.7-1.6-1.6c0-0.8,0.7-1.6,1.6-1.6l0,0h47.1c0.8,0,1.6,0.7,1.6,1.6
		C77.9,11,77.1,11.6,76.3,11.6z"/>
	<path class="st0" d="M69.4,90.4c-0.8-0.1-1.4-0.8-1.4-1.7c0-0.5,0.3-0.9,0.7-1.2c3.3-1.6,4.2-13,3.7-20.6c0-0.4,0.1-0.8,0.4-1.2
		c0.3-0.3,0.7-0.5,1-0.5h18.4c0.7,0,1.2,0.4,1.4,0.9s0.1,1.2-0.3,1.7L75,86.4c-0.5,0.5-1.3,0.7-1.8,0.3c-0.7,1.4-1.7,2.6-3,3.4
		C69.9,90.2,69.7,90.2,69.4,90.4z M75.6,68.2c0.1,2.9,0,5.7-0.3,8.6c-0.1,2-0.4,3.9-0.8,5.9l14.2-14.5H75.6z"/>
	<path class="st0" d="M59.6,92.8h-52c-0.8,0-1.6-0.7-1.6-1.6V25.7c0.1-0.8,0.8-1.4,1.7-1.4c0.8,0.1,1.3,0.7,1.4,1.4v64h50.5
		c5,0,9.8-2,13.3-5.3c0.7-0.5,1.6-0.5,2.1,0c0.5,0.5,0.5,1.6,0,2.1l0,0C70.9,90.5,65.4,92.8,59.6,92.8z"/>
	<path class="st0" d="M23.4,18c-0.8,0-1.6-0.7-1.6-1.6V3c-0.1-0.8,0.5-1.6,1.4-1.7c0.8-0.1,1.6,0.5,1.7,1.4c0,0.1,0,0.1,0,0.3v13.4
		C24.8,17.2,24.2,18,23.4,18L23.4,18z"/>
	<path class="st0" d="M76.6,18c-0.8,0-1.6-0.7-1.6-1.6V3c-0.1-0.8,0.5-1.6,1.4-1.7c0.9-0.1,1.6,0.5,1.7,1.4c0,0.1,0,0.1,0,0.3v13.4
		C78,17.2,77.4,18,76.6,18L76.6,18z"/>
	<path class="st0" d="M92.4,98.7H11.5c-0.8,0-1.6-0.7-1.6-1.6c0-0.8,0.7-1.6,1.6-1.6h79.3V76.4c0-0.8,0.7-1.6,1.6-1.6
		c0.8,0,1.6,0.7,1.6,1.6l0,0v20.9C93.8,98.1,93.2,98.7,92.4,98.7z"/>
	<path class="st1" d="M41.1,48.2l-11.7-1.2c-0.7,0-1.2,0.3-1.6,0.7l0,0l-9.6,13.6c-0.5,0.5-0.7,1.3-0.4,2l6.8,14.9
		c0.3,0.7,0.9,1.2,1.6,1.3l0,0L42.8,81c0.7,0,1.2-0.3,1.6-0.8l8.3-11.7 M30.1,50.5L37.2,64l-9.6,11.3"/>
	<path class="st1" d="M76.6,41.9l-0.3-0.3l-0.1-0.1l-13.7-9.6c-0.5-0.4-1.2-0.4-1.7-0.1l-15,6.9c-0.7,0.1-1.3,0.8-1.3,1.6l-1.4,16.4
		c0,0.1,0,0.1,0,0.3c0,0.1,0,0.3,0,0.3c0,0.1,0,0.3,0.1,0.4c0,0.1,0,0.1,0,0.3c0,0,0,0,0,0.1c0,0.1,0.1,0.1,0.3,0.3
		c0.1,0.1,0.1,0.1,0.3,0.3c0,0,0,0,0,0.1l13.7,9.4c0.5,0.4,0.9,0.7,1.4,0.4l15.4-7c0.8-0.4,1.2-0.8,1.3-1.6L77,43c0-0.1,0-0.1,0-0.3
		c0-0.1,0-0.3,0-0.4s0-0.3-0.1-0.3C76.9,42.1,76.7,42,76.6,41.9z"/>
	<polyline class="st1" points="61,35.1 59.4,49.7 46.6,55.3 	"/>
	<line class="st1" x1="59.4" y1="49.7" x2="71.5" y2="58.2"/>
	<line class="st1" x1="37.2" y1="64" x2="45" y2="64"/>
	<line class="st1" x1="28.1" y1="56.2" x2="28.1" y2="58.8"/>
	<line class="st1" x1="25.5" y1="66.6" x2="25.5" y2="69.2"/>
	<line class="st1" x1="51.6" y1="41.9" x2="51.6" y2="44.5"/>
	<line class="st1" x1="59.4" y1="54.9" x2="59.4" y2="57.5"/>
	<line class="st1" x1="64.6" y1="58.8" x2="64.6" y2="61.4"/>
	<line class="st1" x1="59.4" y1="61.4" x2="59.4" y2="64"/>
	<line class="st1" x1="54.2" y1="57.5" x2="54.2" y2="60.1"/>
	<line class="st1" x1="64.6" y1="37.9" x2="64.6" y2="40.6"/>
	<line class="st1" x1="71.1" y1="49.7" x2="71.1" y2="52.3"/>
</g>
</svg>
