<?xml version="1.0" encoding="utf-8"?>
<!-- Generator: Adobe Illustrator 24.2.1, SVG Export Plug-In . SVG Version: 6.00 Build 0)  -->
<svg version="1.1" xmlns="http://www.w3.org/2000/svg" xmlns:xlink="http://www.w3.org/1999/xlink" x="0px" y="0px"
	 viewBox="0 0 100 100" style="enable-background:new 0 0 100 100;" xml:space="preserve">
<style type="text/css">
	.st0{fill:none;stroke:#00D5C8;stroke-width:1.44;stroke-linecap:round;stroke-linejoin:round;}
	.st1{fill:none;stroke:#00D5C8;stroke-width:1.44;stroke-miterlimit:22.93;}
</style>
<g id="Hesap_Özeti">
	<path class="st0" d="M50.1,80.8c2.6,0,4.6,2,4.6,4.7s-2,4.7-4.7,4.7c-2.7,0-4.6-2-4.6-4.7S47.4,80.8,50.1,80.8
		C49.9,80.8,50.1,80.8,50.1,80.8z"/>
	<path class="st0" d="M7.8,73.9h84.3c2.6,0,4.6,2,4.6,4.6v13.9c0,2.6-2,4.6-4.6,4.6H7.8c-2.6,0-4.6-2-4.6-4.6V78.5
		C3.2,76,5.3,73.9,7.8,73.9z"/>
	<path class="st1" d="M17.3,60.9c-0.8,0.8-0.8,2,0,2.8s2,0.8,2.8,0c0.8-0.8,0.8-2,0-2.8C19.2,60.1,18.1,60.1,17.3,60.9z"/>
	<path class="st1" d="M32.7,60.9c-0.8,0.8-0.8,2,0,2.8c0.8,0.8,2,0.8,2.8,0c0.8-0.8,0.8-2,0-2.8C34.6,60.1,33.4,60.1,32.7,60.9z"/>
	<path class="st1" d="M48.3,60.9c-0.8,0.8-0.8,2,0,2.8c0.8,0.8,2,0.8,2.8,0c0.8-0.8,0.8-2,0-2.8l0,0C50.3,60.1,49,60.1,48.3,60.9z"
		/>
	<path class="st1" d="M64,60.9c-0.8,0.8-0.8,2,0,2.8c0.8,0.8,2,0.8,2.8,0c0.8-0.8,0.8-2,0-2.8C66.1,60.1,64.8,60.1,64,60.9z"/>
	<path class="st1" d="M79.6,60.9c-0.8,0.8-0.8,2,0,2.8c0.8,0.8,2,0.8,2.8,0c0.8-0.8,0.8-2,0-2.8C81.7,60.1,80.4,60.1,79.6,60.9z"/>
	<path class="st1" d="M17.3,47.8c-0.8,0.8-0.8,2,0,2.8s2,0.8,2.8,0c0.8-0.8,0.8-2,0-2.8C19.2,47.1,18.1,47.1,17.3,47.8z"/>
	<path class="st1" d="M32.7,47.8c-0.8,0.8-0.8,2,0,2.8c0.8,0.8,2,0.8,2.8,0c0.8-0.8,0.8-2,0-2.8C34.6,47.1,33.4,47.1,32.7,47.8z"/>
	<path class="st1" d="M48.3,47.8c-0.8,0.8-0.8,2,0,2.8c0.8,0.8,2,0.8,2.8,0c0.8-0.8,0.8-2,0-2.8l0,0C50.3,47.1,49,47.1,48.3,47.8z"
		/>
	<path class="st1" d="M64,47.8c-0.8,0.8-0.8,2,0,2.8c0.8,0.8,2,0.8,2.8,0c0.8-0.8,0.8-2,0-2.8C66.1,47.1,64.8,47.1,64,47.8z"/>
	<path class="st1" d="M79.6,47.8c-0.8,0.8-0.8,2,0,2.8c0.8,0.8,2,0.8,2.8,0c0.8-0.8,0.8-2,0-2.8C81.7,47.1,80.4,47.1,79.6,47.8z"/>
	<path class="st0" d="M13.5,34.3c0,1.2,1,2.2,2.2,2.2l0,0h24.7c1.2,0,2.2-1,2.2-2.2l0,0c0-9.6,0-19.1,0-28.7l-3.6-2.7l-5.6,3.3
		c-0.8,0.5-1.9,0.5-2.7,0l0,0l-5.1-3.3l-5.1,3.2c-0.8,0.5-1.8,0.6-2.6,0.3l0,0l-4.2-2.2L13.5,34.3L13.5,34.3z"/>
	<path class="st0" d="M53.9,26.7h30.5c1.3,0,2.2,1,2.2,2.2v5c0,1.3-1,2.2-2.2,2.2H53.9c-1.3,0-2.2-1-2.2-2.2v-5
		C51.7,27.6,52.8,26.7,53.9,26.7L53.9,26.7z"/>
	<path class="st0" d="M43,17.9h49.1c2.6,0,4.6,2,4.6,4.6v46.6c0,2.6-2,4.7-4.6,4.9"/>
	<path class="st0" d="M7.8,73.9c-2.6-0.1-4.6-2.3-4.6-4.9V22.5c0-2.2,0.1-4.6,3.8-4.6h4.5"/>
</g>
</svg>
