<?xml version="1.0" encoding="utf-8"?>
<!-- Generator: Adobe Illustrator 24.2.1, SVG Export Plug-In . SVG Version: 6.00 Build 0)  -->
<svg version="1.1" xmlns="http://www.w3.org/2000/svg" xmlns:xlink="http://www.w3.org/1999/xlink" x="0px" y="0px"
	 viewBox="0 0 100 100" style="enable-background:new 0 0 100 100;" xml:space="preserve">
<style type="text/css">
	.st0{fill:none;stroke:#00D5C8;stroke-width:1.44;stroke-linecap:round;stroke-linejoin:round;}
</style>
<g id="Para_Çek">
	<polyline class="st0" points="25.5,20.4 25.5,97.3 74.4,97.3 74.4,20.4 	"/>
	<path class="st0" d="M65.5,50c0-6.4-7-11.6-15.6-11.6S34.3,43.5,34.3,50s7,11.6,15.6,11.6S65.5,56.4,65.5,50z"/>
	<path class="st0" d="M53,26.6c0-1.7-1.4-3.1-3.1-3.1c-1.7,0-3.1,1.4-3.1,3.1c0,1.7,1.4,3.1,3.1,3.1l0,0
		C51.6,29.7,52.9,28.2,53,26.6z"/>
	<path class="st0" d="M74.2,32.5h7.4c1.7,0,2.9-1.4,2.9-2.9v-6.4c0-1.7-1.3-2.9-2.9-2.9H18.2c-1.7,0-2.9,1.3-2.9,2.9v6.4
		c0,1.7,1.3,2.9,2.9,2.9h7.4"/>
	<path class="st0" d="M25.6,48.1H7.1c-2,0-3.8-1.8-3.8-3.8V6.5c0-2.2,1.7-3.8,3.8-3.8h85.9c2.2,0,3.8,1.7,3.8,3.8v37.6
		c0,2-1.8,3.8-3.8,3.8H74.2"/>
</g>
</svg>
