<?xml version="1.0" encoding="UTF-8"?> <!-- Generator: Adobe Illustrator 24.0.3, SVG Export Plug-In . SVG Version: 6.00 Build 0) --> <svg xmlns="http://www.w3.org/2000/svg" xmlns:xlink="http://www.w3.org/1999/xlink" version="1.1" id="Layer_1" x="0px" y="0px" viewBox="0 0 64 64" style="enable-background:new 0 0 64 64;" xml:space="preserve"> <style type="text/css"> .st0{fill:#FFFFFF;} </style> <g> <g> <path class="st0" d="M56.6,9.8H8c-0.8,0-1.5,0.2-2.2,0.5l26.4,26.4l5.9-5.7c0,0,0,0,0,0s0,0,0,0l20.7-20.7 C58.2,10,57.4,9.8,56.6,9.8z"></path> </g> </g> <g> <g> <path class="st0" d="M61.3,12.7L41.8,32.2l19.5,19.5c0.3-0.7,0.5-1.4,0.5-2.2V15C61.8,14.2,61.6,13.4,61.3,12.7z"></path> </g> </g> <g> <g> <path class="st0" d="M3.4,12.7C3,13.4,2.8,14.2,2.8,15v34.6c0,0.8,0.2,1.5,0.5,2.2l19.5-19.5L3.4,12.7z"></path> </g> </g> <g> <g> <path class="st0" d="M39.4,34.7l-5.9,5.7c-0.3,0.3-0.8,0.5-1.2,0.5c-0.4,0-0.9-0.2-1.2-0.5l-5.7-5.7L5.8,54.2 c0.7,0.3,1.4,0.5,2.2,0.5h48.6c0.8,0,1.5-0.2,2.2-0.5L39.4,34.7z"></path> </g> </g> </svg> 