<?xml version="1.0" encoding="UTF-8"?> <!-- Generator: Adobe Illustrator 24.3.0, SVG Export Plug-In . SVG Version: 6.00 Build 0) --> <svg xmlns="http://www.w3.org/2000/svg" xmlns:xlink="http://www.w3.org/1999/xlink" version="1.1" id="Layer_1" x="0px" y="0px" viewBox="0 0 500 500" style="enable-background:new 0 0 500 500;" xml:space="preserve"> <path style="fill:#FFFFFF;" d="M327.6,149.2c-20,8.5-24.6,41.5-25.4,59.2C293,153.8,230,109.2,260,43.9c-43.8,30.7-53,69.9-43,105.2 c4.6,15.4-13.1,23.8-19.2,6.1c-3.8-10.8-2.3-27.7-2.3-38.4c-9.2,9.2-14.6,23.8-16.9,37.6c-11.5,63.8,13.1,82.2-33,103.7 c1.5-17.7,8.5-27.7,20-53c-46.9,34.6-60.7,86-51.5,140.6c10.8,65.3,70.7,111.4,136.7,106c59.9-4.6,107.6-49.9,116.8-109.1 C379.8,262.9,300,198.3,327.6,149.2z M333,319c1.5,3.8,0.8,5.4-2.3,10.8c-2.3,3.8-9.2,17.7-11.5,19.2l-18.4-3.8l-12.3-32.3 c-3.1-7.7-2.3-2.3,3.1-15.4c2.3-5.4,4.6-11.5,5.4-17.7l18.4,3.8c3.1,0.8,3.8,0,5.4,3.1L333,319z M291.5,355.8 c-1.5,2.3-3.1,4.6-5.4,6.9c-1.5,2.3-10,12.3-11.5,13.1c-2.3,0.8-17.7-1.5-21.5-2.3c-4.6-0.8-19.2-1.5-22.3-3.1 c-1.5-2.3-8.5-23.8-10.8-29.2c-1.5-4.6-2.3-3.1,2.3-8.5l24.6-30l33.8,6.1c2.3,0.8,1.5-0.8,3.8,5.4l10,25.4 C297.6,348.9,298.4,346.6,291.5,355.8z M283.1,238.3c15.4,7.7,26.1,17.7,35.3,30c3.1,3.8,2.3,5.4,1.5,11.5c-1.5,0-18.4-3.8-21.5-4.6 c-3.1-0.8-4.6-4.6-6.1-6.1c-5.4-6.1-14.6-13.1-21.5-16.9c-4.6-3.1-3.8-0.8-5.4-6.9c-0.8-3.1-2.3-6.9-3.1-10 C273.8,234.4,270,232.9,283.1,238.3z M196.2,241.4c8.5-5.4,23.8-10,36.1-10.8c6.1-0.8,14.6,2.3,20.7,3.8c5.4,1.5,3.8,0.8,5.4,6.1 c0.8,3.1,1.5,6.9,2.3,10c-6.9,1.5-20.7,9.2-26.9,13.1c-3.1,1.5-3.8,0.8-7.7,0c-7.7-1.5-22.3-2.3-29.2-2.3 C196.2,253.7,195.5,248.3,196.2,241.4z M173.2,292.1c6.1-9.2,8.5-10.8,14.6-17.7c9.2-10,10-9.2,23.8-8.5c6.1,0,13.1,1.5,20,3.1 c1.5,6.1,4.6,12.3,6.9,18.4c1.5,3.1,2.3,6.1,3.8,9.2c2.3,5.4,1.5,4.6-1.5,8.5c-1.5,2.3-22.3,26.9-23,29.2l-34.6-4.6 c-2.3-0.8-1.5-1.5-2.3-3.1c-2.3-7.7-4.6-16.9-6.9-25.4C172.4,296.7,170.9,295.1,173.2,292.1z M152.5,357.4 c-2.3-5.4-3.8-11.5-4.6-18.4c-1.5-12.3-0.8-30.7,3.1-42.3c2.3-0.8,15.4-1.5,16.9-0.8c1.5,4.6,4.6,20.7,8.5,31.5 c1.5,3.8,0.8,3.1,0,7.7c-0.8,3.1-0.8,5.4-1.5,8.5c-0.8,5.4-1.5,13.1-3.1,17.7c-3.8,0-7.7,0-11.5,0C154,362,154,362,152.5,357.4z M203.2,412.7c-14.6-6.1-28.4-16.9-38.4-29.2c-3.1-3.8-8.5-11.5-10-16.9c6.1,0.8,17.7,0,18.4,0.8c0.8,0,16.9,16.1,25.4,21.5 c2.3,1.5,2.3,0.8,3.1,3.1c3.8,9.2,7.7,15.4,10.8,22.3C210.1,415.8,206.2,413.4,203.2,412.7z M220.8,415c-3.1-0.8-3.1-0.8-4.6-3.1 c-3.1-5.4-8.5-14.6-10-20c1.5-1.5,4.6-2.3,6.9-3.1c3.8-2.3,10-6.1,13.1-8.5c2.3-1.5,3.8-3.8,6.9-3.8c4.6,0,31.5,3.8,39.2,4.6 l7.7,18.4c-1.5,3.8-11.5,11.5-15.4,14.6C250.8,421.1,235.4,418.8,220.8,415z M303,397.3c-10.8,8.5-20.7,15.4-36.9,19.2 c10-8.5,6.9-5.4,14.6-13.1c3.1-3.1,2.3-3.1,4.6-4.6c7.7-3.1,11.5-5.4,18.4-9.2c2.3-1.5,3.8-2.3,5.4-3.8l2.3,1.5 C310.7,390.4,305.3,395,303,397.3z M329.1,361.2c-2.3,6.1-9.2,19.2-13.8,23l-2.3-1.5c1.5-3.8,3.8-8.5,5.4-13.1 c2.3-6.1,2.3-9.2,3.8-15.4l13.8-23.8C336.1,339.7,332.2,353.5,329.1,361.2z"></path> </svg> 