<?xml version="1.0" encoding="UTF-8"?> <!-- Generator: Adobe Illustrator 24.0.3, SVG Export Plug-In . SVG Version: 6.00 Build 0) --> <svg xmlns="http://www.w3.org/2000/svg" xmlns:xlink="http://www.w3.org/1999/xlink" version="1.1" id="Layer_1" x="0px" y="0px" viewBox="0 0 64 64" style="enable-background:new 0 0 64 64;" xml:space="preserve"> <style type="text/css"> .st0{fill:#FFFFFF;} </style> <g> <g> <path class="st0" d="M43.6,21.9c-2.7,0-5.2-1-5.4-1.1l-1.2-0.5l0.5-1.2c0.1-0.2,2.3-5.3,5.8-6.8c1.3-0.6,2.6-0.6,3.8-0.1 c1.1,0.5,2,1.4,2.5,2.7c1,2.6-0.2,5.2-2.8,6.3C45.8,21.8,44.7,21.9,43.6,21.9z M40.4,19c1.5,0.4,3.8,0.8,5.4,0.1 c1.7-0.7,1.8-2.1,1.4-3.2c-0.2-0.6-0.6-1.1-1.1-1.3c-0.5-0.2-1.1-0.2-1.8,0.1C42.7,15.4,41.2,17.5,40.4,19z"></path> </g> <g> <path class="st0" d="M39.6,21.3l-1.3-0.4c-0.2-0.1-5.3-1.8-6.9-5.2c-1.2-2.5-0.4-5.2,1.9-6.6c1.2-0.7,2.4-0.9,3.6-0.5 c0.8,0.2,1.9,0.9,2.7,2.5c1.6,3.4,0.4,8.7,0.3,9L39.6,21.3z M35.7,10.9c-0.4,0-0.8,0.1-1.2,0.4c-1,0.6-1.7,1.8-1,3.4 c0.7,1.5,2.7,2.7,4.2,3.4c0.2-1.7,0.4-4.3-0.4-5.9c-0.2-0.4-0.6-1-1.2-1.2C36,10.9,35.9,10.9,35.7,10.9z"></path> </g> <g> <rect x="14.8" y="22.8" transform="matrix(0.342 -0.9397 0.9397 0.342 -11.0695 32.1681)" class="st0" width="5.2" height="2.5"></rect> </g> <g> <rect x="12.1" y="30.1" transform="matrix(0.342 -0.9397 0.9397 0.342 -19.7828 34.5029)" class="st0" width="5.3" height="2.5"></rect> </g> <g> <rect x="9.4" y="37.5" transform="matrix(0.342 -0.9397 0.9397 0.342 -28.5104 36.8416)" class="st0" width="5.3" height="2.5"></rect> </g> <g> <polygon class="st0" points="45.8,57.8 12.6,45.7 13.5,43.4 44.3,54.6 51.9,33.8 54.3,34.6 "></polygon> </g> <g> <polygon class="st0" points="56.2,36.6 38.8,30.3 39.6,28 54.7,33.5 56.8,27.7 19.7,14.2 17.6,20 32.7,25.4 31.8,27.8 14.4,21.4 18.2,11 60,26.2 "></polygon> </g> <g> <rect x="13.7" y="32.3" transform="matrix(0.342 -0.9397 0.9397 0.342 -11.9816 49.9924)" class="st0" width="32.1" height="2.5"></rect> </g> <g> <rect x="20.6" y="34.8" transform="matrix(0.342 -0.9397 0.9397 0.342 -9.7838 58.1937)" class="st0" width="32.1" height="2.5"></rect> </g> <g> <rect x="4.4" y="25.2" class="st0" width="16" height="2.5"></rect> </g> <g> <rect x="5.7" y="32.6" class="st0" width="18.5" height="2.5"></rect> </g> <g> <rect x="0.7" y="40" class="st0" width="19.7" height="2.5"></rect> </g> </g> </svg> 