<?xml version="1.0" encoding="UTF-8"?> <!-- Generator: Adobe Illustrator 24.3.0, SVG Export Plug-In . SVG Version: 6.00 Build 0) --> <svg xmlns="http://www.w3.org/2000/svg" xmlns:xlink="http://www.w3.org/1999/xlink" version="1.1" id="Layer_1" x="0px" y="0px" viewBox="0 0 500 500" style="enable-background:new 0 0 500 500;" xml:space="preserve"> <g> <path style="fill:#FFFFFF;" d="M92.8,149c0,23.2,0,45.8,0,68.5c4.5,0,8.6,0,13.3,0c0-9.1,0-18,0-26.8c-0.7-1.4-0.5-2,0.8-0.2 c6.4,8.5,12.7,17.1,19.4,26c6.7-8.9,13.2-17.5,19.6-26.1c1.1-1.7,1.2-1.5,1,0.5c0,8.8,0,17.7,0,26.5c4.5,0,8.7,0,12.9,0 c0-22.8,0-45.3,0-68.5c-11.4,15.3-22.3,30-33.5,45.1C115,178.8,104,164.1,92.8,149z"></path> <path style="fill:#FFFFFF;" d="M374.3,148.2c-8.4,0-15.8,0-24.4,0h-13.6v3.1c0,0.2,0,0.3,0,0.5v65.7h0.4c4.5,0,8.9,0,13.3,0 c9.2,0,18.3,0,27.5,0c0-4.3,0-8.4,0-12.9c-6.5,0-12.8,0-19.1,0c-3.7,0-6.4,0-8.4-0.1v-14.8c1.2,0,3.2,0,6.3,0c4.7,0,9.5,0,14.3,0 c0-4.7,0-8.8,0-13.4c-4.5,0-8.8,0-13.1,0c-3.7,0-6.1,0-7.6-0.1v-14.6c1.3,0,3.4,0,6.8,0c6.9,0,13.8,0,20.8,0c0-4.7,0-8.9,0-13.5 C376.3,148.2,375.3,148.2,374.3,148.2z"></path> <path style="fill:#FFFFFF;" d="M228.8,148.2c-0.1,0-0.3,0-0.4,0h-2v13.6h17.5c0,16,0.1,37.1,0.1,52.2c0,1.2,0,2.3,0,3.6 c4.6,0,8.6,0,13.3,0c0-16.6,0.1-38.8,0-55.8h17.2v-0.1c0-4.8,0-9.1,0-13.5h-28.9C240,148.2,234.4,148.2,228.8,148.2z"></path> <path style="fill:#FFFFFF;" d="M404.2,148.2c-5.6,0-11.2,0-16.8,0c-0.1,0-0.3,0-0.4,0h-2v13.6h17.5c0,16,0.1,37.1,0.1,52.2 c0,1.2,0,2.3,0,3.6c4.6,0,8.6,0,13.3,0c0-16.6,0.1-38.8,0-55.8h17.2v-0.1c0-4.8,0-9.1,0-13.5H404.2z"></path> <path style="fill:#FFFFFF;" d="M166.3,217.7c4.6,0,8.6-0.1,12.6,0l3.8,0c0,0,0-0.8,0-1.5c0-0.8,1.3-2.5,2.6-3.3 c1.2-0.8,2.5-1.4,2.5-2.1c0-0.7-1.2-0.8-1.2-1.8c0-1,1.7-0.5,2.2-1.5c0.5-1,3.4-6.4,3.4-16.3c0,0-4.8,0.3-4.8-1.7 c0-1.9,2.5-1.7,2.5-1.7s-0.2-1.8,0.9-1.8c0.5,0,0.7,0,0.8,0v-2.7c0,0-3.3-5.2-3.3-8.1c0-2.9,4.6-3.6,6.3-3.6c1.7,0,1.2-1.9,0.5-1.8 c-0.6,0-0.9-0.4-0.9-1c0-0.6,1.3-0.5,1.3-0.5V167h-1.9v1h-0.9v-3.3h0.7v1h1.9c0,0,0.2-1.3-0.3-1.3c-0.5,0-0.7-0.5-0.7-1.2 s1.8-0.7,1.8-0.7v-2.4c0,0-0.6,0.2-0.6-0.7c0-0.9,1-0.8,1.6-0.8c0.6,0,1.6-0.1,1.6,0.8c0,0.9-0.6,0.7-0.6,0.7v2.4 c0,0,1.8,0,1.8,0.7s-0.3,1.2-0.7,1.2c-0.5,0-0.3,1.3-0.3,1.3h1.9v-1h0.7v3.3h-0.9v-1h-1.9v1.3c0,0,1.3-0.1,1.3,0.5 c0,0.6-0.3,1-0.9,1c-0.6,0-1.2,1.8,0.5,1.8c1.7,0,6.3,0.7,6.3,3.6c0,2.9-3.3,8.1-3.3,8.1v2.7c0.1,0,0.3,0,0.8,0 c1.1,0,0.9,1.8,0.9,1.8s2.5-0.2,2.5,1.7c0,1.9-4.8,1.7-4.8,1.7c0,9.9,2.9,15.2,3.4,16.3c0.5,1,2.2,0.5,2.2,1.5c0,1-1.2,1.1-1.2,1.8 c0,0.7,1.3,1.3,2.5,2.1s2.6,2.5,2.6,3.3c0,0.7,0,1.3,0,1.5l2.5,0c4.4,0.1,8.9,0.1,13.9,0.1c-10.3-23.2-20.4-45.8-30.8-69.3 C186.6,172,176.6,194.7,166.3,217.7z"></path> <path style="fill:#FFFFFF;" d="M318,172.5c-1.8-1-2.2-1.9-1.8-3.9c1.9-10.8-5.9-20.2-17-20.3c-1.6,0-3.3-0.1-6.2,0h-10.8v5h0 c0.1,13.3,0.1,26.7,0.1,40c0,8,0,16,0,24.5c8.4,0,16.3,0.1,24.2,0c11.2-0.1,20.8-7.5,23.3-17.9C332.4,188.9,327.8,177.9,318,172.5z M295.6,168.2c0,0,0-0.1,0-0.1v-4.9c0-0.1,0-0.1,0-0.2v-1.1c0.6,0,1.5-0.1,3-0.1c3,0,4.8,1.5,4.6,4c-0.2,2.8-2,3.7-4.6,3.7 c-1.3,0-2.3,0-3,0V168.2z M307,204.6c-2.1,0.1-7.3,0.1-11.3,0.1v-1.1c0,0,0-0.1,0-0.1v-19.3c0-0.1,0-0.1,0-0.2v-1.1 c3.6,0,8.9-0.1,11.1,0c5.7,0.2,10.3,4.9,10.5,10.5C317.3,199,312.7,204.2,307,204.6z"></path> </g> <path style="fill:none;stroke:#FFFFFF;stroke-width:17.4708;stroke-miterlimit:10;" d="M458.8,458.3H55.5c-4.4,0-8-3.6-8-8V47 c0-4.4,3.6-8,8-8h403.3c4.4,0,8,3.6,8,8v403.3C466.8,454.7,463.2,458.3,458.8,458.3z"></path> <text transform="matrix(1 0 0 1 83.6943 349.3105)" style="fill:#FFFFFF; font-family:'EurostileNextLTPro-Bold'; font-size:167.4091px;">APP</text> </svg> 