<?xml version="1.0" encoding="UTF-8"?> <!-- Generator: Adobe Illustrator 24.3.0, SVG Export Plug-In . SVG Version: 6.00 Build 0) --> <svg xmlns="http://www.w3.org/2000/svg" xmlns:xlink="http://www.w3.org/1999/xlink" version="1.1" id="Layer_1" x="0px" y="0px" viewBox="0 0 64 64" style="enable-background:new 0 0 64 64;" xml:space="preserve"> <style type="text/css"> .st0{fill:#FFFFFF;} </style> <g> <g> <path class="st0" d="M13,14.8c1.2-1.5,3.5-1.5,4.8,0l5.2,6.3l6.1,7.5c0.6,0.7,0.1,1.7-0.8,1.7H15.4H2.6c-0.9,0-1.4-1-0.8-1.7 l6.1-7.5L13,14.8z"></path> </g> <g> <path class="st0" d="M0.9,35.4v-1.1c0-1,0.8-1.8,1.8-1.8h25.5c1,0,1.8,0.8,1.8,1.8v1.1c0,1-0.8,1.8-1.8,1.8H2.6 C1.6,37.2,0.9,36.4,0.9,35.4z"></path> </g> </g> <g> <g> <path class="st0" d="M50.3,51.1c-1.2,1.5-3.5,1.5-4.8,0l-5.2-6.3l-6.1-7.5c-0.6-0.7-0.1-1.7,0.8-1.7h12.8h12.8 c0.9,0,1.4,1,0.8,1.7l-6.1,7.5L50.3,51.1z"></path> </g> <g> <path class="st0" d="M62.5,30.6v1.1c0,1-0.8,1.8-1.8,1.8H35.2c-1,0-1.8-0.8-1.8-1.8v-1.1c0-1,0.8-1.8,1.8-1.8h25.5 C61.7,28.8,62.5,29.6,62.5,30.6z"></path> </g> </g> </svg> 