<?xml version="1.0" encoding="UTF-8"?> <!-- Generator: Adobe Illustrator 24.0.3, SVG Export Plug-In . SVG Version: 6.00 Build 0) --> <svg xmlns="http://www.w3.org/2000/svg" xmlns:xlink="http://www.w3.org/1999/xlink" version="1.1" id="Layer_1" x="0px" y="0px" viewBox="0 0 64 64" style="enable-background:new 0 0 64 64;" xml:space="preserve"> <style type="text/css"> .st0{fill:#FFFFFF;} </style> <g> <path class="st0" d="M56,14.6l-12-12c-0.3-0.3-0.8-0.5-1.3-0.5H16.4c-3.6,0-6.6,3-6.6,6.6v48.2c0,3.6,3,6.6,6.6,6.6H50 c3.6,0,6.6-3,6.6-6.6v-41C56.6,15.4,56.4,14.9,56,14.6z M44.6,8.2l5.8,5.8h-5.8V8.2z M50,59.9H16.4c-1.7,0-3-1.3-3-3V8.7 c0-1.7,1.3-3,3-3H41v10.2c0,1,0.8,1.8,1.8,1.8H53v39.2C53,58.5,51.6,59.9,50,59.9z"></path> <path class="st0" d="M45.2,26.3c-2.3,0-4.3-1.3-5.3-3.3l-0.3-0.5c-0.3-0.6-0.9-1-1.6-1h-9.6c-0.7,0-1.3,0.4-1.6,1L26.5,23 c-1,2-3.1,3.3-5.3,3.3c-1,0-1.8,0.8-1.8,1.8v10.3c0,4,1.3,7.9,3.7,11.1c2.4,3.2,5.7,5.6,9.6,6.7c0.2,0.1,0.3,0.1,0.5,0.1 s0.3,0,0.5-0.1c3.9-1.2,7.2-3.5,9.6-6.7c2.4-3.2,3.7-7.1,3.7-11.1V28.1C47,27.1,46.2,26.3,45.2,26.3L45.2,26.3z M43.4,38.4 c0,6.5-4.1,12.2-10.2,14.2C27.1,50.5,23,44.9,23,38.4v-8.6c2.7-0.5,5.1-2.2,6.5-4.6h7.4c1.4,2.4,3.8,4.1,6.5,4.6V38.4z"></path> <path class="st0" d="M37,34.2l-5.5,5.5l-2.1-2.1c-0.7-0.7-1.8-0.7-2.5,0c-0.7,0.7-0.7,1.8,0,2.5l3.4,3.4c0.4,0.4,0.8,0.5,1.3,0.5 s0.9-0.2,1.3-0.5l6.8-6.8c0.7-0.7,0.7-1.8,0-2.5C38.8,33.5,37.7,33.5,37,34.2z"></path> </g> </svg> 