<?xml version="1.0" encoding="UTF-8"?> <svg xmlns="http://www.w3.org/2000/svg" xmlns:xlink="http://www.w3.org/1999/xlink" version="1.1" id="Layer_1" x="0px" y="0px" viewBox="0 0 1000 1000" style="enable-background:new 0 0 1000 1000;" xml:space="preserve"> <path style="fill:#FFFFFF;" d="M669.5,192.7c-27.7,31.8-54.8,62.9-82.2,94.2c9.2,10,18,19.9,27.1,29.4c11.3,12,22.1,24.4,27.9,40.3 c13,35.6,8.3,68.9-15.6,98.4c-35.6,43.8-72.1,87-108.2,130.5c-3.1,3.8-6,7.6-9.4,12c-4.3-5.1-8.3-9.9-12.4-14.7 c-35.1-42.3-70.3-84.6-105.4-126.9c-29.6-35.8-30.8-86.7-2.3-123.2c8.6-11.1,21.4-16.5,34.7-19.9c23.8-6.1,43.5,1.6,60,18.8 c3.6,3.8,6.7,7.9,10.3,12.3c-15.4,17.8-30.6,35.5-45.9,53.3c20.2,24.3,40.4,48.6,60.8,73.1c22-26.4,43.7-52.4,65.6-78.6 c-13.9-16.6-27.6-33-41.5-49.5c-13.9-16.6-27.7-33.2-41.6-49.8c-3.8-4.5-3.8-6.8,0-11.2c22.6-25.5,45.2-51.1,67.9-76.5 c7.2-8.1,16.3-11.9,27.2-11.8c25.9,0.1,51.9,0,77.8,0C665.6,192.7,667,192.7,669.5,192.7z"></path> <path style="fill:#FFFFFF;" d="M301.5,192.7c2.6,0,4,0,5.5,0c26.1,0,52.2,0,78.2,0c10,0,18.7,3.3,25.3,10.6 c23.2,25.8,46.2,51.8,69.2,77.9c1.4,1.6,2.2,5.1,1.4,6.9c-0.8,1.7-4,3.3-6.1,3.3c-29.5,0.2-58.8,0.2-88.3,0.1 c-1.5,0-3.5-0.6-4.3-1.6C355.6,257.9,328.9,225.8,301.5,192.7z"></path> <path style="fill:#FFFFFF;" d="M524.1,202.3c-22,4-34.4,16.8-38.1,38.2c-3.6-21.7-16.3-34.1-38.5-38.2c10.7-1.2,19.2-5.1,26.2-12.2 c7-7,11.1-15.6,12.2-26.4C490,185.6,502.1,198.4,524.1,202.3z"></path> <path style="fill:#FFFFFF;" d="M615.3,547.8c44.1-71.6,88.2-143.3,132.8-215.7c-32,0-63.2,0-95.1,0c1.3-2,2-3.2,2.8-4.4 c44.5-63.4,89.1-126.7,133.5-190.1c2-2.9,4-3.8,7.4-3.8c32.1,0.1,64.2,0.1,96.3,0.1c1.7,0,3.3,0,6.1,0c-32.2,46.9-63.9,93-96.2,140 c37.1,0,73.3,0,109.5,0c0.1,0.4,0.3,0.8,0.4,1.1C814,366.2,715,457.3,616.1,548.4C615.8,548.2,615.6,548,615.3,547.8z"></path> <path style="fill:#FFFFFF;" d="M384,547.8c-44.1-71.6-88.2-143.3-132.8-215.7c32,0,63.2,0,95.1,0c-1.3-2-2-3.2-2.8-4.4 C299,264.3,254.4,201,210,137.6c-2-2.9-4-3.8-7.4-3.8c-32.1,0.1-64.2,0.1-96.3,0.1c-1.7,0-3.3,0-6.1,0c32.2,46.9,63.9,93,96.2,140 c-37.1,0-73.3,0-109.5,0c-0.1,0.4-0.3,0.8-0.4,1.1c99,91.1,197.9,182.3,296.9,273.4C383.5,548.2,383.8,548,384,547.8z"></path> <g> <path style="fill:#FFFFFF;" d="M715.9,741.5c-4.1-1.1-8.3-1.9-12.3-3.5c-10.6-4.4-16.9-12.3-18.5-24.6c7,0,13.7-0.1,20.5,0.1 c0.7,0,1.5,1.2,1.9,2c3.6,5.8,10.5,8.2,18.1,6.3c5.9-1.5,9.5-6,9.9-13c0.2-3.5,0-7,0-10.6c-0.5,0-0.9-0.1-0.9,0.1 c-11.8,14.7-41.1,12.8-49.7-12.5c-3.8-11.1-3.5-22.3,1.1-33.1c8.6-20,32.7-24.8,48.5-9.7c0.2,0.2,0.4,0.3,1.1,0.5c0-2.7,0-5.2,0-8 c7.5,0,14.5,0,22.3,0c0,1.4,0,2.9,0,4.5c0,22,0,44.1,0,66.1c0,19.4-11.2,32.6-28.1,34.9c-0.3,0.1-0.7,0.4-0.9,0.7 C724.5,741.5,720.2,741.5,715.9,741.5z M735.9,670.8c0-7.3-2.9-13-8.3-15.8c-5.1-2.7-10.2-2.5-15.1,0.5c-10,6.4-10.1,23.7-0.2,30.2 c4.8,3.1,10,3.4,15,0.8C733.5,683.2,735.8,677.5,735.9,670.8z"></path> <path style="fill:#FFFFFF;" d="M415.4,740c-7.9,0-15,0-22.3,0c0-35,0-69.6,0-104.6c7.2,0,14.3,0,21.9,0c0,2.5,0,5.1,0,8.8 c6.6-7.5,14-10.5,22.8-10.1c12.4,0.5,21.2,6.5,26.4,17.5c5.5,11.7,5.6,23.8,1,35.8c-8.4,22.3-35.7,26-49.8,10.4 C415.4,712.2,415.4,725.8,415.4,740z M445.7,670.5c0-8.5-4-14.5-10.9-16.6c-8.4-2.5-16.6,2.1-19.2,10.6c-3,10.1,1.5,20.4,10.2,22.9 C436.4,690.7,445.8,682.7,445.7,670.5z"></path> <path style="fill:#FFFFFF;" d="M304.2,642.2c-8,0-15.5,0-23.1,0c-3.4-7.5-5.8-9.3-12.1-8.9c-3.7,0.2-6.4,1.8-7.4,5.4 c-1,3.7,0,7,3.4,8.8c3.4,1.8,7,3.2,10.6,4.6c4.6,1.8,9.5,3.3,14,5.3c9.1,4,15.5,10.1,15.8,20.9c0.3,11.7-4.8,20.4-15.2,25.1 c-13.3,6.1-26.8,5.2-39.6-1.8c-8.3-4.6-12.5-12.1-12.8-22.3c7.4,0,14.4-0.1,21.6,0.1c0.8,0,1.8,1.5,2.2,2.5 c2.5,6.9,10,9.8,16.5,6.4c5.2-2.7,6.2-9.3,1.6-12.8c-3.1-2.3-7-3.8-10.7-5.2c-5.1-2-10.3-3.4-15.3-5.5c-10-4.2-15.8-11.5-15.7-22.8 s5.4-19.2,15.7-23.4c12.2-5,24.7-4.8,36.6,1C299,624.2,303.6,631.8,304.2,642.2z"></path> <path style="fill:#FFFFFF;" d="M544.4,676.2c-16.3,0-32.5,0-48.5,0c0.1,6.5,3.2,10.9,8.6,12.6c5.7,1.8,10.8,0.3,14.6-4.4 c0.7-0.9,2-1.9,2.9-1.9c7-0.2,14-0.1,21-0.1c-1.6,15.6-19.8,27-39.2,24.6c-20.5-2.5-32.9-20.3-29.9-43 c2.7-20.5,20.4-33.1,42.1-29.7C535.9,637.5,547.9,654.7,544.4,676.2z M522.3,663.4c-0.5-7.3-6-11.9-13.3-11.7 c-7.1,0.3-12.6,5.2-12.7,11.7C504.9,663.4,513.6,663.4,522.3,663.4z"></path> <path style="fill:#FFFFFF;" d="M362,635.3c7.6,0,14.4,0,21.6,0c0,23.6,0,47.1,0,70.9c-7.1,0-14.2,0-21.5,0c0-2.7,0-5.2,0-7 c-5.2,2.5-10.3,5.9-15.8,7.2c-16.9,3.9-31.7-6.4-32.9-23.6c-1.1-15.6-0.3-31.4-0.3-47.3c7,0,13.9,0,21.5,0c0,1.5,0,3,0,4.5 c0,11.3-0.1,22.6,0,33.8c0.1,10.6,6.6,16.2,16.5,14.6c6.6-1,10.7-6.2,10.8-14.3c0.2-11.3,0.1-22.6,0.1-33.8 C362,638.6,362,637.1,362,635.3z"></path> <path style="fill:#FFFFFF;" d="M620.6,689.3c9.6,0,18.7,0,28.2,0c0,5.7,0,11,0,16.8c-16.3,0-32.9,0-49.7,0c0-29.6,0-59.1,0-89.1 c7.1,0,14.2,0,21.6,0C620.6,641,620.6,664.8,620.6,689.3z"></path> <path style="fill:#FFFFFF;" d="M571.2,706.2c-7.6,0-14.3,0-21.6,0c0-23.5,0-47,0-70.8c6.9,0,14,0,21.6,0c0,3.1,0,6.3,0,10.7 c6.3-7.4,12.9-11.7,21.9-11.7c0,7.6,0,15.1,0,22.9c-3.8,0.3-7.6,0.3-11.3,1c-6.5,1.1-10,4.6-10.2,11.3c-0.4,10.2-0.3,20.5-0.4,30.8 C571.2,702.2,571.2,704,571.2,706.2z"></path> <path style="fill:#FFFFFF;" d="M676.2,706.2c-7.3,0-14.3,0-21.6,0c0-23.6,0-47.1,0-70.8c7.1,0,14.2,0,21.6,0 C676.2,658.9,676.2,682.4,676.2,706.2z"></path> <path style="fill:#FFFFFF;" d="M665.5,604.3c7.7,0,12.8,4.6,12.8,11.8c0,7.1-5.1,11.8-12.8,11.8c-7.6,0.1-13.1-4.7-13.1-11.6 C652.3,609.1,657.6,604.3,665.5,604.3z"></path> <path style="fill:#FFFFFF;" d="M326.6,617.8c0.1-5.6,4-9.3,9.5-9.2s9.5,4.3,9.3,9.6c-0.2,5.3-4.4,9.3-9.8,9.2 C330.2,627.3,326.5,623.4,326.6,617.8z"></path> <path style="fill:#FFFFFF;" d="M370.8,618c0,5.4-4,9.5-9.5,9.5c-5.4,0-9.6-4.2-9.5-9.5s4.2-9.4,9.6-9.4 C367,608.6,370.9,612.4,370.8,618z"></path> </g> <g> <path style="fill:#FFFFFF;" d="M107.8,759.9h22.8v82.6h42.3v21.1h-65.1V759.9z"></path> <path style="fill:#FFFFFF;" d="M185.2,759.9H208v103.7h-22.8V759.9z"></path> <path style="fill:#FFFFFF;" d="M322.7,856.3c-6.7,3.5-13.8,6.1-21.1,7.6c-7.3,1.6-14.8,2.3-22.4,2.3c-8.1,0-15.6-1.3-22.4-3.8 c-6.8-2.5-12.7-6.2-17.7-10.9c-5-4.7-8.9-10.5-11.6-17.2s-4.2-14.2-4.2-22.5c0-8.3,1.4-15.8,4.2-22.5s6.7-12.5,11.6-17.2 c5-4.7,10.9-8.4,17.7-10.9c6.8-2.5,14.3-3.8,22.4-3.8c8.3,0,15.9,1,22.9,3c7,2,13.1,5.4,18.4,10.3l-16.1,17.6 c-3.1-3.2-6.6-5.7-10.5-7.3c-3.9-1.7-8.8-2.5-14.6-2.5c-4.9,0-9.3,0.8-13.2,2.5c-4,1.7-7.3,4-10.2,7c-2.8,3-5,6.5-6.5,10.6 c-1.5,4.1-2.3,8.5-2.3,13.3c0,4.9,0.8,9.3,2.3,13.4c1.5,4.1,3.7,7.6,6.5,10.5c2.8,3,6.2,5.3,10.2,7c4,1.7,8.4,2.5,13.2,2.5 c5,0,9.3-0.6,12.9-1.7c3.6-1.1,6.5-2.3,8.6-3.4v-16.8h-18.6v-21.1h40.6V856.3z"></path> <path style="fill:#FFFFFF;" d="M342.7,759.9h22.8v38.6h44.4v-38.6h22.8v103.7h-22.8v-44.8h-44.4v44.8h-22.8V759.9z"></path> <path style="fill:#FFFFFF;" d="M473.9,780.1h-29.6v-20.2h82v20.2h-29.6v83.4h-22.8V780.1z"></path> <path style="fill:#FFFFFF;" d="M537.9,759.9h31l44.1,72h0.3v-72h22.8v103.7h-29.9L561,789.8h-0.3v73.8h-22.8V759.9z"></path> <path style="fill:#FFFFFF;" d="M656.9,759.9h22.8v103.7h-22.8V759.9z"></path> <path style="fill:#FFFFFF;" d="M700.5,759.9h31l44.1,72h0.3v-72h22.8v103.7h-29.9l-45.2-73.8h-0.3v73.8h-22.8V759.9z"></path> <path style="fill:#FFFFFF;" d="M913.7,856.3c-6.7,3.5-13.8,6.1-21.1,7.6c-7.3,1.6-14.8,2.3-22.4,2.3c-8.1,0-15.6-1.3-22.4-3.8 c-6.8-2.5-12.7-6.2-17.7-10.9c-5-4.7-8.9-10.5-11.6-17.2c-2.8-6.7-4.2-14.2-4.2-22.5c0-8.3,1.4-15.8,4.2-22.5 c2.8-6.7,6.7-12.5,11.6-17.2c5-4.7,10.9-8.4,17.7-10.9c6.8-2.5,14.3-3.8,22.4-3.8c8.3,0,15.9,1,22.9,3c7,2,13.1,5.4,18.4,10.3 l-16.1,17.6c-3.1-3.2-6.6-5.7-10.5-7.3c-3.9-1.7-8.8-2.5-14.6-2.5c-4.9,0-9.3,0.8-13.2,2.5c-4,1.7-7.3,4-10.2,7 c-2.8,3-5,6.5-6.5,10.6c-1.5,4.1-2.3,8.5-2.3,13.3c0,4.9,0.8,9.3,2.3,13.4c1.5,4.1,3.7,7.6,6.5,10.5c2.8,3,6.2,5.3,10.2,7 c4,1.7,8.4,2.5,13.2,2.5c5,0,9.3-0.6,12.9-1.7c3.6-1.1,6.5-2.3,8.6-3.4v-16.8h-18.6v-21.1h40.6V856.3z"></path> </g> </svg> 