<?xml version="1.0" encoding="UTF-8"?> <svg xmlns="http://www.w3.org/2000/svg" xmlns:xlink="http://www.w3.org/1999/xlink" version="1.1" id="Layer_1" x="0px" y="0px" viewBox="0 0 1000 1000" style="enable-background:new 0 0 1000 1000;" xml:space="preserve"> <path style="fill:#FFFFFF;" d="M670.9,412.4c-8,0-9.6-1.1-8.2-8.9c2.8-16.6,6.2-33.1,9.6-49.6c1.2-5.8,2.7-11.6,4.6-17.2 c2.4-6.9,11.7-10.3,18.1-6.9c3.9,2.1,3,6,2.5,9.3c-1.1,7.2-2.3,14.4-3.8,21.5c-2.8,12.9-5.8,25.8-8.8,38.6c-0.3,1.3-0.7,2.6-1.1,3.8 C681,411.3,679.5,412.4,670.9,412.4z"></path> <path style="fill:#FFFFFF;" d="M394.3,540.4c2.8-12.1,5.4-24.1,8.4-36.1c1-3.9,5.3-5.6,9.2-4c3.5,1.4,2,4.3,1.5,6.9 c-2.1,10.4-4.1,20.7-6.4,31.1c-0.9,3.9-2,7.7-7.6,7.5C395.8,545.5,394.1,544.3,394.3,540.4z"></path> <path style="fill:#FFFFFF;" d="M477.2,540.4c2.7-11.9,5.2-23.8,8.1-35.7c1-4.2,5.5-6.1,9.5-4.4c1.1,0.5,2.2,2.7,2,3.8 c-2.4,12.1-5,24.2-7.7,36.3c-0.7,3.3-2.7,5-6.3,5.1C478.9,545.7,476.8,544.7,477.2,540.4z"></path> <path style="fill:#FFFFFF;" d="M579.6,506c-2.6,11.6-5.2,23.1-7.9,34.7c-1,4.1-4,5.3-8,4.9c-3-0.2-4.3-1.8-3.7-4.6 c2.5-11.9,5.1-23.9,7.8-35.8c0.6-2.9,2-5.1,5.6-5.2C579,500,579.4,500.2,579.6,506z"></path> <path style="fill:#FFFFFF;" d="M405.2,430.6c-7,0-8-0.5-7-6.5c2.1-12,4.8-23.9,7.8-35.7c1.2-4.9,8.5-7.1,12.7-4.3 c1.1,0.7,1.9,2.9,1.7,4.1c-2.4,12.6-4.9,25.3-7.7,37.8C411.7,430.3,408,430.9,405.2,430.6z"></path> <path style="fill:#FFFFFF;" d="M314.1,311.2c7,0,8.2,1,7,7.2c-2.1,11-4.3,22-7.1,32.8c-0.7,2.7-3.5,6-6.1,6.8 c-7.7,2.3-10.4-0.5-8.8-8.5c2-10.7,4.5-21.2,6.8-31.8C306.9,312.8,309.5,310.3,314.1,311.2z"></path> <path style="fill:#FFFFFF;" d="M336.5,726.7c0-9.1,1.8-10.5,9.3-7.9C345.4,727,344.4,727.9,336.5,726.7z"></path> <path style="fill:#FFFFFF;" d="M340.8,704.1c0.6-2.9,1.1-5.4,1.6-8c2.7,0,5.1,0,7.4,0C350.8,703.8,349.7,704.9,340.8,704.1z"></path> <path style="fill:#FFFFFF;" d="M647.6,617.9c0.6-3,1.1-5.7,1.7-8.4c0.9-4,4.2-2.5,6.4-2.2c0.8,0.1,2.1,2.6,2,4 C657.1,618,655.4,619.1,647.6,617.9z"></path> <path style="fill:#FFFFFF;" d="M334,611.1c-1.9,8.4-3.4,15.8-5.3,23.1c-1,3.9-6.7,6-10,3.8c-0.9-0.6-1.5-2.6-1.3-3.7 c1.4-7.4,3-14.9,4.8-22.2c1.1-4.7,4.2-6.6,8.9-5C332.5,607.5,333.2,609.9,334,611.1z"></path> <path style="fill:#FFFFFF;" d="M393.3,726.3c1.4-7.1,2.7-14.3,4.2-21.5c0.5-2.2,1-4.6,2-6.6c1.7-3.5,4.9-3.6,8.1-2.9 c3.5,0.8,2.7,3.7,2.2,6.1c-1.2,6.3-2.5,12.6-4,18.9C404.1,727.6,402.2,728.5,393.3,726.3z"></path> <path style="fill:#FFFFFF;" d="M507.6,628.9c3-6.6,5.7-12.7,8.4-18.7c0.2,0,0.4,0.1,0.6,0.1c0,6.1,0,12.2,0,18.6 C513.9,628.9,511.2,628.9,507.6,628.9z"></path> <path style="fill:#FFFFFF;" d="M806.7,516.8c39.2-2.3,76.9-4.5,115.9-6.7c-30.2-18.3-59.4-36.1-89.2-54.1 c45.9-28,91.3-55.7,137.5-83.9c-56.2-13.7-111.2-27-167-40.5c35.8-27.2,70.8-53.8,105.8-80.3c-0.1-0.3-0.3-0.6-0.5-0.9 c-41.8,3-83.6,6.1-126.4,9.2c24.1-45.9,47.7-90.8,71.3-135.7c-0.2-0.1-0.5-0.3-0.7-0.5c-57.7,33.8-115.4,67.5-174.1,101.9 c2.9-42,5.6-82.5,8.4-123.1c-0.3-0.1-0.6-0.2-0.9-0.3c-25.4,30.9-50.8,61.8-76.9,93.5C591.8,138.6,574.1,83,556,26 c-29.5,61.4-58.5,121.5-88,182.7c-14.4-43.5-28.2-85.5-42.1-127.5c-0.2,0-0.5,0.1-0.7,0.2c-5.4,44.1-10.9,88.1-16.5,133.5 C368.6,162,329.4,110.1,289.4,57.3c-0.6,68-1.1,135-1.7,202.7c-71.6-25.2-142.1-50.1-212.6-75c-0.2,0.3-0.3,0.7-0.5,1 c41.4,62.5,82.7,124.9,124.5,188.2c-41.1-3.6-80.8-7-121.7-10.5c30.9,27.3,61,53.8,91.5,80.7c-57,19.1-113,37.9-169.9,57 c60.1,33.4,119.2,66.2,179.4,99.7c-47.1,15.6-93.2,30.8-139.2,46c0.1,0.3,0.2,0.5,0.3,0.8c50.4,9.1,100.7,18.3,152.2,27.6 c-52.5,49.7-104.3,98.8-156.1,147.8c0.2,0.4,0.5,0.7,0.7,1.1c76.2-16.3,152.4-32.6,229.3-49.1c-9.3,50.9-18.5,100.9-27.6,151 c0.4,0.1,0.8,0.3,1.2,0.4c39.7-44.8,79.3-89.6,119.4-134.9c18.7,58.5,37.1,116.1,55.9,174.7C447,904.2,479,843,511.6,780.8 c20.7,42.2,40.8,83.3,61.4,125.5c14.5-42.7,28.5-84,42.7-125.9c52.8,51.4,105.2,102.3,158.1,153.8C758,861.8,742.4,790.3,726.7,718 c40.9,17,81,33.7,122.1,50.8c-17.3-41.3-34.2-81.5-51.3-122.3c57.5,2.2,114.5,4.3,172.7,6.4C915.4,607.2,861.6,562.2,806.7,516.8z M615.5,367c3.6-15.6,7.4-31.3,12.6-46.4c6.9-20.2,18.8-27.8,41-29.1c12.5-0.8,24.9-1,37.4-0.9c7.4,0.1,14.9,0.7,22.2,2.1 c16.8,3.1,24.3,11.8,23.5,29.6c-0.7,14.4-2.9,28.9-5.6,43.2c-3.3,17-7.4,33.9-12.1,50.6c-4.2,14.9-12.1,27.6-28.5,31.7 c-7.5,1.9-15.4,2.5-23.1,3.2c-5.5,0.5-11,0.1-16.5,0.1c0,0.4-0.1,0.8-0.1,1.2c-12.7-1.3-25.5-1.8-37.9-4.2 c-13.8-2.7-20-11.5-20.4-25.6C607.4,403.6,611.4,385.3,615.5,367z M543.3,608.1c1.1-5.2,1.9-9.8,3.1-14.4c0.3-1,2.2-2.1,3.3-2.1 c15.8-0.1,31.6-0.1,48.4-0.1c-1.2,5.8-2.3,11.1-3.4,16.6c-2.5,0-4.5,0-6.5,0c-8.7,0-8.6,0-10.3,8.3c-2.3,11.4-4.6,22.7-7.2,34 c-0.3,1.3-2.1,3.1-3.3,3.2c-5.9,0.4-11.9,0.2-18.8,0.2c3.2-15.4,6.3-30.2,9.6-45.7C553,608.1,548.6,608.1,543.3,608.1z M600.4,599.2 c0.3-1.1,0.4-2.3,0.6-3.4c0.5-2.9,1.7-4.6,5.2-4.4c5.5,0.4,11,0.1,17.4,0.1c-2.9,13.6-5.6,26.4-8.4,39.1c-1.3,6.5-3,12.9-4.1,19.4 c-0.5,2.9-1.6,3.9-4.5,3.8c-5.8-0.2-11.5-0.1-17.8-0.1C592.8,635,596.6,617.1,600.4,599.2z M608.4,566c1.8-9,3.6-17.6,5.5-26.6 c-1.9,0-3.7,0-6.2,0c0.8-3.6,1.3-7,2.3-10.3c0.3-0.9,1.7-2,2.7-2.1c4-0.4,5-2.9,5.2-6.9c-1.8,0.1-3.5,0.3-6.1,0.5 c0.7-3.6,1.4-7.2,2.3-10.8c0.2-0.7,1.3-1.6,2-1.6c4.5-0.3,5.4-3.2,6-6.9c1-6.3,2.4-12.7,4-18.9c0.4-1.3,2.1-3.1,3.3-3.1 c9-0.2,17.9-0.1,27.3-0.1c-1.5,7.4-3,14.4-4.5,21.8c4.3-0.7,8.3-1.3,13-2.1c-0.9,4.1-1.4,7.5-2.4,10.7c-0.3,1-1.7,1.9-2.8,2.3 c-1.6,0.5-3.3,0.9-4.9,0.9c-4.5,0.1-7.4,1.7-6.5,7.1c3.8-0.6,7.7-1.3,12.5-2.3c-0.8,4.1-1.4,7.6-2.3,11c-0.2,0.7-1.3,1.2-2.1,1.7 c-0.4,0.3-0.9,0.5-1.4,0.5c-8.7-0.3-12.5,4.2-11.7,12.7c7.5,2.7,11.5,0.7,13.4-7.3c0.9-3.6,2.4-5.1,6.4-4.9 c7.7,0.4,15.3,0.1,22.9,0.1c1.8,17.2-9.6,31.8-26,33.6c-3.1,0.4-6.3,1-9.4,1C636.9,566.1,623,566,608.4,566z M609.8,495.2 c-0.5,18.9-4.8,37.3-10.6,55.3c-3.8,11.5-12.6,16-24,16.6c-4.5,0.2-9,0-13.5,0c0,0.2,0,0.3,0,0.5c-6.3-0.5-12.6-0.6-18.8-1.4 c-8.8-1.3-13-6.4-12.9-15.4c0.3-19.7,5-38.7,11.3-57.2c3.6-10.5,12.3-14.7,22.5-15c10.7-0.3,21.6,0,32.3,0.9 C605.5,480.3,610.1,485.9,609.8,495.2z M445.2,631.1c-2.8-11.6-5.7-23.1-8.6-34.7c-0.4-1.4-0.5-2.8-0.8-4.6c7,0,13.6,0,20.9,0 c1.2,7.1,2.4,14.2,3.8,22.5c3.5-5.9,6.9-10.8,9.4-16.2c2.5-5.3,5.8-7.4,11.6-6.7c4.3,0.5,8.8,0.1,14.5,0.1 c-7.7,11.5-14.1,22-21.6,31.8c-6.2,8-8.7,16.9-10.3,26.4c-0.5,3.1-1.5,4.3-4.7,4.2c-5.7-0.2-11.3-0.1-17.6-0.1 c1.2-6.2,2.4-11.9,3.4-17.5C445.5,634.6,445.6,632.7,445.2,631.1z M359.7,608.2c1-5.1,1.7-9.7,2.9-14.1c0.3-1.1,2.3-2.4,3.5-2.4 c15.6-0.2,31.3-0.1,48.3-0.1c-1.2,5.5-2.3,10.6-3.7,15.7c-0.1,0.5-1.9,0.8-3,0.8c-3.6,0.1-7.3,0-11.6,0c-3,14.1-6.2,27.8-8.9,41.7 c-0.6,3.1-1.6,4.2-4.7,4.1c-5.7-0.2-11.3-0.1-17.7-0.1c3.2-15.4,6.4-30.2,9.6-45.6C369.4,608.2,364.8,608.2,359.7,608.2z M409.3,567.1c-4.3,0.1-8.7,0-13,0c0,0.2,0,0.3,0,0.5c-6.3-0.5-12.6-0.6-18.8-1.6c-8.8-1.3-13.9-6.3-13-15.2 c1.3-13.6,3.8-27.1,6.4-40.6c1.1-6.2,3.2-12.2,5.5-18c3.9-10.1,12.5-13.5,22.3-13.8c10.4-0.3,20.9,0,31.3,0.9 c10.4,0.9,16,7.2,14.4,17.6c-2.7,17.4-6.1,34.8-10.5,51.9C430.5,561.8,422.7,566.6,409.3,567.1z M503.9,594.1c0.6-1.1,2-2.6,3.1-2.6 c9.1-0.2,18.2-0.1,27.4-0.1c0.8,11.3,1.6,21.8,2.3,32.4c0.6,8.7,1.2,17.5,1.5,26.3c0.1,1.1-1.4,3.3-2.2,3.3 c-5.9,0.3-11.8,0.2-17.7,0.2c-1.1-9.5-1.1-9.1-10.3-9.7c-5.7-0.3-8.9,1.4-10.5,6.9c-0.3,1.2-2.2,2.7-3.4,2.8 c-6.1,0.3-12.2,0.1-19.3,0.1C484.9,633.2,494.4,613.7,503.9,594.1z M467.3,410.3c8.2,0.5,16.2,1.1,24.1,1.4 c11,0.4,21.9,0.6,32.9,0.5c5.1,0,8.8-2.8,10.1-8c0.9-3.7,2-7.4,2.3-11.2c0.3-3.4-1.6-6.3-5.3-6.6c-6.6-0.5-13.2-0.9-19.8-0.7 c-12.4,0.4-24.7,1.2-37.5,1.8c6.7-31.9,13.4-63.3,19.9-95c35.6,0,70.9,0,106.5,0c-2.8,13-5.5,25.7-8.2,38.7c-20.3,0-40.4,0-60.9,0 c-1.2,5.8-2.4,11.4-3.5,16.4c8.3,0,16.5-0.5,24.5,0.2s16.2,1.9,23.7,4.5c10.7,3.8,15,12.9,15.7,23.8c0.9,14.4-2.5,28-7.2,41.4 c-6.7,19.2-21.4,28.5-40.6,31.6c-26.9,4.4-53.6,1.7-80.3-2.1c-1.2-0.1-2.4-0.8-3.7-1.3C462.4,433.9,464.8,422.3,467.3,410.3z M481.3,478.5c10.6-0.2,21.2,0,31.8,0.9c9.8,0.8,14,6.1,13.8,16c-0.3,18.7-4.8,36.7-10.2,54.4c-3.6,11.7-12.4,16.8-24.1,17.3 c-4.5,0.2-9,0-13.5,0c0,0.1,0,0.3,0,0.5c-6.4-0.5-12.9-0.7-19.3-1.5c-8.1-1.2-12.8-6.6-12.7-14.7c0.4-19.9,5-39,11.4-57.7 C462.1,483,470.8,478.7,481.3,478.5z M448.6,383.9c-2.1,16.3-5.8,32.5-9.9,48.5c-3.2,12.5-12.8,18.3-25.3,18.6 c-9.2,0.2-18.6,0-27.8-0.9c-11.9-1.1-17.4-7.7-15.6-19.6c2.3-15.3,5.1-30.7,9.1-45.6c4.4-16.5,12.3-21.5,29.4-21.6c2.7,0,5.3,0,8,0 c0-0.1,0-0.3,0-0.4c5.6,0.4,11.3,0.6,16.9,1.3C446.3,365.8,450,373.4,448.6,383.9z M420.6,292.3c6.6,0.5,13.3,0.1,21.4,0.1 c-7.7,8.8-14.4,16.7-21.4,24.4c-36,41.6-72.1,83.1-107.9,124.9c-4.6,5.4-9,8.5-16.3,7.6c-5.9-0.7-11.9-0.1-18.6-0.1 c1.1-1.5,1.6-2.4,2.3-3.2c42.8-49.4,85.6-98.7,128.2-148.2C411.8,293.9,415.2,291.9,420.6,292.3z M270.4,361 c1.3-13.3,3.9-26.5,6.5-39.6c1.2-5.9,3.4-11.7,5.8-17.3c4.8-10.9,14.8-13,25.2-13.7c3-0.2,6,0,9,0c0-0.2,0.1-0.5,0.1-0.7 c6.9,0.9,13.9,1.2,20.5,2.6c7.7,1.8,11.5,6.9,11.4,14.8c-0.1,19.4-4.5,38-11.2,56.1c-3.3,8.9-10.6,14-19.8,14.5 c-11.4,0.6-22.9,0.5-34.2-0.7C274.2,376.1,269.5,370.5,270.4,361z M245.1,625.2c-0.8,6.6-2.3,13.3-4.7,19.5c-2.4,6.3-8.6,9-14.9,9.2 c-10.6,0.3-21.2-0.2-32.5-0.4c1-5.6,1.8-10.1,2.7-15.1c7.1,0,14.1,0.1,21.2,0c4.8,0,5.1-0.5,5.2-6.2c-4.4-0.7-8.9-1.5-13.4-2.2 c-7.5-1.2-10.4-4-10-10.9c0.2-4.2,1-8.5,2.1-12.6c2.4-9.1,8.8-14.2,17.8-14.8c10.1-0.7,20.1,0.1,31.1,0.2c-1.1,5.8-2,10.3-2.9,15 c-6,0-11.9,0-17.8,0c-1.7,0-3.6-0.2-4.9,0.5c-1.2,0.7-2,2.4-2.5,3.8c-0.1,0.3,1.8,1.8,2.9,2c4,0.8,8.1,1.3,12.2,2.1 C242.1,616.3,245.7,619.7,245.1,625.2z M288.1,651.1c-0.2,1-1.5,2.5-2.3,2.5c-13.1,0.1-26.1,0.1-39.8,0.1c2.3-11,4.4-21.3,6.6-31.6 c1.8-8.9,3.8-17.8,5.6-26.7c0.5-2.6,1.5-4.1,4.5-4c5.6,0.2,11.2,0.1,17.9,0.1c-3.2,15.4-6.3,30.1-9.5,45.5c6.8,0,13.3,0,20.4,0 C290.3,642.2,289.5,646.7,288.1,651.1z M282.9,563.9l4.1-19.8c2.7,0.3,5.6,0.5,8.7,0.7c3.1,0.2,6.1,0.4,9.1,0.5 c3,0.1,5.6,0.2,7.8,0.2c2.5,0,4.4-0.1,5.9-0.2c1.5-0.1,2.6-0.4,3.5-0.9c0.8-0.5,1.5-1.2,2-2.3c0.5-1.1,0.9-2.5,1.3-4.4 c0.2-0.8,0.3-1.4,0.4-2c0.1-0.6,0.1-1.1,0.1-1.7c0-1.2-0.3-2.1-0.9-2.7c-0.6-0.6-1.6-1-3-1.1c-1.4-0.2-3.3-0.3-5.8-0.3 c-2.5,0-5.2,0.1-8.1,0.2c-3,0.1-5.9,0.3-8.9,0.4c-3,0.2-5.7,0.4-8.3,0.6l11.2-53h59.1l-4.6,21.6h-34.1l-2.2,10.2 c1.9-0.3,4.1-0.4,6.4-0.6c2.3-0.1,4.6-0.2,7-0.2c5.7,0,10.2,0.7,13.5,2.2c3.3,1.4,5.7,3.5,7.1,6.2c1.4,2.7,2.2,6,2.2,9.8 c0,1.5-0.1,3.1-0.3,4.8c-0.2,1.7-0.5,3.4-1,5.3c-1.1,4.9-2.5,9.2-4.1,12.9c-1.6,3.7-3.9,6.7-6.8,9.2c-2.9,2.4-6.9,4.2-11.8,5.4 c-5,1.2-11.4,1.8-19.3,1.8c-3,0-6.2-0.1-9.8-0.4c-3.6-0.3-7.1-0.6-10.7-1C289.2,565,285.9,564.5,282.9,563.9z M295.5,638.5 c1.7-10.3,3.6-20.6,6-30.7c2.5-10.7,7.7-15.4,18.7-16.2c8.2-0.6,16.6-0.1,24.8,0.8c7.3,0.8,11.6,5.3,10.5,12.5 c-2.1,13.3-5.1,26.6-8.9,39.5c-2.3,7.6-10,9-17.2,9.6c-3,0.2-6,0-9,0c0,0.2,0,0.3,0,0.5c-4.7-0.5-9.5-0.7-14.2-1.3 C298.3,651.8,294.2,646.3,295.5,638.5z M365.8,729c-2.3,7.8-7.3,12.7-15.1,13c-13,0.4-25.9,0.1-39.3,0.1c4.3-20.6,8.6-40.9,13-61.4 c12,0,23.6-0.4,35.2,0.1c8,0.3,12.3,4.1,13.3,9.7c1.2,6.4-2.9,15.3-8.5,18.4c-1.2,0.6-2.6,1.1-4,1.7 C367.5,716.1,368.5,719.5,365.8,729z M405.1,742.9c-2.7,0.2-5.3,0-8,0c0,0.3-0.1,0.5-0.1,0.8c-5.7-0.9-11.5-1.3-17.2-2.8 c-5.8-1.4-8.5-4.8-7.7-10.5c1.9-12.7,4.2-25.4,7-37.9c1.8-7.7,8.1-11.5,15.5-11.9c9.1-0.5,18.3-0.3,27.3,0.7 c7.2,0.8,11,5.4,9.9,12.5c-2,13-4.9,25.9-8.5,38.6C420.9,740.9,412.7,742.1,405.1,742.9z M464.4,741.7c-2.5-8.7-5.1-17.6-7.9-27.5 c-2,8.7-3.9,16.4-5.3,24.3c-0.5,2.8-1.6,3.6-4.2,3.5c-5.3-0.1-10.6,0-16.6,0c4.3-20.7,8.6-40.9,13-61.6c6.9,0,13.5-0.2,20.1,0.2 c1.2,0.1,2.8,2.4,3.3,4c1.9,5.9,3.5,12,5.6,19.2c1.7-7.6,3-13.8,4.6-20c0.4-1.3,2-3.1,3.2-3.2c5.5-0.3,10.9-0.1,17.4-0.1 c-4.4,20.8-8.7,41-13,61.4C477.9,741.9,471.4,741.9,464.4,741.7z M547.1,726.8c-2,10.4-8.5,15.6-18.6,16c-7,0.3-14,0-20.9-0.7 c-8.8-0.8-12.3-5.6-10.9-15.4c1.7-12.1,4.3-24.1,6.8-36.1c2.2-10.1,2.4-10.1,12.8-10.1c3.4,0,6.8,0,10.8,0 c-2.6,12.5-5.1,24.3-7.5,36.1c-0.4,1.8-1.2,3.6-1.1,5.3c0.1,1.8,0.7,4.6,1.7,5c2.4,0.8,5.3,0.8,6.1-3c1.7-8.4,3.8-16.7,5.6-25.1 c1.1-5,1.9-10.1,3.2-15c0.4-1.3,2.2-3,3.4-3.1c6-0.3,12-0.1,18.8-0.1c-1.5,6.9-2.9,13.2-4.3,19.6C551,709,548.9,717.9,547.1,726.8z M607,696.4c-4.5-0.3-8.6-0.7-12.7-0.8c-3.3-0.1-6.6,0.1-9.8,0.7c-0.9,0.2-2.3,2.1-2.2,3.2c0,0.9,1.7,2.3,2.8,2.6 c3.8,0.9,7.8,1.3,11.7,2.1c6.7,1.5,9.6,5.4,9,12.1c-0.4,3.6-1,7.2-2,10.7c-3.2,11-9.5,15.9-21.1,16c-9.4,0.1-18.8-0.5-29.1-0.8 c1-5.5,1.9-10.2,2.7-14.9c7.4,0,14.6-0.1,21.9,0c2.8,0,5-1.1,4.6-3.8c-0.2-1.4-2.7-2.8-4.4-3.3c-3.5-1-7.1-1.3-10.7-2 c-6.8-1.4-9.1-4.2-8.5-11c0.4-4.3,1.1-8.6,2.3-12.7c2.4-8.3,8.4-13.4,16.8-14c10.3-0.7,20.7,0,32,0.1 C608.9,686.9,607.9,691.4,607,696.4z M666.8,701.4c-1.8,8.4-3.5,16.8-5.7,25.1c-3,11.6-7.1,15.3-18.9,16.2c-7,0.6-14.3,0.2-21.3-0.8 c-8.8-1.2-11.1-5.8-10.2-14.1c1.2-10.8,3.7-21.5,5.7-32.2c0.7-3.7,2-7.4,2.4-11.1c0.3-3.3,1.6-4.2,4.7-4.1 c5.6,0.2,11.2,0.1,17.6,0.1c-2.7,12.8-5.2,24.8-7.7,36.6c-0.3,1.7-0.9,3.3-0.9,4.9c0,1.7,0.4,4.5,1.2,4.8c2.7,0.8,5.8,0.8,6.6-3.1 c1.5-6.9,3.1-13.9,4.6-20.8c1.4-6.5,2.6-13,4.2-19.4c0.3-1.2,1.9-2.8,3-2.9c6.1-0.2,12.2-0.1,19-0.1 C669.6,687.9,668.3,694.7,666.8,701.4z M668.6,633.5c0.8,6.4,1.7,12.8,2.7,19.7c-7.1,0-14.1,0-21.4,0c-0.5-5.6-0.9-11.2-1.7-16.7 c-0.2-1.4-1.8-2.6-2.8-3.9c-0.4,0.3-0.9,0.5-1.3,0.8c-1.1,5.3-2.4,10.6-3.3,15.9c-0.5,3-1.6,4.7-5.1,4.5c-5.5-0.3-10.9-0.1-17.3-0.1 c2-9.6,3.8-18.3,5.5-27.1c2.2-10.5,4.6-21,6.7-31.5c0.6-2.6,1.4-3.8,4.1-3.7c10.7,0.3,21.3,0.3,31.9,0.7 c12.3,0.5,14.2,6.3,12.9,15.3c-1.2,8.4-1.5,17.5-10.2,22.7C668.6,630.5,668.5,632.4,668.6,633.5z M698.9,649.8 c-0.6,2.6-1.4,4.1-4.5,4c-5.6-0.3-11.3-0.1-17.7-0.1c1.2-6.2,2.2-12,3.4-17.7c2.9-13.7,5.7-27.4,8.9-41.1c0.3-1.3,2.4-3.1,3.7-3.2 c5.7-0.4,11.6-0.2,18.3-0.2c-1.9,9.5-3.6,18.2-5.3,26.8C703.4,628.8,701.1,639.3,698.9,649.8z M785.2,618.6 c-2.1,10.2-4.4,20.4-6.4,30.6c-0.7,3.5-2,4.8-5.6,4.6c-5-0.3-10-0.1-16-0.1c2.2-10.6,4.2-20.4,6.3-30.3c-0.3-0.2-0.6-0.3-0.9-0.4 c-2.5,5.4-5,10.7-7.4,16c-0.9,1.9-1.7,3.9-2.6,5.9c-4.3,9.3-4.3,9.2-14.8,8.8c-2.8-0.1-3.7-1-3.7-3.8c0.1-9.9,0-19.7-1.1-29.6 c-2.1,9.7-4.3,19.4-6.2,29.1c-0.6,3.3-1.9,4.5-5.2,4.3c-4.9-0.3-9.9-0.1-15.6-0.1c2.1-10.3,4.1-19.9,6.1-29.5 c1.9-9.3,4-18.5,5.8-27.7c0.7-3.6,1.9-5.5,6.1-5.2c6.8,0.4,13.7,0.3,20.5,0.1c3-0.1,4.1,1,4,4c-0.2,7.8-0.1,15.5-0.1,23.3 c0.4,0.1,0.8,0.1,1.2,0.2c3.4-7.6,7-15.2,10.2-22.9c1.4-3.3,3.2-4.8,7-4.6c7.8,0.3,15.6,0.1,24.1,0.1 C788.9,600.9,787.1,609.8,785.2,618.6z"></path> </svg> 