<?xml version="1.0" encoding="UTF-8"?> <svg xmlns="http://www.w3.org/2000/svg" xmlns:xlink="http://www.w3.org/1999/xlink" version="1.1" id="Layer_1" x="0px" y="0px" viewBox="0 0 1000 1000" style="enable-background:new 0 0 1000 1000;" xml:space="preserve"> <path style="fill:#FFFFFF;" d="M795,165c0.1-8,0.2-16.2,0.2-24.5v-26.3h-585v26.3c0,9,0.1,17.7,0.3,26.3H52.1v26.3 c0,282.5,235.2,357.7,280.4,369c25.8,28,52.1,48,75.1,65.6c45.1,35.7,67.7,54.6,67.7,95.9v80.9c-43.3,3.8-84.7,20.7-99.7,52.7h-60.2 c-30.1,0-52.7,24.5-52.7,52.7h477.8c0-30.1-24.5-52.7-52.7-52.7h-60.2c-15-32-56.4-47-99.7-52.7v-80.9c1.9-43.3,24.5-62.1,69.6-95.9 c22.7-17.3,48.7-37.3,74.2-64.9c37-8.6,283.2-80.8,283.2-371.5V165H795z M106.7,219.6h105.8c7.6,121.8,33,205.3,65.1,265.3 C209.5,449.5,116.2,373.9,106.7,219.6z M565.7,586.4c-22.6,16.9-45.1,33.9-62.1,56.4c-16.9-22.6-39.5-39.5-62.1-56.4 C370,530,270.3,454.7,264.7,166.9h477.8C736.9,454.7,639.1,530,565.7,586.4z M727.3,484.9c32.5-60.5,58.1-144.6,65.6-267.2h105.7 C889,374.8,795.4,450.4,727.3,484.9z"></path> </svg> 