<?xml version="1.0" encoding="UTF-8"?> <svg xmlns="http://www.w3.org/2000/svg" xmlns:xlink="http://www.w3.org/1999/xlink" version="1.1" id="Layer_1" x="0px" y="0px" viewBox="0 0 1000 1000" style="enable-background:new 0 0 1000 1000;" xml:space="preserve"> <path style="fill:#FFFFFF;" d="M284.6,604.7c8.9,1,17.8,2.1,26.7,3.1c3.6,0.4,7.2,1,10.7,0.8c6.5-0.3,10-2.7,11.4-9 c0.2-0.9,0.9-1.8,1.5-2.9c5.1,3.7,9.9,7.3,14.9,10.7c5.3,3.6,11.5,3.1,15.8-1.5c5.7-6.1,11.3-12.5,17.8-19.7 c0,6.3-0.2,11.5,0.1,16.7c0.1,2.6,0.7,5.4,1.9,7.6c0.8,1.6,2.9,3.1,4.7,3.5c14.8,2.8,29.2-1,43.7-2.7c4.9-0.6,8.4-3.3,9.5-8.1 c1-4.2,2.8-8.8-2.6-12.9c-0.3,3.4-0.7,6.2-0.8,9c-0.2,5.5-2.3,7.8-7.6,8.5c-11.5,1.4-23,2.9-34.6,4.5c-5.3,0.7-10.6-3.4-10.6-8.9 c-0.1-26.5,0-53,0-79.5c0-7.6,0-15.2,0-22.7c-0.4-0.1-0.8-0.2-1.1-0.4c-0.5,1.3-1.4,2.5-1.5,3.8c-0.4,6.7-0.1,13.6-1,20.2 c-1.1,8.6-6.6,15.1-11.8,21.6c-2,2.5-4.3,4.8-7,7.7c2.4,1.7,5,3.7,7.8,5.5c3,1.9,6.1,3.7,9.2,5.5c0.5,0.3,1.1,0.6,1.4,1 c1.6,2.2,0.1,16-1.8,18.1c-5,5.6-10.1,11.1-15,16.8c-5.4,6.2-9.7,6.8-16.6,1.8c-6-4.4-12-8.7-18.5-13.4c-0.2,1.4-0.4,2.5-0.4,3.5 c-0.2,10-4.9,13.8-14.6,12.2c-7.3-1.2-14.8-1.8-22.2-2.7c-2.7-0.3-5.7,0-7.9-1.2c-2.2-1.2-4.4-3.6-5.2-5.9c-1.1-3.2-1-6.8-1.1-10.2 c-0.4-14.8-0.7-29.6-0.9-44.4c-0.3-16-0.5-32-1-48c-0.1-2.8-1.1-5.5-1.8-8.2c-0.6,0.1-1.2,0.2-1.8,0.3c0,4.7,0.3,9.5-0.1,14.2 c-1,11.4-2.3,22.9-3.5,34.3c-0.7,6.8-1.3,13.7-1.9,20.5c-0.9,9.5-1.6,19.1-2.9,28.5c-1,7.4-3.2,9.7-10.6,10.8 c-9.3,1.4-18.7,2.2-28.1,2.8c-3,0.2-6.2-0.9-9.8-1.5c-2.4,6.5-9.1,5.7-14.8,6c-8.3,0.5-16.7,0.2-25,0.1c-7.1,0-10.5-3.7-10.8-10.7 c-0.5-12.5-1.2-24.9-1.8-37.4c-0.6-11.1-1.2-22.2-1.8-33.3c-0.6-11.5-1-23.1-1.9-34.6c-0.7-9.6,5-11.4,11.9-12.1 c12-1.3,24.1-2.4,36.1-3.6c4.8-0.5,9.5,3.2,9.3,8.1c-0.6,9.7-1.7,19.3-2.6,29c-0.3,3.7-0.8,7.4-0.9,11.2c0,1,1.4,1.9,2.2,2.9 c0.4-0.2,0.8-0.5,1.1-0.7c0-0.7,0.1-1.5,0.1-2.2c0.3-12.4,0.4-24.7,1-37.1c0.4-7.4,3.2-9.6,11.4-10.2c9.2-0.7,18.4-0.7,27.6-1 c4.4-0.2,8.8-0.5,13.6-0.8c-1.5,5.5-2.1,10,1.7,13.5c1.1,1,3.1,1.3,4.7,1.3c4.2,0,8.5-0.2,12.7-0.6c3.2-0.3,6.4-1.5,9.6-1.5 c2.3,0,4.5,1.3,6.5,2.5c-6.3,0.4-12.5,0.6-18.7,1.2c-1,0.1-2.5,2.2-2.5,3.3c0,6,0.5,12,0.7,18c0.1,2.9,0,5.8,0,8.6 c0.3,22.5,0.5,45,1,67.5c0.1,3,1.3,6,2.2,9.8c8.7,0.8,17.7,1.6,26.7,2.6c3.8,0.4,4.7-1.6,4.6-4.8c0-4.2-0.1-8.5,0-12.7 c0-1.4,0.4-2.8,0.8-5.3c6.7,4.6,12.7,8.6,18.6,12.7c3.4,2.4,6.8,4.8,10.2,7.2c3,2.2,6.2,2.3,8.6-0.6c4.2-5,8-10.3,12-15.4 c0.9-1.1,2.2-1.9,3.9-3.3c-4.4-3-9.2-6.4-14.1-9.7c-3.3-2.2-6.7-4.3-10.2-6.4c-2.4-1.4-2.4-2.8-0.2-4.5c11.4-9,20.1-20,24-34.2 c0.9-3.2,0.9-6.7,1.2-9.7c-7-1-13.1-1.8-19.2-2.7c0-0.6,0-1.1,0-1.7c1-0.3,2-0.9,2.9-0.9c6.7,0.4,12.8-1.3,19-4.1 c5.7-2.5,11.8-4.2,18.7-2.7c4,0.9,8.6-1.3,13.3-2.1c-0.9,4.5-5.2,4.2-7.6,5.6c-1.9-0.8-3.5-1.4-5-2.1c-0.8,1.9-1.6,3.7-2.3,5.6 c-0.1,0.1,0,0.3,0,0.5c-0.3,28.1-0.6,56.2-0.9,84.4c0,3.6,0.8,7.1,0.8,10.7c0,3,1.7,3.6,4.1,3.3c10-1.2,20.1-2.4,30.6-3.7 c0.6-9.5,1.3-18.7,1.8-28c0.7-14.1,1.2-28.2,1.9-42.4c0.6-11.9,1.2-23.7,1.8-35.6c0.1-1.5,0.4-2.9,0.7-5.2 c-6.2,0.8-12.2,1.7-18.3,2.5c-0.2-0.3-0.4-0.5-0.6-0.8c7.6-4.1,15.2-8.4,23-12.1c1.4-0.6,3.9,1.2,5.9,1.9c-1,1.5-2.3,2.6-2,3.1 c2.7,5.9,0.8,11.6-0.4,17.5c-2.9,14.9-0.9,28.5,10,38.7c-2.8,5.5-5.3,10.6-8.2,16.3c-0.1-9.3,3.1-18.4-1.6-26.9 c-0.4,1.3-1,2.7-1.1,4.1c-0.4,8.4-0.5,16.9-1,25.3c-0.4,5.6-0.3,11.2-2.5,16.7c-3.1,7.5-0.7,14.5,7.8,18 c15.6,6.4,31.6,10.3,48.5,8.6c15.1-1.6,29.6-6,40.9-16.8c7.9-7.6,13-17.1,13.6-28.2c0.4-7.4-0.4-14.9-0.7-22.7c1.4,0,3.5,0,5.5,0 c0,11.4,0,22.8,0,34.2c0,2.9,0,5.8-0.1,8.6c-0.2,7.5-0.4,15.1-0.6,22.6c-0.2,8.3,8.1,14,17.2,12.5c9.1-1.5,18.3-2.4,27.5-3.6 c3.1-0.4,6.3-0.5,9.3-1.2c5.7-1.4,9.3-5,10.1-11.4c7.9,5.1,15.7,9.6,22.8,15c7.3,5.6,15.8,5.2,24.2,6.4c-1.4-1.6-2.7-3.2-3.6-4.3 c2.8-7.8,5.4-15,8.3-22.9c3.1,4.8,6,9.2,8.8,13.5c5.3,8.1,15.5,8.1,20.9,0c2-3.1,3.9-6.2,6.2-9.9c2.3,6.6,4.3,12.5,6.4,18.5 c2.2,6.5,2.2,6.6,9.6,6c-5.9-1.8-6-7.3-7.6-11.7c-2.5-7.1-4.8-14.2-7.4-22.1c-3.5,5.8-6.5,10.8-9.4,15.9c-4.2,7.4-11.1,7.7-15.8,0.6 c-4.1-6.2-8.1-12.4-12.8-19.5c-2.4,7.3-4.2,13.7-6.7,19.9c-1.3,3.4-3.1,7-5.7,9.5c-2.5,2.5-6,1.7-9.1-0.3 c-8.8-5.5-17.7-10.9-26.5-16.4c-1-0.6-2.2-1.9-2.2-2.9c-0.1-21.3-0.1-42.7-0.1-63.9c2.6-0.5,5-0.9,7.2-1.4c5.5-1.3,8.4-4.6,9.3-10.5 c1.1-6.5,3.4-12.8,5.1-18.9c-8,1.3-7,7.9-8,13.6c-1.5,8.5-0.4,12.1-12,13.1c-1.7,0.1-3.4,0.8-5.3,1.3c0,19.8,0.1,39.5,0,59.1 c0,4.5-0.4,9-0.9,13.4c-0.4,4-4.2,6.3-9.6,7c-11.7,1.3-23.4,2.8-35,4.5c-6,0.8-10.9-2.9-10.8-8.9c0.2-21.3,0.6-42.6,0.9-63.9 c0-1,0.5-2,0.7-3c0.5-2.4-0.6-3.5-3-3.2c-1.9,0.2-3.8,0.7-5.7,0.7c-4.7,0.1-9.2-4.3-9.3-9.2c-0.1-2.3,0-4.5,0-6.8c0-2.2,0-4.5,0-6.7 c-0.3-0.1-0.6-0.1-0.9-0.2c-1,3.6-2.1,7.1-3.1,10.8c-0.8-0.4-1.6-0.7-2.2-1c1.7-5.3,4.7-10.1,2.3-16.9c-2.5,6.4-4.6,11.8-6.9,17.6 c10.5,6.6,15.3,17.9,16.1,30.6c0.6,10.4-2.6,20.2-9,28.8c-8.2,11.1-19.8,16.4-32.7,19.3c-20.6,4.7-40.3,1.2-59.1-8 c-4.1-2-5.3-5.4-4.1-9.1c3.2-10.4,6.5-20.9,10.7-31c1.2-2.9,5.4-4.5,8.2-6.6c-5.6-5.1-12.1-10.9-14-20.2 c-2.5-12.3-0.5-23.7,5.7-34.5c0.9-1.6,3-2.9,0.2-4.7c-0.4-0.2,0.8-2.8,1.3-4.3c-11.6-2.1-11.6-2.1-12.1-5.8 c5.2,1.5,9.9,2.9,14.6,4.3c4.3,1.2,8.5,3,12.8,3.4c3.4,0.4,7.2-1.9,10.4-1.2c5.9,1.2,11.7,3.3,17.2,5.8c5.4,2.5,10.7,4.3,16.7,4.1 c2.9-0.1,5.9,1.5,8.8,2.6c4.7,1.7,9.4,3.5,13.9,5.5c4.9,2.1,9.8,4.5,14.6,6.8c-0.1,4.4-0.5,8.8-0.3,13.1c0,0.9,1.7,2.5,2.7,2.6 c3,0.2,6.1,0.2,9-0.4c5.2-1,7.1,0.5,6.4,5.7c-0.7,4.9-1.6,9.7-1.7,14.6c-0.5,16.6-0.8,33.2-0.9,49.8c-0.1,8.5,0.5,8.8,8.8,7.7 c0.4-0.1,0.9,0,1.4,0c8.3-0.9,16.6-1.8,24.9-2.9c1.1-0.1,2.8-1.5,3-2.5c0.6-3.7,1-7.4,1-11.1c0.1-18.6,0-37.3,0-55.9c0-3,0-6,0-9.1 c5.2-1.1,10.2-2.1,16-3.3c-1.9-1.1-2.9-1.8-3.9-2.3c-6.9-3-14-5.7-20.6-9.1c-5.4-2.8-10.1-2.6-15.5-0.1c-8.5,4-17.3,7.2-25.4,10.5 c-2-3.1-3.4-5.2-4.7-7.3c6.1,1.9,12.1,2.2,17.6-1.7c0.4-0.2,0.8-0.6,1.2-0.5c6.2,1.2,10.4-2.3,14.6-6c2.9-2.6,7.2-1.9,10,1.2 c3.7,4,8.4,5.4,13.6,5.7c1.6,0.1,3.2,0.5,4.9,0.6c4.2,0.3,7.9,0.1,12-2.1c9.4-5,16.9-11.4,21.3-21.2c0.7-1.4,2.5-2.5,4-3.4 c1.9-1.1,4-1.8,6-2.6c3.9-1.6,6.5,0.7,9.2,2.9c1.6,1.3,3.2,2.5,4.4,3.5c0,1.4-0.6,3.3,0.1,4.2c6.5,8.5,13.2,16.9,20.3,25.8 c7.9-8.4,15.3-16.5,23.2-24.2c2.5-2.4,6.1-4.3,9.5-5.2c3.8-1.1,6.6,1.5,7.9,5.1c7.1,19.5,14.1,39,21.1,58.4 c4.3,11.8,8.3,23.7,12.8,35.5c1.7,4.3,0.1,7.6-2.7,10c-10.8,9.1-22,17.9-33,26.7c-0.8,0.6-1.8,1-3.2,1.8c6.4,0.5,12.3,0.5,18,1.6 c2.6,0.5,5.8,2.4,7,4.6c2.6,4.7,3.9,9.9,2.4,15.5c-0.5,2-0.3,4.2-0.3,6.3c-0.3,11.8-0.7,23.5-1,35.3c-0.1,3,0.7,6.3-0.1,9.1 c-3.1,11.3-2.7,22.7-2.9,34.2c-0.1,7.9-0.9,15.8-1.7,23.7c-0.5,4.8-4.2,6.4-8.3,6.5c-11.5,0.2-23.1,0.7-34.6-0.1 c-8.3-0.6-11.7-3-11.7-11.9c0-9,0.5-18.1,0.8-27.1c0-1.4,0-2.9,0-4.3c-0.5-0.1-1-0.2-1.5-0.3c-0.4,0.9-1.2,1.9-1.2,2.8 c-0.2,3.2,0,6.4-0.1,9.5c-0.3,7.7-0.5,15.3-0.9,23c-0.2,4.4-4.2,7.6-10,7.5c-12.1-0.1-24.2-0.5-36.2-0.9c-4.8-0.2-7.5-3.4-8.8-10.1 c-2.7,1.9-5.2,4-8,5.6c-12.8,6.9-26.5,8.7-40.8,6.4c-8.2-1.3-16.3-3-24.5-4.5c-0.8-0.2-2.1-0.5-2.3-1c-1.9-4.4-5.7-3.5-9.2-3.5 c-8.5,0-17-0.3-25.5,0.1c-5.2,0.3-8-2.4-9.3-6.6c-0.9-3-2.3-3.6-5.1-3.5c-5.2,0.2-10.3,0.2-15.5,0c-2.8-0.2-4.3,1.1-5,3.4 c-1.4,4.8-4.4,6.9-9.5,6.7c-7.9-0.2-15.8,0-23.7-0.1c-2.4,0-3.9,0.2-5.4,2.7c-1.1,1.8-4,3.4-6.1,3.5c-13,0.6-26,0.8-39,1.1 c-5.3,0.1-10.3-0.6-13.8-6c-2.6,5.2-6.9,6.1-11.8,6c-11.2-0.2-22.5-0.1-33.7,0c-4.5,0-7.3-1.9-8.7-6c-14.1,6.8-28.9,11.4-44.7,10.4 c-19.7-1.2-37.5-7.6-50.8-22.8c-10.6-12-16.5-26.4-16.9-42.6c0-1.1-0.2-2.2-1-3.5c-0.3,0.7-0.6,1.4-0.7,2.1 c-0.2,0.8-0.2,1.7-0.2,2.5c-0.5-0.1-1-0.1-1.6-0.2c0.9-8.3,1.1-16.8,3-24.8c2.8-11.9,8.5-22.7,17.3-31.4 c9.8-9.8,21.4-16.6,35.1-19.7C287,612.8,287.5,612.2,284.6,604.7L284.6,604.7z M723.9,485.6c-11.1,11.5-22,22.8-33,34.1 c-11.5-14.3-22.7-28.3-34.6-43.2c-11.6,34.1-22.8,66.9-34,99.8c0.5,0.3,1,0.5,1.5,0.8c1.7-1.1,3.4-2.2,5.5-3.6 c3.4,11.2,10.9,18.7,22.7,22.5c0.8-1.5,2.1-3.1,2.8-5c3.4-9.1,6.6-18.3,10-27.5c0.6-1.5,1.6-2.8,2.7-4.6c7.8,11.1,15,21.4,22.6,32.2 c5.7-9.1,10.9-17.7,16.3-26.2c0.6-1,1.8-1.7,2.7-2.5c0.7,1,1.7,1.9,2.1,2.9c3.1,8.2,6,16.4,9.1,24.6c1.6,4.4,3.4,8.8,5.1,13.1 c0.8-0.2,1.1-0.1,1.3-0.3c9-7.1,17.9-14.4,27.2-21.1c3.3-2.4,3.5-4.5,2.3-7.7c-5.3-14.4-10.6-28.9-15.8-43.3 C734.8,515.8,729.4,500.9,723.9,485.6z M705.2,665.7c-7.8,0-14.4,0-21,0c0-13,0-25.7,0-39.1c-12.1,0-24.4,0-37.7,0 c0,14.1,0,28.1,0,42.1c0,13.6,0,27.3,0,40.9c0,1.4-0.2,2.7-0.2,4.1c0,7.6,0.2,15.2,0.2,22.8c0,2.8,1.6,3.1,3.8,3.1 c4.1,0,8.2-0.2,12.2,0.3c6.3,0.8,12.4,1.1,18.6-0.9c0.6-13.4,1.2-26.6,1.8-40.3c6.8,0,13.2-0.2,19.7,0.2c0.8,0.1,1.9,3.2,2,5 c0.2,2.3-0.6,4.7-0.7,7.1c-0.1,5-0.1,10,0,15c0,4.7,0.1,9.5,0.1,14.8c12.3,0,23.2,0,34.7,0c0.5-6.4,1.4-13.1,1.6-19.8 c0.5-19.2,0.6-38.3,1-57.5c0.3-11.6-1.2-23.4,1.3-35.8c-12.2,0-24.3,0-37.3,0C705.2,640,705.2,652.8,705.2,665.7z M443.8,738.7 c-1-2.1-1.5-3.6-2.3-5c-5.2-9-10.2-18.1-15.9-26.8c-2.8-4.3-1.2-6.5,1.5-9.6c10.3-11.9,13.2-25.7,9.3-40.8 c-3.6-13.8-13.1-22.1-26.2-27c-9.2-3.4-18.7-3.7-28.3-3.6c-11.8,0.1-23.6,0-36,0c0.4,6,1.1,11.5,1.1,17c0.1,23.8-0.1,47.5,0.1,71.3 c0.1,7.3,1.3,14.6,1.7,21.9c0.2,2.9,1.4,3.5,4,3.5c8.8-0.1,17.6-0.2,26.4,0c3.5,0.1,4.3-1.2,4.4-4.5c0.1-7.4,0.7-14.8,1.2-23.1 c1.4,1.7,2.5,2.7,3.2,3.9c4,6.1,8,12.1,11.9,18.3c1.9,3.1,4.2,4.8,8.3,4.5c5.3-0.4,10.6-0.1,15.8-0.1 C430.3,738.7,436.7,738.7,443.8,738.7z M266.9,476.4c-0.9-0.1-2.3-0.4-3.7-0.4c-10.2,0.5-20.4,1.4-30.6,1.7c-3.6,0.1-5,0.9-5,4.9 c-0.1,14.2-0.5,28.4-0.8,42.5c0,0.6-0.3,1.1-0.4,1.7c-6.1,0.6-12,1.3-17.9,1.9c-2.6,0.3-3.3-1.2-3.1-3.5c0.8-9.7,1.5-19.4,2.4-29 c0.5-6.1,1.2-12.1,1.8-18.7c-13.1,1.1-26.5,2.3-40.3,3.5c0.7,9.8,1.5,19.4,2,28.9c0.7,13.4,1.3,26.7,1.8,40.1 c0.4,9.9,0.6,19.9,1,29.8c0.3,8.4,2,9.9,10.4,9.9c1.2,0,2.4,0,3.6,0c6.8,0,13.5,0,20.5,0c0.7-8.6,1.5-16.7,1.8-24.7 c0.3-6.7,0.1-6.8,6.5-7.9c2.2-0.4,4.5-1.1,6.6-0.8c1.2,0.1,3.1,1.9,3.1,3c0,3.1-1.2,6.1-1.3,9.2c-0.2,5.6,0.1,11.1,0.2,17.4 c8.9-1.1,16.5-1.9,24-2.9c2.7-0.4,5.9-0.5,6.4-4.2c1-7.8,1.9-15.7,2.8-23.5c0.7-7,1.2-14,1.9-21c1.4-12.7,3-25.4,4.4-38.2 C265.8,489.6,266.3,483.3,266.9,476.4z M446.7,732.3c11.1,0,21.2-0.1,31.3,0.1c2.7,0,4-0.8,4.7-3.5c1.2-4.8,4.2-7,9.5-6.7 c8.2,0.4,16.4,0.2,24.6,0.1c3.7-0.1,6.2,0.7,7.2,4.9c0.5,1.9,2.7,4.8,4.2,4.9c10.5,0.4,21.1,0.2,32.4,0.2 c-14.5-38.2-28.8-75.7-43.2-113.6c-5,0-10.3,0-15.6,0c-12.5,0-12.2,0.1-16.5,11.8c-7.2,19.4-14.7,38.7-22.1,58 C457.8,702.9,452.4,717.3,446.7,732.3z M336.7,635.4c-0.1-0.1-0.5-0.7-0.9-1c-17-9.1-34.9-12.8-53.9-8.4 c-18.1,4.2-32.1,14.3-40.1,31.2c-7.4,15.7-8.5,31.7-1.6,48.4c5.9,14.4,15.1,25.3,29,31.8c11,5.2,22.7,7.1,35.1,6 c13.4-1.2,25.4-5.4,36.5-13.2c-3-5.2-5.9-10.2-8.8-15.2c-3-5-6-10-9-15c-7.3,5.9-15.2,8.8-24.8,8.9c-14.5,0.2-24.9-11.2-25.6-24.7 c-0.8-16.8,14.4-26.4,28.7-25.3c6.1,0.5,12,3,18.9,4.9C325.3,654.9,331,645.3,336.7,635.4z M628,624.5c-10.1-0.4-20.3-1.6-30.4-1 c-10.5,0.7-20.1,4.8-26,14.3c-4.8,7.7-7.5,16.5-4,25.1c2.8,6.8,7.6,13.1,12.5,18.8c4.8,5.5,10.8,9.9,16.3,14.8 c2.7,2.4,3.6,5.4,2.1,8.9c-1.4,3.4-4.2,3.6-7.1,3.4c-8.3-0.8-16.5-1.8-25-2.7c0,8.4-0.2,17.5,0.2,26.6c0.1,2.1,1.8,5.5,3.3,5.9 c14.1,3.3,28.4,5.8,42.9,2.1c21.3-5.4,28.4-23.1,26.1-41c-1.1-8-5.6-15.4-11.5-21.2c-5-4.9-10.6-9.3-15.8-14.1 c-4.5-4.2-4-6.7,1.9-8.2c4.1-1,8.5-1,13.1-1.5C627,645,627.5,635.4,628,624.5z M451.7,576.3c0.5,0.6,0.8,1,1.2,1.2 c20,9.6,40.6,11.8,61.4,3.6c17.3-6.8,27.6-22.2,23.8-42.4c-2.3-12.4-12-18.9-22.7-23.3c-7.2-2.9-15.2-3.7-22.7-5.8 c-2-0.5-4.6-2.1-5-3.6c-0.4-1.4,1.8-3.6,3.1-5.3c0.5-0.6,1.6-0.8,2.4-1c8.2-1.9,16.3-1.3,24.3,1.4c2.8,0.9,5.7,1.7,8.6,2.5 c1.2-5.4-2.2-7.7-5.2-9.2c-4.8-2.4-10.1-3.8-15.2-5.6c-6.4-2.3-12.7-4.8-19.2-6.7c-3.9-1.2-8-2-12.1-2.2c-2.3-0.1-5.1,0.8-6.9,2.2 c-2.6,2-4.7,4.6-6.6,7.3c-5.1,7.5-7.5,16.2-4.8,24.7c3.7,11.7,12.7,19.4,24.2,23.8c5.2,2,10.7,3.6,15.8,5.9c1.7,0.8,3.8,3.2,3.7,4.8 c-0.1,1.9-2.1,4.8-3.8,5.3c-4.2,1.2-8.8,2.4-13,1.6c-7.3-1.3-14.4-3.9-22-6.1C457.9,558,454.8,567.2,451.7,576.3z M337.8,656.1 c-0.2-0.1-0.4-0.2-0.7-0.2c-1.3,2.5-2.5,5-3.8,7.4c-1.4,2.6-3,5.1-4.4,7.7c-2.9,5.7-9.7,8.3-14.5,4.5c-5.7-4.5-11.8-5.2-18.5-4.9 c-6.5,0.3-10.5,4-12.8,9.6c-2,5.1-1,9.7,2.4,14.2c5.9,7.7,22.2,7,29.9-0.1c5.1-4.7,12.5-3.5,15.9,2.3c1.9,3.2,3.9,6.4,6.3,10.5 C337.8,689.3,337.8,672.7,337.8,656.1z M454.8,677.6c3.8-10.7,7.2-20.3,10.6-29.8c1.3-3.8-0.4-5.9-4.4-5.9 c-5.4,0.1-10.4,1.1-14.6,5.6C449,657,451.7,666.7,454.8,677.6z M537.8,637.1c3,8.7,6.2,17.7,9.6,27.4c2.1-6.5,4-11.8,5.6-17.3 c0.4-1.4,0.3-4-0.6-4.7C548.2,639.6,544.9,634.1,537.8,637.1z M557.2,654.1c-1.4,1.6-2.5,2.2-2.5,2.8c1.6,15.3,8,28.2,19.2,37.9 c-4.8,0-10,0-15.7,0c-2.5-6.4-5.3-13.9-8.2-21.3c-0.5,0.2-1,0.4-1.5,0.6c3.1,8.8,6.3,17.6,9.5,26.5c8.1-9.1,16.3-0.1,24.8-1.5 C568.4,687.9,557,674.9,557.2,654.1z M442.6,718.1c4.7-12.6,9.3-24.8,13.8-37.1c-0.6-0.2-1.1-0.4-1.7-0.7 c-4.1,10.3-8.1,20.6-12.2,31c-4.6-4.1-4.9-5.8-1.7-10.4c0.7-1,1.4-1.9,2-2.9c3.9-5.8,6.6-15.9,5.5-20.7c-0.4,0.3-0.9,0.6-1,0.9 c-1.6,9.1-4.8,17.3-10.8,24.5c-0.8,0.9-0.8,3.2-0.2,4.3C438.1,710.7,440.2,714,442.6,718.1z M691.8,616.8c-0.8-2.3-1.4-4.3-2.1-6.4 c-3.2,1.3-6.3,2.5-10,4.1C684.2,615.3,687.8,616,691.8,616.8z M624.8,540.5c1.8-5.1,3.2-8.9,4.6-12.8 C626.9,531.2,622.9,534.2,624.8,540.5z"></path> <path style="fill:#FFFFFF;" d="M330.7,283.4c2.5,3.2,5,6.5,7.5,9.7c5.3,6.5,12.1,10.8,18.9,12.9c0.3-0.9,0.3-2.2,0.9-2.6 c4-2.6,8.2-5,12.3-7.6c0.7-0.5,1.1-1.7,1.3-2.6c0.4-2.3,0.5-4.5,0.8-6.9c-0.1,0-0.8,0.1-2.5,0.2c1.9-1.6,3-2.4,3.6-2.9 c-0.8-7.1-1.6-13.9-2.4-20.9c-0.6,0.1-1.5,0.3-3.7,0.7c14.2-16.2,29-30,47.8-39.5c-1.8-3.9,0.4-5,4-6.1c10.6-3.3,20.9-7.4,31.5-10.6 c10.4-3.2,21.1-5.8,31.7-8.7c-0.9-2.2-2.1-5.2-3.3-8.1c0.3-0.1,0.6-0.3,0.8-0.4c2.4,4.1,5,8,7.3,12.2c1.6,3,3.6,3.7,6.6,2.6 c1.2-0.4,2.7-0.5,4-0.4c16.2,1,32.6,1.1,48.5,5.3c7.2,1.9,14.5,3.1,21.7,4.8c1,0.2,2.1,0.6,2.8,1.3c3.3,3.4,6.4,7,9.6,10.5 c-0.3,0.3-0.6,0.7-0.9,1c-1.1-0.9-2.5-1.7-3.3-2.8c-5.3-6.9-13.1-8.5-20.8-9.9c-7.9-1.5-15.8-2.3-23.8-2.9 c-5.9-0.4-11.9-0.1-17.7,0.5c-6.9,0.7-13.8,2.4-20.7,3c-3.1,0.3-6.4-1.2-9.6-1.7c-1.9-0.3-3.8-0.4-6.7-0.6c1.7,2.7,2.7,4.3,3.8,5.9 c-21.5-2.8-42.8-5-64.7,1.9c1.7,1.5,2.7,2.5,3.8,3.5c-9.3,6.9-19.5,13.1-25.1,24.6c1.1,0.1,1.9,0.2,2.7,0.1c0.7-0.1,1.3-0.5,2.7-1.1 c-2.5,7.6-4.9,14.6-7.4,22.1c-2.1-1.1-4.6-2.3-7.1-3.6c0.1-0.3,0.1-0.7,0.2-1c0.9-0.1,1.9-0.2,2.5-0.2c1.4-7.2-4.8-15.3,3.1-22.1 c-1,0.5-2.1,0.9-2.8,1.6c-5,5.2-10.5,10.1-14.7,15.9c-1.6,2.3-0.9,6.9-0.2,10.2c0.7,3.1,3,5.8,4.2,8.8c0.5,1.2-0.3,3,0.3,4.2 c3.6,7.1,9.1,12,16.7,14.5c0.7,0.2,1.4,0.6,2,0.9c0.2,0.1,0.4,0.4,0.9,1.1c-2.4-0.3-4.4-0.5-7.3-0.8c17.9,17.8,37.5,29.6,63.7,25.2 c0,0.4,0.1,0.9,0.1,1.3c-5.6,0.9-11.3,1.7-17.6,2.7c8.9,0.8,17.2,1.6,25.5,2.3c4.8,0.4,9.6,0.4,14.4,1c5.4,0.6,10.2-0.6,14.8-3.5 c0.8-0.5,1.8-0.7,3.2-0.5c-1.9,1.7-3.9,3.4-6,5.3c0.4,0.2,0.8,0.4,1.1,0.4c10.9-3.3,21.8-6.5,32.6-10c2.6-0.8,4.8-2.8,7.3-4.2 c0.8-0.5,2-0.4,2-1c3.3-2,6.6-4.1,9.7-6c0.3,0.5,1.2,2,2.1,3.5c0.6-0.6,1.1-1,2.1-1.8c0.6,3,1.1,5.4,1.5,7.1c0.7-1,1.7-2.5,2.8-4 c0.2,0.7,0.4,1.3,0.6,2c1.9,1.5,3.7,3,5.6,4.4c3.9,2.8,9,1.2,13.2,3.5c2.5,1.3,5.7,1.4,9.5,2.3c-3.6-2.7-6.3-4.7-9.1-6.8 c0.1-0.4,0.3-0.8,0.4-1.3c19.9,12.8,40.3,12.1,61.6,3c-3.5-1.7-6.3-3-9.1-4.4c16.1,0.9,16.2,0.8,22.6-12.7c-1.9,0.7-3.4,1.2-4.9,1.7 c7.7-5.1,7.1-13,6.9-20.7c3.5,14-2.5,27-11.2,36c3.1,5,6.4,10.1,9.3,15.4c7.4,13.6,13.8,27.7,12.6,43.7c-0.6,7.3-2.6,14.6-4.7,21.6 c-1.8,6-2.8,6.2-8.8,3.8c-2.8,7.5-5.5,14.9-8.3,22.4c-1.4,3.6-3.8,4.8-7.8,3.9c-5.1-1.2-10.4-1.5-16-2.3c1-1.1,1.6-2.4,2.4-2.5 c7.6-1.2,12-6.6,16.4-12c2.4-3,5-5.9,7.1-9.1c1.1-1.6,1.5-3.8,1.7-5.8c0.3-3,0.1-6,0.8-9.4c1.7,3.7,3.4,7.4,5.1,11 c8.4-1.8,8.2-8.9,9.5-14.5c3.3-13.9,0-26.9-6.3-39.3c-4.3-8.5-9.1-16.8-13.5-24.9c-7.2,2.4-13.4,5-19.9,6.5 c-18.9,4.5-37.9,4.9-56.8,0.3c-2-0.5-4.1-0.8-6.1-1.4c-5.9-1.6-12-5-17.6-4.4c-5.6,0.6-10.5,6.1-16.2,7.8 c-10.8,3.1-21.8,5.5-32.9,7.3c-6.2,1-12.9,1.1-19.1,0c-8.7-1.5-17.3-3.8-25.6-6.9c-18.2-6.6-33.9-17.2-47.5-31c-2-2-4.4-3.6-6.9-5.7 c-7.4,3.6-13.2,9.5-18.7,15.6c-8.1,9.2-13.9,20-18.6,31.3c-4.7,11.3-5.1,23-2.6,34.8c0.5,2.2,1.2,4.3,1.4,6.4 c0.7,5.7,7.2,6.1,9.3,10.6c0.4,0.8,1.5,1.2,1.8,2c2.9,7.2,9.7,9.1,15.8,11.9c4.4,2.1,5.7,1.3,6.8-3.4c0.2-0.8,0.6-1.6,1.1-3.1 c0.9,1.3,1.5,2,1.9,2.8c2.7,5.6,6.8,8.7,13,10.4c5.9,1.6,11.3,5.3,17,7.8c8.1,3.7,16.3,7.2,25.5,11.3c-8.8,0-16.6,0-24.4,0 c-8.4,0-16.9,0-25.3,0.1c-1.3,0-3.2,0.5-4-0.2c-4.7-4.2-9.3-2.1-12.9-0.5c-4.6-3.6-8.7-6.8-12.6-9.8c-3.4,8.1-7.3,17.2-11.1,26.4 c-1,2.4-1.9,3.3-4.9,2.5c-3.6-0.9-7.5-0.1-11.3-0.6c-1.7-0.2-4.1-1.3-4.6-2.6c-6-16-15.4-30-24.8-44.1c-6.4-9.6-12.7-19.4-19.2-28.9 c-1.4-2-0.2-3.5-0.2-5.3c0.1-3.3-1.3-6.6-2.1-9.9c-0.2-1-0.3-2-0.4-3.1c3.9-1.2,4.7,0.9,4.7,3.9c3.4-1.6,2.8-2.9-3-7 c0.8-1.6,1.7-3.2,2.7-5.2c-1.1-0.7-2.4-1.5-3.8-2.3c-0.9,1.1-1.6,2-3.1,3.8c-0.5-2.2-1.2-3.6-1.1-5c0.1-1,1.2-2,1.9-2.8 c0.7-0.9,1.6-1.6,2.5-2.4c-1-0.8-2.1-1.6-3.5-2.6c3.3-6-0.4-15.3,9.7-20c-2.8-0.6-4-0.9-4.9-1.1c0-4.1,0-8,0-11.1 c2.8-0.7,5.7-1.2,8.4-2.2c0.3-0.1-0.5-3-0.7-4.7c-0.4,0.1-0.8,0.1-1.2,0.2c-0.6,1.6-1.1,3.2-1.7,4.9c-0.3,0-0.5,0-0.8,0 c-0.4-2-0.7-4-1.1-6c3.1-0.9,6.2-1.4,4.9-5.8c-0.7-2.6,1.2-3.4,3.6-3.1l-0.1-0.1c-0.2,0.7-0.4,1.4-0.6,2.1c-2,7.6-1.5,9.2,4.1,12.3 c-0.6-2.4-1.1-4.6-1.6-6.8c0.4-0.2,0.9-0.4,1.3-0.6c3.7,9.8,5.5,20.4,14.3,27.7c9.7,8,20.2,12.8,29.6,11.1c-1.5-1-2.8-1.8-4.6-3 c1.9-1.1,3.5-2.1,5.2-2.9c6.6-3.1,12.3-7.2,12.6-15.2c0.1-2.6-0.5-6-2.1-7.6c-4.1-4-9.6-6.6-13.5-10.9 C336.7,294.1,334,288.5,330.7,283.4z M293.1,329.2c-0.5-4.3-0.9-7.7-1.2-11.1c-0.6,0.1-1.3,0.1-1.9,0.2 C292.2,321.6,285.3,325.6,293.1,329.2z M295.5,306.3c-0.7,1.9-1.5,4-2.5,6.5c2.7-1.3,4.6-2.2,5.4-2.6 C297.5,309.1,296.6,307.9,295.5,306.3z"></path> <path style="fill:#FFFFFF;" d="M132.5,522.9c-5.3,3.9-10.2,7.6-15.3,11.2c-5.6,3.9-12,5.5-18.7,4.4c-2.7-0.4-5.7-2.3-7.5-4.4 c-8.1-9.4-8.8-23.4-1.7-33.8c2.1-3.2,4.5-6.5,7.5-8.8c6.7-5,14-3.3,20.6,0.3c4.2,2.2,7.8,5.5,12.2,8.7c9.2-10.9,18.5-22,27.9-33.2 c-10.4-13.9-24.1-23-41.1-26.4c-17-3.4-32.8,0.2-46.6,11.3c-17,13.8-26.7,32.1-32.3,52.7c-5.4,20.1-0.4,38.4,11.6,54.8 c11.3,15.4,26.4,23.9,46,24.5c20.9,0.6,39.7-5,57-16.5c3-2,5.6-4.4,9.1-7.1c0,4.3,1,8.7-0.3,12.2c-1,2.7-4.6,4.9-7.4,6.5 c-14.5,8.2-29.9,13.1-46.5,15c-12.9,1.5-25-0.8-36.8-5.1c-5.9-2.1-11.2-6.2-16.2-10.1c-10.3-8.1-17.7-18.4-22.1-30.8 c-4.7-13.2-6-26.7-3.2-40.5c3.5-17.4,10.4-33.3,21.5-47.4c12.4-15.8,27.8-26.4,48.6-28.3c20.8-2,38.2,5,53.7,18.2 c4.4,3.8,8.4,8.1,12.4,12.3c3,3.3,2.4,5.2-1.2,8c-2,1.5-4.3,3.6-4.7,5.8c-1.2,5.5-3.8,9.7-7.5,13.8c-5.2,5.7-9.8,12-14.8,17.9 c-6.1,7.2-10.8,3.9-15.3-0.2c-3.9-3.6-7.4-7.7-12.9-9c-3.9-0.9-7.2-0.4-9.1,3.5c-2.1,4.2-4.5,8.4-6,12.8c-1.7,5.2,0.5,10.3,4.3,13.3 c2.3,1.8,7.5,2,10.4,0.6c5.8-2.7,11.2-6.6,16.3-10.7c6.2-5,10.4-5.2,15.9,0.5c6.2,6.4,12.3,12.9,18.4,19.3c0.8,0.8,1.6,2,1.6,3 c0.2,3.4,0.1,6.8,0.1,10.9C150.8,542.2,141.7,532.6,132.5,522.9z"></path> <path style="fill:#FFFFFF;" d="M692.6,747.6c4,6.6,10.3,6.6,16.8,6.6c10.6-0.1,21.1,0,31.7,0c0.1,0.5,0.3,1,0.4,1.5 c-1.5,1-2.8,2.5-4.4,3c-8.2,2.3-16.3,5.3-24.7,6.3c-9.1,1.1-18.5,0.2-27.7,0c-2.5-0.1-5.4-0.3-7.4-1.6c-3.6-2.3-6.7-1.7-10.1-0.1 c-1.2,0.6-2.6,0.9-3.9,0.8c-11.2-0.2-22.4-0.1-33.6-1c-3.8-0.3-7.4-2.9-12.1-4.9c-16.9,10-36.4,9.2-56.1,4.6 c-4-0.9-7.7-3.1-11.5-4.5c-1.4-0.5-2.9-0.5-4.4-0.6c-8.6-0.3-17.3-0.1-25.8-1.1c-3-0.3-6.3-2.9-8.2-5.4c-1.9-2.4-3.6-3.7-6.6-3.4 c-1.5,0.2-3.1,0.2-4.5,0c-3.5-0.5-5.8,0.4-7.6,3.8c-2.6,5-7.9,5.5-12.9,5.9c-3.9,0.3-7.9,0-11.8,0.1c-4.3,0-8.4-0.5-12.2,3.2 c-1.9,1.9-5.9,2.2-9,2.3c-11.5,0.3-23.1,0.9-34.6-0.1c-6.3-0.6-12.1-0.5-18.3,0.2c-9.3,1.1-18.7,0.8-28.1,0.8c-3,0-6.5,0-8.8-1.5 c-4.5-2.9-8.3-1.2-12.6-0.2c-9.5,2.2-19.1,5-28.7,5c-8.8,0-17.8-2.7-26.4-5.1c-10.2-2.9-20.4-6.2-29.2-12.7 c-0.5-0.4-0.9-0.8-1.3-1.6c26.3,12.6,52.6,12.1,78.8-0.2c3,4.1,7.2,5.5,11.9,5.5c10.6,0,21.2,0.3,31.8-0.1c4.2-0.2,8.4-2,12.5-3.1 c2.8,0.7,6,2.1,9.2,2.2c13.2,0.3,26.4,0.1,39.6,0.1c4.6,0,8.7-0.8,11.7-4.9c0.7-0.9,2.6-1.4,4-1.4c7.1-0.1,14.3-0.4,21.4,0 c7.2,0.4,11.7-3.4,14.3-10.1c5.4,0,10.8-0.2,16.3,0.1c1.4,0.1,3.3,1.2,3.9,2.4c2.8,5.5,7.1,7.6,13.1,7.5c6.8-0.2,13.7-0.1,20.5,0 c4.7,0,8.9-0.1,13.2,3.6c3.2,2.7,8.9,3.1,13.5,3.6c8.9,1,17.9,1.6,26.9,1.9c11.8,0.4,22.6-3,32.5-10.1c0.6,0.8,1.2,1.5,1.7,2.4 c2.6,4,6.4,5.8,10.9,5.9c11.9,0.2,23.8,0.2,35.7,0.3C686.7,753.5,689.9,751.5,692.6,747.6z"></path> <path style="fill:#FFFFFF;" d="M920.7,487.6c1.1-10,2.3-19.9,3.6-30.8c-4.7-0.6-9.3-1.6-13.9-1.7c-15.5-0.2-30.4,2.8-43,12.1 c-11.7,8.6-18.5,20.6-15.7,35.5c2.2,11.4,9.9,19.6,21.3,23.2c6.5,2,13.2,3.1,19.8,4.7c2,0.5,4.1,0.9,5.9,1.8 c4.5,2.3,4.7,7.2,0.4,9.8c-5.6,3.3-11.8,4.3-18.1,3.6c-4.7-0.5-9.4-1.4-13.9-2.8c-3.1-0.9-3.6-0.1-3.8,2.7c-0.3,3.8-1,7.6-1.5,11.7 c-8.1-7.6-10-20.4,3.1-23.5c-13.3-6.8-20.8-17-21.7-32.3c-1.1-17.7,5.9-31.1,19.9-41.2c10.9-8,23.4-12.1,37-12.6 c7.7-0.3,15.5-0.2,23.1,0.9c8.8,1.3,12,7.1,10.3,15.7c-0.9,4.4-1.5,8.8-1.6,13.3c-0.3,6.8-0.3,13.6-3.6,18.3 c5.6,5.7,11.5,10.5,15.8,16.5c6.6,9,7.2,20,5.4,30.5c-3.6,20.4-18,31.2-36.2,37.9c-9,3.3-18.3,5-28,5c-3.5,0-6-0.6-7.7-3.8 c-1.2-2.3-2.8-4.4-4.8-7.3c5.2,0.4,9.4,1.1,13.5,0.9c15.7-0.6,30.2-4.9,42.4-15.3c13.9-11.8,17.2-34.1,5.1-48.4 c-5.6-6.7-13.7-10-22.1-11.5c-7.5-1.3-15.2-1.2-22.8-2.1c-1.8-0.2-4.5-1.2-5-2.5c-0.5-1.4,0.6-4.6,1.9-5.3c3.8-2.1,8-4.4,12.2-4.6 c6.8-0.3,13.7,0.9,20.5,1.5C918.7,487.8,919.3,487.7,920.7,487.6z"></path> <path style="fill:#FFFFFF;" d="M867,588.7c-23.4-35.6-46.5-70.7-70-106.5c-12.3,22.2-24.5,44.1-36.7,66.1c-3.8-5.2-4.2-9-1.6-13.8 c10.2-18.5,20.4-36.9,30.6-55.4c3.5-6.3,11.7-5.9,16.1,0.7c8.9,13.5,17.8,27,26.7,40.5c13.1,20,26.2,39.9,39.3,59.9 c1.1,1.7,2.2,3.5,3.3,5.3c2.9,4.9,0.3,11.1-5.6,13.2c-13.1,4.8-26.1,9.7-39.1,14.6c-6.6,2.5-10.4,2.4-14.3-4.2 c-1.9-3.2-4.2-6.2-5.7-9.5c-1.4-3.2-3.3-3.9-6.6-3.7c-4.8,0.3-9.7,0.1-14.7,0.1c-1.4,4.4-2.9,8.6-3.9,12.8 c-1.8,8.2-6.9,9.4-13.2,7.3c-8.8-2.8-17.7-5.7-27.8-9c2.5-2,4.3-3.5,6.2-5c2.3-1.9,4.5-2.5,7.5-1.2c4.6,1.9,9.6,2.9,14.4,4.6 c2.7,1,3.9,0,4.6-2.3c1.2-3.8,2.8-7.5,3.5-11.4c0.8-4.3,3.4-5.7,7.2-5.8c7.7-0.1,15.5-0.1,23.2,0.1c1.3,0,2.9,1.2,3.7,2.3 c2.8,4,5.4,8.1,8,12.3c1.7,2.7,3.4,3.3,6.6,2c10.9-4.3,21.9-8.2,32.9-12.3C863.2,589.9,864.7,589.4,867,588.7z"></path> <path style="fill:#FFFFFF;" d="M296.1,292.4c-3.1-3-1.5-6.7-1.4-10.1c0-0.3,0-0.5,0.1-0.9c1.2-0.8,2.4-1.5,3.7-2.4 c0.3,0.7,0.5,1.4,0.8,2.1c1.8-5.7,3.7-11.2,5.7-17.4c1.4,0.9,2.5,1.7,3.7,2.5c0.5-0.9,1.1-2,1.9-3.6c-1.2,0.2-2.1,0.3-3.4,0.5 c0.3-1.2,0.5-2.1,0.8-3.2c-1.2,0-2.3,0-3.5,0c1.2-3.3,1.5-7.1,6-8c0.4-0.1,0.6-2.2,0.6-3.3c0.1-1.6-0.7-3.7,0-4.9 c4.4-7.5,9-14.7,13.6-22.1c0.5-0.8,1.7-2,2-1.9c6,2.9,5.9-2.5,7.5-4.8c-1.6-2.9-3.1-5.3-4.2-7.9c-0.3-0.6,0.9-1.9,1.5-2.8 c0.5,0.7,1,1.3,1.5,2c1.9,3,3.8,5.9,5.8,9c-0.9,0.7-2.6,2.2-4.3,3.6c0.2,0.3,0.3,0.6,0.5,0.9c2.3-1.1,4.5-2.4,6.8-3.3 c1.8-0.7,3.7-1,5.4-2.1c-5.9-1.4-5.1-2-2.1-11.6c2.1,2.6,3.9,4.9,5.8,7.3c0.4-0.2,0.9-0.3,1.3-0.5c0.7-3.4,1.1-6.9,2.3-10.2 c0.6-1.5,2.7-2.6,4.3-3.5c2.9-1.6,5.9-1.3,9,0c1.1,0.5,3.5-0.4,4.6-1.4c2.7-2.5,5.1-5.4,7.4-8.3c0.6-0.8,0.5-2.3,0.8-4.3 c0.9,0.8,2.2,1.5,2.6,2.4c0.7,1.8-3,7.3-8.5,9.6c2.3,1.2,3.9,2,5.9,3c-5.1,4.7-10.1,9.4-15.3,14.2c-1.4-1-3.1-2.2-4.7-3.4 c0.4,0.5,0.9,0.9,1.3,1.4c-2.5,1.3-4.9,2.7-7.4,4c0.4,0.7,0.8,1.3,1.1,2c2.1-0.7,4.3-1.3,6.4-2c-0.3-0.1-0.6-0.2-0.9-0.4 c-8.7,13.4-17.4,26.7-26.3,40.4c-1.3-1.7-2.7-3.6-4.4-5.9c-3.4,4-4.5,8.7-4.4,13.4c0.1,5.3,1.2,10.6,1.8,15.9 c-0.9,1.2-2.3,2.2-2.6,3.5c-1.7,7.6-3,15.4-4.7,23c-0.3,1.2-1.9,3.2-2.3,3.1c-3.3-1-6.4-2.5-9.6-3.8c-1.2-0.5-2.5-0.7-4-1 c-0.7-2.9-1.5-6.2-2.4-9.8c1.1,0.4,2.1,0.7,3.1,1c0.3-0.3,0.6-0.7,0.9-1c-5.6-1.4-5-7.9-9.4-10.3c-0.5,0.2-1,0.4-1.5,0.6 c1.5,4.1,3,8.3,4.5,12.4c-0.2,0.2-0.4,0.5-0.6,0.7c-1.1-1-2.2-1.9-3.3-2.9L296.1,292.4z"></path> <path style="fill:#FFFFFF;" d="M539.4,292.9c-2.5,5.7-9.6,6.6-15.4,2c-4.4-3.4-8.4-7.7-13.2-10.2c-7.1-3.7-14.7-7.6-22.5-8.8 c-11-1.6-22.4-0.9-33.6-1c-3.6,0-7.2,0.7-10.8,0.7c-8.4,0.2-16.7,0.6-25.1,0.2c-5.6-0.2-11.1-1.6-17.1-2.6 c7.6-5.6,14.6-10.8,21.7-16c0.3,0.4,0.6,0.7,0.8,1.1c-2.9,2.6-5.9,5.2-8.8,7.8c29.5-13.9,58.1-13,85.9,3.3c4-2.9,9-5.4,12.4-9.3 c2.3-2.5,3-7,3.3-10.6c0.3-3.9-0.8-8-1.3-11.9c-0.1-1.2-0.3-2.3,0.2-3.6c1.2,4,2.4,7.9,3.6,11.8c7.8-0.1,5.9-8.4,9.7-11.3 c-1.6,7.7-3.2,15.5-4.8,23.9c8.8,0.1,14.8,3.8,20.2,8.2c3.7,3.1,7.2,2.2,9.6,0c4.6-4.2,9.6-3.3,14.1-1.8c8.9,2.9,17.6,6.9,26.2,10.6 c2,0.9,3.5,2.6,4.9,4.9c-1.1-0.2-2.2-0.4-3.3-0.6c-7.2-1.6-14.4-4.2-21.7-4.6c-10.6-0.6-20.7,2.3-28.9,9.4c-2.6,2.2-4.2,5.5-6.3,8.4 c-0.8-0.9-1.8-2.6-2.4-2.5c-4.1,0.6-8.2,1.6-12.5,2.5C529.6,298.1,532.7,298,539.4,292.9z M506.3,274c0,0.5,0,1,0,1.5 c1.1,0.8,2.2,1.6,3.3,2.3c2.2,1.1,4.5,2.1,6.7,3.2c1.9,1,3.8,2.9,5.7,3c8.1,0.5,16.1,0.1,22.7-5.8c1-0.9,2.7-0.9,4.2-1.4 c-1.3-7.1-15-17.8-27.8-16.4c-6.7,0.7-18.9,7.4-18.2,15.1C504.1,275,505.2,274.5,506.3,274z"></path> <path style="fill:#FFFFFF;" d="M284.7,604.7c-11.6,1.6-23.2,3.7-34.8,4.6c-3.3,0.2-6.2,0.1-9.1,2c-1.2,0.8-2.9,1-4.3,1 c-15.2,0.1-30.4,2.5-45.4-2.2c-5.6-1.8-11.4-3-17.2-4.4c0.1-0.5,0.1-1,0.2-1.5c1.7,0,3.3,0,5,0c11-0.3,22-0.6,33-0.9 c0.7,0,1.7-0.1,2.1-0.5c4.2-5.1,9.9-2.5,15-3.1c10.2-1.3,20.5-2.1,30.6-3.9c4-0.7,7.6-3.3,8.2-8.4c1.1-9.9,2.4-19.8,3.6-29.7 c1-8.7,2-17.4,3.4-26.1c0.1,0.9,0.2,1.9,0.2,2.8c0.3,18.9,0.5,37.7,1,56.6C276.3,596.9,277.8,602.6,284.7,604.7 C284.6,604.7,284.7,604.7,284.7,604.7z"></path> <path style="fill:#FFFFFF;" d="M81.2,597c30.1,4.8,56.2-2.7,80.8-18.7c0.6,8.1-0.2,16.4,5.2,23.3C144.4,612.5,102.3,604.5,81.2,597z "></path> <path style="fill:#FFFFFF;" d="M855.9,533.6c-1.5,3.1-3,6-4.8,9.5c-11.1-16.9-22.2-33.9-33.7-51.5c10.9-8.6,21.7-17.1,33.5-26.3 C834.6,490.4,833.6,513.2,855.9,533.6z"></path> <path style="fill:#FFFFFF;" d="M158.1,490.1c0.6,14.6,1.3,29.2,1.8,43.2c-7.1-6.4-14.5-13.1-22.3-20.2c6.7-8.3,12.9-15.8,19-23.4 C157.1,489.9,157.6,490,158.1,490.1z"></path> <path style="fill:#FFFFFF;" d="M124,515.1c-5.8,3.8-10.9,7.7-16.4,10.8c-5.4,3-10.4,0.3-10.7-5.9c-0.3-6.4,2.5-12.3,7-16.8 c2.8-2.7,6-0.1,8.4,1.7C116.1,507.8,119.5,511.2,124,515.1z"></path> <path style="fill:#FFFFFF;" d="M331.3,511.5c3.6-0.2,7.1,0.1,8.5,4.2c1.6,4.5-0.1,9-3.2,11.7c-4.5,3.9-10,6.8-15.2,9.9 c-0.4,0.3-2.6-1-2.6-1.6c0.1-6.6-0.1-13.3,1.3-19.7c0.4-2,5.5-3.1,8.5-4.4C329.4,511.2,330.4,511.4,331.3,511.5z"></path> <path style="fill:#FFFFFF;" d="M800.9,544c1.8,6.2,3.7,12.4,5.6,18.7c-5.8,1.1-10.7,2.1-16.2,3.1c1.1-8.1,5.3-14.8,8.4-21.8 C799.4,544,800.1,544,800.9,544z"></path> <path style="fill:#FFFFFF;" d="M873.4,602.2c2.3-3.6,4.8-7.6,7.3-11.5c10.5-1.5,21.6-3.1,32.6-4.7 C900.7,593.4,886,596.5,873.4,602.2z"></path> <path style="fill:#FFFFFF;" d="M383.2,535.8c0,8.9,0,17.6,0,26.9c-4.7-3.1-8.9-5.9-13.3-8.7C374.4,548,378.7,542,383.2,535.8z"></path> <path style="fill:#FFFFFF;" d="M544.9,481.1c1.1,3.9,2,7,3.1,10.9c-3.1-0.7-5.5-1.2-7.9-1.9c-5.4-1.4-10.8-2.9-16.2-4.1 c-4.3-0.9-7.4-4.1-7.2-7.8c5.2,6.1,12.2,3.8,18.7,4C538.5,482.3,541.6,481.5,544.9,481.1z"></path> <path style="fill:#FFFFFF;" d="M393.1,188.9c0.9-2.3,1.5-3.7,2.3-5.7c-2.1,0.4-3.6,0.7-6.1,1.1c1.1-2.6,1.9-4.7,2.9-6.6 c0.2-0.3,1.4-0.1,2.2-0.1c-0.1,0.7-0.1,1.4-0.3,2c-0.1,0.7-0.4,1.3-0.6,2c8.1-1.6,14.7-7.5,23.1-5.5c0.1,0.5,0.3,0.9,0.4,1.4 c-6.6,2.1-13.1,4.2-20,6.4c0.2,0.3,0.6,0.9,1.3,2C397.2,186.7,395.5,187.6,393.1,188.9z"></path> <path style="fill:#FFFFFF;" d="M183.3,467.8c-4.1,0.4-8.2,0.8-10.7,1c-3.8-5.7-6.9-10.4-10.2-15.4c7.2,4.6,14.2,9,21.1,13.4 C183.4,467.1,183.4,467.4,183.3,467.8z"></path> <path style="fill:#FFFFFF;" d="M594.2,432.2c-1-2.5-2-5.1-3-7.7c-0.1-0.2,0.1-0.6,0.1-0.9c0.3,0.1,0.6,0.1,0.7,0.3 c1.3,1.9,2.6,3.8,3.8,5.6c2-1.7,4.2-3.2,6.1-5.1c2.5-2.5,4.7-5.2,7.2-7.7C606.1,425.3,599.6,431.9,594.2,432.2z"></path> <path style="fill:#FFFFFF;" d="M393.2,270.1c4-4.8,7.3-8.8,10.7-12.8C403.3,263.3,397.4,270.3,393.2,270.1z"></path> <path style="fill:#FFFFFF;" d="M456.6,435.9c-4.5,0.6-7.9-3-9.7-9.3C449.6,429.2,453.1,432.6,456.6,435.9z"></path> <path style="fill:#FFFFFF;" d="M324.6,211.1c-1.3,4.2-2.5,7.7-3.6,11.3C320.9,218.5,317.7,213.7,324.6,211.1z"></path> <path style="fill:#FFFFFF;" d="M383.4,656.2c6.8-0.6,13.3-0.7,16.9,5.7c2.8,4.8,2.1,10.5-0.7,15c-2.7,4.2-7.4,5.5-12.5,5.6 c-2.6,0-3.6-1.3-3.7-3.4C383.4,671.4,383.4,663.9,383.4,656.2z"></path> <path style="fill:#FFFFFF;" d="M504.8,678.5c2.1,6.5,4.2,13,6.5,19.9c-5.3,0-9.9,0-15.1,0c0.5-7.3,4.4-13.2,6.8-19.7 C503.6,678.7,504.2,678.6,504.8,678.5z"></path> </svg> 