<?xml version="1.0" encoding="UTF-8"?> <svg xmlns="http://www.w3.org/2000/svg" xmlns:xlink="http://www.w3.org/1999/xlink" version="1.1" id="Layer_1" x="0px" y="0px" viewBox="0 0 1000 1000" style="enable-background:new 0 0 1000 1000;" xml:space="preserve"> <path style="fill:#FFFFFF;" d="M279.6,520.6c9.1,6.9,21,9.4,33.6,10.4c6.2,0.5,12.1,4.4,18.3,4.9c15,1.1,30.2,1.9,45.2,1.2 c15.1-0.7,30.2-3.1,45.2-5.4c15.8-2.5,31.4-5.7,47.1-8.6c27.7-5.1,55.4-10.3,83.1-15.3c16.2-2.9,32.5-5.5,48.8-7.8 c8.3-1.2,16.7-1.6,25.1-2.1c15-0.8,30.1-2.2,45.1-1.9c20.9,0.5,41.7,3.1,61.2,11.8c17.4,7.7,31,19.5,39.3,36.8 c5.2,10.9,6.8,22.5,6.8,34.6c0,16-3.3,31.2-11.3,45c-9,15.3-20.3,28.7-35,38.9c-2.9,2-6.4,3.6-9.9,4.3c-10.4,2.2-15.8-3.9-13.3-14.2 c1.6-6.5,4.2-13.1,1.7-19.8c-2.1-5.7-4.2-11.6-7.5-16.6c-1.8-2.7-5.7-4.5-9-5.7c-11.3-3.9-22.9-6.3-35.1-5.6 c-8.5,0.5-17.1-0.5-25.6,0c-14.9,0.9-29.7,2.2-44.5,3.8c-15.9,1.7-31.7,3.8-47.5,6.1c-17.1,2.5-34.1,5.5-51.1,8.3 c-17.3,2.8-34.7,5.7-52,8.5c-11.5,1.8-23.1,3.7-34.6,5.1c-19.2,2.3-38.5,4.7-57.8,6c-11.9,0.8-23.9,0.1-35.8-0.5 c-7.2-0.4-14.6-1.1-21.5-3.3c-13-4.1-25.3-9.7-35.5-19.3c-8.6-8.1-14-18.4-18.3-28.9c-3.3-8.2-5-17.1-4.8-26.2 c0.2-10.1,3.1-19.3,8.4-27.8c0.7-1.1,2.5-1.8,3.9-2.3c7.5-2.5,15.1-4.5,22.6-7.2C269.5,525.9,274.1,523.3,279.6,520.6z M471.6,601 c-1.8-3.1-3.2-5.5-4.6-7.9c-4.4-7-4.4-6.9,1.3-13.2c5.4-6,6.2-13.1,3.5-20.4c-2.7-7.3-9.4-9.4-16.2-8.9c-7,0.5-13.9,2.7-20.8,4.1 c-4.3,0.9-5.2,3.5-5.2,7.6c0.2,11.8,0,23.6-0.2,35.4c-0.1,3.9-0.5,7.8-0.8,12.3c4.9-0.7,9.1-1.2,13.3-1.8c0.3-4.6,0.7-8.9,0.8-13.2 c0.1-3.1,1-4.9,4.4-5.3c3-0.3,5.4-0.3,6.5,3.4c1.2,3.9,2.9,7.7,4.6,12.1C462.5,603.9,466.6,602.6,471.6,601z M580,534.8 c0,17.8,0,35.2,0,52.9c4.3-0.7,8.7-1.4,13.5-2.1c0-2.9,0-5.4,0-7.9c0.1-10.3,0.1-10.3,10.2-11.7c3.3-0.5,4.6,0.6,4.5,4 c-0.1,4.5,0,9.1,0,14.2c6-1.3,11.1-2.3,15-3.2c0-18.3,0-35.6,0-53.4c-4.1,0.4-7.2,1-10.3,1.1c-3.3,0.1-4.6,1.3-4.5,4.8 c0.2,7.8,0.2,15.6,0,23.4c0,1.4-0.9,3.8-1.7,4.1c-3.7,0.9-7.6,1.1-11.5,1.6c0-10.1,0-19.5,0-29.2C590.2,533.8,585.6,534.3,580,534.8 z M527.8,592.3c-4.7-15.3-9.3-30.1-13.6-45c-1-3.3-2.3-4.2-5.7-3.1c-3.6,1.1-7.6,1.2-11.1,2.4c-1.9,0.7-4.2,2.5-4.9,4.4 c-2.4,7-4.3,14.2-6.3,21.3c-2.6,9.3-5.2,18.6-8,28.5c3.6-0.3,6.4-0.9,9.1-0.7c5.5,0.4,8.3-1.7,8.6-7.4c0-1,1.3-2.6,2.2-2.7 c3.8-0.7,7.7-1.1,11.4-1.5c2.5,8.2,2.5,8.2,10.3,6.2C522.4,594.1,524.9,593.2,527.8,592.3z M567.2,547.3 c2.2-13.3,1.6-13.9-10.4-12.5c-11.6,1.4-20.5,8.4-23.1,18.1c-2.5,9.3,3.5,16.6,13.1,16c2.3-0.1,4.8-0.6,6.9,0c1.5,0.5,3.4,2.5,3.6,4 c0.6,4-2.3,6.3-8,6.6c-4.8,0.3-9.6,0.1-14.3,0.1c-1.8,13.6-4.5,11.1,8.7,13.3c9.6,1.6,24.1-4.9,27.5-17.2c3.2-11.5-1.9-19-13.1-17.3 c-2.3,0.3-4.7,0.5-7,0.1c-1.5-0.3-3.9-1.6-4-2.5c-0.1-1.8,0.8-4,2-5.6c0.7-1,2.6-1.5,4-1.7C557.6,548.1,562.2,547.8,567.2,547.3z M421.3,556.8c-0.7-0.1-1.4-0.3-2-0.4c-22.9-1.3-37.5,19.5-35.2,40.6c0.7,6.9,4.3,11.8,10.2,14.9c7.8,4,15.7,2.3,22.7-2 c5.4-3.3,1.9-9.5,3.7-14c-4.7,1-8.7,2.3-12.7,2.5c-5,0.3-7.9-2.6-8.8-7.5c-1.4-8.3,4.5-17.8,13.9-19.3c6.8-1.1,7.8-4.5,7.8-9.8 C420.9,560.2,421.1,558.5,421.3,556.8z"></path> <path style="fill:#FFFFFF;" d="M565.1,425.6c9.7,8.8,11.1,20.5,10.4,33c3.5,0.6,6.4,1.5,8.1-2.9c6.9-17.6,14.1-35.2,21.5-53.7 c-6.7,0-12.8,0-19.3,0c0-23.1,0-45.4,0-68.1c1.2-0.1,2.3-0.3,3.4-0.3c14.1,0.8,28.5,0.4,42.3,2.9c12,2.2,23.9,2.1,35.8,3.8 c1.2,0.2,2.8,2,3.2,3.3c1.6,5.9,2.5,11.9,4.2,17.8c0.7,2.3,0,5.9,4.2,6.3c0.6,0,1.1,2.3,1.4,3.5c5.4,22.7,10.7,45.3,16,68 c2,8.7,3,17.8,6.4,25.9c3.9,9.1,1.7,18.1,2.9,26.4c-21-1.1-41.6-2.2-62.5-3.4c0-5,0-10.6,0-16.7c4.3,0.2,8.5,0.4,13.3,0.7 c-1-6.4-2-12.3-3-18.8c-7.4,0-14.2,0.2-21-0.1c-2.5-0.1-5-1.7-7.5-2c-1.4-0.1-3.6,0.8-4.1,1.9c-1.2,2.2-1.3,4.3-4.6,5.3 c-1.7,0.5-2.4,4.6-3.8,7.6c4.6,0.8,8.6,1.5,12.7,2.1c2.8,0.4,4,1.5,3.9,4.5c-0.2,5.6-0.1,11.2-0.1,16.9c-20.4,3.2-40-1.6-59.9-2.6 c-0.5-2.1-0.8-3.7-1.2-5.3c-5,2.3-9.6,5-14.6,6.4c-3.1,0.9-6.8-0.4-10.2-0.7c-0.5,0-1-0.2-1.5-0.3c-10.8-0.3-21.9-2.3-32.4-0.5 c-18.1,3-36.2,0.9-54.2,2.2c-3.9,0.3-7.9,0-12.1,0c0-9.5,0-18.5,0-28c3.7,0,7.1,0,10.8,0c0-19.3,0-38.2,0-57.5c-4.4,0-9,0-14.1,0 c-0.6-22.2-1.1-43.8-1.6-66c1.8-0.2,3.6-0.4,5.3-0.4c16.1-0.1,32.3-0.4,48.4-0.1c17.2,0.3,34.4,1.2,51.6,1.7 c2.9,0.1,5.9-0.8,8.8-0.7c1.5,0,3.1,0.9,4.5,1.8c14.5,8.6,21.1,22.1,22.7,38.2c0.7,7.2,0.4,14.6,0.1,21.8 C579,408.3,574.3,416.6,565.1,425.6z M492.1,462.2c12.8,0,25.4,0.2,38-0.2c1.9,0,4.3-2,5.4-3.8c4.4-6.9,0.6-16.3-7.5-16.9 c-11.8-0.8-23.8-0.2-35.9-0.2C492.1,448.2,492.1,455.5,492.1,462.2z M515.7,421c0-0.2,0.1-0.5,0.1-0.7c1.8,0,3.7-0.1,5.5,0 c12.9,1.2,14.2-8.5,11.3-17.5c-1.2-3.7-3.7-5.3-7.5-4.9c-7.3,0.8-14.6-0.7-22.1,2c-7.1,2.5-7.6,1.4-7.6,9c0,2.3-0.3,4.7,0.1,6.9 c0.2,1.1,1.4,2.7,2.4,2.8C503.9,419.7,509.8,420.3,515.7,421z M647.3,429.1c-2.5-9.9-4.8-19.2-7.5-29.8c-3.9,9.5-7.3,17.7-11.2,27.2 C635.5,427.5,641.8,428.3,647.3,429.1z"></path> <path style="fill:#FFFFFF;" d="M66.6,447.7c-4.8,1.5-8.8,2.8-13.6,4.4c-1.6-7.7-3.2-15.2-4.8-22.7c-2.9-14.4-5.8-28.7-8.7-43.1 c-2.1-10.6-4.4-21.3-6.3-31.9c-0.2-1.1,1.3-3.5,2.4-3.7c24.8-4.9,49.6-9.6,74.5-14.3c7.3-1.4,14.5-3,21.9-3.9 c17.5-1.9,30.1,6.4,38.7,20.8c7.8,13,11.7,27.2,13.3,42.4c1.4,13.3,0,25.9-4.2,38.4c-1,2.9-2.6,5.6-4.1,8.6 c12.2,7.5,14.5,20.5,16.2,33.6c2,15.4-0.3,30.2-7.6,44c-4,7.7-10.9,12.5-18.7,16.5c-15.9,8.1-31.8,16.6-47.5,25 c-11.9,6.4-23.7,13.1-35.6,19.7c-0.5,0.3-1.2,0.3-2.2,0.6c-2.8-12.4-5.7-24.4-8.2-36.6c-0.2-1.1,1.3-3.2,2.6-4 c8.2-5.8,8.2-5.7,6.4-15.4C76.3,500.1,71.5,474.1,66.6,447.7z M122.2,518c5.4-2.7,10.2-5.1,14.9-7.5c4.7-2.4,9.4-4.9,14.2-7 c3.8-1.7,5.7-4.5,5.5-8.4c-0.2-3.7-0.6-7.6-1.7-11.1c-1.6-5.2-4.2-6.1-9.1-3.9c-8.1,3.7-16,7.7-24.1,11.3c-2.7,1.2-3.3,2.9-3,5.4 C120,503.7,121.1,510.6,122.2,518z M113,457.3c6.7-2.4,12.6-4.5,18.4-6.7c14.3-5.3,14.4-5.3,12.4-20.4c-0.3-2.2-1.3-4.5-2.7-6.2 c-0.9-1.1-3.3-2-4.7-1.6c-9.1,2.6-18.2,5.5-27.5,8.4c0.7,4.5,1.4,8.7,2,12.9C111.6,448,112.2,452.4,113,457.3z"></path> <path style="fill:#FFFFFF;" d="M933.4,345.6c11.4,1.6,22.2,3.3,33,4.7c3.7,0.5,4.8,1.3,3.9,5.6c-5.4,25.7-10.3,51.4-15.4,77.2 c-1.8,9.2-3.9,18.3-5.9,27.9c-10.8-4.1-21.3-8-31.7-12.3c-1.3-0.5-1.9-3.1-2.5-4.9c-2.3-7-4-14.2-6.9-20.9 c-2.4-5.6-7.8-9.5-13.6-10.4c-3.5-0.5-8.7,1.9-11,4.7c-3.1,4-2.6,10,0.8,13.9c6.4,7.4,13.8,14.1,20.7,21.1 c5.4,5.6,10.3,11.7,16.1,16.8c8.4,7.4,13.7,16.5,16.4,26.9c5.2,19.7,2.9,38.6-8,56.1c-2.2,3.5-5.7,7.7-9.4,8.5 c-7.5,1.7-15.5,2.4-23.1,1.5c-13.6-1.7-23.8-10.1-31.9-20.5c-6.2-8-11-17.1-16.6-25.6c-0.8-1.2-2.3-2-3.4-2.9 c-0.8,1.1-2.1,2.2-2.3,3.4c-0.6,3.6-0.7,7.2-1,11.3c-4.3-2-8.4-3.9-12.5-5.9c-0.8-0.4-1.7-1.7-1.7-2.5c0.5-15.7,1.2-31.5,1.8-47.7 c1.4,0.4,2.7,0.6,3.8,1.1c6.1,2.6,11.9,6,18.2,7.9c9.1,2.7,12,9.3,13.9,17.6c3.8,16.2,14.3,27,29.3,33.5c5.6,2.4,12.1-1,11.2-5.9 c-0.5-3.1-1.5-6.7-3.5-9c-6.1-7.3-12.9-14.1-19.4-21.1c-4.2-4.5-8.1-9.2-12.6-13.4c-3.7-3.5-6-8-12.1-9.6c-3.9-1-6.8-6.4-9.7-10.2 c-14.4-18.8-20.2-40.4-18.3-63.6c1.2-14.1,3.7-28.3,10.5-41.2c11.4-21.6,34.5-26.4,53.2-19.8c4.1,1.5,7.2,5.5,11.1,7.7 c8.7,4.9,13.4,13.2,18.7,21c0.9,1.3,2.6,1.9,3.9,2.9c0.7-1.5,1.8-2.9,2.1-4.5C931.2,358.7,932.3,352.2,933.4,345.6z"></path> <path style="fill:#FFFFFF;" d="M723.4,496.9c-4.2-1-9-1.9-13.7-3.4c-0.9-0.3-1.9-2.3-1.9-3.6c-0.1-11.2-0.1-22.5-0.1-34 c10.6,2.8,21.1,5.5,31.5,8.4c1,0.3,2,1.8,2.5,3c6.6,15.5,18,26.2,33.4,32.8c0.1,0.1,0.3,0,0.5,0.1c6.1,2,10.3,1,12.7-3.2 c1.5-2.8-0.5-8.1-4.8-11.1c-8.8-6.2-18-11.9-26.7-18.2c-12.1-8.7-23.4-18.7-36.2-26.3c-7.5-4.5-12.4-10.3-16.2-17.3 c-8.3-15.2-10.1-31.4-6.4-48.4c3.3-15.6,11.9-27,25.4-35c2.9-1.7,6.5-2.1,9.9-2.7c22.6-4,41.1,2.7,55.2,21.1c1.1,1.4,3,2.1,4.5,3.1 c0.7-1.8,1.8-3.6,2-5.4c0.4-4.1,0.4-8.3,0.6-12.4c0-0.8,0.3-1.6,0.6-2.7c12.6,0.7,25.2,1.5,38.1,2.2c-2.6,29.6-5.2,58.8-7.9,88.8 c-6.2-1-12.1-2.2-18.1-2.8c-4.2-0.5-8.1-2.8-12.8-0.8c-2.7,1.1-5-0.8-6.2-4.1c-3.5-10-9.3-18.4-19-23.4c-4.7-2.4-9.8-4.8-14.9-1.1 c-6.8,5-4.1,14.7,2.2,19.1c8.5,5.9,17.7,10.9,26,17c10.7,7.8,21.2,16,28.7,27.5c7.2,11.1,8.7,22.5,6.3,35.1 c-1.4,7.7-3.8,14.6-10,19.7c-11.3,9.2-35.6,11.1-46.3,1.4c-6.5-5.8-14.2-10.2-21.1-15.6c-3.5-2.7-6.2-6.4-9.4-9.5 c-1.4-1.4-3.1-2.6-4.7-3.9C726,492.9,724.9,494.7,723.4,496.9z"></path> <path style="fill:#FFFFFF;" d="M353.5,456.7c-7.3,1.8-14.2,3.5-21.7,5.4c0-8-0.1-15.5,0.1-23.1c0-1,1.9-2.4,3.1-2.8 c6.6-1.7,13.8-2,19.8-5c12.9-6.3,27-7.1,40.8-11.6c0,26.3,0,52,0,78c-9.2,1.4-18.3,2.8-27.9,4.3c0-6.9,0-13.6,0-19.3 c-7.2,6.9-14,14.7-22.2,20.7c-12.2,8.9-26.5,12.7-41.6,9.4c-12.3-2.7-21.1-11-26.9-22c-11.7-22.1-13.4-46.1-11.7-70.5 c1.3-19.4,6.5-37.6,18.3-53.7c9.1-12.4,20.7-20.6,36.3-21.9c18.9-1.5,37.8-2.3,56.7-3.4c4.1-0.3,8.3-0.8,13.1-1.2 c0,21.8,0,43.3,0,65.7c-12.5,0.5-25.4,0.8-38.3,1.7c-7.7,0.6-15.9,0.8-22.7,3.7c-9.3,4.1-17,11.4-18.6,22.3c-1.8,12-2.5,24,1.9,35.9 c2.2,6,6.5,10.6,11.5,12.9c3.4,1.6,9.2-0.3,13.3-2c9-3.6,14.4-10.8,16.8-20.2C353.8,459.2,353.5,458.2,353.5,456.7z"></path> <path style="fill:#FFFFFF;" d="M263.8,411.8c-5.3,0.8-10.9,1.7-16.9,2.6c1.3,23,2.6,46.1,3.9,69.2c3.8-0.7,7.1-1.4,10.9-2.2 c0.9,9.4,1.8,18.5,2.7,28.6c-21.4,6.6-43.2,13.4-65.7,20.4c-0.5-11.6-1.1-22.7-1.6-33.9c5-1.2,9.1-2.1,13.7-3.2 c-1.9-24.4-3.7-48.8-5.6-73.1c-6.1,0.8-11.3,1.5-17.6,2.3c-2.2-27.7-4.3-55-6.5-83.5c27.3-2,54.4-4,82.6-6 C263.8,359.6,263.8,385.6,263.8,411.8z"></path> <path style="fill:#FFFFFF;" d="M443.9,571.8c0.1-1,0-2,0.3-2.9c0.8-2.4,1.2-6.4,2.7-6.9c2.7-0.9,7.2-0.8,9,0.9 c2,1.9,2.9,6.2,2.6,9.3c-0.5,4.7-7.3,9.5-12.1,9.1c-0.9-0.1-2.3-1.9-2.5-3.1c-0.4-2.1-0.1-4.3-0.1-6.4 C443.7,571.8,443.8,571.8,443.9,571.8z"></path> <path style="fill:#FFFFFF;" d="M497.8,581.3c1.3-6.2,2.4-11.7,3.6-17c0.2-0.7,1.4-1.4,2.2-1.5c0.5-0.1,1.4,0.9,1.6,1.6 c1,4.3,2.1,8.7,2.7,13.1c0.1,0.9-1.6,2.6-2.9,3C503,581.1,500.8,581,497.8,581.3z"></path> </svg> 