<?xml version="1.0" encoding="UTF-8"?> <svg xmlns="http://www.w3.org/2000/svg" xmlns:xlink="http://www.w3.org/1999/xlink" version="1.1" id="Layer_1" x="0px" y="0px" viewBox="0 0 1000 1000" style="enable-background:new 0 0 1000 1000;" xml:space="preserve"> <path style="fill:#00D9C9;" d="M571.5,493.6c4,29.5,11.8,57.1,23.1,84.4c-22.6-5.3-45.1-5.3-67.8,0c11.4-27.2,19.1-55.1,23.2-84.3 c-4,3.2-7.4,6.3-11.1,9c-46.5,33.5-112.3,6.7-121.1-49.7c-6.5-41.5,6-77.1,37.6-105.3c17.9-16,36.4-31.5,54.5-47.4 c15.9-14.2,31.1-29,43.2-46.8c2.7-4,5.1-8.1,7.1-11.6c5.5,8,10.7,16.7,17,24.5c11.6,14.6,25.5,27.1,39.6,39.2 c16.6,14.3,33.4,28.5,50,42.7c22.1,18.9,34,43.2,37.7,71.6c2.7,20.3,1.1,40.2-9.6,58.1c-16.4,27.8-41.5,40.6-73.7,38.7 c-18.3-1.1-34-8.7-47.3-21.1C573.4,495.1,572.8,494.6,571.5,493.6z"></path> <path style="fill:#00D9C9;" d="M291.1,580.3c-5.3,0.7-10.5,1.3-16.3,2.1c0-1.4,0-2.6,0-3.7c0-160.6,0-321.1,0-481.8 c0-33.3,25.2-58.5,58.4-58.5c151.4,0,302.9,0,454.3,0c18.3,0,33.5,7,45.3,21c9.6,11.3,13.3,24.6,13.3,39.4c0,79,0,158.1,0,237.2 c0,54.2,0,239.3,0,293.5c0,2.5-0.7,4.1-2.6,5.8c-4.4,3.5-8.6-5.7-13.7-1.4c0-2.1,0-3.5,0-4.8c0-137.9,0-393.7,0-531.6 c0-19.6-11.6-35.7-29.7-41c-3.5-1.1-7.4-1.7-11.1-1.7c-152.5-0.1-305-0.1-457.6,0c-21.9,0-40.5,18.6-40.5,40.7 c0,160.2,0,320.3,0,480.5C291.1,577.1,291.1,578.5,291.1,580.3z"></path> <path style="fill:#00D9C9;" d="M203.3,603.8c-2.7-9.9-5.3-19.5-7.9-29.1c-15-55.9-30-111.8-45.1-167.7 c-12.6-46.9-25.1-93.8-37.6-140.7c-2.2-8.3-4.8-16.6-5.8-25c-3.3-28,14.5-53.9,41.9-61.3c31.1-8.5,62.3-16.7,93.5-25.1 c3.7-0.9,7.1-0.9,9.7,2.1c2,2.4,2.6,5.2,1.4,8.1c-1.2,2.9-3.4,4.4-6.5,5.2c-31,8.3-62.2,16.6-93.2,25c-22.5,6-35.7,28.2-29.8,50.7 c18.6,70.1,37.5,140,56.3,210c11.7,43.6,23.4,87.4,35,131.1c0.7,2.8,1.4,5.7,2.2,8.4c0.5,1.4,0.4,2.4-1.3,2.9 C212.3,600.1,208,602,203.3,603.8z"></path> <path style="fill:#00D9C9;" d="M343.2,169.3c3.4,6.4,9.4,10.6,14.7,15.3c4,3.5,8,6.8,9.6,12.5c2,7.3,0.8,13.8-4,17.7 c-5.2,4.1-10.6,4.1-18.6-0.4c1.3,4.8,2.4,9.2,3.5,13.7c-3.7,0-7.2,0-11.1,0c1.2-4.5,2.4-8.8,3.7-13.8c-4.2,2.7-8,4.4-12.4,3.5 c-8.6-1.7-13.3-10.6-10.7-19.5c1.8-6.1,5.8-10,10.3-13.9c2.7-2.2,5.4-4.5,8-7.1C338.7,174.8,340.8,172,343.2,169.3z"></path> <path style="fill:#00D9C9;" d="M212.3,355.6c-3.7,0.9-7.1,1.9-10.8,2.9c0-4.5,0-9,0-13.8c-2.5,1.8-4.2,3.7-6.5,4.6 c-9.8,4.2-19.2-2.1-20-13.3c-0.4-5.1,0.9-9.8,3.9-13.9c2.5-3.5,5-7,7.2-10.7c2.1-3.4,3.8-7.2,5.8-11c6.6,6.4,15.7,9,23.8,13.6 c6.5,3.5,9.8,9.3,10.1,16.5c0.6,9-8.4,15.9-17.2,13.7c-0.9-0.2-1.8-0.6-3.7-1.2C207.7,347.7,209.9,351.6,212.3,355.6z"></path> <path style="fill:#00D9C9;" d="M346.3,84.9c5.8,15.6,11.4,31.1,17.1,46.6c0.6,1.5,1.3,2.9,1.8,4.5c1.5,4.4,3.8,7.8,9.1,7.7 c0,1.4,0,2.5,0,3.7c-9,0-17.8,0-26.9,0c0-1.1,0-2.2,0-3.4c0.8-0.2,1.7-0.4,2.5-0.6c2.1-0.6,3.1-1.9,2.4-4.1c-1.2-3.4-2.4-7-3.7-10.3 c-0.2-0.7-1.5-1.4-2.4-1.4c-4.6-0.1-9.2-0.1-13.9,0c-0.9,0-2.2,1.1-2.6,1.9c-1.2,2.7-2.1,5.7-2.9,8.5c-0.9,3.3-0.4,4.5,3.2,5.2 c2.5,0.5,3.4,1.4,2.5,4.1c-6.8,0-13.8,0-20.9,0c0-1.2,0-2.1,0-3.7c6.6,0.4,8.4-4.5,10.3-9.3c5.9-15,12-29.8,17.8-44.8 C341,86.4,342.7,84.8,346.3,84.9z M332.1,122c4.8,0,9.2,0,14,0c-2.2-6.5-4.4-12.7-6.5-19c-0.2,0-0.5,0-0.7,0 C336.8,109.2,334.6,115.4,332.1,122z"></path> <path style="fill:#00D9C9;" d="M184.1,216.1c0.4,1.3,0.6,2.2,0.8,3.1c-0.1,0.2-0.2,0.5-0.4,0.6c-5.9,2.8-6,3.1-4.5,9.3 c3.3,12.7,6.8,25.5,9.9,38.3c2.8,11.8-1.8,22.6-11.6,28.9c-0.6,0.4-1.3,0.7-2.1,1.2c-0.7-0.9-1.4-1.9-2.4-3.1 c7.4-5.4,6.3-12.9,4.5-20c-3.4-14.2-7.2-28.3-11.1-42.3c-1.5-5.7-2.5-6-9.7-5.2c-0.2-1.1-0.6-2.1-0.9-3.3 C165.9,220.9,174.9,218.6,184.1,216.1z"></path> <g> <path style="fill:#00D9C9;" d="M185.9,820.6c6.5-1.2,21.1-2.4,34.6-2.4c16.7,0,25.8,1.5,34,5.6c8.2,3.8,14.6,11.3,14.6,22.2 c0,9.6-5.8,18.6-18.7,23.1v0.3c12.4,3.1,22.6,12.4,22.6,27.1c0,10.3-5.2,18.4-12.5,23.9c-8.6,6.3-22.5,9.6-45.5,9.6 c-13.6,0-23.3-0.9-29.1-1.7V820.6z M211.5,862.1h9.2c15,0,22.2-5.1,22.2-13c0-8.5-7.2-12.2-19.1-12.2c-6.4,0-9.9,0.3-12.1,0.8v24.4 H211.5z M211.5,910.6c2.7,0.5,6.1,0.5,11.1,0.5c12.1,0,23-4.1,23-15.7c0-10.9-10.6-14.9-24.2-14.9h-9.7v30H211.5z"></path> <path style="fill:#00D9C9;" d="M290.1,812.3H316v116.4h-25.9V812.3z"></path> <path style="fill:#00D9C9;" d="M385.9,928.8l-1.5-7.9h-0.6c-5.5,6.4-14.3,9.9-24.5,9.9c-17.6,0-27.3-12.2-27.3-24.4 c0-20.7,18.6-31,50.1-30.9v-0.8c0-3.6-1.9-10.1-15.7-10.1c-8.7,0-18.3,3.1-23.9,6.4l-4.8-16.4c5.9-3.4,17.3-7.4,32.9-7.4 c27.3,0,37.1,15.2,37.1,34.8v27.1c0,8,0.5,15.4,1.3,19.6L385.9,928.8L385.9,928.8z M382.9,891.4c-15-0.1-25.2,3.2-25.2,12.2 c0,5.9,4.2,9.2,10.6,9.2c7,0,12.5-4.8,14.2-9.9c0.3-1.4,0.5-3,0.5-4.4V891.4z"></path> <path style="fill:#00D9C9;" d="M494,926.6c-5.2,2.4-14.5,4.2-25.1,4.2c-27.6,0-45-16.4-45-41c0-22.9,16.4-42.5,48.5-42.5 c7.1,0,15.1,1.2,21.3,3.5l-4.2,18.9c-3.4-1.6-8.4-2.9-15.8-2.9c-14,0-23.2,9.2-23.1,21.9c0,14.7,11,22,23.7,22 c6.8,0,12.1-1.2,16.4-2.9L494,926.6z"></path> <path style="fill:#00D9C9;" d="M535.1,882.4h0.3c2-2.9,4.2-6.3,6.3-9l18.1-24.1h31.9l-31.6,31.9l36.7,47.7h-32.6l-21.9-32.7 l-7.2,8.2v24.5h-25.9V812.3h25.9V882.4z"></path> <path style="fill:#00D9C9;" d="M587.3,943c7.3-0.6,12.8-2.3,16-5.6c3.8-3.8,5.3-10.4,5.3-27.5v-60.9h25.9v67.5 c0,17.2-3.8,28.5-11.4,35.8c-7.9,7.4-20.1,10.7-33.3,10.7L587.3,943z M635.4,826.7c0,6.8-5.1,12.6-14,12.6 c-8.5,0-13.7-5.8-13.7-12.6c0-7.1,5.2-12.6,13.9-12.6C630.2,814,635.2,819.6,635.4,826.7z"></path> <path style="fill:#00D9C9;" d="M704,928.8l-1.5-7.9h-0.6c-5.5,6.4-14.3,9.9-24.5,9.9c-17.6,0-27.3-12.2-27.3-24.4 c0-20.7,18.6-31,50.1-30.9v-0.8c0-3.6-1.9-10.1-15.7-10.1c-8.7,0-18.3,3.1-23.9,6.4l-4.8-16.4c5.9-3.4,17.3-7.4,32.9-7.4 c27.3,0,37.1,15.2,37.1,34.8v27.1c0,8,0.5,15.4,1.3,19.6L704,928.8L704,928.8z M701,891.4c-15-0.1-25.2,3.2-25.2,12.2 c0,5.9,4.2,9.2,10.6,9.2c7,0,12.5-4.8,14.2-9.9c0.3-1.4,0.5-3,0.5-4.4V891.4z"></path> <path style="fill:#00D9C9;" d="M812.2,926.6c-5.2,2.4-14.5,4.2-25.1,4.2c-27.6,0-45-16.4-45-41c0-22.9,16.4-42.5,48.5-42.5 c7.1,0,15.1,1.2,21.3,3.5l-4.2,18.9c-3.4-1.6-8.4-2.9-15.8-2.9c-14,0-23.2,9.2-23.1,21.9c0,14.7,11,22,23.7,22 c6.8,0,12.1-1.2,16.4-2.9L812.2,926.6z"></path> <path style="fill:#00D9C9;" d="M853.4,882.4h0.3c2-2.9,4.2-6.3,6.3-9l18.1-24.1H910l-31.6,31.9l36.7,47.7h-32.6l-21.9-32.7 l-7.2,8.2v24.5h-25.9V812.3h25.9V882.4z"></path> </g> <g> <path style="fill:#00D9C9;" d="M184.3,660c0,47.4,0,93.4,0,139.7c9.2,0,17.6,0,27.1,0c0-18.6,0-36.7,0-54.8c-1.4-2.9-1-4.2,1.6-0.3 c13,17.4,26,34.8,39.7,53.1c13.7-18.2,26.9-35.8,40-53.2c2.3-3.5,2.4-3.1,2.1,1c0,18,0,36.1,0,54.1c9.2,0,17.7,0,26.3,0 c0-46.5,0-92.4,0-139.7c-23.2,31.2-45.6,61.2-68.4,92C229.6,720.8,207.3,690.7,184.3,660z"></path> <path style="fill:#00D9C9;" d="M461.8,658.3c-0.3,0-0.6,0-0.7,0H457V686h35.8c-0.1,32.5,0.1,75.8,0.2,106.4c0,2.4,0,4.8,0,7.3 c9.3,0,17.7,0,27.1,0c0-33.8,0.1-79.2-0.1-113.8h35.2v-0.2c0-9.9,0-18.6,0-27.5h-58.9C484.7,658.3,473.2,658.3,461.8,658.3z"></path> <path style="fill:#00D9C9;" d="M334.5,800.2c9.4,0,17.7-0.1,25.8,0.1h7.8c0-0.1,0-1.6,0-3.1c0-1.7,2.8-5.1,5.3-6.8 c2.5-1.7,5.2-2.8,5.2-4.3c0-1.5-2.5-1.7-2.5-3.7c0-2.1,3.5-1,4.6-3.1c1.1-2.1,6.9-12.9,6.9-33.2c0,0-9.7,0.6-9.7-3.4 c0-3.9,5-3.5,5-3.5s-0.4-3.6,1.9-3.6c1.1,0,1.5,0,1.7,0v-5.5c0,0-6.7-10.5-6.7-16.5c0-5.9,9.3-7.3,12.8-7.3c3.4,0,2.3-3.8,1-3.7 c-1.3,0.1-1.8-0.7-1.8-1.9s2.6-1,2.6-1v-2.7h-3.9v1.9h-1.8v-6.7h1.5v2h3.8c0,0,0.4-2.6-0.6-2.6c-1,0-1.5-1-1.5-2.3 c0-1.3,3.6-1.4,3.6-1.4v-5c0,0-1.3,0.4-1.3-1.5c0-1.8,2-1.7,3.3-1.7c1.2,0,3.3-0.1,3.3,1.7c0,1.8-1.3,1.5-1.3,1.5v5 c0,0,3.6,0.1,3.6,1.4c0,1.3-0.6,2.3-1.5,2.3c-1,0-0.6,2.6-0.6,2.6h3.8v-2h1.5v6.7h-1.8v-1.9h-3.9v2.7c0,0,2.6-0.2,2.6,1 s-0.6,2-1.8,1.9s-2.3,3.7,1,3.7c3.4,0,12.8,1.4,12.8,7.3c0,5.9-6.7,16.5-6.7,16.5v5.5c0.2,0,0.6,0,1.7,0c2.2,0,1.9,3.6,1.9,3.6 s5-0.4,5,3.5s-9.7,3.4-9.7,3.4c0,20.2,5.8,31.1,6.9,33.2c1.1,2.1,4.6,1,4.6,3.1c0,2.1-2.5,2.3-2.5,3.7c0,1.4,2.7,2.6,5.2,4.3 c2.5,1.7,5.3,5.2,5.3,6.8c0,1.4,0,2.6,0,3.1h5.1c9.1,0.2,18.1,0.1,28.4,0.1c-21.1-47.4-41.6-93.5-62.9-141.3 C375.8,706.8,355.3,753,334.5,800.2z"></path> </g> <g> <path style="fill:#00D9C9;" d="M768.3,658.3c-17.2,0-32.1,0-49.6,0.1h-27.8v6.2c0,0.3,0,0.7,0,1.1v133.6h0.8c9.1,0,18.1,0,27,0 c18.8,0,37.3,0,55.9,0c0-8.8,0-17.1,0-26.2c-13.2,0-26,0-38.9,0c-7.6,0-13.1,0-17.1-0.1v-30.2c2.4-0.1,6.5,0,12.9,0 c9.6,0,19.2,0,29.1,0c0-9.5,0-17.8,0-27.2c-9,0-17.8,0-26.6,0c-7.5,0-12.3,0-15.4-0.2v-29.7c2.6-0.1,7,0.1,13.9,0.1 c14,0,28,0,42.3,0c0-9.5,0-18.1,0-27.5C772.2,658.3,770.3,658.3,768.3,658.3z"></path> <path style="fill:#00D9C9;" d="M829,658.3c-11.4,0-22.8,0-34.2,0c-0.3,0-0.5,0-0.8,0H790V686h35.6c-0.1,32.5,0.1,75.5,0.2,106.1 c0,2.4,0,4.7,0,7.3c9.3,0,17.6,0,27,0c0-33.8,0.1-79-0.1-113.4h35.1v-0.2c0-9.8,0-18.5,0-27.5H829L829,658.3z"></path> <path style="fill:#00D9C9;" d="M653.8,707.6c-3.6-2-4.4-3.8-3.8-8c4-22-12.1-41-34.6-41.3c-3.2-0.1-6.8-0.2-12.6,0h-22v10.1l0,0 c0.2,27.2,0.2,54.3,0.2,81.4c0,16.2,0,32.5,0,49.8c17.1,0,33.2,0.2,49.2,0c22.8-0.2,42.2-15.2,47.5-36.4 C683.1,741,673.7,718.6,653.8,707.6z M608.2,698.9c0-0.1,0-0.2,0-0.3v-10c0.1-0.2,0.1-0.3,0-0.5v-2.3c1.1-0.1,3.1-0.2,6-0.2 c6.1,0,9.7,3.1,9.3,8.2c-0.5,5.7-4.1,7.5-9.3,7.5c-2.8,0-4.7,0-6-0.1V698.9z M631.3,772.9c-4.2,0.3-14.9,0.2-23.1,0.1v-2.1 c0-0.1,0-0.2,0-0.2v-39.2c0-0.2,0-0.2,0-0.4v-2.3c7.3,0,18.1-0.2,22.5,0c11.5,0.4,21,9.9,21.3,21.4 C652.4,761.5,642.9,772.2,631.3,772.9z"></path> </g> </svg> 