<?xml version="1.0" encoding="utf-8"?>
<!-- Generator: Adobe Illustrator 26.1.0, SVG Export Plug-In . SVG Version: 6.00 Build 0)  -->
<svg version="1.1" id="Layer_1" xmlns="http://www.w3.org/2000/svg" xmlns:xlink="http://www.w3.org/1999/xlink" x="0px" y="0px"
	 viewBox="0 0 1056.6 202" style="enable-background:new 0 0 1056.6 202;" xml:space="preserve">
<g id="Livello_1_1_">
</g>
<g id="Layer_1_00000121280000816817959920000000882230360127541942_">
</g>
<path style="fill:#00D9C9;" d="M180.5,31.5c0-1.6,0-3.3,0-5V21H59.7v5.4c0,1.9,0,3.7,0.1,5.4H27.1v5.4c0,58.3,48.6,73.9,57.9,76.2
	c5.3,5.8,10.8,9.9,15.5,13.5c9.3,7.4,14,11.3,14,19.8v16.7c-9,0.8-17.5,4.3-20.6,10.9H81.5c-6.2,0-10.9,5-10.9,10.9h98.7
	c0-6.2-5-10.9-10.9-10.9H146c-3.1-6.6-11.7-9.7-20.6-10.9v-16.7c0.4-9,5-12.8,14.4-19.8c4.7-3.6,10.1-7.7,15.3-13.4
	c7.6-1.8,58.5-16.7,58.5-76.7v-5.5L180.5,31.5L180.5,31.5z M38.4,42.8h21.9c1.6,25.2,6.8,42.4,13.5,54.8
	C59.6,90.2,40.3,74.6,38.4,42.8z M166.6,97.6c6.7-12.5,12-29.9,13.6-55.2H202C200,74.8,180.6,90.4,166.6,97.6z"/>
<g>
	<path style="fill:#0A2232;" d="M81.8,28.2c0,10.6,0,20.8,0,31.1c2,0,3.9,0,6,0c0-4.1,0-8.2,0-12.2c-0.3-0.6-0.2-0.9,0.3-0.1
		c2.9,3.9,5.8,7.7,8.8,11.8c3-4.1,6-8,8.9-11.9c0.5-0.8,0.5-0.7,0.5,0.2c0,4,0,8,0,12c2.1,0,4,0,5.9,0c0-10.4,0-20.6,0-31.1
		c-5.2,6.9-10.1,13.6-15.2,20.5C91.9,41.8,86.9,35.1,81.8,28.2z"/>
	<path style="fill:#0A2232;" d="M143.6,27.9c-0.1,0-0.1,0-0.2,0h-0.9V34h8c0,7.2,0,16.9,0,23.7c0,0.5,0,1.1,0,1.6c2.1,0,3.9,0,6,0
		c0-7.5,0-17.6,0-25.3h7.8v0c0-2.2,0-4.1,0-6.1h-13.1C148.7,27.9,146.1,27.9,143.6,27.9z"/>
	<path style="fill:#0A2232;" d="M115.2,59.5c2.1,0,3.9,0,5.7,0h1.7c0,0,0-0.3,0-0.7c0-0.4,0.6-1.1,1.2-1.5c0.6-0.4,1.2-0.6,1.2-0.9
		s-0.6-0.4-0.6-0.8c0-0.5,0.8-0.2,1-0.7s1.5-2.9,1.5-7.4c0,0-2.2,0.1-2.2-0.8c0-0.9,1.1-0.8,1.1-0.8s-0.1-0.8,0.4-0.8
		c0.2,0,0.3,0,0.4,0v-1.2c0,0-1.5-2.3-1.5-3.7c0-1.3,2.1-1.6,2.8-1.6c0.8,0,0.5-0.8,0.2-0.8s-0.4-0.2-0.4-0.4s0.6-0.2,0.6-0.2v-0.6
		h-0.9v0.4h-0.4v-1.5h0.3v0.5h0.8c0,0,0.1-0.6-0.1-0.6c-0.2,0-0.3-0.2-0.3-0.5c0-0.3,0.8-0.3,0.8-0.3v-1.1c0,0-0.3,0.1-0.3-0.3
		c0-0.4,0.5-0.4,0.7-0.4c0.3,0,0.7,0,0.7,0.4c0,0.4-0.3,0.3-0.3,0.3v1.1c0,0,0.8,0,0.8,0.3c0,0.3-0.1,0.5-0.3,0.5
		c-0.2,0-0.1,0.6-0.1,0.6h0.8v-0.5h0.3v1.5h-0.4v-0.4H130v0.6c0,0,0.6,0,0.6,0.2s-0.1,0.5-0.4,0.4s-0.5,0.8,0.2,0.8
		c0.8,0,2.8,0.3,2.8,1.6s-1.5,3.7-1.5,3.7v1.2c0,0,0.1,0,0.4,0c0.5,0,0.4,0.8,0.4,0.8s1.1-0.1,1.1,0.8s-2.2,0.8-2.2,0.8
		c0,4.5,1.3,6.9,1.5,7.4c0.2,0.5,1,0.2,1,0.7s-0.6,0.5-0.6,0.8c0,0.3,0.6,0.6,1.2,0.9c0.6,0.4,1.2,1.2,1.2,1.5c0,0.3,0,0.6,0,0.7
		h1.1c2,0,4,0,6.3,0c-4.7-10.6-9.3-20.8-14-31.5C124.4,38.7,119.9,49,115.2,59.5z"/>
</g>
<g>
	<path style="fill:#0A2232;" d="M132.2,62.3c-4.6,0-8.6,0-13.3,0h-7.5V64c0,0.1,0,0.2,0,0.3v35.9h0.2c2.4,0,4.9,0,7.3,0
		c5,0,10,0,15,0c0-2.4,0-4.6,0-7c-3.5,0-7,0-10.5,0c-2,0-3.5,0-4.6,0V85c0.7,0,1.7,0,3.5,0c2.6,0,5.2,0,7.8,0c0-2.6,0-4.8,0-7.3
		c-2.4,0-4.8,0-7.1,0c-2,0-3.3,0-4.1-0.1v-8c0.7,0,1.9,0,3.7,0c3.8,0,7.5,0,11.4,0c0-2.6,0-4.9,0-7.4
		C133.3,62.3,132.7,62.3,132.2,62.3z"/>
	<path style="fill:#0A2232;" d="M148.5,62.3c-3.1,0-6.1,0-9.2,0c-0.1,0-0.1,0-0.2,0H138v7.5h9.6c0,8.7,0,20.3,0,28.5
		c0,0.6,0,1.3,0,2c2.5,0,4.7,0,7.3,0c0-9.1,0-21.2,0-30.5h9.4v-0.1c0-2.6,0-5,0-7.4L148.5,62.3L148.5,62.3z"/>
	<path style="fill:#0A2232;" d="M101.4,75.5c-1-0.5-1.2-1-1-2.1c1.1-5.9-3.3-11-9.3-11.1c-0.9,0-1.8,0-3.4,0h-5.9V65l0,0
		c0,7.3,0,14.6,0,21.9c0,4.4,0,8.7,0,13.4c4.6,0,8.9,0,13.2,0c6.1-0.1,11.4-4.1,12.8-9.8C109.3,84.5,106.8,78.5,101.4,75.5z
		 M89.2,73.2C89.2,73.2,89.2,73.1,89.2,73.2v-2.8c0,0,0-0.1,0-0.1v-0.6c0.3,0,0.8,0,1.6,0c1.6,0,2.6,0.8,2.5,2.2
		c-0.1,1.5-1.1,2-2.5,2c-0.7,0-1.3,0-1.6,0V73.2z M95.4,93.1c-1.1,0.1-4,0-6.2,0v-0.6c0,0,0,0,0-0.1V81.9c0,0,0-0.1,0-0.1v-0.6
		c2,0,4.9,0,6.1,0c3.1,0.1,5.6,2.7,5.7,5.7C101,90.1,98.5,92.9,95.4,93.1z"/>
</g>
<g>
	<path style="fill:#FFFFFF;" d="M256.1,88l13-61.3h28.5l0.7,28.8h0.8l12.9-28.8h28.4L327.4,88h-19.9l7.4-34.5h-1L298.4,88h-13.8
		l-0.8-34.5h-1L275.4,88H256.1z"/>
	<path style="fill:#FFFFFF;" d="M350.1,88.8c-2.7,0-4.9-0.3-6.7-0.9c-1.8-0.6-3.1-1.7-4-3.3c-0.9-1.6-1.3-3.8-1.3-6.6
		c0-1.6,0.1-3.4,0.3-5.5c0.2-2.1,0.6-4.4,1.1-7c0.9-4.6,2-8.5,3.1-11.5c1.1-3.1,2.3-5.5,3.7-7.2c1.4-1.8,3-3,4.8-3.7
		c1.8-0.7,3.8-1.1,6.1-1.1c1.7,0,3.2,0.1,4.7,0.4c1.5,0.2,2.8,0.7,4.1,1.4c1.2,0.7,2.2,1.8,3,3.4h0.9l1.4-4.5h18.5L380.2,88h-18.4
		l0.8-5.1h-1c-1.1,1.6-2.2,2.8-3.5,3.7c-1.2,0.8-2.5,1.4-3.9,1.7C352.9,88.6,351.5,88.8,350.1,88.8z M360.6,74c0.8,0,1.5,0,2-0.1
		c0.5-0.1,0.8-0.3,1.1-0.6c0.3-0.3,0.5-0.8,0.8-1.5c0.2-0.5,0.4-1.2,0.6-2.1c0.2-0.9,0.5-1.9,0.7-3c0.2-1.1,0.5-2.2,0.7-3.3
		c0.2-1.1,0.4-2,0.5-2.9c0.1-0.9,0.2-1.5,0.2-2c0-0.9-0.2-1.4-0.6-1.6c-0.4-0.2-1.2-0.3-2.4-0.3c-0.9,0-1.6,0.1-2.1,0.2
		c-0.5,0.1-1,0.4-1.3,1c-0.4,0.5-0.7,1.4-1,2.6c-0.3,1.2-0.7,2.9-1.2,5c-0.4,1.8-0.7,3.2-0.9,4.3c-0.2,1.1-0.3,2-0.3,2.6
		c0,0.5,0.1,0.9,0.3,1.2c0.2,0.3,0.5,0.4,1,0.5C359.3,74,359.9,74,360.6,74z"/>
	<path style="fill:#FFFFFF;" d="M422.1,88c-5.1,0-9.3-0.1-12.7-0.2c-3.4-0.1-6.1-0.5-8.1-1c-2-0.6-3.4-1.5-4.3-2.7
		c-0.9-1.2-1.3-2.9-1.3-5.1c0-0.9,0.1-1.9,0.2-2.9c0.1-1.1,0.3-2.2,0.5-3.5c0.2-1.2,0.5-2.6,0.8-4.1L400,56h-7.5l2.9-13.4h7.5
		l2.8-13.2H425l-2.8,13.2h9.1L428.5,56h-9.1l-3.1,14.7c-0.1,0.4-0.1,0.7-0.2,1c-0.1,0.3-0.1,0.6-0.1,0.8c0,0.2,0,0.4,0,0.6
		c0,0.7,0.3,1.2,0.8,1.6c0.5,0.4,1.4,0.7,2.6,0.8c1.2,0.1,3,0.2,5.3,0.2L422.1,88z"/>
	<path style="fill:#FFFFFF;" d="M461.2,88.8c-1.7,0-3.3-0.1-4.9-0.4c-1.6-0.3-2.9-0.9-4.1-1.7c-1.2-0.8-2-2-2.6-3.7h-1l-1.5,5.1
		h-18.4l14-66.2h19.1l-5.3,25.3h0.9c1.2-1.5,2.4-2.7,3.6-3.4c1.2-0.7,2.5-1.2,3.7-1.4c1.2-0.2,2.4-0.4,3.5-0.4c2.8,0,5.1,0.3,6.9,1
		c1.8,0.7,3.1,1.8,4,3.4c0.9,1.6,1.3,3.8,1.3,6.7c0,1.6-0.1,3.4-0.3,5.5c-0.2,2.1-0.6,4.4-1.1,7c-1,4.6-2,8.5-3.1,11.5
		c-1.1,3-2.4,5.4-3.8,7.1c-1.4,1.7-3,2.9-4.8,3.6C465.5,88.4,463.5,88.8,461.2,88.8z M454.4,74c0.9,0,1.7-0.1,2.2-0.2
		c0.5-0.1,1-0.4,1.3-1c0.3-0.5,0.6-1.4,0.9-2.6c0.3-1.2,0.7-2.9,1.2-5c0.4-1.7,0.6-3.1,0.8-4.3c0.2-1.1,0.3-2,0.3-2.6
		c0-0.6-0.1-1-0.3-1.3c-0.2-0.3-0.5-0.4-1-0.5c-0.4-0.1-1.1-0.1-1.8-0.1c-0.7,0-1.3,0-1.8,0.1c-0.5,0.1-0.9,0.2-1.2,0.5
		c-0.3,0.3-0.6,0.7-0.8,1.3c-0.2,0.4-0.4,1.1-0.6,2c-0.2,1-0.5,2-0.8,3.2c-0.3,1.2-0.5,2.3-0.8,3.4c-0.2,1.1-0.4,2.2-0.6,3.1
		c-0.1,0.9-0.2,1.6-0.2,1.9c0,0.9,0.2,1.4,0.7,1.6C452.6,73.9,453.4,74,454.4,74z"/>
	<path style="fill:#FFFFFF;" d="M505.7,88.8c-5.9,0-10.6-0.4-13.9-1.2c-3.4-0.8-5.7-2-7-3.7s-2-3.8-2-6.5c0-1.7,0.1-3.5,0.3-5.5
		c0.2-2,0.5-4.2,1-6.6c0.8-4.2,1.7-7.8,2.6-10.8c0.9-3,2.2-5.4,3.8-7.3c1.6-1.9,4-3.3,7-4.1c3-0.9,7.1-1.3,12.2-1.3
		c5.3,0,9.5,0.3,12.4,0.9c2.9,0.6,5,1.6,6.1,3.1c1.1,1.4,1.7,3.4,1.7,5.8c0,1.1-0.1,2.5-0.4,4.1c-0.2,1.6-0.5,3.2-0.9,4.9
		c-0.4,1.7-0.7,3.2-1.1,4.7l-0.8,3.5h-24.8c-0.1,0.4-0.2,1-0.4,1.9c-0.2,0.8-0.3,1.4-0.3,1.8c0,1,0.2,1.6,0.6,2
		c0.4,0.4,1.3,0.6,2.7,0.7c1.4,0.1,3.6,0.1,6.6,0.1c1,0,2.3,0,3.8-0.1c1.5-0.1,3.1-0.1,4.9-0.2c1.8-0.1,3.5-0.2,5.2-0.3L522.5,87
		c-1.2,0.4-2.7,0.7-4.5,0.9c-1.8,0.3-3.8,0.5-6,0.6C509.9,88.7,507.8,88.8,505.7,88.8z M503.5,61.3h7.7l0.3-1.4
		c0.2-1,0.3-1.8,0.4-2.5c0.1-0.6,0.2-1.2,0.2-1.6c0-0.6-0.1-1-0.3-1.3c-0.2-0.3-0.5-0.4-1-0.5c-0.5-0.1-1.1-0.1-1.9-0.1
		c-1,0-1.7,0.1-2.2,0.2c-0.5,0.1-1,0.4-1.3,0.8c-0.3,0.4-0.6,1.2-0.9,2.2C504.2,58.1,503.9,59.5,503.5,61.3z"/>
	<path style="fill:#FFFFFF;" d="M564,88c-5.1,0-9.3-0.1-12.7-0.2c-3.4-0.1-6.1-0.5-8.1-1c-2-0.6-3.4-1.5-4.3-2.7
		c-0.9-1.2-1.3-2.9-1.3-5.1c0-0.9,0.1-1.9,0.2-2.9c0.1-1.1,0.3-2.2,0.5-3.5c0.2-1.2,0.5-2.6,0.8-4.1l2.7-12.6h-7.5l2.9-13.4h7.5
		l2.8-13.2h19.4l-2.8,13.2h9.1L570.4,56h-9.1l-3.1,14.7c-0.1,0.4-0.1,0.7-0.2,1c-0.1,0.3-0.1,0.6-0.1,0.8c0,0.2,0,0.4,0,0.6
		c0,0.7,0.3,1.2,0.8,1.6c0.5,0.4,1.4,0.7,2.6,0.8c1.2,0.1,3,0.2,5.3,0.2L564,88z"/>
	<path style="fill:#FFFFFF;" d="M578.9,54.4l1.4-6.4c1.9,0,3.3-0.2,4.3-0.5c0.9-0.4,1.6-1,2.1-1.8c0.4-0.9,0.8-2,1.1-3.5l0.3-1.2
		h-6.2l3-14.3h18.3l-2.4,11.1c-0.7,3.2-1.5,5.9-2.3,8.1c-0.8,2.2-2,3.9-3.5,5.1c-1.5,1.2-3.5,2.1-6.1,2.7
		C586.3,54.2,583,54.4,578.9,54.4z"/>
	<path style="fill:#FFFFFF;" d="M626.4,88.8c-5.9,0-10.6-0.4-13.9-1.2c-3.4-0.8-5.7-2-7-3.7s-2-3.8-2-6.5c0-1.7,0.1-3.5,0.3-5.5
		c0.2-2,0.5-4.2,1-6.6c0.8-4.2,1.7-7.8,2.6-10.8c0.9-3,2.2-5.4,3.8-7.3c1.6-1.9,4-3.3,7-4.1c3-0.9,7.1-1.3,12.2-1.3
		c5.3,0,9.5,0.3,12.4,0.9c2.9,0.6,5,1.6,6.1,3.1c1.1,1.4,1.7,3.4,1.7,5.8c0,1.1-0.1,2.5-0.4,4.1c-0.2,1.6-0.5,3.2-0.9,4.9
		c-0.4,1.7-0.7,3.2-1.1,4.7l-0.8,3.5h-24.8c-0.1,0.4-0.2,1-0.4,1.9c-0.2,0.8-0.3,1.4-0.3,1.8c0,1,0.2,1.6,0.6,2
		c0.4,0.4,1.3,0.6,2.7,0.7c1.4,0.1,3.6,0.1,6.6,0.1c1,0,2.3,0,3.8-0.1c1.5-0.1,3.1-0.1,4.9-0.2c1.8-0.1,3.5-0.2,5.2-0.3L643.2,87
		c-1.2,0.4-2.7,0.7-4.5,0.9c-1.8,0.3-3.8,0.5-6,0.6C630.5,88.7,628.4,88.8,626.4,88.8z M624.2,61.3h7.7l0.3-1.4
		c0.2-1,0.3-1.8,0.4-2.5c0.1-0.6,0.2-1.2,0.2-1.6c0-0.6-0.1-1-0.3-1.3c-0.2-0.3-0.5-0.4-1-0.5c-0.5-0.1-1.1-0.1-1.9-0.1
		c-1,0-1.7,0.1-2.2,0.2c-0.5,0.1-1,0.4-1.3,0.8c-0.3,0.4-0.6,1.2-0.9,2.2C624.9,58.1,624.6,59.5,624.2,61.3z"/>
	<path style="fill:#FFFFFF;" d="M260.7,181c-6.4,0-11.4-0.4-15-1.3s-6.2-2.3-7.7-4.3c-1.5-2-2.2-4.7-2.2-8.1c0-2.3,0.3-4.9,0.9-8
		c0.6-3.1,1.3-6.6,2-10.6c0.9-4.9,1.9-9.2,2.7-12.7c0.9-3.5,1.9-6.4,3.3-8.7c1.3-2.3,3-4.1,5.1-5.4c2.1-1.3,4.9-2.3,8.2-2.8
		c3.4-0.5,7.6-0.8,12.7-0.8c6.4,0,11.3,0.4,14.9,1.3c3.6,0.9,6.1,2.3,7.6,4.3c1.5,2,2.2,4.7,2.2,8.2c0,2.3-0.3,5-0.8,8
		c-0.5,3-1.2,6.5-2.1,10.4c-1.1,5-2.2,9.3-3.1,12.8c-1,3.5-2,6.4-3.3,8.7c-1.2,2.3-2.9,4.1-4.9,5.4c-2,1.3-4.7,2.2-8,2.8
		C269.9,180.7,265.7,181,260.7,181z M256.2,113l2.4-11.1h14.7l-2.4,11.1H256.2z M262,166.1c1.2,0,2.3-0.1,3.1-0.2
		c0.8-0.1,1.5-0.4,2.1-1c0.6-0.5,1.1-1.4,1.5-2.5c0.4-1.2,0.9-2.8,1.4-4.9c0.5-2.1,1.1-4.7,1.8-7.9c0.7-3.4,1.3-6.1,1.6-8.3
		c0.4-2.1,0.6-3.8,0.6-4.9c0-1.1-0.2-1.8-0.5-2.3c-0.4-0.5-0.9-0.8-1.6-0.8c-0.7-0.1-1.7-0.1-2.9-0.1c-1.2,0-2.3,0.1-3.1,0.2
		c-0.8,0.1-1.5,0.4-2,1c-0.6,0.5-1.1,1.4-1.5,2.5c-0.4,1.2-0.9,2.8-1.4,4.9c-0.5,2.1-1,4.7-1.7,7.9c-0.5,2.3-0.9,4.3-1.3,6.1
		c-0.4,1.7-0.7,3.2-0.8,4.4c-0.2,1.2-0.3,2.2-0.3,2.9c0,1,0.2,1.7,0.5,2.2c0.4,0.4,0.9,0.7,1.6,0.8C259.8,166,260.8,166.1,262,166.1
		z M276.2,113l2.4-11.1h14.6l-2.4,11.1H276.2z"/>
	<path style="fill:#FFFFFF;" d="M293.3,180.2l2.6-12.7l21.1-19.4h-15.9l2.9-13.4h40.4l-2.7,12.7l-21.1,19.4h17.1l-2.9,13.4H293.3z"
		/>
	<path style="fill:#FFFFFF;" d="M367.3,181c-5.9,0-10.6-0.4-13.9-1.2c-3.4-0.8-5.7-2-7-3.7s-2-3.8-2-6.5c0-1.7,0.1-3.5,0.3-5.5
		c0.2-2,0.5-4.2,1-6.6c0.8-4.2,1.7-7.8,2.6-10.8c0.9-3,2.2-5.4,3.8-7.3c1.6-1.9,4-3.3,7-4.1c3-0.9,7.1-1.3,12.2-1.3
		c5.3,0,9.5,0.3,12.4,0.9s5,1.6,6.1,3.1c1.1,1.4,1.7,3.4,1.7,5.8c0,1.1-0.1,2.5-0.4,4.1c-0.2,1.6-0.5,3.2-0.9,4.9
		c-0.4,1.7-0.7,3.2-1.1,4.7l-0.8,3.5h-24.8c-0.1,0.4-0.2,1-0.4,1.9c-0.2,0.8-0.3,1.4-0.3,1.8c0,1,0.2,1.6,0.6,2
		c0.4,0.4,1.3,0.6,2.7,0.7c1.4,0.1,3.6,0.1,6.6,0.1c1,0,2.3,0,3.8-0.1c1.5-0.1,3.1-0.1,4.9-0.2c1.8-0.1,3.5-0.2,5.2-0.3l-2.6,12.2
		c-1.2,0.4-2.7,0.7-4.5,0.9c-1.8,0.3-3.8,0.5-6,0.6C371.5,180.9,369.4,181,367.3,181z M365.2,153.5h7.7l0.3-1.4
		c0.2-1,0.3-1.8,0.4-2.5c0.1-0.6,0.2-1.2,0.2-1.6c0-0.6-0.1-1-0.3-1.3c-0.2-0.3-0.5-0.4-1-0.5c-0.5-0.1-1.1-0.1-1.9-0.1
		c-1,0-1.7,0.1-2.2,0.2c-0.5,0.1-1,0.4-1.3,0.8c-0.3,0.4-0.6,1.2-0.9,2.2C365.9,150.3,365.6,151.7,365.2,153.5z"/>
	<path style="fill:#FFFFFF;" d="M391.9,180.2l13.9-66.2h19.4l-14,66.2H391.9z"/>
	<path style="fill:#FFFFFF;" d="M453.5,180.2l9.7-45.6h-15l3.4-15.7h50.9l-3.4,15.7h-15.1l-9.7,45.6H453.5z"/>
	<path style="fill:#FFFFFF;" d="M505.7,181c-2.9,0-5.1-0.4-6.7-1.1c-1.6-0.7-2.7-1.8-3.4-3.2c-0.7-1.4-1-3.2-1-5.3
		c0-1.2,0.2-2.9,0.5-4.9c0.4-2,0.7-4.1,1.2-6.2l5.4-25.4h19l-4.8,22.8c-0.3,1.4-0.6,2.8-0.8,4c-0.2,1.2-0.4,2.1-0.4,2.7
		c0,0.5,0.1,0.9,0.2,1.2c0.1,0.3,0.4,0.4,0.7,0.5c0.3,0.1,0.7,0.1,1.2,0.1c0.8,0,1.5-0.1,2-0.2c0.5-0.1,0.9-0.4,1.2-0.9
		c0.3-0.5,0.6-1.2,0.9-2.2c0.3-1,0.6-2.4,1-4.1l5.2-24h19l-9.6,45.5h-18.4l0.7-5.1H518c-1.2,1.6-2.6,2.8-4.1,3.7
		c-1.5,0.8-2.9,1.4-4.3,1.7S506.9,181,505.7,181z"/>
	<path style="fill:#FFFFFF;" d="M544.6,180.2l9.6-45.5h18.4l-1.2,7.6h0.9c1.3-2.3,2.6-4,3.9-5.2c1.3-1.2,2.9-2,4.7-2.5
		c1.8-0.4,4.1-0.7,6.8-0.7l-3.6,16.6c-3,0-5.4,0.2-7.4,0.6c-2,0.4-3.6,1.1-4.8,2c-1.2,1-2.2,2.4-3,4.3c-0.8,1.9-1.5,4.4-2.1,7.4
		l-3.3,15.2H544.6z"/>
	<path style="fill:#FFFFFF;" d="M583.7,180.2l9.6-45.5h18.4l-0.7,5.1h0.9c1.2-1.6,2.6-2.8,4.1-3.7c1.5-0.8,2.9-1.4,4.4-1.7
		c1.5-0.3,2.7-0.4,3.9-0.4c2.9,0,5.2,0.3,6.7,1c1.6,0.7,2.7,1.7,3.3,3.1c0.7,1.4,1,3.1,1,5.2c0,1.2-0.1,2.9-0.4,4.9
		c-0.3,2-0.7,4.1-1.2,6.2l-5.5,25.8h-19l4.8-22.8c0.3-1.4,0.6-2.8,0.8-4s0.4-2.1,0.4-2.7c0-0.6-0.1-1-0.2-1.2
		c-0.1-0.2-0.4-0.4-0.7-0.5c-0.3-0.1-0.7-0.1-1.2-0.1c-0.8,0-1.5,0.1-2,0.2c-0.5,0.1-0.9,0.4-1.2,0.9c-0.3,0.5-0.6,1.2-0.9,2.2
		c-0.3,1-0.6,2.4-1,4.1l-5.2,24H583.7z"/>
	<path style="fill:#FFFFFF;" d="M649.5,181c-2.9,0-5.1-0.4-6.7-1.1s-2.7-1.8-3.4-3.2c-0.7-1.4-1-3.2-1-5.3c0-1.2,0.2-2.9,0.5-4.9
		c0.4-2,0.7-4.1,1.2-6.2l5.4-25.4h19l-4.8,22.8c-0.3,1.4-0.6,2.8-0.8,4c-0.2,1.2-0.4,2.1-0.4,2.7c0,0.5,0.1,0.9,0.2,1.2
		c0.1,0.3,0.4,0.4,0.7,0.5c0.3,0.1,0.7,0.1,1.2,0.1c0.8,0,1.5-0.1,2-0.2c0.5-0.1,0.9-0.4,1.2-0.9c0.3-0.5,0.6-1.2,0.9-2.2
		c0.3-1,0.6-2.4,1-4.1l5.2-24h19l-9.6,45.5H662l0.7-5.1h-0.9c-1.2,1.6-2.6,2.8-4.1,3.7c-1.5,0.8-2.9,1.4-4.3,1.7
		S650.7,181,649.5,181z"/>
	<path style="fill:#FFFFFF;" d="M696.8,180.2l-1.9-45.5h18.6l-0.7,29.4h1l11.4-29.4h19.3l-21.4,45.5H696.8z"/>
	<path style="fill:#FFFFFF;" d="M752.9,181c-2.7,0-4.9-0.3-6.7-0.9c-1.8-0.6-3.1-1.7-4-3.3c-0.9-1.6-1.3-3.8-1.3-6.6
		c0-1.6,0.1-3.4,0.3-5.5c0.2-2.1,0.6-4.4,1.1-7c0.9-4.6,2-8.5,3.1-11.5c1.1-3.1,2.3-5.5,3.7-7.2c1.4-1.8,3-3,4.8-3.7
		c1.8-0.7,3.8-1.1,6.1-1.1c1.7,0,3.2,0.1,4.7,0.4c1.5,0.2,2.8,0.7,4.1,1.4c1.2,0.7,2.2,1.8,3,3.4h0.9l1.4-4.5h18.5l-9.6,45.5h-18.5
		l0.8-5.1h-1c-1.1,1.6-2.2,2.8-3.5,3.7c-1.2,0.8-2.5,1.4-3.9,1.7C755.6,180.8,754.3,181,752.9,181z M763.3,166.3c0.8,0,1.5,0,2-0.1
		c0.5-0.1,0.8-0.3,1.1-0.6c0.3-0.3,0.5-0.8,0.8-1.5c0.2-0.5,0.4-1.2,0.6-2.1c0.2-0.9,0.5-1.9,0.7-3c0.2-1.1,0.5-2.2,0.7-3.3
		c0.2-1.1,0.4-2.1,0.5-2.9c0.1-0.9,0.2-1.5,0.2-2c0-0.9-0.2-1.4-0.6-1.6c-0.4-0.2-1.2-0.3-2.4-0.3c-0.9,0-1.6,0.1-2.1,0.2
		c-0.5,0.1-1,0.4-1.3,1c-0.4,0.5-0.7,1.4-1,2.6c-0.3,1.2-0.7,2.9-1.2,5c-0.4,1.8-0.7,3.2-0.9,4.3c-0.2,1.1-0.3,2-0.3,2.6
		c0,0.5,0.1,0.9,0.3,1.2c0.2,0.3,0.5,0.4,1,0.5C762,166.2,762.6,166.3,763.3,166.3z"/>
</g>
</svg>
