<?xml version="1.0" encoding="UTF-8"?>
<svg id="Layer_1" data-name="Layer 1" xmlns="http://www.w3.org/2000/svg" xmlns:xlink="http://www.w3.org/1999/xlink" version="1.1" viewBox="0 0 531.4 73.8">
  <defs>
    <linearGradient id="Adsız_degrade_5" data-name="Adsız degrade 5" x1="40.8" y1="-.5" x2="39.4" y2="101.1" gradientUnits="userSpaceOnUse">
      <stop offset="0" stop-color="#fff"/>
      <stop offset="1" stop-color="#808285"/>
    </linearGradient>
    <linearGradient id="Adsız_degrade_5-2" data-name="Adsız degrade 5" x1="225.1" y1="2.1" x2="223.6" y2="103.6" xlink:href="#Adsız_degrade_5"/>
    <linearGradient id="Adsız_degrade_5-3" data-name="Adsız degrade 5" x1="139.7" y1=".9" x2="138.3" y2="102.4" xlink:href="#Adsız_degrade_5"/>
    <linearGradient id="Adsız_degrade_5-4" data-name="Adsız degrade 5" x1="266.5" y1="2.7" x2="265.1" y2="104.2" xlink:href="#Adsız_degrade_5"/>
    <linearGradient id="Adsız_degrade_5-5" data-name="Adsız degrade 5" x1="97.8" y1=".3" x2="96.4" y2="101.9" xlink:href="#Adsız_degrade_5"/>
    <linearGradient id="Adsız_degrade_5-6" data-name="Adsız degrade 5" x1="184.6" y1="1.6" x2="183.2" y2="103.1" xlink:href="#Adsız_degrade_5"/>
  </defs>
  <g>
    <path d="M13.5,9.6v54.7h10.6v-21.5c-.6-1.1-.4-1.6.6-.1,5.1,6.8,10.2,13.6,15.5,20.8,5.4-7.1,10.5-14,15.7-20.9.9-1.4.9-1.2.8.4v21.2h10.3V9.6c-9.1,12.2-17.9,24-26.8,36-9.1-12.2-17.8-23.9-26.8-36Z" style="fill: url(#Adsız_degrade_5); stroke-width: 0px;"/>
    <path d="M238.6,9c-6.8,0-12.6,0-19.5,0h-10.9v2.4c0,.1,0,.3,0,.4v52.5h32.9v-10.3c-5.2,0-10.2,0-15.3,0s-5.2,0-6.7,0v-11.8c1,0,2.6,0,5,0,3.8,0,7.6,0,11.4,0v-10.7c-3.6,0-7,0-10.4,0s-4.9,0-6,0v-11.7c1,0,2.7,0,5.4,0,5.5,0,11,0,16.6,0v-10.8c-1,0-1.8,0-2.6,0Z" style="fill: url(#Adsız_degrade_5-2); stroke-width: 0px;"/>
    <path d="M122.2,9c-.1,0-.2,0-.3,0h-1.6v10.9h14c0,12.8,0,29.7,0,41.7,0,.9,0,1.9,0,2.9h10.6c0-13.3,0-31,0-44.6h13.8v-10.9h-23.1c-4.5,0-9,0-13.5,0Z" style="fill: url(#Adsız_degrade_5-3); stroke-width: 0px;"/>
    <path d="M262.5,9c-4.5,0-9,0-13.5,0-.1,0-.2,0-.3,0h-1.6v10.9h14c0,12.8,0,29.7,0,41.7,0,.9,0,1.9,0,2.9h10.6c0-13.3,0-31,0-44.6h13.8v-10.9h-23.1Z" style="fill: url(#Adsız_degrade_5-4); stroke-width: 0px;"/>
    <path d="M72.3,64.5c3.7,0,6.9,0,10.1,0h3v-1.2c0-.6,1.1-2,2.1-2.7s2-1.1,2-1.7-1-.6-1-1.5,1.4-.4,1.8-1.2,2.7-5.1,2.7-13c0,0-3.8.2-3.8-1.3s2-1.4,2-1.4c0,0-.1-1.4.7-1.4h.6v-2.2s-2.6-4.1-2.6-6.5,3.7-2.9,5-2.9.9-1.5.4-1.5-.7-.3-.7-.8,1-.4,1-.4v-1.1h-1.5v.8h-.7v-2.6h.6v.8h1.5s.2-1-.2-1-.6-.4-.6-.9,1.4-.5,1.4-.5v-1.9s-.5.1-.5-.6.8-.7,1.3-.7c.5,0,1.3,0,1.3.7s-.5.6-.5.6v1.9s1.4,0,1.4.5-.2.9-.6.9-.2,1-.2,1h1.5v-.8h.6v2.6h-.7v-.8h-1.5v1.1s1,0,1,.4-.2.8-.7.8-.9,1.5.4,1.5,5,.5,5,2.9-2.6,6.5-2.6,6.5v2.2h.6c.9,0,.7,1.4.7,1.4,0,0,2-.2,2,1.4s-3.8,1.3-3.8,1.3c0,7.9,2.3,12.2,2.7,13s1.8.4,1.8,1.2-1,.9-1,1.5,1.1,1,2,1.7,2.1,2,2.1,2.7v1.2h2c3.5,0,7.1,0,11.1,0-8.3-18.6-16.3-36.6-24.6-55.4-8.3,18.8-16.4,36.9-24.6,55.4Z" style="fill: url(#Adsız_degrade_5-5); stroke-width: 0px;"/>
    <path d="M193.6,28.3c-1.4-.8-1.7-1.5-1.5-3.1,1.6-8.7-4.7-16.1-13.6-16.2-1.3,0-2.7,0-5,0h-8.7v4h0c0,10.7,0,21.3,0,32,0,6.4,0,12.8,0,19.6,6.8,0,13,0,19.3,0,9,0,16.6-6,18.6-14.3,2.1-8.7-1.6-17.5-9.4-21.9ZM175.6,24.9s0,0,0-.1v-3.9c0,0,0-.1,0-.2v-.9c.5,0,1.2,0,2.4,0,2.4,0,3.8,1.2,3.6,3.2-.2,2.2-1.6,2.9-3.7,2.9s-1.8,0-2.4,0v-1ZM184.7,54c-1.7.1-5.9,0-9.1,0v-.8s0,0,0,0v-15.4s0,0,0-.1v-.9c2.9,0,7.1,0,8.9,0,4.5.2,8.2,3.9,8.4,8.4.1,4.5-3.6,8.6-8.2,8.9Z" style="fill: url(#Adsız_degrade_5-6); stroke-width: 0px;"/>
  </g>
  <path d="M334.9,32.8c-.3,1.1-1.2,1.7-2,2.4-2.6,2.3-5.2,4.5-7.8,6.8-.3.3-.3.5-.3.8.9,3.8,1.8,7.7,2.6,11.5.3,1.5-.5,2.8-2,2.9-.6,0-1-.1-1.5-.4-3.3-2-6.6-3.9-9.9-5.9-.5-.3-.8-.3-1.2,0-3.3,2-6.6,4-9.9,6-1.2.7-2.6.4-3.3-.7-.3-.6-.4-1.2-.2-1.9.9-3.8,1.7-7.6,2.6-11.4,0-.4,0-.7-.3-1-3-2.6-6-5.2-8.9-7.8-.7-.7-1-1.5-.7-2.4.3-.9,1-1.4,1.9-1.5,2.1-.2,4.2-.4,6.3-.6,1.9-.2,3.8-.4,5.7-.5.3,0,.5-.2.6-.5,1.6-3.7,3.1-7.3,4.7-11,.6-1.5,2.4-1.9,3.6-.9.3.3.5.6.7,1,1.5,3.6,3.1,7.2,4.6,10.8.2.4.4.5.8.6,2.7.2,5.4.5,8.1.7,1.2.1,2.5.2,3.7.3,1.1.1,1.8.7,2.1,1.7,0,0,0,0,0,.1v.8Z" style="fill: #22e2f0; stroke-width: 0px;"/>
  <path d="M515.4,32.8c-.3,1.1-1.2,1.7-2,2.4-2.6,2.3-5.2,4.5-7.8,6.8-.3.3-.3.5-.3.8.9,3.8,1.8,7.7,2.6,11.5.3,1.5-.5,2.8-2,2.9-.6,0-1-.1-1.5-.4-3.3-2-6.6-3.9-9.9-5.9-.5-.3-.8-.3-1.2,0-3.3,2-6.6,4-9.9,6-1.2.7-2.6.4-3.3-.7-.3-.6-.4-1.2-.2-1.9.9-3.8,1.7-7.6,2.6-11.4,0-.4,0-.7-.3-1-3-2.6-6-5.2-8.9-7.8-.7-.7-1-1.5-.7-2.4.3-.9,1-1.4,1.9-1.5,2.1-.2,4.2-.4,6.3-.6,1.9-.2,3.8-.4,5.7-.5.3,0,.5-.2.6-.5,1.6-3.7,3.1-7.3,4.7-11,.6-1.5,2.4-1.9,3.6-.9.3.3.5.6.7,1,1.5,3.6,3.1,7.2,4.6,10.8.2.4.4.5.8.6,2.7.2,5.4.5,8.1.7,1.2.1,2.5.2,3.7.3,1.1.1,1.8.7,2.1,1.7,0,0,0,0,0,.1v.8Z" style="fill: #22e2f0; stroke-width: 0px;"/>
  <g>
    <path d="M368,14c2.1,0,3.9.7,5.4,2.1,1.5,1.4,2.3,3.1,2.3,5.1v38.1c0,2-.8,3.7-2.3,5.1-1.5,1.4-3.3,2.1-5.4,2.1h-15.3c-2.1,0-3.9-.7-5.4-2.1-1.5-1.4-2.3-3.1-2.3-5.1V21.1c0-2,.8-3.7,2.3-5.1,1.5-1.4,3.3-2.1,5.4-2.1h15.3ZM357.5,3.4v7.7h-8.7V3.4h8.7ZM355.4,23.7v33h9.8V23.7h-9.8ZM372,3.4v7.7h-8.7V3.4h8.7Z" style="fill: #fff; stroke-width: 0px;"/>
    <path d="M393.8,23.7h-12.1v-9.7h25.6l-12.9,42.7h12.1v9.7h-25.6l12.8-42.7Z" style="fill: #fff; stroke-width: 0px;"/>
    <path d="M422.2,56.7h17.3v9.7h-27.7V14h27.7v9.7h-17.3v11.6h14.4v9.7h-14.4v11.6Z" style="fill: #fff; stroke-width: 0px;"/>
    <path d="M444.9,66.4V14h10.4v42.7h14.4v9.7h-24.8Z" style="fill: #fff; stroke-width: 0px;"/>
  </g>
</svg>