<?xml version="1.0" encoding="UTF-8"?> <svg xmlns="http://www.w3.org/2000/svg" xmlns:xlink="http://www.w3.org/1999/xlink" version="1.1" id="Layer_1" x="0px" y="0px" viewBox="0 0 1000 1000" style="enable-background:new 0 0 1000 1000;" xml:space="preserve"> <path style="fill:#FFFFFF;" d="M366.1,887.6c-3-0.4-6-0.8-9-1.4c-10.4-2.1-21-3.8-30.9-7.8c-11.1-4.4-20.5-11.5-29.7-19 c-0.4-0.4-0.8-0.8-1.3-1.1c-0.1-0.1-0.2-0.1-0.8-0.2c-0.6,2.3-1.3,4.7-1.8,7c-1.3,5.7-4.9,9.8-9.2,13.5c-7.2,6.2-16.2,7.5-25.1,7.9 c-11.2,0.5-22.5,0.3-33.7,0.1c-8-0.1-16.1-0.4-24.1-1.2c-5.7-0.6-11.5-1.8-16.9-3.6c-3.3-1.1-6.6-3.4-9-5.9 c-3.8-3.9-7.7-8.1-8.6-13.9c0-0.2-0.1-0.5-0.1-0.7c-2.8-8.6-3.2-17.6-3.8-26.5c-0.8-12.1-1.5-24.2-2.2-36.3 c-0.6-10.3-1.1-20.6-1.5-30.9c-0.6-15.7-1.1-31.5-1.4-47.3c-0.3-16.2-0.6-32.4-0.2-48.6c0.1-5.2,1.5-10.6,3.6-15.5 c1.6-3.9,4.6-7.4,8.2-10.2c4.3-3.3,9.1-5.3,14.4-6.5c7.4-1.7,14.7-2.6,22.2-2.6c7,0,14.1-0.5,21.1-0.3c12.6,0.4,25.1,0.9,37.7,1.9 c5.7,0.5,11.5,1.8,16.9,3.7c3.5,1.2,6.7,3.9,9.4,6.5c2.6,2.4,4.4,5.7,6.8,8.8c0.6-0.4,1.6-1.1,2.6-1.8c5.8-3.8,11.4-7.8,17.4-11.3 c8.6-5,18.4-6.9,28-9.2c9.1-2.1,18.3-3.5,27.6-3.4c6.7,0.1,13.3,0.6,19.9,2.2c8.5,2,17.2,3.2,25.3,6.7c15.5,6.8,29.1,16.2,39.4,29.8 c0.9,1.2,1.8,2.3,3.3,4.3c0.4-0.9,0.5-1.5,0.8-2c6.1-8.7,13.8-15.5,22.5-21.4c8-5.5,16.3-10.4,25.7-12.8c8.1-2.1,16.3-4.2,24.5-5.5 c6.4-1,13.1-1.3,19.6-1.2c10.8,0,21.3,2.9,31.7,5.4c5.9,1.4,11.6,3.2,16.9,6.1c13.2,7.3,25.4,15.8,34.2,28.4c0.6,0.8,1.3,1.6,2,2.5 c0.5-0.6,0.9-0.9,1.3-1.4c6.1-8.7,13.9-15.4,22.5-21.4c10.4-7.3,21.6-12.2,34-15c10.7-2.4,21.5-4.8,32.5-4.7c7,0.1,14,0.6,20.9,2.3 c8.6,2.1,17.4,3.4,25.6,6.9c1.9,0.8,3.8,1.5,5.6,2.5c13.3,7.4,25.4,16.1,34.5,28.6c6.2,8.6,12.1,17.4,15,27.7 c3.1,10.7,6.3,21.4,7.1,32.5c0.4,5.4,0.2,10.8,0.3,16.3c0.1,4.4,0.3,8.8,0.3,13.2c0,8.7-0.5,17.5-2.4,26c-2,8.7-4,17.5-6.6,26 c-4.6,15.5-13.3,28.9-24.2,40.6c-13.5,14.6-29.8,25.1-49.7,28.9c-7,1.3-13.9,3.5-21.1,3.7c-0.4,0-0.8,0.4-1.2,0.6 c-3.4,0-6.8,0-10.2,0c-0.4-0.2-0.7-0.5-1.1-0.6c-6-1-12.1-1.7-18.1-2.9c-6.2-1.3-12.4-2.9-18.4-4.9c-10.4-3.4-19-10-27.7-16.4 c-6.7-5-12-11.4-16.8-18.2c-1-1.4-2-2.6-3.2-4.1c-1.8,2.4-3.4,4.4-4.9,6.6c-9.2,13.2-21.8,22.3-35.8,29.7 c-10.6,5.6-22.4,7.2-33.9,9.5c-2.7,0.6-5.5,0.9-8.3,1.3c-3.4,0-6.8,0-10.2,0c-0.4-0.2-0.8-0.6-1.2-0.6c-7.3-0.2-14.3-2.1-21.4-3.6 c-7.4-1.6-14.8-3.4-21.6-6.9c-14.8-7.8-28.1-17.4-37.7-31.5c-1-1.5-2.2-2.9-3.5-4.5c-2.2,2.9-4.1,5.5-6.1,8.1 c-9.4,12.7-21.9,21.6-35.7,28.7c-10.2,5.2-21.6,6.7-32.7,9c-2.7,0.6-5.5,0.9-8.3,1.4C372.9,887.6,369.5,887.6,366.1,887.6z M458.5,786.9c0.2,0,0.3,0,0.5,0.1c1.3,5.3,2.3,10.6,3.8,15.9c7.1,25.3,21.6,44.9,45.5,56.5c16.5,8.1,34.3,10.9,52.6,8.4 c8.6-1.2,17.1-3.3,25.1-7c17.2-8.2,29.8-21.1,39-37.6c5.9-10.6,9.3-22.1,11.9-33.9c0.2-0.8,0.5-1.6,0.7-2.4c1,2.7,1.5,5.3,2.1,7.9 c0.6,2.7,1.2,5.3,2,7.9c9.6,32.5,29.7,54.5,63.2,63c17.8,4.5,35.3,3.9,52.6-2c19.7-6.7,34.2-19.8,44.7-37.4 c10.8-18,15.2-38,16.3-58.7c0.4-7.1-0.1-14.3,0.1-21.4c0.4-13-1.6-25.6-5.5-37.8c-5.6-17.4-15.7-31.5-30.6-42.2 c-15.1-10.8-32.4-14.9-50.5-15.8c-11.8-0.6-23.3,1.4-34.5,4.7c-17,5.1-31,14.7-41.9,28.8c-7.8,10.1-13,21.5-15.7,34 c-0.4,1.7-0.9,3.4-1.3,5.2c-1.3-3.2-2.1-6.3-2.8-9.5c-4-16.1-12.1-29.8-24.2-41c-16.5-15.2-36.6-21.1-58.5-22.2 c-10.1-0.5-20.1,1.1-29.9,3.5c-23.4,5.8-41,19.3-53.1,40c-4.9,8.3-7.7,17.4-9.8,26.7c-0.2,0.8-0.5,1.6-1,3.1 c-1-3.9-1.7-7.1-2.5-10.3c-3.9-15.7-11.8-29.2-23.6-40.2c-16.5-15.6-36.9-21.6-59-22.7c-11.1-0.5-21.9,1.3-32.6,4.2 c-15.1,4-27.9,11.8-38.6,23.1c-15.3,16.1-22.2,35.9-23.8,57.6c-0.8,9.8-0.4,19.7-0.5,29.6c-0.1,15.3,2.3,30.3,7.4,44.8 c6,17.1,15.8,31.7,30.7,42.2c22,15.6,46.5,20,72.8,14.7c20.8-4.2,37-15.3,49.6-32.2c8.7-11.8,14.3-24.9,17.6-39.1 C457.2,792.3,457.9,789.6,458.5,786.9z M222.9,654.4c0,0.2,0,0.4,0,0.6c-5.2,0-10.4-0.1-15.6,0c-3.9,0.1-7.7,0.2-11.6,0.5 c-2.9,0.2-5.8,0.7-8.7,1.2c-9,1.7-11.6,7.3-11.9,15c-0.3,7.2-0.2,14.5,0,21.8c0.3,16,0.6,32,1.1,48c0.5,16.2,1.2,32.4,2,48.6 c0.9,17.1,1.9,34.2,3,51.3c0.3,4.7,1.1,9.4,1.9,14.1c0.6,3.4,2.6,5.9,5.4,8c3.1,2.2,6.7,2.8,10.3,3c5.5,0.4,11.1,0.8,16.6,0.8 c14.7,0.2,29.5,0.4,44.2,0.3c2.7,0,5.7-0.8,8.1-2.1c4.9-2.4,6.4-7.2,6.5-12.3c0.5-20.8,0.8-41.5,1.4-62.3 c0.5-21.5,1.3-43.1,1.8-64.6c0.4-18.6,0.6-37.2,0.9-55.8c0-0.6,0-1.1,0-1.7c-0.6-4.9-2.6-9-7.7-10.6c-2.6-0.8-5.3-1.3-8-1.5 C249.4,655.9,236.1,655.2,222.9,654.4z"></path> <path style="fill:#FFFFFF;" d="M946,219c-0.2,0.5-0.5,1-0.6,1.5c-0.2,2.2-1.7,3.3-3.5,3.6c-2.1,0.4-4.2,0.5-6.4,0.5 c-5,0-9.9-1.5-14.9-0.4c-2.9,0.6-3.9,1.2-4,4.1c-0.3,6.6-0.3,13.1-0.3,19.7c0.1,23.3,0.2,46.5,0.3,69.8c0,0.5,0.1,0.9,0,1.4 c-0.7,3.8-0.5,6.2-6.6,6.1c-16.6-0.1-33.1,0-49.7,0c-0.9,0-1.8,0-2.7-0.2c-1.9-0.3-3.2-1.2-3.5-3.2c-0.3-1.4-0.5-2.9-0.5-4.4 c-0.1-27.7-0.2-55.4-0.3-83c0-2.1-0.3-4.3-0.6-6.4c-0.4-2.2-1.5-3.8-4-3.9c-2.1-0.1-4.3-0.3-6.4-0.3c-4.3,0-8.6,0.1-12.9,0.3 c-4.6,0.2-6.3-1.4-6.4-6.1c-0.2-9.2-0.5-18.4-0.6-27.5c0-3.3,0.2-6.5,0.5-9.8c0.4-4.1,2-5.5,6.2-5.5c18.9,0,37.9,0,56.8-0.1 c17.6,0,35.2-0.1,52.7-0.1c0.8,0,1.6,0,2.4,0c2.3-0.1,4.2,0.6,5.1,3.1C946,191.8,946,205.4,946,219z"></path> <path style="fill:#FFFFFF;" d="M605.8,616.8c-6.8,2.8-13.4,5.7-20,8.2c-3.9,1.5-8,2.5-12,3.8c-3.2,1-6.4,0.8-9.7,0.4 c-10.5-1.1-21-1.3-31.5,0.6c-2.3,0.4-4.5,0.5-6.7-0.1c-5.6-1.7-11.3-3.2-16.9-5.1c-2-0.7-3.7-2.2-5.8-3.5c-1.8,0.6-4.1,1.3-6.3,2 c-21.6,6.9-43.6,9.5-66.1,7c-13.8-1.5-27.2-4.9-39.8-10.9c-1.7-0.8-2.9-0.6-4.4,0.2c-4.9,2.6-9.9,5.1-14.8,7.6 c-2.2,1.1-4.4,1.6-6.8,1.7c-4.1,0.2-8.2,0.6-12.1,1.4c-9.3,2.1-18.5,4.5-27.7,6.7c-1.8,0.4-3.8,0.3-5.7,0.2 c-6.5-0.4-12.8-1.5-18.9-4.1c-4.2-1.8-8.1-4.1-9.7-9.1c-1-0.1-2-0.2-3-0.2c-16.8-0.1-33.6-0.1-50.3-0.4c-4.5-0.1-9.1-0.9-13.3-2.4 c-5.5-2-8.7-6.6-10.4-12.3c-2.3-8.1-3.6-16.4-4.2-24.8c-1.3-16.3-2.4-32.5-3.5-48.8c-0.8-12-1.6-23.9-2.4-35.9 c-0.8-12.4-1.4-24.9-2.4-37.3c-1.7-21.2-1.9-42.4-1.7-63.6c0.1-5.3,0.1-10.7,1.6-15.9c1.1-3.7,3.2-6.7,6.1-9.2 c4.3-3.6,9.2-5.7,14.6-7.1c11.3-2.9,22.8-4.8,34.6-4.9c16.3-0.1,32.7-0.4,49-0.2c12.6,0.1,24.9,2.3,36.7,6.6 c13.9,5.1,26.7,12.5,37,23.5c3.9,4.2,7.1,8.8,9.1,14.2c0.1,0.4,0.4,0.8,0.7,1.3c6.5-3.6,13.7-4.2,20.8-4.5c15.5-0.6,31.1-0.4,46.5,2 c3.4,0.5,6.8,2.3,10.2,2.2c3.2-0.1,6.4-2.3,9.7-3c3.4-0.8,6.9-1.2,10.4-1.2c13.1-0.2,25.8,1.6,37.2,8.2c2.7-2.1,5.1-4.2,7.8-5.9 c6.9-4.4,14.7-6.4,22.7-7.7c11.5-1.9,23-2.4,34.6-1.6c0.8,0.1,1.6,0,2.8,0c0.2-2.7,0.3-5.4,0.5-8.1c0.4-4.6,1.1-9.1,4.2-12.7 c1.3-1.4,2.7-2.7,4.3-3.8c6.8-5.1,14.5-7.8,23.1-7.8c17.6,0,35.2,0.1,52.7,1.9c3.6,0.4,7.1,1.3,10.6,2.2c1.8,0.5,3.5,0.6,5.3,0 c8.4-2.8,17-4.8,25.8-6c17.9-2.3,35.9-3.1,53.9-0.3c5.3,0.8,10.5,2.6,15.8,4.1c1.6,0.5,3.1,1.4,4.6,2.2c6.2,3.6,9.6,8.8,9.7,16 c0.1,4.6,0.3,9.3,0.3,13.9c0,23.4,0.1,46.7,0,70.1c-0.1,16.3-0.1,32.7-0.7,49c-0.7,17.8-1.8,35.5-3,53.3 c-0.8,11.3-1.9,22.6-3.1,33.8c-0.4,4.1-1.1,8.3-3.8,11.8c-2.1,2.7-4.6,4.6-7.9,5.5c-9,2.6-18.2,3.6-27.5,4.3 c-12.9,0.9-25.8,1-38.7-0.1c-6.9-0.6-13.7-1.7-20.6-2.6c-1-0.1-2.1-0.3-2.9-0.8c-4.3-2.4-8.6-1.6-13.1-0.5 c-12.8,3.1-25.9,4.6-39.1,4C629,624.2,616.8,622.2,605.8,616.8z M379.8,427.5c-0.3-0.1-0.5-0.1-0.5-0.2c-0.4-0.7-0.7-1.4-1-2.1 c-6.6-13.3-15.5-24.6-27.5-33.7c-14.5-10.9-30.9-16.6-48.5-19.2c-20.9-3.1-41.6-1.4-62,4c-5,1.3-9.6,3.5-13.5,6.9 c-2.8,2.4-4.8,5.3-5.9,8.9c-1,3.8-1.2,7.6-1.3,11.4c-0.3,15,0.1,29.9,1,44.9c0.7,10.8,1.7,21.7,2.4,32.5c0.8,11,1.4,21.9,2.1,32.9 c0.7,10.8,1.3,21.7,2.1,32.5c0.8,11.6,1.7,23.3,2.9,34.9c0.7,6.1,1.9,12.1,3.5,18c1.6,5.8,5.2,10.4,11.2,12.3 c4.5,1.5,9.3,2.1,14.1,2c4.8-0.1,9.5,0.2,14.3,0.1c7.4-0.2,14.7-0.5,22.1-1.2c4.4-0.4,8.6-1.8,13.2-2.8c0.5,1.1,1.1,2.1,1.6,3.2 c3.6,8.1,13,13.8,22.7,10.8c1-0.3,2-0.5,3-0.7c13-3.3,24.9-9.1,36.5-15.6c1.9-1.1,3.7-2.7,5.2-4.3c3.4-3.8,4-8.6,4.2-13.3 c0.3-5.5,0.1-11.1,0.1-16.7c0-0.7,0.2-1.5,0.4-2.9c0.3,0.9,0.4,1.1,0.5,1.3c0.3,1,0.5,2,0.7,3c4.2,16,13.4,28.1,28.3,35.5 c6,3,12.6,4.4,19.2,5.6c16.5,3.1,32.8,2.4,48.7-2.8c17.8-5.7,29.4-17.7,34.7-35.7c0.2-0.8,0.5-1.6,0.8-2.4c0.4,0.9,0.5,1.6,0.5,2.4 c0,9.1,1.7,18,4.1,26.8c1.4,4.9,4.4,8.9,9.2,10.8c4.4,1.8,9.2,2.6,14,2.4c8.1-0.4,16.2-1.3,24.2-3.1c10-2.2,19.3-5.7,27.4-12.2 c7.7-6.2,13.4-13.8,16.4-23.3c2.3-7.2,3.5-14.5,3.4-22.1c-0.1-8.1,0-16.2,0-24.3c0.5,7.4,0.9,14.7,1.2,22c0.4,9.7,0.7,19.5,0.9,29.2 c0.1,4.2,0.4,8.4,1.5,12.4c0.9,3.2,2.7,5.6,5.1,7.8c3.9,3.5,8.8,4.4,13.6,4.6c13.5,0.6,27,0.8,40.5,0.8c6.8,0,13.5-1.4,19.1-6 c0.1-0.1,0.4,0,0.8-0.1c1.9,2.4,4,4.6,7.1,5.4c3.3,0.8,6.6,1.7,10,1.9c13.8,0.7,27.6,1,41.5,1.5c3.3,0.1,6.5-0.4,9.7-1.2 c3.2-0.8,5.6-2.7,7.8-5.2c2.9-3.4,3.6-7.6,4-11.7c1.4-13.6,2.8-27.3,3.8-40.9c0.9-12.3,1.5-24.6,2.1-37c0.4-9.4,0.7-18.8,0.7-28.2 c0.1-30.1,0-60.1,0.1-90.2c0-3.3-0.4-6.5-1.2-9.7c-1.4-5.4-5-9-10-10.7c-4.3-1.4-8.8-2.3-13.3-2.9c-12.7-1.6-25.6-1.8-38.4-1.3 c-7.3,0.3-14.4,1.8-21,4.4c-4.3-1.6-8.4-2.8-13-2.3c-3.9,0.4-7.9,0.5-11.9,0.5c-7.1-0.1-14.3-0.3-21.4-0.5 c-9.5-0.3-18.8,0.5-27.9,3.2c-1.6,0.5-3.2,1.2-4.6,2c-6.2,3.6-8.3,9.6-8.7,16.3c-0.2,5-0.2,10-0.2,15c0,1-0.1,1.9-0.3,3.3 c-1.8-1.9-3.1-3.6-4.6-5c-4.2-3.8-9.5-4.8-14.8-5.1c-11.7-0.7-23.3,0.3-34.8,2.8c-13,2.9-25.1,7.6-35.1,16.8c-0.5,0.5-1.2,0.9-2,1.5 c-0.3-0.6-0.5-1-0.6-1.4c-1-3.9-3.3-6.9-6.6-9.2c-4.7-3.2-10.1-4.1-15.5-4.4c-6-0.4-12-0.2-18-0.1c-5.3,0.1-10.3,1.1-14.8,4 c-5.8-2-11.7-3.1-17.8-3.2c-8.5-0.1-17-0.1-25.5-0.1c-9.7,0-19.2,1.1-28.6,3.4c-6,1.5-9.8,5.3-12.1,10.9 C380.2,426.5,380,427,379.8,427.5z"></path> <path style="fill:#FFFFFF;" d="M519.3,247.6c0-22,0-44,0-66c0-1.8,0.2-3.6,0.5-5.4c0.7-3.7,2.1-5,5.8-5.4c1.3-0.1,2.7-0.2,4.1-0.2 c9,0,17.9-0.1,26.9,0c13.5,0.1,27-0.2,40.4-1.2c13.3-1,26.5,0,39.4,3.3c16.3,4.2,24.9,15.1,27.7,31.2c2.1,11.9-0.7,22.7-7.7,32.5 c-3.9,5.4-3.8,6,1.5,10.2c11.3,9.1,15.1,21,13.5,35.1c-0.2,2.1-0.7,4.3-1.1,6.3c-3.5,15.9-13.2,26.7-27.5,33.8 c-4.1,2.1-8.5,2.9-13.2,2.9c-13.3-0.1-26.5-0.1-39.8,0c-20.1,0.2-40.1,0.5-60.2,0.8c-1.4,0-2.7,0-4.1-0.1c-3.2-0.3-5-1.8-5.6-5 c-0.4-2.2-0.6-4.5-0.7-6.7C519.3,291.6,519.3,269.6,519.3,247.6z M583.9,265.9c0,0-0.1,0-0.1,0c0,2.1-0.1,4.3,0,6.4 c0.1,2.3,1,3.6,3.2,4.2c3.8,1.1,7.5,1.1,11.2-0.7c4.1-2.1,5.8-5.7,4.4-10.1c-1.2-3.8-3.2-7.3-6.3-9.9c-2-1.6-4.3-2.8-6.7-3.8 c-2-0.8-3.5,0.1-4.4,2.1c-0.4,0.9-0.6,1.9-0.7,2.9C584.2,260,584.1,262.9,583.9,265.9z M584.4,233.7c-0.6,5.6,3.2,8.1,8.3,5.6 c2.3-1.2,4.4-2.7,6.5-4.3c2.6-2,4.1-4.9,4.7-8c0.8-3.8,0.4-8.1-5.6-9c-3.3-0.5-6.7-0.5-10.1-0.4c-2.7,0.1-3.8,1.5-3.8,4.2 C584.4,225.8,584.4,229.8,584.4,233.7z"></path> <path style="fill:#FFFFFF;" d="M308.8,310.8c-2.2-0.4-2.8-2.1-3.4-3.7c-2.9-7.5-4.3-15.2-4.8-23.2c-0.2-2.9-0.4-5.8-0.5-8.9 c1.9-0.2,3.5-0.3,5-0.6c2.6-0.6,3.6-1.6,3.7-3.4c0.1-1.8-0.8-2.7-3.4-3.6c-0.2-0.1-0.4-0.1-0.9-0.3c-0.4-1.5-0.3-3.7-3-3.4 c-0.4-3.1-0.4-5.9,1.2-8.7c2.2-4,3.8-8.2,4.4-12.8c0.4-3-0.6-5.3-3.2-6.9c-2.2-1.4-4.5-2.1-7.1-2.2c-1.2,0-2.4,0-2.8-1.4 c-0.4-1.3,0.2-1.9,1.4-2.6c1.6-0.9,1.4-1.7,0-3.2c-0.5-0.5-0.8-1.1-1.2-1.7c2.2-1.5,3.4-0.6,4.2,1.3c1.2-2.2,1.2-3.4,0.5-7.3 c-0.7,0.8-1,1.7-1.7,2c-0.6,0.3-1.5,0.1-2.8,0.1c0.3-1,0.4-1.9,0.8-2.5c1.7-2.5,1.7-2.7-1.3-3.9c-0.2-0.1-0.3-0.3-0.9-0.8 c0.3-1.4,0.5-3.2,1-4.8c0.5-1.8,0.1-2.6-1.7-2.8c-0.7-0.1-1.4-0.1-2,0c-1.6,0.3-2,1.1-1.6,2.7c0.5,1.7,0.8,3.4,1.1,4.7 c-1.1,1.6-3.7,0.9-3.3,3.1c0.3,1.3,1.2,2.5,1.8,3.8c-2.3,0.8-2.3,0.8-4.5-1.3c-0.4,2.4-0.7,4.6,0.1,6.8c1.1-0.7,2-1.4,3-1.8 c0.3-0.1,1.2,0.3,1.3,0.7c0.1,0.5-0.1,1.3-0.4,1.7c-1.8,1.8-1.8,1.7,0.2,3.6c0.5,0.5,0.9,1.6,0.7,2.3c-0.1,0.5-1,1.2-1.7,1.3 c-1.7,0.4-3.6,0.4-5.3,1c-5,1.6-6.8,4.5-5.6,9.5c0.9,3.7,2.2,7.4,3.9,10.8c1.4,2.9,2,5.7,1.5,8.8c-2.4,1.2-2.4,1.2-3.1,3.9 c-0.8,0.3-1.7,0.6-2.5,0.9c-1.3,0.6-1.8,1.7-1.7,3.1c0,1.4,0.8,2.4,2.1,2.8c1.9,0.5,4,0.8,6.2,1.2c0.1,0.3,0.3,0.8,0.3,1.4 c-0.4,9.8-1.3,19.5-4.6,28.8c-0.3,1-0.7,1.9-1.1,2.8c-1,2.3-1.1,2.3-4.2,1.6c-0.5,1-1.1,2.1-1.5,3.2c-1,2.7-1.8,5.4-2.9,8 c-2.3,5.7-5.3,7.7-11.5,7.6c-12.2-0.1-24.5-0.3-36.7-0.5c-5-0.1-6.4-1.7-5.2-6.6c1.7-7.3,3.6-14.5,5.5-21.7 c6.6-25,14.4-49.6,22.4-74.1c3.8-11.6,6.7-23.5,9.8-35.3c1.6-6.1,5-10.5,10.8-13c11.1-4.9,22.2-9.8,33.3-14.7 c2.6-1.2,5.1-2.5,7.6-3.8c4-2,6.1-1.6,8.9,1.8c1.2,1.5,2.2,3.1,3.2,4.8c8.7,15.7,16,32,23.4,48.3c8.5,18.7,16.6,37.5,27.3,55.1 c2.8,4.6,6.1,9,8.9,13.7c1.6,2.7,3,5.6,4.2,8.5c1.9,4.3,1.2,8.5-1.6,12.2c-3.7,5-7.5,10-11.5,14.7c-7.2,8.6-15.6,16.1-24.1,23.4 c-4,3.5-7.6,3.5-11.1-1.2c-3-4.1-5.4-8.6-8-13c-3.1-5.3-6.1-10.6-9.2-15.9c-1.9-3.2-2.7-3.2-5.5-0.9 C309.4,310.5,309.2,310.6,308.8,310.8z"></path> <path style="fill:#FFFFFF;" d="M690,247.1c0-20.3,0-40.6,0-60.9c0-2.3,0.3-4.7,0.9-7c0.7-2.7,2.8-4,5.6-3.9 c7.7,0.2,15.4,0.3,23.1,0.5c7.7,0.1,15.5,0.7,23.1,0.1c16.7-1.3,33.5-0.3,50.2-0.5c3.8-0.1,5.3,1.5,5.9,5.2c0.1,0.7,0.2,1.4,0.2,2 c0.2,10.2,0.4,20.4,0.4,30.6c0,7.3-1.2,8.5-8.4,8.6c-11.5,0.1-22.9,0.1-34.4,0.1c-6.5,0-6.9,0.5-6.9,7c0,1,0,2,0.1,3.1 c0.4,3.6,2,4.7,5.5,4c4.5-0.8,8.2-3.1,11.7-5.9c1.6-1.2,3.2-2.6,4.9-3.7c1.9-1.2,3.4-1,4.9,0.5c4.6,4.6,9.2,9.3,13.8,14 c0.8,0.8,1.5,1.7,2.1,2.6c1.9,2.8,1.7,5.2-0.6,7.7c-1,1.1-2.1,2.1-3.2,3.1c-4.2,3.6-8.5,7.2-12.8,10.7c-3.1,2.5-4.6,2.5-7.8-0.1 c-2.1-1.7-4.1-3.6-6.3-5.2c-1.8-1.3-3.7-2.6-5.8-3.5c-2.8-1.3-5.1-0.2-5.9,2.7c-1,3.6-1.1,7.4-0.3,11.1c0.4,1.8,1.5,2.4,3,2.7 c0.3,0.1,0.7,0,1,0c12.8-0.1,25.6,0.5,38.4-1.1c0.8-0.1,1.6-0.1,2.4-0.2c2.9-0.3,5,0.1,5.6,4.7c0.5,4,0.8,8.1,0.9,12.2 c0.1,8.8,0.1,17.7,0,26.5c0,3.7-0.6,4.4-4.3,4.4c-11.2-0.1-22.4-0.3-33.7-0.5c-3.2-0.1-6.3-0.1-9.5-0.1c-14.3,0-28.6-0.1-42.9,0 c-4.7,0-9.5,0.5-14.2,1c-4.1,0.4-6.5-1.1-7.4-5.2c-0.3-1.3-0.3-2.7-0.3-4c0-21.1,0-42.2,0-63.3C689.7,247.1,689.8,247.1,690,247.1z"></path> <path style="fill:#FFFFFF;" d="M119.3,289.7c-1-1.9-1.7-2.9-2.2-4c-0.9-2-1.5-4.1-2.6-5.9c-1.1-1.9-2.4-3.9-4-5.4 c-1.9-1.8-4.1-1.3-5.3,1c-1,1.9-1.8,3.9-2.6,5.9c-3.6,9.5-5.8,19.3-7.5,29.3c-1.3,7.5-1.5,6.2-7.4,6.3c-10.4,0.2-20.9,0.4-31.3,0.5 c-5,0.1-6-1.2-4.9-6.2c2.7-12.4,5.4-24.8,8.1-37.2c1.2-5.9,2.6-11.7,3.3-17.7c0.6-5.2,1.4-10.4,3.2-15.2c3.2-8.7,2.5-17.9,5.1-26.7 c2.5-8.8,3.9-17.9,5.9-26.8c0.6-2.7,1.2-5.3,1.9-7.9c0.4-1.4,1-2.7,1.5-4.3c1.1,0.3,1.9,0.5,2.7,0.7c4.1-2.9,6-3,10.1,0.1 c6.5,5,12.8,10.1,19.2,15.2c0.9,0.7,1.7,1.5,2.6,2.1c3.5,2.3,6.6,2.2,10-0.5c4.2-3.5,8.3-7,12.5-10.5c2.3-1.9,4.6-3.7,6.9-5.5 c3.1-2.5,6-5.1,11-4.5c0.4,1,1.2,2.4,1.8,4c5.1,14.4,10.3,28.8,15.2,43.3c6.3,18.7,12.6,37.3,18.5,56.1c1.5,4.8,2.8,9.6,4.1,14.5 c0.8,3-0.3,6.2-2,8.7c-5.2,8-10.8,15.7-17.5,22.6c-2,2-3.8,4.2-5.9,6.1c-2.7,2.5-5.6,4.9-8.6,7.2c-2.7,2.1-4.2,1.8-5.5-1.3 c-1.9-4.8-3.7-9.7-5.3-14.7c-4.8-14.4-9.5-28.8-14.2-43.3c-0.1-0.3-0.2-0.7-0.3-1c-0.9-2.1-2.5-3.3-4.4-3.2 c-2.1,0.1-3.3,1.3-4.1,3.1c-1.5,3.2-3,6.4-4.6,9.5C121.9,285.8,120.8,287.3,119.3,289.7z"></path> <path style="fill:#FFFFFF;" d="M468.5,255.7c0.4,1.3,1,2.5,1,3.8c0.1,12.7,0.1,25.4,0,38.1c0,1.4-0.6,2.8-0.9,4.3 c0.3,1.3,0.9,2.7,0.9,4.2c0.1,4,0.1,7.9,0,11.9c0,1.5-0.5,3.1-0.8,4.9c-3.6-0.2-6.8,0.5-10.2,0.4c-5.6-0.1-11.3,0.3-16.9,0.5 c-6.9,0.3-13.7,0.6-20.6,0.8c-3.6,0.1-7.2,0.1-10.8,0.1c-4.1,0-5.4-1.1-5.7-5.4c-0.3-4.9-0.4-9.7-0.4-14.6 c-0.1-24.3-0.1-48.6-0.2-72.8c0-2.4-0.3-4.8-0.7-7.1c-0.5-3.4-2-4.9-5.4-5c-6.3-0.1-12.7-0.1-19,0.3c-4.4,0.2-6.5-1.1-6.6-5.6 c-0.3-10.9-0.5-21.8-0.7-32.6c0-2.5,0.3-5,0.6-7.4c0.5-3.8,2.1-5.3,6.1-5.3c19.6,0,39.2-0.1,58.9-0.1c18.7,0,37.4-0.1,56.1-0.2 c0.6,0,1.1,0,1.7,0c4.4,0.2,5.7,1.5,5.7,5.8c0,12.6,0,25.2-0.1,37.8c0,5.7-2.1,7.8-7.8,8c-3.4,0.1-6.8-0.4-10.2-0.4 c-3.2,0-6.3,0.1-9.5,0.3c-1.7,0.1-2.9,1.2-3.2,3.1c-0.2,1.3-0.4,2.7-0.4,4c0,7.6,0,15.2,0,22.8c0,1.9,0.5,3.9-2.2,5 C467.8,255.4,468.2,255.5,468.5,255.7z"></path> <path style="fill:#FFFFFF;" d="M296.1,740.8c0.3-12.4,2.7-24.3,8.3-35.5c8.1-16.3,20.8-27.2,37.7-33.4c12.5-4.6,25.4-5.2,38.6-4.3 c10.5,0.8,20.3,3.6,29.4,8.7c14.9,8.3,24.5,20.9,30,36.8c3,8.7,4.1,17.6,4.2,26.7c0.1,13-1.4,25.8-6.2,38 c-5.1,12.9-12,24.7-22.8,33.7c-9.9,8.3-21.2,13.5-34,14.9c-13.7,1.5-27.1,0.5-40-4.8c-13.6-5.6-24.1-14.7-31.7-27.2 c-7.1-11.6-11.4-24.2-12.5-37.7C296.7,751.4,296.5,746.1,296.1,740.8z M394,761.8c0.2-5-0.6-9.9-2.1-14.7 c-1.6-5.4-4.9-9.5-10.1-11.7c-8.3-3.5-16.7-2.9-24.8,0.7c-2.3,1-4.2,3-6,4.9c-3.1,3.3-4,7.6-4.7,11.8c-1.7,9.8-0.4,19.4,2.5,28.8 c1.2,4,3.1,7.6,5.9,10.6c5.6,6.3,12.4,9,20.7,6.5c7.6-2.3,12.1-8,14.7-15C392.7,776.7,394.3,769.4,394,761.8z"></path> <path style="fill:#FFFFFF;" d="M550,666.9c12.9,0.2,25.3,2.4,36.8,8.4c15,7.8,25,19.9,31,35.6c3.9,10.2,5.2,20.9,5,31.7 c-0.2,13-2,25.8-7.2,37.8c-4.5,10.7-10.4,20.6-19,28.7c-12.1,11.3-26.4,17.3-42.9,18c-14.3,0.6-28-1.6-40.7-8.6 c-9.7-5.3-17.5-12.5-23.5-21.7c-8.4-12.9-13.1-27-14.2-42.4c-0.7-10.7-0.9-21.3,1.5-31.8c6.9-30.6,28.8-49.8,58.3-54.3 C540.1,667.5,545.1,667.3,550,666.9z M547.4,733c-1.9,0.3-4.7,0.8-7.4,1.4c-7.4,1.7-12.1,6.4-14.1,13.7c-3,10.9-2,21.7,1.1,32.5 c1.3,4.3,3.3,8.2,6.1,11.6c4.2,5,9.5,7.8,16.1,7.4c6-0.3,11-3.2,14.8-8c4.1-5,5.7-11,7-17.1c1.9-8.8,2-17.5-0.3-26.2 c-1.6-5.9-4.9-10.5-10.5-13.1C556.6,733.6,552.5,733,547.4,733z"></path> <path style="fill:#FFFFFF;" d="M727.9,827.1c-10.4,0.1-20.5-1.6-30.2-5.7c-17.1-7.3-28.9-19.9-36.2-36.9 c-4.6-10.6-7.3-21.6-7.9-33.2c-0.5-9.7-0.4-19.3,1.7-28.7c6.5-29.3,27.2-48.9,56.5-54.1c11.6-2.1,23.3-2.1,34.8,0.3 c25.6,5.3,42.6,20.6,51,45.3c2.5,7.4,3.5,15,3.7,22.7c0.3,9.4,0,18.8-2.3,28c-3.6,14.7-9.4,28.4-19.6,39.9 c-13,14.6-29.3,22-48.8,22.5C729.7,827.1,728.8,827.1,727.9,827.1z M751.1,761.1c0.1-3.8-0.6-8.6-2-13.3 c-2.1-7.2-6.7-11.9-14.1-13.7c-5.4-1.3-10.7-1.1-16.1,0.2c-7.9,1.9-12.5,6.7-14.6,14.4c-2.4,8.6-2,17.3-0.5,25.9 c1.1,6.4,3.5,12.4,7.7,17.5c7.2,8.7,18.7,10.1,27.5,3.1c4.9-3.9,7.7-9.1,9.5-15C750.4,774.4,751,768.3,751.1,761.1z"></path> <path style="fill:#FFFFFF;" d="M262.5,673.4c0,1.8,0,3.1,0,4.4c-0.4,15.2-0.9,30.4-1.3,45.5c-0.3,11.7-0.7,23.3-1,35 c-0.6,22.1-1.2,44.2-1.7,66.2c0,0.4-0.1,0.9-0.2,1.7c-19.4,0.5-38.6,0.3-58-1.1c-0.3-2.6-0.6-5-0.7-7.3c-0.7-10.3-1.4-20.6-2-30.9 c-0.6-10.4-1.3-20.8-1.7-31.2c-0.8-20.7-1.4-41.4-2.1-62.1c-0.2-5.9-0.2-11.8-0.3-17.7c0-1,0.1-2,0.1-3.4 C216.5,671.2,239.4,671.6,262.5,673.4z"></path> <path style="fill:#FFFFFF;" d="M705.8,493c0-1.2,0-2.5,0-3.7c0-31.4,0-62.9,0-94.3c0-4.1,0.5-4.8,4.6-5.7c5.8-1.3,11.7-1.3,17.6-1.4 c11.3-0.1,22.6,0.4,33.8,2c0.4,0.1,0.9,0.1,1.3,0.2c4.6,0.9,4.6,1,4.6,5.8c0,20.8,0,41.5,0,62.3c0,8.8,0,17.7-0.3,26.5 c-0.3,10.4-0.6,20.8-1.4,31.2c-1.3,16.9-2.9,33.8-4.5,50.7c-0.3,3.1-0.4,3.2-3.5,3.1c-9,0-17.9,0-26.9-0.3 c-6.8-0.2-13.5-0.8-20.3-1.3c-2.3-0.2-2.8-0.6-2.9-2.8c-0.4-5.3-0.6-10.6-0.9-15.9c-0.5-8.2-0.9-16.5-1.4-25.4 c-1.1,1.1-1.8,1.7-2.4,2.4c-2.4,2.7-4.7,5.5-7.2,8.1c-1.7,1.8-2.3,1.6-3.6-0.5c-0.7-1.2-1.2-2.4-1.8-3.7c-0.6-1.2-1.1-2.4-2.1-3.6 c-0.1,1.7-0.3,3.3-0.4,5c-0.7,10.2-1.3,20.3-2,30.5c-0.3,3.5-1,4.2-4.7,4.5c-4.4,0.4-8.8,0.6-13.2,0.6c-6.1,0-12.2-0.2-18.3-0.4 c-4.9-0.2-9.7-0.3-14.6-0.7c-3.6-0.3-3.8-0.6-4.1-4.1c-0.2-2.9-0.2-5.9-0.3-8.8c-0.3-10-0.6-19.9-0.9-29.9 c-0.4-14.3-0.9-28.6-1.4-42.8c-0.5-16-1-32-1.3-47.9c-0.3-11.7-0.3-23.4-0.5-35c0-4,0.5-4.7,4.3-5.6c2.4-0.6,4.9-1.1,7.3-1.2 c5.4-0.2,10.8-0.2,16.3-0.3c10,0,19.9,0,29.9,0c1.6,0,3.1-0.4,4.7-0.4c2.1,0,2.5,0.5,2.7,2.6c0.1,0.8,0,1.6,0,2.4 c-0.1,13.8,0,27.7-0.3,41.5c-0.3,14.1-0.8,28.1-1.3,42.1c-0.1,3.2-0.4,6.3-0.6,9.5c0,0.7,0.1,1.5,0.2,2.8c1.3-1.4,2.2-2.4,3.2-3.3 c0.9-0.9,1.8-1.8,2.7-2.5c3.3-2.6,4.2-2.5,6.1,1.3c1.1,2.2,2.1,4.5,3.1,6.7C705.4,493.1,705.6,493.1,705.8,493z"></path> <path style="fill:#FFFFFF;" d="M341.2,524.6c3.3,4.8,6.6,9.3,9.6,14c4.7,7.5,9.3,15,13.9,22.6c0.5,0.8,0.9,1.6,1.2,2.4 c0.7,2.1,0.3,3.1-1.7,4.1c-10.3,5.6-20.8,10.7-32,13.9c-0.3,0.1-0.7,0.2-1,0.3c-5.1,1.4-6.3,0.9-8.5-3.8c-4.5-9.5-10.5-18-17.6-25.7 c-0.5-0.5-1.1-0.9-2.2-1.8c-0.1,4.8-0.2,9.1-0.2,13.3c0,4.8-0.4,5.6-5.1,6.2c-4.9,0.7-9.9,1.2-14.9,1.4c-7.8,0.2-15.7,0.1-23.5,0 c-2.3,0-4.5-0.4-6.8-0.4c-2.9,0-4.5-1.5-5-4.1c-0.9-4-1.8-8-2.3-12c-0.9-8.7-1.6-17.3-2.3-26c-0.8-10.4-1.4-20.8-2.1-31.2 c-0.7-11.1-1.3-22.2-2.1-33.2c-0.8-12.1-1.8-24.2-2.6-36.2c-0.6-9.5-0.8-19-1.4-28.5c-0.2-3.4,1.3-5.3,4-6.8 c4.2-2.3,8.8-3.6,13.5-4.4c7.2-1.4,14.5-2.2,21.9-2.3c4.1,0,8.1-0.5,12.2-0.4c13.7,0.4,27,2.6,39.6,8.4c22,10.1,36.8,26.4,43,50 c2,7.6,2.4,15.4,2.2,23.3c-0.2,8.9-1.4,17.6-4.4,26c-4.5,12.9-12,23.3-24.2,30C342.3,523.8,342,524.1,341.2,524.6z M302.9,517.3 c0.8,0,1.4,0,1.9-0.1c16-2.5,23.3-14.7,20.6-30.1c-0.4-2.2-1.5-4.5-2.9-6.4c-3.7-4.8-13.3-8-19.6-5 C302.9,489.3,302.9,503.1,302.9,517.3z"></path> <path style="fill:#FFFFFF;" d="M503.6,481.8c-0.3,13-0.6,26.1-0.9,39.1c-0.2,7.3-0.7,14.5-2.3,21.6c-3.7,16.8-14.5,26.6-30.8,30.4 c-12.9,3.1-26.1,2.9-39.1,0.4c-17.7-3.4-28.9-13.9-33.3-31.3c-1.4-5.6-2.3-11.4-2.4-17.1c-0.5-28.9-0.6-57.8-0.9-86.8 c0-1.4,0-2.7,0.1-4.1c0.4-3.2,1.1-4.2,4.3-4.7c5-0.8,10.1-1.8,15.1-1.9c12.2-0.3,24.5-0.1,36.7-0.1c0.3,0,0.7,0,1,0 c6,0.3,7.3,1.7,7.3,7.7c-0.1,10.5-0.2,21.1-0.3,31.6c-0.3,21.2-0.6,42.4-0.8,63.6c0,1.9,0.3,3.8,0.6,5.7c0.6,2.8,2.5,4.3,5.3,4.5 c2.9,0.3,5.7-0.2,7-3.1c1-2.2,1.6-4.7,1.9-7.1c0.3-3,0.3-6.1,0.2-9.2c-0.3-28.4-0.5-56.7-0.8-85.1c0-1.7,0-3.4,0.2-5.1 c0.3-2.7,1.3-4,4-4.3c4.8-0.5,9.7-0.6,14.6-0.6c3.3,0,6.6,0.3,9.8,0.7c4.2,0.4,5.3,1.6,5.3,5.9c0.1,3.5,0,7-0.1,10.5 c-0.5,12.9-1,25.8-1.5,38.8C503.8,481.8,503.7,481.8,503.6,481.8z"></path> <path style="fill:#FFFFFF;" d="M530.4,556.8c0.3-7,0.7-6.1,6.1-6.3c4.6-0.1,9-0.9,13.2-2.7c5.3-2.3,7.6-6,5.6-13.1 c-1.2-4.2-4.2-7.2-7.3-10c-4.8-4.5-9.9-8.6-14.5-13.4c-8.1-8.4-13.8-18.3-15.3-30.1c-1.4-11.4-0.7-22.7,4.5-33.2 c5.2-10.5,13.8-17.2,24.4-21.6c10.2-4.2,20.8-6,31.8-6.4c4.1-0.1,8.2,0,12.2,0c0.9,0,1.8,0.2,2.7,0.3c2.5,0.3,3.8,1.6,4.2,4.1 c1.4,9.6,3.1,19.2,4.3,28.9c0.9,6.8,1.4,13.7,1.8,20.6c0.3,5.3,0.2,5.1-5.1,5.1c-3.1,0-6.4,0.1-9.4,0.9c-4.5,1.2-6.8,4.8-7.2,9.3 c-0.4,4,0.5,7.7,2.9,11.2c3.3,4.6,6.3,9.4,8.8,14.5c5.1,9.9,5.6,20.6,2.5,31.1c-2.7,9.5-9.2,16.3-17.7,21c-6.2,3.5-12.9,5.4-20,6.4 c-7.3,1-14.6,2-22,1.2c-2.3-0.2-3.6-1.3-4-3.4C532.1,566.4,531.2,561.6,530.4,556.8z"></path> <path style="fill:#FFFFFF;" d="M378.8,532.9c0.2,7.4,0.4,14.9,0.6,22.6c-2-1.6-2.6-4-3.8-5.8c-1.3-2-2.4-4.1-3.5-6.2 c2.1-3.6,4.1-7.2,6.2-10.8C378.5,532.8,378.7,532.8,378.8,532.9z"></path> <path style="fill:#FFFFFF;" d="M369.2,785.7c-4.1-2.6-5.3-6.5-6.4-10.4c-0.4-1.4,1-2.4,2.2-2.6c2.6-0.3,5.2-0.4,7.8-0.2 c1.6,0.1,2.7,1.7,2.3,3.2C374.2,779.5,372.8,783.1,369.2,785.7z"></path> <path style="fill:#FFFFFF;" d="M548.6,772.2c5.1-0.2,7,1.7,4.5,6.8c-0.8,1.7-1.7,3.4-2.9,4.9c-1.5,2-2.7,2.1-4,0.1 c-1.7-2.6-3-5.5-4.2-8.4c-0.6-1.4,0.6-2.7,2.3-3.1C545.6,772.4,547.1,772.4,548.6,772.2z"></path> <path style="fill:#FFFFFF;" d="M727.3,772.2c5-0.2,7.4,1.3,4.6,6.9c-0.9,1.8-1.9,3.6-3.1,5.2c-1.3,1.6-2.1,1.5-3.6,0 c-2.4-2.4-3.5-5.5-4.4-8.7c-0.5-1.6,0.8-2.6,2.2-2.9C724.4,772.4,725.9,772.4,727.3,772.2z"></path> </svg> 