<?xml version="1.0" encoding="UTF-8"?> <svg xmlns="http://www.w3.org/2000/svg" xmlns:xlink="http://www.w3.org/1999/xlink" version="1.1" id="Layer_1" x="0px" y="0px" viewBox="0 0 800 800" style="enable-background:new 0 0 800 800;" xml:space="preserve"> <path style="fill:#FFFFFF;" d="M152.6,299.3l97.5-149.5h26.5l-97.5,149.5H152.6z"></path> <path style="fill:#FFFFFF;" d="M339.9,299.3V197.2l-25.4,10v-36.9l41.5-20.4h34.8v149.5H339.9z"></path> <path style="fill:#FFFFFF;" d="M473.1,301.1c-11.3,0-20.7-0.5-28.2-1.5c-7.5-1-13.6-3-18.1-5.9c-4.6-2.9-8-7.2-10.3-12.8 c-2.3-5.6-3.8-13-4.6-22.2c-0.7-9.1-1.1-20.5-1.1-34.1c0-13.6,0.4-25,1.1-34.1c0.7-9.1,2.2-16.5,4.6-22.2c2.3-5.6,5.8-9.9,10.3-12.8 c4.6-2.9,10.6-4.9,18.1-5.9c7.5-1,16.9-1.5,28.2-1.5c11.3,0,20.7,0.5,28.2,1.5c7.5,1,13.6,3,18.1,5.9c4.6,2.9,8,7.2,10.3,12.8 c2.3,5.6,3.8,13,4.6,22.2c0.7,9.1,1.1,20.5,1.1,34.1c0,13.6-0.4,25-1.1,34.1c-0.7,9.1-2.2,16.5-4.6,22.2c-2.3,5.6-5.8,9.9-10.3,12.8 c-4.6,2.9-10.6,4.9-18.1,5.9C493.8,300.6,484.4,301.1,473.1,301.1z M473.1,264.8c2.3,0,4.2-0.1,5.5-0.4c1.4-0.3,2.5-1.1,3.3-2.4 c0.8-1.3,1.4-3.4,1.7-6.2c0.4-2.8,0.6-6.8,0.7-11.8c0.1-5.1,0.1-11.5,0.1-19.3s0-14.3-0.1-19.3c-0.1-5.1-0.3-9-0.7-11.8 c-0.4-2.8-0.9-4.9-1.7-6.2c-0.8-1.3-1.9-2.1-3.3-2.4c-1.4-0.3-3.2-0.4-5.5-0.4c-2.3,0-4.2,0.1-5.5,0.4c-1.4,0.3-2.5,1.1-3.3,2.4 c-0.8,1.3-1.4,3.4-1.7,6.2c-0.4,2.8-0.6,6.8-0.7,11.8c-0.1,5.1-0.1,11.5-0.1,19.3s0,14.3,0.1,19.3c0.1,5.1,0.3,9,0.7,11.8 c0.4,2.8,0.9,4.9,1.7,6.2c0.8,1.3,1.9,2.1,3.3,2.4C468.9,264.7,470.7,264.8,473.1,264.8z"></path> <path style="fill:#FFFFFF;" d="M616,301.1c-11.3,0-20.7-0.5-28.2-1.5c-7.5-1-13.6-3-18.1-5.9c-4.6-2.9-8-7.2-10.3-12.8 c-2.3-5.6-3.8-13-4.6-22.2c-0.7-9.1-1.1-20.5-1.1-34.1c0-13.6,0.4-25,1.1-34.1c0.7-9.1,2.2-16.5,4.6-22.2c2.3-5.6,5.8-9.9,10.3-12.8 c4.6-2.9,10.6-4.9,18.1-5.9c7.5-1,16.9-1.5,28.2-1.5c11.3,0,20.7,0.5,28.2,1.5c7.5,1,13.6,3,18.1,5.9c4.6,2.9,8,7.2,10.3,12.8 c2.3,5.6,3.8,13,4.6,22.2c0.7,9.1,1.1,20.5,1.1,34.1c0,13.6-0.4,25-1.1,34.1c-0.7,9.1-2.2,16.5-4.6,22.2c-2.3,5.6-5.8,9.9-10.3,12.8 c-4.6,2.9-10.6,4.9-18.1,5.9C636.7,300.6,627.3,301.1,616,301.1z M616,264.8c2.3,0,4.2-0.1,5.5-0.4c1.4-0.3,2.5-1.1,3.3-2.4 c0.8-1.3,1.4-3.4,1.7-6.2c0.4-2.8,0.6-6.8,0.7-11.8c0.1-5.1,0.1-11.5,0.1-19.3s0-14.3-0.1-19.3c-0.1-5.1-0.3-9-0.7-11.8 c-0.4-2.8-0.9-4.9-1.7-6.2c-0.8-1.3-1.9-2.1-3.3-2.4c-1.4-0.3-3.2-0.4-5.5-0.4c-2.3,0-4.2,0.1-5.5,0.4c-1.4,0.3-2.5,1.1-3.3,2.4 c-0.8,1.3-1.4,3.4-1.7,6.2c-0.4,2.8-0.6,6.8-0.7,11.8c-0.1,5.1-0.1,11.5-0.1,19.3s0,14.3,0.1,19.3c0.1,5.1,0.3,9,0.7,11.8 c0.4,2.8,0.9,4.9,1.7,6.2c0.8,1.3,1.9,2.1,3.3,2.4C611.8,264.7,613.7,264.8,616,264.8z"></path> <g> <path style="fill:#FFFFFF;" d="M155.9,410.7c-6.2,0-11.5-0.4-15.7-1.3c-4.2-0.9-7.6-2.2-10.2-4.2c-2.6-1.9-4.6-4.4-5.9-7.6 s-2.2-7.1-2.6-11.7c-0.5-4.6-0.7-10.1-0.7-16.4c0-6.3,0.2-11.8,0.7-16.4c0.5-4.6,1.3-8.5,2.6-11.7s3.2-5.7,5.9-7.6 c2.6-1.9,6-3.3,10.2-4.2c4.2-0.9,9.4-1.3,15.7-1.3c2.5,0,5.1,0.1,7.7,0.3c2.7,0.2,5.2,0.5,7.7,0.8c2.5,0.3,4.6,0.7,6.4,1.2v18.3 c-3.1-0.2-5.7-0.4-7.7-0.6c-2-0.2-3.6-0.3-4.7-0.3c-1.2,0-2.1-0.1-2.9-0.1c-2.8,0-5.1,0.1-6.8,0.4c-1.8,0.2-3.1,0.8-4.2,1.6 c-1,0.8-1.7,2-2.2,3.6c-0.4,1.6-0.7,3.6-0.8,6.3c-0.1,2.6-0.1,5.9-0.1,9.9s0,7.3,0.1,9.9c0.1,2.6,0.3,4.7,0.8,6.3 c0.4,1.6,1.2,2.8,2.2,3.6c1,0.8,2.4,1.3,4.2,1.5c1.8,0.2,4,0.4,6.8,0.4c2.3,0,5-0.1,8-0.2c3-0.2,5.6-0.4,7.8-0.7v18.6 c-1.7,0.3-3.8,0.6-6.4,0.9c-2.5,0.3-5.2,0.5-7.9,0.7C161.2,410.6,158.5,410.7,155.9,410.7z"></path> <path style="fill:#FFFFFF;" d="M211,409.8l22.4-80.5h38l22.4,80.5h-27.2l-2.9-12.1h-23.3l-2.8,12.1H211z M244.8,379h14.3l-6.7-27.7 h-1.1L244.8,379z"></path> <path style="fill:#FFFFFF;" d="M359.9,410.7c-3.4,0-6.9-0.1-10.8-0.3c-3.8-0.2-7.5-0.4-11.1-0.8c-3.6-0.3-6.7-0.7-9.4-1.1V390 c2.9,0.2,5.7,0.4,8.5,0.6c2.8,0.2,5.4,0.3,7.8,0.4c2.5,0.1,4.5,0.1,6.3,0.1c3.1,0,5.5-0.1,7-0.2c1.6-0.1,2.6-0.4,3.2-0.8 c0.4-0.3,0.7-0.7,0.8-1.1c0.2-0.4,0.3-0.9,0.3-1.4c0-0.5,0.1-1.2,0.1-1.9c0-1.2-0.1-2.1-0.4-2.7c-0.2-0.6-0.7-1.1-1.4-1.5 c-0.7-0.4-1.8-0.6-3.2-0.9c-1.4-0.2-3.3-0.5-5.6-0.8l-13.7-1.8c-2.4-0.3-4.4-1.1-6-2.4c-1.6-1.3-2.8-3-3.7-5.2 c-0.9-2.1-1.5-4.7-1.9-7.7c-0.4-3-0.5-6.3-0.5-10c0-5.3,0.8-9.6,2.5-12.8c1.6-3.2,3.9-5.7,6.8-7.4c2.9-1.7,6.3-2.9,10.1-3.5 c3.8-0.6,8-0.9,12.4-0.9c3.3,0,6.7,0.1,10.1,0.4c3.5,0.2,6.7,0.5,9.8,0.9c3.1,0.4,5.6,0.8,7.7,1.2v18.4c-2-0.2-4.3-0.4-7-0.6 c-2.7-0.2-5.4-0.4-8.3-0.5c-2.8-0.1-5.5-0.2-8-0.2c-1.9,0-3.4,0-4.6,0.1c-1.2,0.1-2.1,0.3-2.7,0.7c-0.6,0.4-1.1,0.9-1.3,1.5 c-0.3,0.6-0.4,1.3-0.4,2.2c0,1.3,0.1,2.3,0.4,3c0.2,0.7,0.8,1.2,1.8,1.5c0.9,0.3,2.4,0.6,4.4,0.9l12.3,1.5c2,0.2,3.9,0.6,5.7,1.2 c1.8,0.5,3.5,1.4,5,2.5c1.6,1.1,2.9,2.8,4.1,5.1c0.5,0.9,1,2.1,1.3,3.6c0.4,1.5,0.6,3.2,0.9,5.2c0.2,2,0.4,4.3,0.4,6.8 c0,4.9-0.5,9-1.5,12.3c-1,3.3-2.4,5.9-4.2,7.8c-1.8,2-4,3.4-6.5,4.4c-2.5,1-5.2,1.7-8.3,2C366.4,410.6,363.2,410.7,359.9,410.7z"></path> <path style="fill:#FFFFFF;" d="M428.9,409.8v-80.5h27.4v80.5H428.9z"></path> <path style="fill:#FFFFFF;" d="M497.5,409.8v-80.5h28l15.7,31.1h0.8v-31.1h26.1v80.5h-25.2l-18.6-37.6h-0.7v37.6H497.5z"></path> <path style="fill:#FFFFFF;" d="M644,410.7c-7.1,0-12.9-0.4-17.4-1.3c-4.5-0.9-8-2.2-10.5-4.1c-2.5-1.9-4.3-4.4-5.4-7.6 c-1.1-3.2-1.8-7.1-2-11.8c-0.2-4.6-0.4-10.1-0.4-16.4c0-6.3,0.1-11.8,0.4-16.4c0.2-4.6,0.9-8.6,2-11.8c1.1-3.2,2.9-5.7,5.4-7.6 c2.5-1.9,6-3.2,10.5-4.1c4.5-0.9,10.3-1.3,17.4-1.3c7.1,0,12.9,0.4,17.4,1.3c4.5,0.9,8,2.2,10.5,4.1c2.5,1.9,4.3,4.4,5.4,7.6 c1.1,3.2,1.8,7.1,2,11.8c0.3,4.6,0.4,10.1,0.4,16.4c0,6.3-0.1,11.8-0.4,16.4c-0.3,4.6-1,8.6-2,11.8c-1.1,3.2-2.9,5.7-5.4,7.6 c-2.5,1.9-6,3.2-10.5,4.1C656.8,410.3,651.1,410.7,644,410.7z M644,391.2c1.6,0,3-0.1,4-0.2c1.1-0.2,1.9-0.6,2.5-1.3s1-1.8,1.2-3.3 c0.2-1.5,0.4-3.6,0.5-6.4c0.1-2.7,0.1-6.2,0.1-10.4c0-4.2,0-7.7-0.1-10.4c-0.1-2.7-0.2-4.9-0.5-6.4c-0.2-1.5-0.6-2.6-1.2-3.3 c-0.6-0.7-1.4-1.1-2.5-1.3c-1.1-0.2-2.4-0.2-4-0.2c-1.6,0-3,0.1-4,0.2c-1.1,0.2-1.9,0.6-2.4,1.3c-0.5,0.7-1,1.8-1.2,3.3 c-0.3,1.5-0.4,3.6-0.5,6.4c0,2.7-0.1,6.2-0.1,10.4c0,4.2,0,7.7,0.1,10.4c0,2.7,0.2,4.9,0.5,6.4c0.3,1.5,0.7,2.6,1.2,3.3 c0.5,0.7,1.3,1.1,2.4,1.3C641,391.1,642.3,391.2,644,391.2z"></path> </g> <g> <path style="fill:#FFFFFF;" d="M126.5,507v-69.7h23.7v25.3h12.9v-25.3h23.7V507h-23.7v-25.4h-12.9V507H126.5z"></path> <path style="fill:#FFFFFF;" d="M227.2,507.8c-6.1,0-11.2-0.4-15.1-1.1c-3.9-0.7-6.9-1.9-9.1-3.5c-2.2-1.6-3.7-3.8-4.7-6.6 c-1-2.8-1.6-6.2-1.8-10.2c-0.2-4-0.3-8.8-0.3-14.2c0-5.5,0.1-10.2,0.3-14.2c0.2-4,0.8-7.4,1.8-10.2c1-2.8,2.5-5,4.7-6.6 c2.2-1.6,5.2-2.8,9.1-3.5c3.9-0.7,8.9-1.1,15.1-1.1c6.1,0,11.2,0.4,15,1.1c3.9,0.7,6.9,1.9,9.1,3.5c2.2,1.6,3.8,3.8,4.7,6.6 c0.9,2.8,1.5,6.2,1.8,10.2c0.2,4,0.4,8.8,0.4,14.2c0,5.5-0.1,10.2-0.4,14.2c-0.2,4-0.8,7.4-1.8,10.2c-0.9,2.8-2.5,5-4.7,6.6 c-2.2,1.6-5.2,2.8-9.1,3.5C238.3,507.4,233.3,507.8,227.2,507.8z M227.2,490.9c1.4,0,2.6-0.1,3.5-0.2c0.9-0.1,1.6-0.5,2.1-1.1 c0.5-0.6,0.9-1.6,1.1-2.9c0.2-1.3,0.3-3.2,0.4-5.5c0.1-2.4,0.1-5.4,0.1-9c0-3.6,0-6.7-0.1-9c-0.1-2.4-0.2-4.2-0.4-5.5 c-0.2-1.3-0.6-2.3-1.1-2.9c-0.5-0.6-1.2-1-2.1-1.1c-0.9-0.1-2.1-0.2-3.5-0.2c-1.4,0-2.6,0.1-3.5,0.2c-0.9,0.1-1.6,0.5-2.1,1.1 c-0.5,0.6-0.8,1.6-1.1,2.9c-0.2,1.3-0.4,3.2-0.4,5.5c0,2.4-0.1,5.4-0.1,9c0,3.6,0,6.7,0.1,9c0,2.4,0.2,4.2,0.4,5.5 c0.2,1.3,0.6,2.3,1.1,2.9c0.5,0.6,1.2,1,2.1,1.1C224.6,490.8,225.7,490.9,227.2,490.9z"></path> <path style="fill:#FFFFFF;" d="M294.9,507.8c-2.9,0-6-0.1-9.3-0.3c-3.3-0.2-6.5-0.4-9.6-0.7c-3.1-0.3-5.8-0.6-8.1-0.9v-16.1 c2.5,0.2,4.9,0.4,7.3,0.6c2.4,0.2,4.7,0.3,6.8,0.4c2.1,0.1,3.9,0.1,5.4,0.1c2.7,0,4.7-0.1,6.1-0.2c1.4-0.1,2.3-0.3,2.7-0.7 c0.3-0.3,0.6-0.6,0.7-0.9c0.1-0.3,0.2-0.7,0.3-1.2c0-0.5,0.1-1,0.1-1.6c0-1-0.1-1.8-0.3-2.3c-0.2-0.5-0.6-1-1.2-1.3 c-0.6-0.3-1.5-0.6-2.7-0.8c-1.2-0.2-2.8-0.4-4.9-0.7l-11.9-1.5c-2.1-0.3-3.8-1-5.2-2.1c-1.4-1.1-2.4-2.6-3.2-4.5 c-0.8-1.9-1.3-4.1-1.6-6.7c-0.3-2.6-0.5-5.5-0.5-8.7c0-4.6,0.7-8.3,2.1-11.1s3.4-4.9,5.9-6.4c2.5-1.5,5.5-2.5,8.8-3 c3.3-0.5,6.9-0.8,10.7-0.8c2.8,0,5.8,0.1,8.8,0.3c3,0.2,5.8,0.5,8.5,0.8c2.7,0.3,4.9,0.7,6.6,1.1v15.9c-1.7-0.2-3.7-0.4-6-0.6 c-2.3-0.2-4.7-0.3-7.1-0.4c-2.4-0.1-4.7-0.2-6.9-0.2c-1.6,0-2.9,0-4,0.1c-1,0.1-1.8,0.3-2.3,0.6c-0.5,0.3-0.9,0.8-1.2,1.3 c-0.2,0.5-0.4,1.1-0.4,1.9c0,1.1,0.1,2,0.3,2.6s0.7,1,1.5,1.3c0.8,0.2,2.1,0.5,3.9,0.8l10.6,1.3c1.8,0.2,3.4,0.5,5,1 c1.6,0.5,3,1.2,4.4,2.2c1.4,1,2.5,2.5,3.5,4.4c0.5,0.8,0.9,1.9,1.2,3.1c0.3,1.3,0.6,2.8,0.8,4.5s0.3,3.7,0.3,5.9 c0,4.3-0.4,7.8-1.3,10.6c-0.8,2.8-2.1,5.1-3.6,6.8c-1.6,1.7-3.5,3-5.6,3.9c-2.2,0.9-4.5,1.5-7.1,1.7 C300.5,507.7,297.8,507.8,294.9,507.8z M278.5,526.3v-0.5l8.8-20.6h13.6v0.5l-3.4,20.6H278.5z"></path> <path style="fill:#FFFFFF;" d="M360.3,507.8c-5.3,0-9.7-0.4-13.4-1.1c-3.7-0.7-6.7-1.9-9.2-3.4c-2.4-1.6-4.3-3.8-5.7-6.5 c-1.4-2.7-2.3-6.1-2.8-10.2c-0.5-4.1-0.8-8.9-0.8-14.5c0-5.6,0.3-10.4,0.8-14.5c0.5-4.1,1.5-7.4,2.8-10.2c1.4-2.7,3.2-4.9,5.7-6.5 c2.4-1.6,5.5-2.7,9.2-3.4c3.7-0.7,8.2-1.1,13.4-1.1c2.5,0,5.3,0.1,8.3,0.3c3,0.2,6,0.5,9.1,0.9c3,0.4,5.8,0.8,8.4,1.3v15.8 c-2.1-0.3-4.3-0.5-6.6-0.7c-2.3-0.2-4.5-0.3-6.6-0.5c-2.1-0.1-3.7-0.2-4.9-0.2c-3.2,0-5.8,0.1-7.8,0.2c-2,0.1-3.6,0.5-4.8,1.1 c-1.1,0.6-2,1.6-2.5,2.9c-0.5,1.3-0.9,3.2-1,5.5c-0.1,2.4-0.2,5.4-0.2,9c0,3.2,0.1,6,0.2,8.3c0.1,2.3,0.3,4.1,0.7,5.5 c0.4,1.4,0.9,2.5,1.6,3.3c0.7,0.8,1.7,1.3,2.8,1.6c1.2,0.3,2.7,0.5,4.4,0.5c0.3,0,0.6,0,1.1-0.1c0.5,0,1-0.1,1.6-0.1s1.1,0,1.6,0 v-10.8H359V465h27.4v40.6c-2.5,0.4-5.3,0.8-8.4,1.1c-3.1,0.3-6.1,0.6-9.2,0.8C365.7,507.7,362.9,507.8,360.3,507.8z"></path> <path style="fill:#FFFFFF;" d="M396.4,507v-69.7h51.1v16.9H420v9.3h22.7V480H420v10h27.5V507H396.4z"></path> <path style="fill:#FFFFFF;" d="M457.5,507v-69.7h23.7v51.9h23.3V507H457.5z"></path> <path style="fill:#FFFFFF;" d="M511.5,507v-69.7h25.8c6.5,0,11.8,0.3,15.9,1c4.1,0.7,7.3,1.8,9.6,3.3c2.3,1.6,4,3.7,5,6.3 c1,2.7,1.6,6,1.9,9.9c0.2,4,0.4,8.7,0.4,14.2s-0.1,10.3-0.4,14.2c-0.2,4-0.9,7.3-1.9,9.9c-1,2.7-2.7,4.8-5,6.3 c-2.3,1.6-5.5,2.7-9.6,3.3c-4.1,0.7-9.4,1-15.9,1H511.5z M535.2,490.1h2.4c1.7,0,3.1-0.1,4.2-0.3c1.1-0.2,1.9-0.5,2.5-1.1 c0.6-0.6,1-1.5,1.3-2.8c0.2-1.3,0.4-3,0.5-5.2c0.1-2.2,0.1-5,0.1-8.5c0-3.5,0-6.4-0.1-8.6c-0.1-2.2-0.2-4-0.5-5.3 c-0.2-1.3-0.7-2.2-1.3-2.8c-0.6-0.6-1.5-1-2.5-1.1c-1.1-0.1-2.5-0.2-4.2-0.2h-2.4V490.1z"></path> <path style="fill:#FFFFFF;" d="M579.4,507v-69.7h23.7V507H579.4z M582.9,430.6V418h16.7v12.6H582.9z"></path> <path style="fill:#FFFFFF;" d="M613.5,507v-69.7h24.2l13.6,27h0.7v-27h22.6V507h-21.8l-16.1-32.5h-0.6V507H613.5z"></path> </g> <g> <path style="fill:#FFFFFF;" d="M123.2,649.4v-98.7H176c6,0,11.2,0.9,15.6,2.6c4.3,1.7,7.7,4.4,10,8c2.3,3.6,3.4,8.4,3.4,14.2 c0,4.8-0.6,8.7-1.9,11.8c-1.3,3.1-3.3,5.5-5.9,7.3c-2.6,1.8-5.9,3.1-9.8,4.1v0.6c3.7,0.9,6.9,2.1,9.6,3.7c2.7,1.6,4.7,3.9,6.2,7 c1.4,3.1,2.2,7.4,2.2,13c0,4.4-0.6,8.2-1.7,11.5s-2.9,6-5.3,8.2c-2.4,2.2-5.5,3.9-9.2,4.9c-3.7,1.1-8.2,1.6-13.3,1.6H123.2z M156.2,589.7h6.9c2.6,0,4.5-0.2,5.7-0.5c1.2-0.3,2-1.1,2.4-2.2c0.3-1.1,0.5-2.9,0.5-5.2c0-2.5-0.2-4.3-0.5-5.4 c-0.3-1.1-1.1-1.8-2.4-2.2c-1.2-0.3-3.2-0.5-5.7-0.5h-6.9V589.7z M156.2,626.3h6.9c2.6,0,4.5-0.2,5.7-0.5c1.2-0.3,2-1.1,2.4-2.3 c0.3-1.2,0.5-3,0.5-5.5c0-2.6-0.2-4.5-0.5-5.7c-0.3-1.2-1.1-2-2.4-2.4c-1.2-0.4-3.2-0.6-5.7-0.6h-6.9V626.3z"></path> <path style="fill:#FFFFFF;" d="M260.3,650.5c-8.7,0-15.8-0.5-21.3-1.6c-5.5-1.1-9.8-2.7-12.8-5c-3.1-2.3-5.3-5.4-6.7-9.3 c-1.4-3.9-2.2-8.7-2.5-14.4c-0.3-5.7-0.4-12.4-0.4-20.2s0.1-14.5,0.4-20.2c0.3-5.7,1.1-10.5,2.5-14.4c1.4-3.9,3.6-7,6.7-9.3 c3.1-2.3,7.3-4,12.8-5c5.5-1.1,12.6-1.6,21.3-1.6c8.7,0,15.8,0.5,21.3,1.6c5.5,1.1,9.8,2.7,12.9,5c3.1,2.3,5.3,5.4,6.7,9.3 c1.3,3.9,2.2,8.7,2.5,14.4c0.3,5.7,0.5,12.4,0.5,20.2s-0.2,14.5-0.5,20.2c-0.3,5.7-1.2,10.5-2.5,14.4c-1.3,3.9-3.6,7-6.7,9.3 c-3.1,2.3-7.4,4-12.9,5C276.1,650,269,650.5,260.3,650.5z M260.3,626.6c2,0,3.7-0.1,4.9-0.3c1.3-0.2,2.3-0.7,3-1.6 c0.7-0.9,1.2-2.2,1.5-4.1c0.3-1.9,0.5-4.5,0.6-7.8c0.1-3.3,0.1-7.6,0.1-12.8s0-9.4-0.1-12.8c-0.1-3.3-0.3-6-0.6-7.8 c-0.3-1.9-0.8-3.2-1.5-4.1c-0.7-0.9-1.7-1.4-3-1.6c-1.3-0.2-2.9-0.3-4.9-0.3s-3.7,0.1-4.9,0.3c-1.3,0.2-2.3,0.7-2.9,1.6 c-0.7,0.9-1.2,2.2-1.5,4.1c-0.3,1.9-0.5,4.5-0.6,7.8c0,3.3-0.1,7.6-0.1,12.8s0,9.4,0.1,12.8c0,3.3,0.2,6,0.6,7.8 c0.3,1.9,0.8,3.2,1.5,4.1c0.7,0.9,1.6,1.4,2.9,1.6C256.7,626.5,258.3,626.6,260.3,626.6z"></path> <path style="fill:#FFFFFF;" d="M317.6,649.4v-98.7h34.3l19.2,38.2h1v-38.2h32v98.7h-30.8l-22.8-46h-0.9v46H317.6z"></path> <path style="fill:#FFFFFF;" d="M459.7,650.5c-8.1,0-14.8-0.5-19.9-1.5s-9.2-2.6-12-4.8c-2.9-2.2-4.9-5.1-6.2-8.7s-2.1-8-2.4-13.2 c-0.3-5.2-0.4-11.3-0.4-18.3v-53.4h33.6v58.8c0,3.9,0,7,0.1,9.3c0.1,2.2,0.4,3.9,0.8,4.9c0.4,1.1,1.2,1.7,2.2,2 c1.1,0.3,2.5,0.4,4.3,0.4c1.9,0,3.4-0.1,4.4-0.4c1-0.3,1.7-1,2.2-2c0.5-1.1,0.8-2.7,0.9-4.9c0.1-2.2,0.1-5.3,0.1-9.3v-58.8h33.6 V604c0,7-0.1,13.1-0.4,18.3c-0.3,5.2-1.1,9.6-2.4,13.2s-3.4,6.5-6.3,8.7c-2.9,2.2-7,3.8-12.1,4.8 C474.5,650,467.8,650.5,459.7,650.5z"></path> <path style="fill:#FFFFFF;" d="M554.1,650.5c-4.1,0-8.5-0.1-13.2-0.4c-4.7-0.2-9.2-0.6-13.6-0.9c-4.4-0.4-8.2-0.8-11.5-1.3v-22.8 c3.5,0.3,7,0.6,10.4,0.8c3.4,0.2,6.6,0.4,9.6,0.5c3,0.1,5.6,0.1,7.7,0.1c3.8,0,6.7-0.1,8.6-0.2c1.9-0.1,3.2-0.5,3.9-0.9 c0.5-0.4,0.8-0.8,1-1.3c0.2-0.5,0.3-1.1,0.4-1.7c0-0.7,0.1-1.4,0.1-2.3c0-1.4-0.1-2.5-0.4-3.3c-0.3-0.8-0.9-1.4-1.7-1.8 s-2.2-0.8-3.9-1.1c-1.7-0.3-4-0.6-6.9-1l-16.8-2.2c-3-0.4-5.4-1.4-7.3-2.9c-1.9-1.6-3.4-3.7-4.5-6.3c-1.1-2.6-1.9-5.8-2.3-9.5 c-0.4-3.7-0.6-7.8-0.6-12.3c0-6.5,1-11.7,3-15.7c2-4,4.8-7,8.4-9.1c3.6-2.1,7.7-3.5,12.4-4.3c4.7-0.8,9.8-1.1,15.2-1.1 c4,0,8.2,0.1,12.4,0.4c4.3,0.3,8.3,0.6,12,1.1c3.8,0.4,6.9,0.9,9.4,1.5v22.5c-2.4-0.3-5.2-0.5-8.5-0.8c-3.3-0.2-6.7-0.4-10.1-0.6 s-6.7-0.2-9.8-0.2c-2.3,0-4.2,0-5.6,0.1c-1.4,0.1-2.5,0.4-3.3,0.9c-0.8,0.5-1.3,1.1-1.6,1.8c-0.3,0.7-0.5,1.6-0.5,2.7 c0,1.6,0.1,2.9,0.4,3.7c0.3,0.9,1,1.5,2.2,1.8c1.1,0.3,3,0.7,5.5,1.1l15.1,1.9c2.5,0.3,4.8,0.8,7,1.4c2.2,0.7,4.3,1.7,6.2,3.1 c1.9,1.4,3.6,3.5,5,6.2c0.7,1.1,1.2,2.6,1.6,4.4c0.4,1.8,0.8,3.9,1.1,6.4c0.3,2.4,0.4,5.2,0.4,8.4c0,6-0.6,11-1.8,15.1 c-1.2,4-2.9,7.2-5.2,9.6c-2.2,2.4-4.9,4.2-8,5.5c-3.1,1.2-6.4,2.1-10.1,2.4C562.1,650.3,558.2,650.5,554.1,650.5z"></path> <path style="fill:#FFFFFF;" d="M643.9,650.5c-8.1,0-14.8-0.5-19.9-1.5s-9.2-2.6-12-4.8c-2.9-2.2-4.9-5.1-6.2-8.7s-2.1-8-2.4-13.2 c-0.3-5.2-0.4-11.3-0.4-18.3v-53.4h33.6v58.8c0,3.9,0,7,0.1,9.3c0.1,2.2,0.4,3.9,0.8,4.9c0.4,1.1,1.2,1.7,2.2,2 c1.1,0.3,2.5,0.4,4.3,0.4c1.9,0,3.4-0.1,4.4-0.4c1-0.3,1.7-1,2.2-2c0.5-1.1,0.8-2.7,0.9-4.9c0.1-2.2,0.1-5.3,0.1-9.3v-58.8H685V604 c0,7-0.1,13.1-0.4,18.3c-0.3,5.2-1.1,9.6-2.4,13.2s-3.4,6.5-6.3,8.7c-2.9,2.2-7,3.8-12.1,4.8C658.6,650,652,650.5,643.9,650.5z"></path> </g> <path style="fill:#FFFFFF;" d="M179,224.6c-10,0-20.1,0-30.6,0c5.6-5.5,10.8-10.9,12.5-18.7c-1.9,1.3-3.6,2.6-5.4,3.8 c-12,7.8-28.1,1.3-31.4-12.6c-1.5-6.3-0.3-12.2,4.3-16.9c4.6-4.6,9.4-9.1,14.5-13.1c7.4-5.8,14.8-11.5,20.8-19 c0.6,0.6,1.2,1.1,1.8,1.6c5.1,4.8,10.1,9.7,15.3,14.4c3.9,3.5,8.1,6.5,12,10c2.7,2.5,5.3,5.2,7.5,8.2c5.5,7.2,4.9,16.8-1.1,23.6 c-7.1,8.1-20.2,10.1-28.4,4.4c-1.6-1.1-2.8-2.5-4.3-3.8c2,7.5,6.6,13.2,12.8,17.6C179.2,224.3,179.1,224.5,179,224.6z M151.2,168.5 c-0.2,0.1-0.4,0.1-0.5,0.2c-3.8,3.1-7.7,6-11.3,9.3c-2.1,1.8-3.9,4.1-5.5,6.3c-5.2,7.2-2.9,17.7,4.9,22.2c1.3,0.8,2.8,1.2,4.2,1.8 c0.1-0.1,0.1-0.2,0.2-0.4c-0.3-0.3-0.7-0.7-1-1c-7.7-7.4-8.6-17-2.2-25.5C143.3,176.9,146.9,172.4,151.2,168.5z"></path> <path style="fill:#FFFFFF;" d="M279,298.6c-10,0-20.1,0-30.6,0c5.6-5.5,10.8-10.9,12.5-18.7c-1.9,1.3-3.6,2.6-5.4,3.8 c-12,7.8-28.1,1.3-31.4-12.6c-1.5-6.3-0.3-12.2,4.3-16.9c4.6-4.6,9.4-9.1,14.5-13.1c7.4-5.8,14.8-11.5,20.8-19 c0.6,0.6,1.2,1.1,1.8,1.6c5.1,4.8,10.1,9.7,15.3,14.4c3.9,3.5,8.1,6.5,12,10c2.7,2.5,5.3,5.2,7.5,8.2c5.5,7.2,4.9,16.8-1.1,23.6 c-7.1,8.1-20.2,10.1-28.4,4.4c-1.6-1.1-2.8-2.5-4.3-3.8c2,7.5,6.6,13.2,12.8,17.6C279.2,298.3,279.1,298.5,279,298.6z M251.2,242.5 c-0.2,0.1-0.4,0.1-0.5,0.2c-3.8,3.1-7.7,6-11.3,9.3c-2.1,1.8-3.9,4.1-5.5,6.3c-5.2,7.2-2.9,17.7,4.9,22.2c1.3,0.8,2.8,1.2,4.2,1.8 c0.1-0.1,0.1-0.2,0.2-0.4c-0.3-0.3-0.7-0.7-1-1c-7.7-7.4-8.6-17-2.2-25.5C243.3,250.9,246.9,246.4,251.2,242.5z"></path> </svg> 