<?xml version="1.0" encoding="UTF-8"?> <svg xmlns="http://www.w3.org/2000/svg" xmlns:xlink="http://www.w3.org/1999/xlink" version="1.1" id="Layer_1" x="0px" y="0px" viewBox="0 0 800 800" style="enable-background:new 0 0 800 800;" xml:space="preserve"> <g> <path style="fill:#FFFFFF;" d="M234.3,216.1c-0.9-0.3-2.5-0.5-4.7-0.5h-5.4l-2.6,12.6h5.4c2,0,3.6-0.1,4.6-0.4 c1-0.3,1.8-0.9,2.2-1.8c0.5-0.9,0.9-2.3,1.2-4.1c0.2-0.8,0.3-1.5,0.4-2.1c0.1-0.6,0.2-1.1,0.2-1.5 C235.6,217.2,235.2,216.4,234.3,216.1z"></path> <path style="fill:#FFFFFF;" d="M537,177H230.4c-42.5,0-76.7,34.2-76.7,76.7v216.7c0,42.5,34.2,76.7,76.7,76.7H537 c42.5,0,76.7-34.2,76.7-76.7V253.7C613.7,211.2,579.5,177,537,177z M424.7,239.6l9-42.2h26.6l-9.9,46.5c-0.5,2.6-0.9,4.7-1.2,6.2 s-0.5,2.9-0.5,3.9c0,0.9,0.2,1.6,0.5,2s0.9,0.7,1.6,0.9c0.7,0.1,1.6,0.2,2.8,0.2c1.5,0,2.7-0.1,3.5-0.3c0.8-0.2,1.5-0.8,2-1.6 c0.5-0.8,1-2.1,1.5-3.9c0.5-1.8,1-4.2,1.7-7.3l9.9-46.5h26.6l-9,42.2c-1.3,6.1-2.5,11.2-3.6,15.4c-1.1,4.2-2.4,7.8-4,10.6 c-1.6,2.8-3.6,5-6.1,6.5c-2.5,1.6-5.8,2.6-9.9,3.3c-4.1,0.6-9.3,1-15.5,1c-7.5,0-13.3-0.5-17.4-1.6c-4.1-1.1-7-2.9-8.6-5.4 c-1.6-2.5-2.4-5.8-2.4-9.9c0-2.5,0.2-5.4,0.7-8.7C423.2,247.4,423.9,243.7,424.7,239.6z M381.8,197.4l8.7,30.2h0.8l6.5-30.2h24.7 l-16.7,78.1h-25L370.7,239H370l-7.8,36.4h-24.6l16.6-78.1H381.8z M266.4,235.3c1.2-6.3,2.4-11.7,3.5-16.2c1.1-4.5,2.5-8.2,4.1-11.1 c1.7-2.9,3.8-5.2,6.5-6.9c2.7-1.7,6.2-2.9,10.5-3.6c4.3-0.7,9.7-1,16.2-1c8.1,0,14.4,0.6,18.9,1.7c4.5,1.1,7.8,3,9.6,5.5 c1.9,2.5,2.8,6,2.8,10.4c0,3-0.3,6.4-1,10.2c-0.6,3.9-1.5,8.3-2.7,13.3c-1.4,6.4-2.8,11.8-4,16.3c-1.2,4.5-2.6,8.2-4.2,11.1 c-1.6,2.9-3.7,5.2-6.3,6.9c-2.6,1.7-6,2.8-10.2,3.5c-4.2,0.7-9.5,1-15.9,1c-8.1,0-14.5-0.6-19.1-1.7s-7.9-3-9.8-5.5 c-1.9-2.5-2.8-6-2.8-10.3c0-2.9,0.4-6.3,1.1-10.2C264.5,244.9,265.4,240.4,266.4,235.3z M226.9,275.5h-41.4l16.6-78.1h40.6 c4.3,0,8,0.6,11.1,1.7c3.1,1.1,5.4,2.8,7,5c1.6,2.2,2.4,5,2.4,8.2c0,0.8-0.1,1.7-0.2,2.6c-0.1,0.9-0.3,1.9-0.5,3 c-1.2,5.4-3.3,9.5-6.2,12c-2.9,2.6-6.8,4.4-11.7,5.4v0.5c2.3,0.6,4.2,1.4,5.8,2.3c1.6,0.9,2.9,2.2,3.7,3.9c0.9,1.6,1.3,3.8,1.3,6.6 c0,0.6,0,1.3-0.1,2c0,0.7-0.1,1.5-0.2,2.3c-0.1,0.8-0.3,1.6-0.5,2.6c-0.8,3.3-1.8,6.2-3,8.7s-2.9,4.6-5,6.2 c-2.1,1.7-4.7,2.9-7.9,3.7C235.6,275.1,231.6,275.5,226.9,275.5z M526.7,308.2l-44.8,207.5c-2.9,13.5-13.1,15.2-25.3,6.3 l-63.3-46.2l-34.8,33.6c-5.5,5.3-15.6,6.8-18.6-2.4l-26.1-80l-61.7-19.5c-23.8-7.5-6.7-18.2,1.3-21.3L503.6,289 c5-1.9,9.1-2.6,12.5-2.4l0,0C526.1,287.4,529.1,297,526.7,308.2z M562.3,216.7c-1.8-0.2-4-0.4-6.5-0.6c-2.5-0.2-5.2-0.3-7.9-0.5 c-2.7-0.1-5.3-0.2-7.7-0.2c-1.4,0-2.6,0-3.6,0.1c-1,0.1-1.8,0.2-2.5,0.3c-0.7,0.2-1.2,0.4-1.7,0.8c-0.4,0.3-0.7,0.6-1,1 c-0.3,0.4-0.5,0.8-0.7,1.2c-0.2,0.5-0.3,0.9-0.3,1.5c-0.1,0.5-0.1,1.1-0.1,1.7c0,0.9,0.4,1.5,1.2,1.8c0.8,0.3,2.2,0.6,4.4,1 l11.6,1.9c2.2,0.3,4.3,0.9,6.3,1.6s3.7,2.1,4.9,4c1.3,1.9,1.9,4.7,1.9,8.5c0,0.9,0,1.9-0.1,3c-0.1,1.1-0.2,2.3-0.4,3.5 c-0.2,1.2-0.4,2.5-0.7,4c-1.3,5.6-2.9,10.1-4.9,13.4c-2,3.3-4.4,5.8-7.2,7.4c-2.8,1.6-6.1,2.7-9.8,3.2c-3.7,0.5-7.9,0.8-12.7,0.8 c-3.3,0-6.7-0.1-10.4-0.3c-3.7-0.2-7.2-0.4-10.6-0.7c-3.4-0.3-6.3-0.6-8.7-1l3.6-18c2.7,0.2,5.4,0.4,8.1,0.6 c2.7,0.2,5.2,0.3,7.5,0.4c2.3,0.1,4.3,0.1,6,0.1c2,0,3.7,0,5-0.1c1.3,0,2.4-0.1,3.2-0.3c0.8-0.2,1.4-0.3,1.9-0.6 c0.2-0.2,0.5-0.4,0.7-0.7c0.2-0.3,0.4-0.6,0.6-1c0.2-0.4,0.4-0.8,0.5-1.3c0.2-0.5,0.3-1,0.3-1.5c0.1-0.5,0.1-1.1,0.1-1.6 c0-0.7-0.2-1.2-0.5-1.5c-0.3-0.3-1.1-0.7-2.4-1c-1.3-0.3-3.4-0.7-6.5-1.2l-12.8-2.2c-3-0.5-5.1-1.8-6.4-3.9c-1.2-2-1.8-4.8-1.8-8.3 c0-1.8,0.1-3.8,0.4-6c0.3-2.2,0.7-4.4,1.2-6.9c1.1-5,2.7-9,4.8-12c2-3,4.6-5.3,7.5-6.9s6.5-2.7,10.4-3.2c4-0.6,8.4-0.9,13.2-0.9 c3.2,0,6.4,0.1,9.8,0.3c3.3,0.2,6.4,0.5,9.4,0.9c2.9,0.3,5.3,0.7,7.2,1.2L562.3,216.7z"></path> <path style="fill:#FFFFFF;" d="M292.4,257.3c0.9,0.1,2.2,0.2,3.7,0.2c1.6,0,2.9-0.1,4-0.2c1.1-0.2,1.9-0.6,2.7-1.2 c0.7-0.7,1.4-1.8,1.9-3.2c0.6-1.5,1.2-3.5,1.8-6.2c0.6-2.6,1.4-6,2.3-10.1c0.9-4.3,1.6-7.8,2.1-10.6c0.5-2.7,0.7-4.8,0.7-6.2 c0-1.4-0.2-2.3-0.7-3c-0.5-0.6-1.2-1-2.1-1.1c-0.9-0.1-2.2-0.2-3.7-0.2c-1.6,0-2.9,0.1-3.9,0.2c-1,0.2-1.9,0.6-2.6,1.2 c-0.7,0.7-1.4,1.8-1.9,3.2c-0.6,1.5-1.2,3.5-1.8,6.2c-0.6,2.6-1.3,6-2.2,10.1c-0.6,3-1.2,5.5-1.6,7.7c-0.5,2.2-0.9,4-1.1,5.6 c-0.2,1.5-0.3,2.8-0.3,3.7c0,1.3,0.2,2.2,0.7,2.8C290.8,256.8,291.5,257.1,292.4,257.3z"></path> <path style="fill:#FFFFFF;" d="M228.3,244.3c-0.9-0.3-2.4-0.5-4.6-0.5h-5.4l-2.8,13.4h5.4c2,0,3.6-0.1,4.6-0.4 c1-0.3,1.8-0.9,2.3-1.8c0.5-0.9,0.9-2.4,1.3-4.4c0.2-0.8,0.3-1.6,0.4-2.2c0.1-0.6,0.2-1.2,0.2-1.6 C229.6,245.5,229.2,244.7,228.3,244.3z"></path> <path style="fill:#FFFFFF;" d="M471.7,329.8L471.7,329.8c-1.5,0.3-3.2,0.9-4.8,1.9l-141.2,89.5c-0.8,0.5-1.8,0.4-0.9,3.1l22.8,70.1 l4.6-47.6c0.1-0.9,0.1-1.5,1.2-2.4l119.2-107C479.3,331.5,476.3,329,471.7,329.8z"></path> </g> </svg> 