<?xml version="1.0" encoding="UTF-8"?> <svg xmlns="http://www.w3.org/2000/svg" xmlns:xlink="http://www.w3.org/1999/xlink" version="1.1" id="Layer_1" x="0px" y="0px" viewBox="0 0 800 800" style="enable-background:new 0 0 800 800;" xml:space="preserve"> <g> <path style="fill:#FFFFFF;" d="M109.5,450c-4.9,0-10.3-0.2-16.2-0.6c-5.9-0.4-11.8-0.9-17.6-1.6c-5.9-0.6-11.3-1.4-16.2-2.4 l6.7-32.8c4.5,0.4,9.3,0.8,14.4,1.2c5.1,0.4,10.1,0.6,15,0.8c4.9,0.2,9.2,0.3,12.8,0.3c4.1,0,7.3-0.1,9.8-0.3 c2.4-0.2,4.4-0.7,5.8-1.5c1.4-0.8,2.5-2,3.4-3.8c0.8-1.7,1.5-4.2,2.1-7.2c0.3-1.3,0.5-2.4,0.6-3.4c0.1-1,0.2-1.9,0.2-2.7 c0-2-0.5-3.4-1.5-4.4c-1-1-2.6-1.6-4.9-1.9c-2.3-0.3-5.5-0.4-9.6-0.4c-4.1,0-8.5,0.1-13.4,0.3c-4.9,0.2-9.8,0.5-14.7,0.7 c-4.9,0.3-9.4,0.6-13.6,1L91,303.8h97.6l-7.6,35.7h-56.3l-3.6,16.8c3.2-0.4,6.7-0.7,10.5-0.9c3.8-0.2,7.6-0.3,11.6-0.3 c9.4,0,16.8,1.2,22.3,3.6c5.5,2.4,9.4,5.8,11.8,10.3c2.4,4.5,3.6,9.9,3.6,16.2c0,2.5-0.2,5.1-0.5,7.9c-0.4,2.7-0.9,5.6-1.6,8.7 c-1.8,8.1-4.1,15.2-6.7,21.3c-2.7,6.1-6.4,11.1-11.2,15.1c-4.8,4-11.3,7-19.5,8.9S122.5,450,109.5,450z"></path> <path style="fill:#FFFFFF;" d="M248.7,450c-13,0-23.4-0.7-31.1-2.1c-7.7-1.4-13.2-4.3-16.6-8.6c-3.4-4.3-5-10.8-5-19.5 c0-5.3,0.6-11.7,1.7-19.2c1.1-7.5,2.7-16.2,4.8-26.1c2.8-13.4,5.5-24.6,8-33.4s5.4-15.8,8.6-21c3.2-5.2,7.2-9.1,12-11.7 c4.8-2.6,10.7-4.3,18-5c7.2-0.8,16.1-1.2,26.8-1.2c9.9,0,18.3,0.4,25,1.2c6.7,0.8,12.1,2.2,16.3,4.2c4.1,2,7.1,5,8.9,9 c1.8,4,2.7,9.3,2.7,15.9c0,5.3-0.6,11.7-1.8,19.2c-1.2,7.5-2.8,16.2-4.7,26.1c-2.7,13.4-5.2,24.6-7.8,33.4s-5.4,15.8-8.6,21 c-3.2,5.2-7.2,9.1-12.1,11.7c-4.8,2.6-10.9,4.3-18.2,5C268.3,449.6,259.4,450,248.7,450z M254,414.9c2.2,0,4.1-0.1,5.5-0.4 c1.4-0.3,2.6-1,3.7-2.3c1.1-1.3,2-3.3,2.9-6c0.9-2.7,1.9-6.5,3-11.4c1.1-4.9,2.5-11.1,4.2-18.7c2-8.8,3.4-15.8,4.3-20.9 c0.9-5.1,1.4-9,1.4-11.7c0-2.1-0.3-3.6-0.8-4.4c-0.6-0.8-1.5-1.4-2.7-1.6c-1.3-0.2-2.9-0.3-4.8-0.3c-2.2,0-4.1,0.1-5.5,0.4 c-1.4,0.3-2.6,1-3.7,2.3c-1.1,1.3-2,3.3-2.9,6c-0.9,2.7-1.9,6.5-3,11.4c-1.1,4.9-2.5,11.1-4,18.7c-1.3,5.9-2.3,11-3.1,15.2 c-0.8,4.3-1.5,7.8-2,10.6c-0.5,2.8-0.7,5.1-0.7,6.9c0,2,0.3,3.4,0.8,4.2c0.6,0.8,1.5,1.4,2.7,1.6C250.4,414.8,252,414.9,254,414.9z "></path> <path style="fill:#FFFFFF;" d="M386.9,450c-13,0-23.4-0.7-31.1-2.1c-7.7-1.4-13.2-4.3-16.6-8.6c-3.4-4.3-5-10.8-5-19.5 c0-5.3,0.6-11.7,1.7-19.2c1.1-7.5,2.7-16.2,4.8-26.1c2.8-13.4,5.5-24.6,8-33.4c2.5-8.8,5.4-15.8,8.6-21c3.2-5.2,7.2-9.1,12-11.7 c4.8-2.6,10.7-4.3,18-5c7.2-0.8,16.1-1.2,26.8-1.2c9.9,0,18.3,0.4,25,1.2c6.7,0.8,12.1,2.2,16.3,4.2c4.1,2,7.1,5,8.9,9 c1.8,4,2.7,9.3,2.7,15.9c0,5.3-0.6,11.7-1.8,19.2c-1.2,7.5-2.8,16.2-4.7,26.1c-2.7,13.4-5.2,24.6-7.8,33.4 c-2.5,8.8-5.4,15.8-8.6,21c-3.2,5.2-7.2,9.1-12.1,11.7c-4.8,2.6-10.9,4.3-18.2,5C406.5,449.6,397.5,450,386.9,450z M392.2,414.9 c2.2,0,4.1-0.1,5.5-0.4c1.4-0.3,2.6-1,3.7-2.3c1-1.3,2-3.3,2.9-6c0.9-2.7,1.9-6.5,3-11.4c1.1-4.9,2.5-11.1,4.2-18.7 c2-8.8,3.4-15.8,4.3-20.9c0.9-5.1,1.4-9,1.4-11.7c0-2.1-0.3-3.6-0.8-4.4c-0.6-0.8-1.5-1.4-2.7-1.6c-1.3-0.2-2.9-0.3-4.8-0.3 c-2.2,0-4.1,0.1-5.5,0.4c-1.4,0.3-2.6,1-3.7,2.3c-1,1.3-2,3.3-2.9,6c-0.9,2.7-1.9,6.5-3,11.4c-1.1,4.9-2.5,11.1-4,18.7 c-1.3,5.9-2.3,11-3.2,15.2c-0.8,4.3-1.5,7.8-2,10.6c-0.5,2.8-0.7,5.1-0.7,6.9c0,2,0.3,3.4,0.8,4.2c0.6,0.8,1.5,1.4,2.7,1.6 C388.6,414.8,390.2,414.9,392.2,414.9z"></path> <path style="fill:#FFFFFF;" d="M525.1,450c-13,0-23.4-0.7-31.1-2.1c-7.7-1.4-13.2-4.3-16.6-8.6c-3.4-4.3-5-10.8-5-19.5 c0-5.3,0.6-11.7,1.7-19.2c1.1-7.5,2.7-16.2,4.8-26.1c2.8-13.4,5.5-24.6,8-33.4c2.5-8.8,5.4-15.8,8.6-21c3.2-5.2,7.2-9.1,12-11.7 c4.8-2.6,10.7-4.3,18-5c7.2-0.8,16.1-1.2,26.8-1.2c9.9,0,18.3,0.4,25,1.2c6.7,0.8,12.1,2.2,16.3,4.2c4.1,2,7.1,5,8.9,9 c1.8,4,2.7,9.3,2.7,15.9c0,5.3-0.6,11.7-1.8,19.2c-1.2,7.5-2.8,16.2-4.7,26.1c-2.7,13.4-5.2,24.6-7.8,33.4 c-2.5,8.8-5.4,15.8-8.6,21c-3.2,5.2-7.2,9.1-12.1,11.7c-4.8,2.6-10.9,4.3-18.2,5C544.7,449.6,535.7,450,525.1,450z M530.3,414.9 c2.2,0,4.1-0.1,5.5-0.4c1.4-0.3,2.6-1,3.7-2.3c1-1.3,2-3.3,2.9-6c0.9-2.7,1.9-6.5,3-11.4c1.1-4.9,2.5-11.1,4.2-18.7 c2-8.8,3.4-15.8,4.3-20.9c0.9-5.1,1.4-9,1.4-11.7c0-2.1-0.3-3.6-0.8-4.4c-0.6-0.8-1.5-1.4-2.7-1.6c-1.3-0.2-2.9-0.3-4.8-0.3 c-2.2,0-4.1,0.1-5.5,0.4c-1.4,0.3-2.6,1-3.7,2.3c-1,1.3-2,3.3-2.9,6c-0.9,2.7-1.9,6.5-3,11.4c-1.1,4.9-2.5,11.1-4,18.7 c-1.3,5.9-2.3,11-3.2,15.2c-0.8,4.3-1.5,7.8-2,10.6c-0.5,2.8-0.7,5.1-0.7,6.9c0,2,0.3,3.4,0.8,4.2c0.6,0.8,1.5,1.4,2.7,1.6 C526.8,414.8,528.4,414.9,530.3,414.9z"></path> <path style="fill:#FFFFFF;" d="M595.2,448.3l45.8-56.5l-22.7-50.6h46.4l8.2,26.5h1.7l18.3-26.5h46.6l-43.9,54.2l23.3,52.9h-46.4 l-9-28.6h-1.9l-19.5,28.6H595.2z"></path> </g> </svg> 