<?xml version="1.0" encoding="UTF-8"?> <svg xmlns="http://www.w3.org/2000/svg" xmlns:xlink="http://www.w3.org/1999/xlink" version="1.1" id="Layer_1" x="0px" y="0px" viewBox="0 0 1000 1000" style="enable-background:new 0 0 1000 1000;" xml:space="preserve"> <path style="fill:#FFFFFF;" d="M699.1,479.7c-2.9,7.1-9.2,10.7-15.6,13.9c-4.7,2.3-7,0.4-6.6-5c0-0.7-0.3-1.4-0.4-2.1 c-7.7,0.7-13.4,7-10.6,12.9c5.6,11.6,11.8,23.1,18.7,33.9c2.2,3.4,7.8,4.7,11.9,7c-7,10.5-26.4,10.3-33-1.7 c-4.5-8.3-8.4-16.9-13.3-26.7c-2.3,7.7-4.7,14.5-6.3,21.4c-1.9,8.2-5.9,12.5-14.4,14.3c-8.1,1.7-9.2,0.6-7.2-7.6 c7-29.3,14.1-58.6,21.1-88c1-4.2,1.3-8.7,2-13.4c-3.2-0.1-5.7-0.3-8.1-0.4c-0.2-0.5-0.4-1.1-0.6-1.6c6.6-3.1,13.2-6.2,19.8-9.3 c2.6,0,5.2,0,7.9,0c0.6,2.9,2,5.9,1.6,8.7c-1.2,8.5-2.7,17-4.7,25.4c-3.3,14.2-7,28.4-10.6,42.5c2.4-1.5,4.1-3.4,5.6-5.4 c7.6-9.9,15.4-19.6,27.1-25.1c7.2-3.4,10.9-2.4,15.8,3.9C699.1,478.2,699.1,478.9,699.1,479.7z"></path> <path style="fill:#FFFFFF;" d="M129.7,518.6c6.2-11,11.5-20.9,17.3-30.5c8.3-13.6,16.8-27.1,25.4-40.5c3.9-6.1,10.2-7.7,17-7.8 c3.3-0.1,4.9,1.4,4.1,4.8c-2.7,12.4-5.4,24.8-8.1,37.2c-2.5,11.3-5,22.6-7.4,33.8c-0.9,4.1-1.6,8.3-2.6,12.4 c-3,11.7-3.1,11.6,8.2,11.4c-0.5,0.9-0.6,2-1.2,2.3c-7.7,3.8-15.7,6.9-24.5,6.2c-6.2-0.5-7.7-2.8-6.3-8.9 c4.1-17.7,8.2-35.3,12.3-52.9c1.7-7.5,3.4-15,5.1-22.6c-0.4-0.2-0.9-0.4-1.3-0.7c-4.1,6.5-8.4,12.9-12.1,19.6 c-9.4,16.7-18.3,33.6-27.8,50.2c-2.5,4.4-6.2,8.3-9.8,12c-1.1,1.2-3.8,1.4-5.6,1.1c-0.7-0.1-1.4-2.7-1.6-4.2 c-1.6-15.4-2.5-31-4.9-46.3c-1.8-11.2-5.5-22.1-9.2-33c-6.9,14.5-12.6,29.1-12.9,44.9c-0.1,6.8,0.2,13.7,1.5,20.3 c1.2,5.9,4.5,11.1,12,11.3c-3.2,6.1-19.7,11.4-24.8,7.8c-1.8-1.2-3.3-4.5-3.1-6.5c0.8-6.7,2.3-13.4,3.9-20 c1.9-7.7,4.1-15.3,6.5-23.7c-2.4-0.1-4.3-0.3-6.3-0.3c-9.7,0-19.5,0-29.2,0.1c-4.1,0-6.6-2-6.4-6c0.1-3.6,2.5-5.5,6.4-5.5 c11.4-0.1,22.8-0.2,34.3-0.4c2.9,0,6,0.1,5.2-4.9c-1.7-0.1-3.4-0.2-5.2-0.2c-14.8-0.2-29.6-0.2-44.4-0.7c-2.5-0.1-6-1.8-7.1-3.8 c-2.3-4,1-8.4,5.9-8.4c16.8-0.1,33.7-0.1,50.5,0c3.6,0,5.9-0.6,5-5.6c-1.9,0-3.9,0-5.9,0c-18.5,0-37.1,0-55.6,0 c-7.8,0-11.7-3.1-11.8-9.4c-0.1-6.2,4.7-10.3,12-10.3c17.2,0,34.4,0.1,51.7-0.1c5.6,0,11.2-0.4,16.8-1c10.5-1,14.8,0.4,18.7,10.1 c4.7,11.8,8.3,24.1,11.2,36.4C127.3,496.5,128,506.9,129.7,518.6z"></path> <path style="fill:#FFFFFF;" d="M258.3,479.5c2.6-1.4,5-2.9,7.5-4c5.1-2.4,8.4-0.4,7.7,5.1c-1,7.5-2.6,14.9-4.2,22.3 c-1.8,8.4-3.9,16.8-5.9,25.1c-0.3,1.1-0.2,2.2-0.4,3.3c-1.7,10.2-1.7,10.2,8.7,9c0.2,0.4,0.5,0.9,0.7,1.3c-3.6,1.8-7.3,3.7-10.9,5.5 c-0.2,0.1-0.3,0.1-0.5,0.2c-11.5,2.1-19.3,5.1-18.6-12.7c-3.3,3-6.9,6.3-10.4,9.5c-11.7,10.8-24.6,5.8-28.6-5 c-1.7-4.7-2.7-10.1-2.6-15.1c0.4-20.1,10.4-35.1,26.9-46c3.8-2.5,8.4-4.1,12.8-5.2C247.7,470.9,253.8,473.4,258.3,479.5z M220.3,515.3c0.4,4.6,0.6,9.2,1.1,13.8c0.4,4.2,1.8,9.1,6.4,9.1c3.4,0,7.7-2.8,9.9-5.7c9.6-12.6,13.4-27,11.7-42.8 c-0.6-5.5-5.5-12-9.7-12.3c-5.9-0.4-9.5,3.1-12.2,8.1C222.5,494.8,220.6,504.8,220.3,515.3z"></path> <path style="fill:#FFFFFF;" d="M424.7,531.1c-9.7,13.2-26.5,22.6-42.3,18.4c-10.4-2.8-15.6-8-16.9-21.4 c-2.6-26.3,19.7-53.1,46.2-55.6c4.1-0.4,8.8,0.4,12.5,2c9.3,4.2,9.8,13.8,2.5,22.2c-8.3,9.5-20,13.9-31.8,17.4 c-10.5,3.1-11.2,4-7.9,14.4c3.9,12.6,13.5,16.2,24.8,9.4c3-1.8,5.7-4.2,8.6-6.2c1.1-0.8,2.4-1.3,3.7-1.9 C424.2,530.2,424.4,530.7,424.7,531.1z M384.7,513.2c5-1.8,8.8-2.9,12.2-4.5c8-3.9,14-9.5,13.7-19c-0.1-4.2-0.6-9.4-5.8-10.9 c-5.2-1.5-8.6,1.5-11.5,5.7C387.7,492.7,386.8,502.1,384.7,513.2z"></path> <path style="fill:#FFFFFF;" d="M299.1,550.2c4-15.4,5.3-28.9,2.4-42.5c-1.4-6.4-2.8-12.8-4.8-19.1c-1.6-5-4.3-9.2-11.1-7.8 c-0.2-0.5-0.3-1-0.5-1.6c2.3-1.3,4.5-2.8,7-3.9c12.5-5.6,21.1-2,25.3,10.9c5,15.4,5.2,31.1,3.2,47.7c10.4-7.8,17.6-17.4,21-29.7 c1.9-6.8,2.7-14-2-20.1c-1.7-2.2-4.6-3.4-7.5-5.5c6.6-3.7,13.7-6.6,21.6-6.4c3.9,0.1,6.1,5.6,5.2,10.8c-1.8,10.4-6.6,19.4-12.6,28 c-10.6,15.2-23.1,28.5-39.7,37.3C304.8,549.3,302.3,549.4,299.1,550.2z"></path> <path style="fill:#FFFFFF;" d="M611.1,529.5c-0.7,2.8-0.6,4.7-1.5,5.5c-10.7,10.3-22.4,18.3-38.6,15c-9.8-2-16.9-9.9-18-19.8 c-2.4-22.9,13.6-48.7,35.3-55.4c6.2-1.9,13.4-2.1,19.9-1.3c3.3,0.4,7.8,3.9,8.7,7c0.8,2.6-1.9,7.3-4.4,9.6c-3.4,3.2-8,5.2-12.2,7.4 c-1.2,0.6-3,0.3-4.6,0.4c0.1-1.4,0.3-2.7,0.3-4.1c0-3.9,0.7-8.1-0.5-11.7c-1.5-4.4-6.3-5.4-9.5-2c-3.8,4.1-7,9-9.1,14.1 c-4.4,10.8-5.2,22.3-2.6,33.7c2.9,12.5,12.4,16.6,23.8,10.4C602.3,536.1,605.9,533.1,611.1,529.5z"></path> <path style="fill:#FFFFFF;" d="M488.1,494.4c0-2.3,0-4.1,0-5.9c-1.9,0.7-4.3,0.8-5.6,2c-8.1,7.4-13.1,16.9-16.9,27 c-2.5,6.7-3.9,13.7-6.4,20.4c-2,5.5-11.5,10.8-17.3,10.2c-4.3-0.4-3.7-3.4-2.9-6.2c3-10.8,6.2-21.7,9.1-32.5c1.9-7,3.7-13.9,5-21 c1.3-6.4,0.1-7.2-6.1-5.9c-1,0.2-2,0-3.3,0c4.4-6,21.1-11.4,26.4-8c2.1,1.3,3.7,5.2,3.5,7.8c-0.4,5.3-2.2,10.5-3.4,15.8 c6-6.9,11.4-14.1,17.8-20c3.4-3.2,8.5-5.5,13.2-6.2c6.7-1.1,9.6,3.6,6.9,9.8C504.9,489.3,494.8,495.5,488.1,494.4z"></path> <path style="fill:#FFFFFF;" d="M538.4,540.6c-7.8,5-16.1,8.6-25.7,7c-5.3-0.9-5-5.4-4.1-9.3c3.2-13.9,6.6-27.7,10-41.5 c0.4-1.8,0.8-3.6,1.1-5.4c1.4-8.1,1.4-8.1-7.9-8.7c1.6-1.4,2.4-2.6,3.5-3c6.2-2.6,12.4-5.2,18.7-7.3c4.2-1.4,7.6,1.3,6.9,5.9 c-1.1,7.6-2.7,15.2-4.4,22.8c-2.5,10.9-5.5,21.8-7.7,32.7c-1.2,6.1-0.4,6.5,5.6,5.4c1.2-0.2,2.4,0,3.6,0 C538.2,539.6,538.3,540.1,538.4,540.6z"></path> <path style="fill:#FFFFFF;" d="M521.5,445.3c6.4-5.4,14.1-8.1,21.5-8.2c3.4,0,6.8,6.6,10.1,10.3c0.2,0.2-0.9,2.1-1.7,2.4 c-5.6,2.3-11.2,4.8-17.1,6.2c-2.1,0.5-5.2-1.3-7.1-2.9C525,451.1,523.5,448.2,521.5,445.3z"></path> <path style="fill:#FFFFFF;" d="M671.9,599.9c8.9-5,19.2-8.5,26.5-15.3c25.9-24,50.6-49.2,76-73.8c4.5-4.3,5.6-7.7,2.2-13.5 c-10.2-17.4-19.5-35.4-29.7-52.8c-8.4-14.3-13-32.3-34.1-35.5c0.3-1,0.6-2,0.9-3.1c3.2-0.7,6.5-2.1,9.7-2.1c24.5,0,49-0.1,73.5,0.8 c4.1,0.1,9.4,4.1,11.7,7.8c8.4,13.6,15.7,27.8,24.2,43.3c12.2-12,24-22.3,34.2-34c10.9-12.5,22.8-18.7,40-17 c16.6,1.7,33.6,0.2,50.4,0.4c4.1,0.1,8.3,1.3,12.2,2.9c-27.3,12-42.7,36.8-63.5,55c-13.1,11.5-24.8,24.6-37.6,36.5 c-4.4,4.1-5,7.1-2,12.4c13.4,23.2,26.5,46.6,39.1,70.2c5.3,10,12.1,16.9,25.2,17.7c-2,2.7-3.3,4.4-4.6,6.1c-25.2,0-50.5,0-75.7,0 c-9.2-0.5-15-4.7-18.9-13.5c-4.9-11.1-11.6-21.4-17.3-32.2c-3-5.6-6-6-10.4-1.5c-12.9,13.3-25.7,26.6-39,39.4 c-3.2,3-8.2,5.7-12.5,5.8c-26.9,0.4-53.8,0-80.7-0.1C671.9,602.7,671.9,601.3,671.9,599.9z"></path> </svg> 