<?xml version="1.0" encoding="UTF-8"?> <svg xmlns="http://www.w3.org/2000/svg" xmlns:xlink="http://www.w3.org/1999/xlink" version="1.1" id="Layer_1" x="0px" y="0px" viewBox="0 0 1000 1000" style="enable-background:new 0 0 1000 1000;" xml:space="preserve"> <path style="fill:#FFFFFF;" d="M179.5,519.8c-16.4,20.7-32.7,41.4-50.3,63.7c-18.6-23.4-35.7-44.9-55.6-70c0,22.3-1,39.6,0.3,56.8 c1.2,15.1-5.3,19.4-19.1,18.1c-6.5-0.6-13.2-0.1-21.1-0.1c0-64.7,0-127.3,0-195.5c33.7,43.2,64.1,82.1,95.7,122.6 c31.1-40.3,61.5-79.7,91.8-119c1.5,0.3,2.9,0.7,4.4,1c0,22.6,0,45.3,0,67.9c0,35.6-0.8,71.2,0.3,106.7c0.5,17.1-9.4,16.2-21,16.4 c-11.5,0.1-22.2,1.5-20.9-15.9c1.3-17.2,0.3-34.5,0.3-51.8C182.7,520.5,181.1,520.1,179.5,519.8z"></path> <path style="fill:#FFFFFF;" d="M733.1,512.3c0,12.2,0,21.7,0,33c25.6,0,50.4,0,77.9,0c0,12.3,1.1,23.1-0.6,33.4 c-0.6,3.7-7.6,9.2-11.7,9.3c-35.5,0.7-71.1,0.4-109.5,0.4c0-10.8,0-20.7,0-30.7c-0.3-49.9-0.3-99.9-1-149.8 c-0.2-12.2,3.2-17.3,16.6-17c30.5,0.5,61-0.5,91.5-1c9.7-0.2,15.1,3.3,14.7,13.6c-0.3,9-0.1,18-0.1,30.7c-17.3,0-33.4-0.1-49.6,0 c-32.4,0.1-33.5,1.5-26.4,35.4c13.6,0,27.6,0.2,41.6-0.1c10.5-0.2,15.2,2.4,14.7,14.5c-1.5,31.6,1.6,28.5-29,28.4 C753.1,512.3,744,512.3,733.1,512.3z"></path> <path style="fill:#FFFFFF;" d="M330.6,393.8c28.2,63.7,56.4,127.3,84.7,191.3c-32.5,9-52.5,2.8-63-18c-15.4-30.6-16.6-50.5-6.2-57.9 c-1.3-8.9-5.9-18.5-2.8-23.5c10.2-16.6,4.8-24.2-13.2-27.2c0-8.4,0-15.9,0-23.4c-1.4-0.1-2.8-0.2-4.2-0.3c-0.5,7.4-1,14.9-1.6,23.5 c-17.3,3.8-21.4,12.7-10.3,29.1c2.6,3.9-2.8,13-4.8,20.9c16.9,10.4,7.3,27.2,2.3,40.9c-13.9,38.3-27.3,44.7-72.1,37.3 c28.8-64.9,57.4-129.2,85.9-193.4C327.1,393.4,328.8,393.6,330.6,393.8z"></path> <path style="fill:#FFFFFF;" d="M824.8,392c46.9,0,92.4,0,141,0c0.6,12.2,1.2,25.5,1.9,41c-17,0-31.9,0-49.5,0c0,36.6,0,71.2,0,105.8 c0,8.4,0,16.8,0.2,25.2c0.3,22.4-15.7,33.2-36.9,23.7c-3.6-1.6-5.9-9.6-6-14.7c-0.6-43.8-0.6-87.6-0.8-131.4c0-1.7-0.8-3.4-1.6-7.1 c-10,0-20.2-0.5-30.4,0.1c-13.1,0.7-19.6-3.7-18-17.6C825.6,409.4,824.8,401.6,824.8,392z"></path> <path style="fill:#FFFFFF;" d="M548.1,394c0,12.1,0,24,0,39.1c-14.5,0.7-29.8,1.3-47.2,2.1c0,39.7,0,79.3,0,118.9c0,3,0.3,6,0.3,9 c-0.3,24.7-12,33.6-35.1,24.8c-4.6-1.8-7.9-12.5-8-19.1c-0.7-39.7-0.1-79.5-0.2-119.2c0-4.7-1-9.3-1.7-14.9 c-11.2,0-21.5-0.2-31.8,0.1c-8.4,0.2-18.1,0.2-15.9-11.1c2.2-11.1-9.7-30.6,12.5-31.6c39.7-1.8,79.5-0.6,119.2-0.5 C542.5,391.6,544.8,393,548.1,394z"></path> <path style="fill:#FFFFFF;" d="M627.3,391.3c14.7,0,27,0,41.3,0c0.9,4.4,2.7,9.5,2.8,14.7c0.1,38.5,0.5,77.1-0.6,115.6 c-1,36.4-28.9,64.4-64.6,66.9c-37.3,2.6-68.7-20.7-76.4-56.4c-2.1-9.8,0.2-15.5,10.9-16c14.6-0.6,29.6-5.1,35.8,16.4 c3.5,12.1,17.9,16.5,30.8,13.1c16.1-4.3,20.9-17.5,20.8-32.5c-0.1-33.7-0.5-67.4-0.8-101C627.2,406,627.3,400,627.3,391.3z"></path> </svg> 