<?xml version="1.0" encoding="utf-8"?>
<!-- Generator: Adobe Illustrator 26.1.0, SVG Export Plug-In . SVG Version: 6.00 Build 0)  -->
<svg version="1.1" id="Layer_1" xmlns="http://www.w3.org/2000/svg" xmlns:xlink="http://www.w3.org/1999/xlink" x="0px" y="0px"
	 viewBox="0 0 1056.6 202" style="enable-background:new 0 0 1056.6 202;" xml:space="preserve">
<path id="Shape_00000040541709403781856770000002505458042668340373_" style="fill:#FFFFFF;" d="M338.8,108.5
	c3.2-4.5,4.9-9.8,4.8-15.3c0-7.8-2.8-14.5-8.2-20c-5.4-5.4-12.2-8.2-20-8.2h-35v87.5h14.4v-31.8h17l18.5,31.8h15.7l-19.8-34
	C331.4,116.6,335.7,113,338.8,108.5L338.8,108.5L338.8,108.5z M315.5,107.9h-20.6V78.7h20.6c3.7,0,7.3,1.5,9.8,4.2
	c5.3,5.9,5.3,14.8,0,20.7C322.8,106.3,319.2,107.9,315.5,107.9L315.5,107.9z M417.4,114.9c-1.5-1.6-2.9-3-4.6-4.4
	c-1.5-1.2-3.6-2.4-6.3-3.4c-2.8-1.2-5-2-6.5-2.5c-1.6-0.5-4-1.3-7.3-2.4c-6.6-2.1-11.2-4.1-13.7-5.9c-2.5-1.7-4-4.6-3.8-7.7
	c0-3.3,1.2-5.9,3.7-7.9c2.5-2,5.8-2.9,10-2.9c8.6,0,14.7,4.1,18.4,12.3l12.2-7c-2.6-5.8-6.9-10.7-12.2-14.1
	c-5.3-3.4-11.4-5.2-18.4-5.2c-7.8,0-14.4,2.2-19.8,6.9c-5.6,4.5-8.2,10.7-8.2,18.4c0,4,0.7,7.3,2.1,10.3c1.5,2.9,3.7,5.6,6.5,7.3
	c2.5,1.9,5.3,3.3,8.2,4.6c3.3,1.3,6.7,2.5,10.2,3.4c7.4,2.2,12.6,4.4,15.5,6.2s4.4,4.6,4.4,8.2c0.1,3.3-1.5,6.3-4.1,8.3
	c-2.6,2.1-6.7,3.2-12.2,3.2c-11,0-18.2-4.9-21.8-14.8l-12.4,7.3c2.2,6.5,6.5,12,12.3,15.7c5.8,3.8,13.1,5.7,21.4,5.7
	c9.3,0,16.8-2.2,22.5-6.9s8.6-10.8,8.6-18.8c0-2.5-0.3-5.2-1.1-7.7C420.2,118.6,419,116.6,417.4,114.9L417.4,114.9z M432.3,78.8
	h24.7v73.7h14.4V78.8H496V65.1h-63.7V78.8L432.3,78.8z M162,152.5h17.7v-43.7h43.9V91.9h-43.9V61.6h45.5V44.7H162L162,152.5
	L162,152.5z M242.7,152.5h14.4V65.1h-14.4V152.5z M646,115.1h35v-13.6h-35V78.8h38.1V65.1h-52.5v87.5h53.1v-13.7H646V115.1
	L646,115.1z M903.3,63.5c-12.7,0-23.4,4.4-32.2,13.2c-8.9,8.9-13.2,19.6-13.2,32.2c0,12.7,4.4,23.4,13.2,32.2
	c8.9,8.7,19.6,13.2,32.2,13.2c12.7,0,23.4-4.4,32.2-13.2c8.9-8.9,13.2-19.6,13.2-32.2c0-12.7-4.4-23.4-13.2-32.2
	C926.7,67.8,915.9,63.5,903.3,63.5L903.3,63.5L903.3,63.5z M925.2,131.3c-5.9,5.9-13.3,9-22.1,9s-16.1-3-22.1-9
	c-5.9-5.9-9-13.5-9-22.5s3-16.5,9-22.5s13.3-9,22.1-9s16.1,3,22.1,9c5.9,5.9,9,13.5,9,22.5C934.2,117.8,931.3,125.3,925.2,131.3
	L925.2,131.3z M762.3,108.5c3.2-4.5,4.9-9.8,4.8-15.3c0-7.8-2.8-14.5-8.2-20c-5.4-5.4-12.2-8.2-20-8.2h-35v87.5h14.5v-31.8h17
	l18.5,31.8h15.7l-19.8-34C754.9,116.6,759.3,113,762.3,108.5L762.3,108.5z M739.1,107.9h-20.6V78.7h20.6c3.7,0,7.3,1.5,9.8,4.2
	c5.3,5.9,5.3,14.8,0,20.7C746.3,106.3,742.8,107.9,739.1,107.9L739.1,107.9L739.1,107.9z M840.8,114.9c-1.5-1.6-2.9-3-4.6-4.4
	c-1.5-1.2-3.6-2.4-6.3-3.4c-2.8-1.2-5-2-6.5-2.5c-1.6-0.5-4-1.3-7.3-2.4c-6.6-2.1-11.2-4.1-13.7-5.9c-2.5-1.7-4-4.6-3.8-7.7
	c0-3.3,1.2-5.9,3.7-7.9c2.5-2,5.8-2.9,10-2.9c8.6,0,14.7,4.1,18.4,12.3l12.2-7c-2.6-5.8-6.9-10.7-12.2-14.1
	c-5.3-3.4-11.4-5.2-18.4-5.2c-7.8,0-14.4,2.2-19.8,6.9c-5.6,4.5-8.2,10.7-8.2,18.4c0,4,0.7,7.3,2.1,10.3c1.5,2.9,3.7,5.6,6.5,7.3
	c2.5,1.9,5.3,3.3,8.2,4.6c3.3,1.3,6.7,2.5,10.2,3.4c7.4,2.2,12.6,4.4,15.5,6.2c2.9,1.9,4.4,4.6,4.4,8.2c0.1,3.3-1.5,6.3-4.1,8.3
	c-2.6,2.1-6.7,3.2-12.2,3.2c-11,0-18.2-4.9-21.8-14.8l-12.4,7.3c2.2,6.5,6.5,12,12.3,15.7c5.8,3.8,13.1,5.7,21.4,5.7
	c9.3,0,16.8-2.2,22.5-6.9s8.6-10.8,8.6-18.8c0-2.5-0.3-5.2-1.1-7.7C843.6,118.6,842.4,116.6,840.8,114.9L840.8,114.9L840.8,114.9z
	 M581,44.7h-39.8v108h17.7v-37H581c10.2,0,18.6-3.4,25.5-10.3c6.9-6.9,10.3-15.2,10.3-25.2s-3.4-18.5-10.3-25.2
	C599.6,48,591.2,44.7,581,44.7L581,44.7z M594,93.6c-3.4,3.6-7.7,5.3-13,5.3h-22.1V61.2H581c5.3,0,9.5,1.7,13,5.3
	c3.4,3.6,5,8.1,5,13.5C599,85.5,597.3,90,594,93.6L594,93.6L594,93.6z M1019.6,65.1v59.3l-41.2-59.3h-11.2v87.5h14.4V93.2l41.2,59.3
	h11.2V65.1H1019.6L1019.6,65.1z"/>
<path id="Path-5_00000070797526694466132510000000040002632244785069_" style="fill-rule:evenodd;clip-rule:evenodd;fill:#FFFFFF;" d="
	M19,37c42.9-23,98.4,1.2,102.5,59.6C42,102.9,32.3,67,19,37z"/>
<path id="Path-7_00000149367024305364704460000002479639474513150353_" style="fill-rule:evenodd;clip-rule:evenodd;fill:#FFFFFF;" d="
	M19,166.7c42.9,23,98.4-1.3,102.5-59.6C42,100.7,32.3,136.5,19,166.7z"/>
</svg>
