<?xml version="1.0" encoding="UTF-8"?> <!-- Generator: Adobe Illustrator 22.0.0, SVG Export Plug-In . SVG Version: 6.00 Build 0) --> <svg xmlns="http://www.w3.org/2000/svg" xmlns:xlink="http://www.w3.org/1999/xlink" version="1.1" id="Layer_1" x="0px" y="0px" viewBox="0 0 1000 1000" style="enable-background:new 0 0 1000 1000;" xml:space="preserve"> <path style="fill:#FFFFFF;" d="M158.7,361.6l-24.1,55h63.6l-20.6,137.5c0,0-3.4,24.1-29.2,24.1H53.8l-24.1,55h108.3 c0,0,65.3,3.4,86-51.6l36.1-220.1H158.7z"></path> <path style="fill:#FFFFFF;" d="M339.2,404h101.4c0,0,39.5,2.3,34.4,40.1L461.3,537H339.2l6.9-48.1h72.2l3.4-27.5 c0,0-1.3-6.9-14.4-6.9c-13.1,0-57.8,0-57.8,0s-7.5-1.9-10.3,16c-3.7,23.5-18.9,99.2-18.9,99.2s-1.7,10.3,17.2,10.3 c18.9,0,73.1,0,73.1,0l28.3,53.3H292.8c0,0-41.3-10.4-32.7-61.9c8.6-51.6,20.6-125.5,20.6-125.5S289.4,404,339.2,404z"></path> <path style="fill:#FFFFFF;" d="M643.6,579.7l-43,50h-72.2c-32.7,0-30.9-44.6-30.9-44.6l41.3-235.5h51.6l-6.9,54.4h60.2l25.8,48.7 h-98.9l-16.3,99.7c-6.9,29.2,8.6,25.8,8.6,25.8L643.6,579.7z"></path> <path style="fill:#FFFFFF;" d="M688.3,372.2"></path> <polygon style="fill:#FFFFFF;" points="684.7,373.4 751.9,500 605.7,681.4 669.4,681.4 775.9,554.2 812.1,641.8 882.5,641.8 813.8,497.4 970.2,318.6 906.6,318.6 789.7,456.2 746.7,372.2 "></polygon> </svg> 