<?xml version="1.0" encoding="utf-8"?>
<!-- Generator: Adobe Illustrator 26.1.0, SVG Export Plug-In . SVG Version: 6.00 Build 0)  -->
<svg version="1.1" id="Layer_1" xmlns="http://www.w3.org/2000/svg" xmlns:xlink="http://www.w3.org/1999/xlink" x="0px" y="0px"
	 viewBox="0 0 1056.6 202" style="enable-background:new 0 0 1056.6 202;" xml:space="preserve">
<path style="fill:#FFFFFF;" d="M68.4,8c3.5,0.6,7.1,1,10.5,2c3.5,1,7,2.3,10.3,3.9c11.8,5.8,14.4,20.7,10.8,31
	c-0.4,1.3-1.2,2.5-1.5,3.8c-0.2,1.1,0.1,2.4,0.7,3.7c6.2-11.2,15.2-17.8,27.8-18.4c11.6-0.5,23.3-0.6,31.3,11.3
	c0.5-2.8,0.8-5,1.1-7.1c0.3-2.4,1.7-3.6,4-3.7c8-0.4,16.1-1.4,24-0.7c4.3,0.4,8.6,0.1,12.9,0.6c8.8,0.9,14.4,5.6,16.9,14.3
	c0.3,1,0.6,2,1.2,3.6c0.7-1.6,1.1-2.7,1.6-3.7c4.9-10.4,15.6-15.7,26.9-13.3c0.7,0.1,1.7,0.3,2,0c1.9-2.2,4.4-1.7,6.8-1.6
	c6.4,0.3,12.9,0.5,19.3,0.9c1.8,0.1,3.6,1,5.2,1.5c1.9-0.6,3.9-1.5,5.9-1.6c6.7-0.5,13.5-0.7,20.2-0.9c1.8,0,3.6,0.7,5.4,1
	c0.6,0.1,1.2,0.3,1.8,0.2c9.6-1.7,17.5,0.7,23.1,9.2c0,0.1,0.2,0.1,0.7,0.2c0.4-2.1,0.7-4.3,1.1-6.4c0.4-2.6,1.8-3.9,4.5-3.8
	c14.3,0,28.7,0,43,0c4.1,0,4.7,0.9,5.1,7.2c1-0.7,1.8-1.2,2.6-1.8c5.2-4.4,11.2-5.5,17.8-4.3c1.8,0.3,3.5,0.8,5.2-0.8
	c0.7-0.7,2.4-0.6,3.6-0.6c6.7,0.2,13.5,0.6,20.2,0.9c5.3,0.2,6.5,1.4,5.9,6.9c-0.8,8.2-1.7,16.4-2.5,24.6c-0.1,1.2-0.2,2.5-0.3,3.9
	c4.4-2.7,4.9-2.6,8.3,1.3c1.9,2.1,3.7,4.4,5.6,6.4c2,2.1,2.3,4.3,1.4,7c-4.1,12.3-19.7,23.6-34.4,18.4c-5.5-1.9-9.6-1.8-14.7,0.2
	c-6,2.4-12.3,1.7-18-1.8c-2.5-1.5-4.9-1.7-7.4-0.3c-4.8,2.5-10,3.4-15.3,3.1c-9-0.6-18.1-1.4-27.1-1.9c-2.3-0.1-4.7,0.4-7.1,0.6
	c-4.2,0.4-8.3,1.2-12.5,1.1c-4.6,0-8.4-2.3-11.7-5.6c-0.8-0.8-1.8-1.5-2.7-2.2c-0.5,0.4-0.8,0.4-0.9,0.6c-2.7,6.7-2.7,6.8-10.1,6.7
	c-7.2-0.1-14.3-0.4-21.5-0.5c-1.5,0-2.9,0.3-4.4,0.6c-5.9,1.2-11.6,0.8-16.9-2.2c-2.2-1.2-4.1-1-6.3,0.1c-7.8,4.2-15.6,3.9-23.2-0.5
	c-2.5-1.4-4.4-1.2-7.1-0.2c-3.9,1.6-8.1,3-12.3,3.3c-6.2,0.6-11.8-1.3-16.2-6.2c-2.2-2.5-3-2.2-3.9,1.1c-0.7,2.8-2.5,4.4-5.4,4.4
	c-7.2,0-14.3,0.1-21.5,0c-3.3-0.1-5.2-2.2-5.4-5.5c-0.1-1,0-2,0-3c-4.5,2.5-8.6,5.4-13.1,7.2c-4.4,1.7-9.3,2.2-14.5,3.4
	c11,5.9,14.3,14.9,11.7,26.6c0.8-1.1,1.5-2.2,2.3-3.2c3.8-4.1,8.5-6.2,14-6.2c2.7,0,5.2,0.5,7.9-0.5c2.5-0.9,5.6-0.2,8.5,0
	c4.1,0.3,8.1,0.9,12.2,1.1c1.6,0.1,3.3-1.3,5-1.2c6,0.1,12,0.6,18,0.8c2.1,0,4.2-0.8,6.3-0.8c12-0.1,24,0,36,0c4,0,8.5-1,12,0.3
	c5.4,1.9,10.2,1.2,15.6,0.6c8.4-0.9,17-0.6,25.5-0.2c7.8,0.4,15.6-1.4,23.3-0.7c6.8,0.6,13.9-0.9,20.3,2.6c0.8,0.4,2.2,0,3.2-0.4
	c4.9-1.8,9.8-2.6,14.9-1c1.3,0.4,2.8,0.7,3.8,1.6c2.8,2.5,5.1,4.2,6.9-0.9c0.3-0.8,2.4-1.2,3.7-1.2c5.3-0.3,10.5-0.5,15.8-0.7
	c4.3-0.1,5.8,1.4,5.4,5.7c-0.6,5.7-1.3,11.3-1.9,17c-0.1,1.1-0.2,2.3,0.5,2.7c2.1,1.5,4.2,2.9,6.3,4.4c0.3,0.2,0.6,0.6,0.8,1
	c5.5,6.7,5.2,11.8-1.4,17.8c-7.4,6.6-15.6,9.8-25.5,5.1c-1.5-0.7-4-0.4-5.6,0.3c-6.6,2.9-12.8,3-18.9-1.2c-1.8-1.2-3.2-1.3-5,0.4
	c-1.2,1.2-3.3,2-5,2c-13.1,0.1-26.1,0-39.2,0c-1.6,0-3.2,0.5-4.7,0.4c-3.8-0.3-7.6-1-11.4-1.4c-1.9-0.2-3.9-0.4-5.7-0.1
	c-2.3,0.3-4.4,1.5-6.7,1.7c-9.1,0.8-16.1-3.9-18.2-13c-1.1-4.7-0.7-9.8-1.1-14.7c-0.1-1.6,1.5-4-1.2-4.4c-2.6-0.4-2.7,2.2-2.9,4
	c-0.8,7.1-1.5,14.3-2.2,21.4c-0.4,4.6-2.1,6.1-6.6,6.2c-4.1,0-8.2,0-12.3,0c-2.2,0-3.8,0.9-4.6,3.1c-0.6,1.7-1.4,3.3-2.2,4.9
	c-6.2,12.6-25,14.3-33.6,5.3c-2.2-2.3-3.6-4.7-2.2-8c0.3-0.7,0.6-1.4,0.6-2.1c0-1.6,0.3-4.1-0.4-4.5c-1.7-0.8-3.9-1-5.9-0.7
	c-3.5,0.6-6.8,2.1-10.3,2.4c-2.3,0.2-4.6-1.1-7-1.4c-2.1-0.3-4.4-0.8-6.3-0.1c-8.1,2.9-15.2,2.7-21.3-4.3c-0.8-0.9-3.5-1.2-4.5-0.5
	c-11.3,8-24,6.7-36.6,6.1c-2.9-0.1-5.9-0.4-8.8-0.8c-4.5-0.6-6.1-3.1-5.6-7.8c0.8-6.7,1.3-13.4,2.1-20.1c0.3-2.8-0.8-3.9-3.4-3.1
	c-9,2.7-16.5-6.4-16.2-15.4c0.1-4.4,1.9-8.3,4.4-11.8c0.3,0.1,0.6,0.1,0.9,0.2c-0.4,2.1-0.8,4.2-1.2,6.3c3,0.7,1,3.2,1.7,5.6
	c-1-0.9-1.4-1.3-2-1.8c0,4.1,1.2,7.8,4.3,9.8c3.3,2.1,7.2,1.6,11.2-0.8c-1.2-0.2-1.9-0.4-2.5-0.5c5.2-6.8,5.5-10.4,0.5-14.6
	c3.4-1.8,6.5-3.4,10.3-5.3c-0.5,5.6-0.9,10.2-1.3,14.8c-0.2,1.8-0.1,3.7-0.7,5.2c-3.1,7.5-3,15.5-3.4,23.3c-0.1,2.2,0.4,4.4,0.6,7.2
	c3.9,0.3,8.1,0.5,12.2,0.8c0.1-0.3,0.1-0.6,0.2-0.9c-4-2.3-8.1-4.6-12.5-7.2c0.6-4.6,1.4-9.7,2.1-15c2.5,1.3,4.9,2.4,7.2,3.6
	c0.3,2.7,0.8,5.5,0.8,8.2c0,2,1.1,2.6,2.5,3c4.8,1.5,9.6,3.5,14.8,1.7c2.3-0.8,4.2,0.1,6,1.4c1.3,0.9,2.8,1.6,4.9,2.7
	c-8.6,3.5-17.6,3-26.2,4.6c11.1,0.4,22.6,2.6,32.7-6.2c-1.3,0.2-2,0.3-2.7,0.5c3.8-4.1,6-8.8,7.1-14.2c0.3,2.9,0.6,5.8,1,8.7
	c0.2,0,0.4,0,0.6,0c0-2.4-0.1-4.7,0.1-7.1c0.1-0.8,1-2.3,1.4-2.2c3.3,0.2,6.5,0.7,10.1,1.2c-0.6,1.8-0.8,2.8-1.3,3.7
	c-1.3,2.7-0.7,4.7,2.1,5c3.2,0.4,6.6,0.4,9.8-0.1c1.7-0.3,2.6-0.1,4,0.8c3.9,2.5,8,4.7,11.9,7c-3.9,3.2-9.1,1.4-13.7-4.9
	c-2.2,2.4-4.4,4.7-6.6,7.1c0.1,0.2,0.3,0.4,0.4,0.6c2-1.2,4.1-2.4,6.1-3.6c5,5.8,11.4,6.2,20.3,1.1c-0.9-0.2-1.6-0.4-3-0.8
	c2-1.3,3.5-2.4,5.1-3.4c2.9,7.3,11.5,9.7,20.5,6.2c0.6,5.2-0.6,6.4-6.9,6.7c1.8,1,3,1.8,4.4,2.3c0.6,0.2,1.8-0.3,2-0.8
	c0.7-1.4,1-2.9,1.4-4.4c0.4-1.5,0.6-3,0.9-4.7c3.7,2,7.3,4,11,5.9c2.6,1.4,2.7,3.4,1.1,5.3c-2,2.5-4.4,4.8-6.6,7.2
	c5.3,0.6,10.8-9.3,10.5-15c-0.2,0.3-0.5,0.5-1.1,1.2c1.4-11.5,2.7-22.5,4.1-34.2c0.3,1.4,0.5,2.3,0.8,3.7c0.9-6.2,1.7-11.8,2.5-17.7
	c-6.5-0.3-12.7-0.7-19-1c-0.3,3.3-0.7,6.3-1,9.2c0.2,0,0.3,0,0.5,0.1c0.2-0.4,0.3-0.8,0.5-1.3c0.1,0.2,0.3,0.3,0.3,0.4
	c-0.6,6.8-1.1,13.7-2,20.5c-0.2,1.3-2.2,2.3-3.4,3.5c-0.8-0.9-1.8-1.6-2.4-2.6c-3-4.3-0.8-9-0.6-13.5c0.1-2.1,0.4-4.3,1-6.4
	c0.6-2.4,1.7-4.7,2.5-7c0.2-0.5,0-1.2,0-2c-6.3-0.3-12.4-0.6-18.4-0.9c-0.6,1.5-1,2.6-1.8,4.6c0,2.1,0,5.2,0,8.5c-0.1,0,0.5,0,1.4,0
	c-0.3,4.3-0.6,8.4-0.9,12.9c-0.4-0.3-0.6-0.5-1.1-1c-0.2,3.9-1.9,6.5-5.5,7.5c-4.9-5.3-1.6-11-1-16.5c0.5-4.9,1.7-9.8,2.6-15
	c-6-0.3-11.4-0.6-16.8-0.7c-0.8,0-1.6,1.4-2.6,2.3c-4.5-2.2-9.5-3.1-13.9,0.2c-2.6,1.9-4.7,4.9-6.4,7.7c-1.7,2.7-2.7,5.9-4.1,9.1
	c-1.1-5.3-4.9-7.9-10.3-9.6c2.4-2,3.7-4.5,6.4-5.8c0.8-0.4,1.1-2.4,1-3.6c-0.3-2.1-1.3-4.2-1.5-6.4c-0.8-7.7-6.1-11-12.7-12.4
	c-14.5-3-28.1,0.2-40.9,7.4c-2.2,1.2-4.5,2.1-7,2.6c10.1-9.6,22.9-12.4,36.4-13.7c-3-2.8-5.6-5.4-8.4-7.8c-0.5-0.4-2.2-0.3-2.8,0.3
	c-13.3,10.6-29,9.6-44.5,9c-5.7-0.2-11.3-0.9-17-1.5c-3.9-0.5-5.4-2.3-5.1-6.2c0.7-9.5,1.7-18.9,2.5-28.4c0.2-2.2,0.1-4.4,0.1-6.6
	c-2.1,0.3-4.1,0.5-6.2,0.9c-8,1.8-16.2-3.7-18.5-12.1c-1.9-7.1-0.6-13.5,3.6-19.5c6.4-9,15.6-14.1,25.8-17.2
	c7.3-2.2,15-3.2,22.5-4.8c0.9-0.2,1.8-0.4,2.8-0.6C64.6,8,66.5,8,68.4,8z M99,76.4c-0.9,5.7,2.3,9.8,6.1,13.6c1,1,2,2.3,3.3,2.8
	c6.8,2.9,13.4,5.9,21.3,5.2c8.1-0.7,14.9-3.4,20.3-9.4c0.6-0.6,0.8-1.6,1.2-2.3c-2-0.4-0.6-1.5-0.3-2.2c1.3-4.1,3.3-8.1,4-12.3
	c0.6-3,1.9-3.2,4.8-2.9c-0.7,8-1.3,16-2,24.2c0.6-0.4,1-0.7,1.6-1.2c0.2,1.3,0.3,2.3,0.4,3.5c7.3,0.7,14.5,1.4,22,2.2
	c0.8-8,1.5-15.4,2.1-22.7c-0.2,0-0.5-0.1-0.7-0.1c-0.2,0.4-0.4,0.8-0.7,1.4c-0.2-0.6-0.6-1.1-0.5-1.5c0.3-4,0.6-8.1,1.1-12.1
	c0.3-2.1,0.9-4.3,2-6c0.8-1.2,2.7-2.3,4-2.2c1,0.1,2.4,2.1,2.6,3.3c0.4,3.4,0.4,6.8,0.1,10.2c-0.4,4.1-1.2,8.1-1.9,12.8
	c-0.4-1.1-0.6-1.6-0.9-2.5c-0.9,6.6-0.5,12.7,4.8,16.4c6.9,4.8,14.5,4.9,22.2,0.5c-0.6-0.3-1.1-0.5-1.4-0.7c2.7-2.3,5.3-4.5,7.9-6.7
	c2.8,3.8,5.6,7.2,10.5,7.9c2.6,0.4,5.2,1.4,7.9,1.6c1.7,0.1,3.7-0.4,5.3-1.2c2.2-1.1,4.1-2.8,6.1-4.2c3.5,4.4,8.2,6.4,13.8,6.2
	c5.4-0.2,10.4-1.3,14.1-6.3c0.3,1.4,0.5,2.6,0.8,3.9c7.3,0.7,14.4,1.4,22,2.2c0.7-6.8,1.4-13,1.8-19.2c0.1-1.7-1.2-3.5-1.1-5.2
	c0.2-4.8,0.5-9.6,1.3-14.3c0.4-2.3,2-4.6,4.7-4.7c2.4-0.1,3.3,1.8,3.4,4c0.1,1,0.6,2,0.5,3c-0.6,6.2-1.4,12.4-2.1,18.6
	c0,0.2-0.4,0.3-0.8,0.6c-0.1-0.9-0.2-1.7-0.3-2.4c-1.3,6.7-0.6,13.1,5.4,17c6.2,4,13.1,4.1,19.6,0.9c-0.3-0.7-0.5-1.2-0.7-1.7
	c1.1-0.4,2.3-1.4,3.3-1.2c3.2,0.7,6.2,2.3,9.4,2.8c4.7,0.8,9.6,0.7,14.3,1.5c9.7,1.5,18.8,0.6,27.2-5.4c-1.9-1.8-0.4-2.3,0.7-2.6
	c1.4,1.2,2.6,2.3,3.9,3.4c3.2,2.9,7.5,2.7,11.3,3.9c3.7,1.1,6.7,0,9.7-1.8c1.4-0.9,2.7-2.1,3.7-2.8c2.4,1.6,4.5,3.5,6.9,4.5
	c6.8,2.9,13.2,0.9,19.4-2.1c1.4-0.7,3.4-1.9,3.5-2.9c0.1-3.2,2.3-5,4-6.7c2.8-2.8-0.1-5.6,0.8-8.3c0.1-0.5-0.6-1.3-1-1.9
	c-1-1.3-2-2.6-3.2-4c-0.4,1.1-0.7,2.3-1.3,3.1c-1.3,1.6-2.8,2.8-4.1,4.4c-2,2.4-3.2-1.9-5-0.6c-0.1-2-0.3-3.9-0.3-5.9
	c0-1.1,0.3-2.2,0.5-3.3c1.5,0.2,2.7,0.4,3.1,0.5c0-2-0.1-3.9,0-5.8c0.1-2,1.3-4.3,0.6-5.9c-1.8-3.9,2.2-8.3-1.4-12.2
	c-0.9-1-0.7-4.5,2-5.9c0.3-0.2,0.2-1.3,0.2-2c-8.1-0.4-15.8-0.7-23.7-1c-0.2,1.2-0.4,2.2-0.6,3.4c-1.8-0.6-3.3-1.5-4.9-1.6
	c-3.2-0.3-6.6-0.6-9.8-0.2c-2.9,0.4-5.6,1-7.1,4.9c-1.9,4.9-5.5,9.2-8.2,13.5c0,0.1-0.1-0.5-0.3-1.2c-0.2,0.3-0.4,0.4-0.4,0.6
	c-2.6,6.3-3.2,12.8-3.2,19.5c0,3.7,0,3.7-3.3,3.2c-0.2,0-0.4,0-0.6,0c-4.9,0.2-9.8,0.4-14.7,0.5c-0.6,0-1.2-0.3-2.3-0.7
	c1.3-1.1,2.2-1.9,3.7-3.2c-1.4,0.3-2,0.5-1.9,0.4c5.3-5.5,11-11.4,16.7-17.3c0.2-0.2,0.5-0.6,0.6-0.6c3.2,1.8,2.3-1,2.6-2.3
	c0.4-2.1,1-4.2,1.2-6.4c0.1-1-1.1-2-1.1-3c0-2.3-0.1-4.8,0.6-6.9c0.4-1.2,1.1-0.9,0.7-2.4c-14.6-1-42.1-0.4-43.4,0.5
	c1.5,5.6-1.1,10.8-0.6,16.4c6.3,0,12.7,0,19.8,0c-3.9,4.3-7.2,8-10.7,11.5c-0.8,0.8-2.7,0.3-3.8,0.9c-2.2,1.4-4.3,3-6.1,4.9
	c-1.9,1.9-3.4,4.2-4.9,6.5c-1.1,1.5-2,1.1-3.1,0c-0.5-0.5-1.3-0.7-2.7-1.4c0.6-3.4,1.3-7.5,2.1-12.1c0.5,0.9,0.7,1.2,1.3,2.1
	c0.2-4.9,3.2-9-0.4-13.6c-1.9-2.4-2.1-6-3.2-9.2c0.6,0.3,1.1,0.6,1.5,0.8c-6.1-9-14.4-7.6-22.9-5.1c-0.2-1-0.4-2-0.5-2.8
	c-8.3,0.4-16.3,0.7-24.7,1.1c0.4,0.9,0.6,1.4,0.9,1.8c0.4,0.7,1.1,1.4,1.1,2c0,1.7-0.3,3.5-0.5,5.2c-0.6,5.4-1.1,10.7-1.9,16.1
	c-0.2,1.1-1.6,1.9-1.8,3c-0.8,4.2-1.4,8.5-2,12c-1.4,0.3-2,0.3-2.5,0.6c-3.1,1.6-6.4,0-6.2-3.2c0.4-5.1,1.2-10.2,1.9-15.5
	c0.5,0.5,0.7,0.7,0.9,0.9c0.3-2,0.7-3.7,0.9-5.5c0.2-2.7,1-5.6,0.2-7.9c-1.3-3.4-1.4-5.6,1.4-7.9c0.3-0.3,0.2-1.1,0.4-2.5
	c-7.2,0-14,0.3-20.8-0.1c-3-0.2-4.4,0.1-4.2,3.3c-4.8-1.6-9.1-3.6-14.1-2c-3,0.9-5.5,1.4-7,5.1c-1.6,4.2-4.7,7.7-7.1,11.6
	c-0.5,0.9-1,1.8-1.5,2.8c-0.2-0.8-0.4-1.3-0.6-1.9c-0.3,0-0.5,0-0.8,0c-0.7,6.1-1.4,12.2-2.3,18.3c-0.2,1.4-1.1,3-2.2,4
	c-1.2,1-3,1.7-4.2-0.6c-0.1-0.2-1,0-1.7,0c0.3-3.9-0.1-7.5,2.5-11.1c1.9-2.6,1.4-6.9,2-10.5c0-0.3-0.1-0.6-0.3-0.9
	c-1.8-3.7-3.6-7.4-5.5-11.3c1.1,0.1,1.5,0.1,2.6,0.2c-7.1-8.2-15.3-6.9-23.7-4.2c0.1-1.2,0.2-2.1,0.3-2.9
	c-8.4,0.4-16.4,0.7-24.5,1.1c2.4,6.3,0.7,12.1-0.3,18.1c-0.7-0.6-1.3-1.4-1.6-1.3c-3.8,1.5-4.3-1.2-5-3.8c-0.4-1.4-1-2.6-1.6-4.4
	c-0.4,0.9-0.5,1.3-0.9,2.2c-1.1-1.7-3.2-4.3-2.9-4.7c2.2-2.4-0.6-2.4-1.3-2.9c-3.5-2.6-7.6-2.8-11.7-3.4c-9.3-1.4-18-0.6-25.9,4.8
	c-0.2,0.2-0.3,0.5-0.6,0.9c0.7,0,1.2,0,1.3,0c-3.1,4.5-6.2,9-9.3,13.6c-0.2-0.3-0.4-0.8-0.7-1.3c-0.8,1.8-1.5,3.5-2.6,5.8
	c-1.3-7-6.1-9.2-12-10.6c0.4-0.7,0.8-0.8,1.2-1c2.1-1.3,4.8-2.3,6-4.2c2-3.2,3.2-6.6,1.2-10.9c-1.7-3.5-1.1-8-3.9-11.2
	c-0.1-0.1,0-0.4,0-0.6c0.5,0.2,1,0.5,2.1,1c-3-6-8.1-8.4-13.1-10.1C72.2,10,62.2,10.3,52.5,12c-9.2,1.5-18.4,4-26.3,9.7
	c0.4,0.2,0.9,0.4,1.6,0.8c-7,3.7-11.8,9-14.8,16.3c-0.2-0.8-0.4-1.3-0.6-2C9,43,11,50.2,17.4,54.9c4.4,3.2,11.4,1.3,15.9-4
	c-0.2-1.1-0.6-2-0.4-2.7c1.7-5.1,0.2-9.2-3.6-12.8c3.6-3.8,8.1-4.7,12.9-5.9c-0.2,1.4-0.4,2.3-0.5,3.2c-0.6,6.3-1.3,12.6-1.9,18.9
	c-0.1,0.7-0.6,1.4-0.9,2.1c-1.9-1.5-1.5,0.6-1.6,1.2c-0.3,2.9-0.4,5.8-0.7,8.7c-0.6,5.2-1.1,10.3-1.9,15.5
	c-0.7,4.8-0.9,9.5,0.6,14.2c0.1,0.4,0.3,0.8,0.6,0.9c2.7,1.2,5.4,2.9,8.3,3.3c5.2,0.8,10.6,1.2,15.8,1.1c6.6-0.2,13.3-0.9,19.8-2.1
	c3.5-0.6,6.8-2.3,10-4.1c2.7-1.5,5.9-2.6,5.7-7.3C95.6,82.3,97.9,79.3,99,76.4z M344.2,170.7c0.2-1.9,1.3-4.4,0.5-5.2
	c-1.7-1.9-1.1-3.8-1-5.5c0.2-3.8,0.7-7.7,1.2-11.5c0.4-2.8,0.6-5.6,1.5-8.2c0.4-1.2,2-2,3.1-2.9c0.8,1,2.1,2,2.1,3
	c0.1,3.9,0,7.8-0.3,11.7c-0.4,4.6-0.7,9.2,2.1,13.3c2.9,4.3,11.5,4.9,16.8,1.4c1.7-1.1,3.3-2.4,5-3.5c3.6,5.1,8.4,7,13.4,5.1
	c-4.8-2.9-9.5-5.7-14.4-8.6c1.5-1.4,2.6-2.4,4-3.5c-1.4-0.9-2.5-1.5-3.3-2.1c0-1.5,0-2.7,0-4.4c2.7,2.3,5.9,3.1,7.1,6.6
	c0.6,1.6,2.6,3.1,4.4,3.6c3.8,1.2,7.7,1.8,11.6,2.7c0,0.4,0.1,0.7,0.1,1.1c-2.7,2.1-5.5,4.1-8.6,6.5c4.4,0.2,7.5-1.7,12.1-7.2
	c-0.6-0.2-1.1-0.4-1.6-0.7c3-5.2,2.7-7.4-1.7-10.7c-1.2,1.5-2.3,3.1-3.7,4.5c-0.4,0.5-2,0.7-2.1,0.5c-1-2-3.2-3.6-2.6-6.2
	c0.2-1.1,0.4-2.2,0.6-3.3c0.6-4.1,1.3-8.2,2-12.3c0,0,0.7,0.1,1.2,0.2c0-3.4,0-6.7,0-10.5c-5.6,0.3-11.6,0.6-17.7,0.9
	c0.2,3.3,0.6,6.2,0.6,9.1c0,6.6-2.4,12.7-3.9,19c-0.5,2.2-2.1,3.6-5.1,2.4c0.5-1.3,1.6-2.7,1.2-3.7c-1.4-4.5,2.3-9-0.2-13.5
	c-0.4-0.6-0.1-1.7,0-2.5c0.9-5.8-2.7-10-8.3-11.1c-4.5-0.9-8.3,0.7-12.4,1.5c-1.4,0.3-3.2,1-4.3,0.5c-5.2-2.7-10.4-2.5-15.1-0.8
	c-1.1-0.7-1.8-1.7-2.6-1.6c-5.6,0.1-11.2,0.4-16.8,0.6c1.2,7,0.7,14.2-1.1,18.6c-0.2-0.2-0.3-0.4-0.7-0.8c-0.3,3.4-0.5,6.5-0.8,9.5
	c-0.3,2.5-4.4,5.4-5.5,3.9c-1.1-1.5-2-3.7-1.8-5.4c0.4-4.4,1.6-8.8,2.3-13.2c0.7-4.1,1.1-8.3,1.6-12.4c-4.2-0.3-8.4-0.7-12.5-0.8
	c-2.5-0.1-5.6-1.3-6.6,2.5c-5.5-2.7-10.6-2.6-15.6,0.5c-0.6,0.4-2,0.6-2.4,0.2c-5-4.6-10.1-3.9-15.4-0.8c-0.1,0.1-0.4,0-0.7-0.1
	c0-0.7,0-1.5,0-2.5c-5.6,0.3-11,0.5-16.5,0.9c-0.8,0.1-2,1.5-2,2.3c0.1,2.7,1.3,5.6,0.8,8.2c-0.9,4.2-0.6,8.4-2.3,12.8
	c-2.3,5.9-2.9,13-0.6,19.6c2.6,0,5.3,0,8.6,0c-3.3-2-6-3.6-8.9-5.3c0.6-3.7,1.2-7.7,1.7-11.4c4.3,2.4,8,4.6,11.7,6.7
	c1.9,1,3.3,2,2.8,4.5c-0.4,1.8-0.6,3.7-0.9,5.3c-2.3,0.7-4.5,1.4-7.2,2.2c3.2,0.3,5.8,0.6,8.8,0.9c0.2-4,0.6-7.7,0.6-11.5
	c0-1.2-1-2.3-1-3.5c0.2-4.4,1-8.7,0.9-13.1c0-3.2,1.7-4.9,4.1-6c4.2-1.9,8-0.1,12,1.6c-3.5,5.9-3.6,12.2-3.4,18.5
	c0.4,0,0.7,0.1,1.1,0.1c0-3.5,0-7,0-10.5c0.3-0.1,0.7-0.2,1-0.2c2.6,2.1,6.9,2,7.5,6c0.8-0.2,1.6-0.4,2.4-0.6
	c-0.1,1,0.1,2.1-0.3,2.8c-1.5,2.9-1,5,2.2,5.5c3.3,0.5,6.7-0.2,10.1-0.3c0.9,0,2-0.3,2.6,0.1c4.3,2.7,8.5,5.5,12.8,8.3
	c-2.4,1.3-5.2,1.4-7.7,0.1c-2.4-1.2-4.4-3.3-6.5-5c-1.5,1.7-3.3,3.7-5.2,5.7c0.3,0.3,0.6,0.6,0.9,0.9c1.6-1.1,3.2-2.1,4.8-3.2
	c2.7,4.4,9,5.7,14.7,4.1c1.6-0.5,3.1-1.5,5.4-2.6c-1.1-0.5-1.6-0.8-2.5-1.1c1.5-0.9,2.7-1.6,4.1-2.5c-0.1,1.4-0.2,2.4-0.3,3.6
	c3.5,0,6.8,0,10.9,0c-3.9-2.4-7.1-4.4-10-6.3c1.8-1.4,4.1-2.3,4.2-3.5c0.1-1.3-1.8-2.8-2.8-4.1c-0.3,0.1-0.6,0.2-0.9,0.3
	c0.3-2.1,0.5-4.3,0.8-6.4c2.4,2.3,7.1,1.4,6.2,6.7c0.8-1.4,1.1-2,1.4-2.5c1.7,0.9,3.4,1.7,4.8,2.7c0.8,0.6,2,1.6,2,2.4
	c-0.2,4-0.7,8-1.1,11.9c-1.8,0.1-3.1,0.3-4.4,0.4c0,0.1,0,0.2,0,0.4c1.8,0.2,3.6,0.4,5.8,0.6c0.6-6.4,1.3-12.7,1.9-19.5
	c-0.7,0.6-0.9,0.8-1.3,1.1c-0.2-11.1,0.1-12.1,4.2-15.5c2.5,0.4,3.1,2.4,3.1,4.3c0,2.7-0.5,5.4-0.8,8.1c-0.2,1.9,0.2,4.1-0.7,5.5
	c-3.2,5-1.4,10.7-3,16.1C332.5,170.7,338.1,170.7,344.2,170.7z M209.2,186.2c-1.4-0.9-2.3-1.6-3.2-2.1c-3.6-2.1-7.3-4.3-11-6.3
	c-0.6-0.3-2.4,0.2-2.5,0.5c-0.3,2-0.8,4.3,1.4,5.7C198.5,187.1,203.4,188.5,209.2,186.2z M154.4,167.9c-5.5-3.2-10.7-6.1-15.9-9.1
	C139.1,166.5,147.5,171.4,154.4,167.9z M260.8,158.6c0.1,3.9,2.1,6.8,5.4,8.6c4,2.1,7.8,2.4,10.6,0.6
	C271.6,164.9,266.3,161.8,260.8,158.6z M346.5,62.9c-6-2.6-8.5-0.5-8,6.8C341.4,67.3,343.7,65.3,346.5,62.9z M380.5,72.1
	c-0.3-0.2-0.6-0.3-0.8-0.5c-1.5,1.2-3.1,2.4-4.6,3.6c0.1,0.3,0.2,0.6,0.3,1c1.6-0.2,3.3-0.1,4.6-0.8
	C380.6,75.1,380.4,73.2,380.5,72.1z"/>
<path style="fill:#FFFFFF;" d="M105.1,140.5c4.2-0.1,8.7-1.1,11.3,3.8c1.7,3.2,1.7,6.5-0.6,9c-2.7,3-6.4,4-10.5,1.9
	C105.5,150.4,102.1,145.5,105.1,140.5z"/>
<path style="fill:#FFFFFF;" d="M155.4,156.7c-1.4-5.2-4.5-9.3-2.2-14c0.8-1.8,1.5-3.8,2.8-5.1c1-1,3-1.6,4.4-1.3
	c1.7,0.3,1.8,2,1.2,3.8c-0.7,2.2-1,4.8-0.7,7.1c0.4,3-1.3,5-2.5,7.2C157.8,155.4,156.4,156,155.4,156.7z"/>
<path style="fill:#FFFFFF;" d="M108.6,131.5c-4.7-4.2-1.2-8.9-1.5-13.3c-0.1-1.4,0.4-1.8,2.1-1.4c6.8,1.4,7.1,3.8,6.5,8.4
	C115.2,129.3,111.3,130.1,108.6,131.5z"/>
<path style="fill:#FFFFFF;" d="M204,167.1c-4.1,2.1-8.5,2.7-12.9,0.7c-3.8-1.7-5.7-4.9-5.6-9.2c3.3-1.4,5.2,1.2,7.5,2.4
	C196.6,163,200.2,165,204,167.1z"/>
<path style="fill:#FFFFFF;" d="M102.5,152.9c-1.6,0.9-3,1.8-4.8,2.8c0-1.8,0-3.3,0-5.2C99.3,151.3,100.8,152,102.5,152.9z"/>
<path style="fill:#FFFFFF;" d="M74.4,74.1c-0.2-0.7-0.3-0.9-0.4-1.2c0-0.1-0.2-0.1-0.5-0.3c-3,6.4-8.2,5.5-13.9,4
	c0.2-2.2,0.7-4.5,0.6-6.7c-0.1-2.9-0.8-5.7-1.2-8.5c-0.3-2,0.6-3,2.7-2.8c3.2,0.4,6.9,0,9.6,1.4C76.5,62.8,77.6,68.8,74.4,74.1z
	 M63.4,74.2c2.8,1,5,1.5,6.1-0.7c0.7-1.4,0.6-3.4,0-4.9c-0.2-0.7-3.3-1.2-3.4-0.9C65,69.7,64.3,71.9,63.4,74.2z"/>
<path style="fill:#FFFFFF;" d="M125.6,55.3c3.6,2.9,6.5,5.7,9.8,7.7c2.8,1.8,0.3,3.6,0.5,5.3c0.2,1.6-0.2,3.8-1.3,4.9
	c-2.1,2.2-4.6,4.1-7.3,5.5c-2,1-3.6-0.5-3.9-2.8c-0.3-2,0.1-4.2-0.8-5.8C119.9,64.3,124.6,60.4,125.6,55.3z M126.6,75.1
	c0.3,0.1,0.7,0.2,1,0.3c0.6-1.4,1.4-2.7,1.7-4.1c0.2-0.6-0.5-1.4-0.8-2c-0.6,0.5-1.5,1-1.6,1.6C126.7,72.2,126.7,73.7,126.6,75.1z"
	/>
<path style="fill:#FFFFFF;" d="M416,72.6c-0.2-0.5-0.4-1.1-0.6-1.9c-0.6,1.8-0.8,3.6-1.7,4.8c-0.9,1.2-2.5,1.8-3.8,2.6
	c-0.6-1.3-1.4-2.5-1.7-3.8c-0.5-2.2-0.6-4.5-0.9-6.7c-0.6-4.1,1.3-11.9,5.2-14.1c1-0.6,2.7-0.9,3.6-0.4c1,0.6,2.1,2.2,2,3.3
	c-0.3,5.4-1,10.8-1.6,16.2C416.3,72.6,416.2,72.6,416,72.6z"/>
<path style="fill:#FFFFFF;" d="M241.9,67.3c-0.2,0.4-0.3,0.7-0.5,1.1c-0.2,0-0.4,0-0.6,0c0.1-1.3,0.2-2.6,0.3-3.9
	c0.5-4.2,1.9-7.9,5.2-10.6c1-0.7,2.7-1.2,3.8-0.8c0.8,0.3,1.7,2.1,1.6,3.1c-0.4,5.5-1.2,10.9-1.9,16.3c0,0.3-0.8,0.6-1.8,1.2
	c0-0.2,0,0.4-0.1,0.9c-0.3,2.1-1.5,3.8-3.6,3.4c-0.8-0.1-1.7-2.3-1.9-3.7c-0.3-2.3-0.1-4.6-0.1-6.9
	C242.3,67.4,242.1,67.4,241.9,67.3z"/>
<path style="fill:#FFFFFF;" d="M375.3,95.6c-4.9-0.3-9.8-0.3-14.6-1c-1.9-0.3-3.6-2-5.4-3c-3-1.7-6.1-3.3-9.1-5.2
	c-1.3-0.8-3.5-1.7-2.1-3.7c1.1-1.5,2.1-4.1,5.1-2.6c3,1.5,6.3,2.5,7.8,6c0.2,0.5,1,0.9,1.5,0.9c5.6-0.4,8.7,4.5,13.4,6.1
	c1.2,0.4,2.3,1.1,3.4,1.6C375.3,95.1,375.3,95.4,375.3,95.6z"/>
<path style="fill:#FFFFFF;" d="M417.5,87.9c-0.1,0.1-0.2,0.4-0.3,0.7c-2.4,4.4-4.4,4.7-8.5,2c-5-3.2-10.3-6.1-15.4-9.2
	c-2.1-1.3-4.2-2.5-6.2-3.9c-0.4-0.3-0.4-1.1-0.4-1.7c0-2.2,0-4.3,0-6.8c1.6,1.2,2.7,2.1,3.9,2.8c2.6,1.6,5.4,3,8,4.7
	c0.9,0.6,1.8,2,1.9,3.2c0.5,5.6,3.1,7.6,8.7,6.5C412,85.6,415.2,84.3,417.5,87.9z"/>
<path style="fill:#FFFFFF;" d="M60.6,44.6c0.7-4.8,1.4-9.6,2-14.4c0.1,0,0.3,0,0.4,0c0.1,0.9,0.2,1.7,0.3,2.3c0.7-1.2,2-3.5,2.2-3.4
	c2.1,0.8,4.3,1.8,5.9,3.3c1.1,1.1,1.2,3.2,1.7,5c-0.1,0,0,0,0,0c0.2-0.3,0.4-0.6,1.2-0.7c-0.6,1.6-0.6,4-1.8,4.7
	c-2.7,1.7-5.9,2.7-9,3.8c-0.5,0.2-1.3-0.7-2-1C61.3,44.4,61,44.5,60.6,44.6z"/>
<path style="fill:#FFFFFF;" d="M179.7,87c0,2.6,0,5.1,0,8.1c-6.5-3.8-12.5-7.4-18.7-11.1c0.3-2.4,0.6-5,0.8-7.6
	C167.9,80.1,173.8,83.5,179.7,87z"/>
<path style="fill:#FFFFFF;" d="M38.5,69.7c3.1,2,5.9,4.5,9.1,5.7c3.2,1.2,4.3,3.3,4.9,6.3c0.2,1.1,0.7,2.2,1.3,3.9
	c-0.6,0.2-1.8,1.1-2.5,0.8c-4.2-1.7-8.4-3.7-12.5-5.8c-0.7-0.3-1.4-1.6-1.3-2.4C37.7,75.3,38.2,72.4,38.5,69.7z"/>
<path style="fill:#FFFFFF;" d="M301.1,87c-0.3,2.3-0.5,5-0.8,7.8c-5.2-3.1-10.2-6-15.1-8.9c1-2.1,1.8-4,2.8-6.1
	C292,82.1,296.4,84.5,301.1,87z"/>
<path style="fill:#FFFFFF;" d="M116.9,86.8c-5.1-2.9-9.9-5.6-14.8-8.5c0-2.3,0-4.8,0-7.6c3.6,2.1,7.1,4.2,10.6,6.3
	c1.8,1,2.6,2.3,2.6,4.5C115.3,83.1,116.2,84.7,116.9,86.8z"/>
<path style="fill:#FFFFFF;" d="M118.2,87.4c8,0.7,15.9-0.7,22.1,6.2c-3,0.6-6.1,1.9-9,1.6c-2.5-0.3-4.8-2.5-7.1-3.9
	C122.3,90.1,120.5,88.9,118.2,87.4z"/>
<path style="fill:#FFFFFF;" d="M220.4,76.4c0-1.4,0-3.8,0-6.8c4.1,2.3,8,4.3,11.8,6.7c0.6,0.4,0.2,2.2,0.2,3.3
	c-1.6,0-3.3,0.3-4.7-0.1C225.4,78.9,223.3,77.7,220.4,76.4z"/>
<path style="fill:#FFFFFF;" d="M241.9,88.8c0.5-0.2,1.1-0.4,1.9-0.7c-0.8-0.5-1.3-0.9-2-1.3c0.6-0.1,1.2-0.2,1.7-0.3
	c2.3-0.4,4.8-2.3,6.8,0.4c0.4,0.6,0.6,2,0.2,2.5C247.8,93.2,245,93,241.9,88.8z"/>
<path style="fill:#FFFFFF;" d="M253.4,88.4c4.1,2.4,8.3,4.8,11.8,6.8C259.7,96.1,255.4,93.8,253.4,88.4z"/>
<path style="fill:#FFFFFF;" d="M419.8,88.9c4,2.2,8.2,4.4,11.8,6.4C426.7,96.6,420.1,93.1,419.8,88.9z"/>
<path style="fill:#FFFFFF;" d="M57.3,86.3c3.1,0,6.3,0,9.4,0c0,0.1,0,0.2-0.1,0.3c-3.1,0-6.3,0-9.4,0C57.3,86.5,57.3,86.4,57.3,86.3
	z"/>
<path style="fill:#FFFFFF;" d="M277.4,157.2c-0.4-2.9,0-5.1-0.9-6.2c-2.8-3.5-0.5-6.7,0.3-9.8c0.4-1.7,2-3.3,3.4-4.5
	c0.7-0.6,2.5-0.6,3.4-0.1c0.6,0.4,0.7,2,0.7,3.1c-0.1,2.7-0.7,5.4-0.6,8.1c0.1,2.6-0.3,4.8-2.3,6.6
	C280.2,155.2,279.1,155.9,277.4,157.2z"/>
<path style="fill:#FFFFFF;" d="M343.3,168c-5.4,0-10.3,0-15.7,0c0.4-2.8,0.8-5.4,1.2-8.1C333.7,162.6,338.2,165.1,343.3,168z"/>
</svg>
